<svg
        width="69"
        height="58"
        viewBox="0 0 69 58"
        fill="none"
        xmlns="http://www.w3.org/2000/svg"
      >
        <path
          fillRule="evenodd"
          clipRule="evenodd"
          d="M24.9003 0.519004C10.1109 10.1045 1.89481 21.2609 0.25186 33.9886C-2.30583 53.8027 15.2519 63.5012 24.1482 54.7872C33.0445 46.0734 27.7117 35.0127 21.2699 31.9894C14.8281 28.9659 10.8887 30.0189 11.5758 25.9788C12.263 21.9386 21.4278 10.7368 29.4794 5.52001C30.0136 5.06157 30.2168 4.17206 29.7025 3.49739C29.3641 3.05343 28.7005 2.18304 27.7117 0.885969C26.847 -0.248242 26.0186 -0.205808 24.9003 0.519004Z"
          fill="#2D969B"
        />
        <path
          fillRule="evenodd"
          clipRule="evenodd"
          d="M63.9002 0.519004C49.111 10.1045 40.8948 21.2609 39.2518 33.9886C36.6943 53.8027 54.2519 63.5012 63.1482 54.7872C72.0445 46.0734 66.7117 35.0127 60.2699 31.9894C53.8281 28.9659 49.8885 30.0189 50.5759 25.9788C51.2631 21.9386 60.4278 10.7368 68.4794 5.52001C69.0136 5.06157 69.2169 4.17206 68.7023 3.49739C68.3641 3.05343 67.7005 2.18304 66.7117 0.885969C65.847 -0.248242 65.0186 -0.205808 63.9002 0.519004Z"
          fill="#2D969B"
        />
      </svg>