<svg width="18" height="18" viewBox="0 0 18 18" fill="none" xmlns="http://www.w3.org/2000/svg">
<path d="M13.6612 1.92857C13.7374 1.92851 13.8126 1.94654 13.8806 1.98118C13.9485 2.01583 14.0073 2.0661 14.052 2.12786L14.0867 2.18379L16.6627 7.01357L16.6903 7.07914L16.6974 7.10357L16.7083 7.15307L16.7147 7.20965L16.7134 7.27393L16.7147 7.23214C16.7149 7.29753 16.7018 7.36227 16.6762 7.42243L16.6569 7.461L16.6312 7.50343L16.5977 7.54779L9.38552 15.8818C9.32382 15.9643 9.23659 16.0242 9.13737 16.0521L9.10009 16.0611L9.03773 16.0701L8.9998 16.0714L8.93551 16.0669L8.88023 16.0566L8.81401 16.0348L8.7973 16.0271C8.73782 16.0006 8.68476 15.9615 8.64173 15.9126L1.39609 7.53815L1.35623 7.48222L1.32537 7.42243L1.30287 7.35815L1.28809 7.27457V7.19229L1.29773 7.12864L1.30416 7.10293L1.32537 7.04186L1.34337 7.00522L3.9148 2.18379C3.95064 2.11659 4.00189 2.05883 4.06435 2.01525C4.12682 1.97167 4.19871 1.94351 4.27416 1.93307L4.33909 1.92857H13.6612ZM11.5114 7.71429H6.48751L9.00109 14.2457L11.5114 7.71429ZM5.45573 7.71429H2.82194L7.56173 13.1901L5.45509 7.71429H5.45573ZM15.177 7.71429H12.5458L10.4417 13.1856L15.1777 7.71429H15.177ZM6.44444 2.89222H4.62837L2.57123 6.75H5.41523L6.44444 2.89222ZM10.5587 2.89222H7.44216L6.41359 6.75H11.5867L10.5587 2.89222ZM13.3719 2.89222H11.5558L12.585 6.75H15.4284L13.3719 2.89222Z" fill="white"/>
</svg>
