<svg width="28" height="28" viewBox="0 0 32 32" fill="none" xmlns="http://www.w3.org/2000/svg">
<path d="M22.1149 5.01505C20.9419 3.6703 20.2367 1.91687 20.2367 0H18.7669C19.1455 2.0952 20.3927 3.89322 22.1149 5.01505Z" />
<path d="M8.51487 15.8476C5.96861 15.8476 3.89746 17.9206 3.89746 20.469C3.89746 22.2447 4.90705 23.7901 6.3769 24.5628C5.82757 23.8049 5.50093 22.8762 5.50093 21.8658C5.50093 19.3174 7.57209 17.2444 10.1184 17.2444C10.5935 17.2444 11.0537 17.3261 11.4843 17.4599V11.8431C11.0388 11.7836 10.586 11.7464 10.1184 11.7464C10.0367 11.7464 9.96246 11.7538 9.88079 11.7538V16.0631C9.44281 15.9293 8.98997 15.8476 8.51487 15.8476Z" />
<path d="M26.2792 7.48173V11.7538C23.4286 11.7538 20.7858 10.84 18.6329 9.29458V20.4764C18.6329 26.0561 14.0973 30.6032 8.51475 30.6032C6.36193 30.6032 4.35759 29.9196 2.717 28.768C4.56544 30.7517 7.20079 32 10.1183 32C15.6933 32 20.2365 27.4604 20.2365 21.8732V10.6914C22.3893 12.2368 25.032 13.1506 27.8827 13.1506V7.65268C27.3259 7.65268 26.7914 7.59318 26.2792 7.48173Z" />
<path d="M18.6329 20.4764V9.29458C20.7858 10.84 23.4286 11.7538 26.2792 11.7538V7.48173C24.6312 7.13262 23.1838 6.24101 22.1149 5.01505C20.3926 3.89322 19.1527 2.0952 18.7592 0H14.7356L14.7282 22.044C14.6392 24.5107 12.6051 26.4945 10.1183 26.4945C8.57414 26.4945 7.21564 25.7292 6.36937 24.5702C4.89951 23.7901 3.88992 22.2522 3.88992 20.4764C3.88992 17.928 5.96107 15.8551 8.50733 15.8551C8.98243 15.8551 9.44269 15.9368 9.87326 16.0705V11.7613C4.40956 11.8801 0 16.3677 0 21.8732C0 24.533 1.03187 26.9552 2.717 28.768C4.35759 29.9196 6.36193 30.6032 8.51475 30.6032C14.0898 30.6032 18.6329 26.0561 18.6329 20.4764Z" />
</svg>
