<svg width="35" height="32" viewBox="0 0 35 32" fill="none" xmlns="http://www.w3.org/2000/svg">
<path d="M36.9123 3.55208C35.5549 4.15357 34.0967 4.55999 32.5637 4.74369C34.1276 3.80731 35.3273 2.32145 35.893 0.552726C34.4299 1.42083 32.8092 2.05159 31.0843 2.38973C29.7025 0.920126 27.7355 0 25.5571 0C21.3759 0 17.9847 3.39113 17.9847 7.57559C17.9847 8.16734 18.053 8.74282 18.1798 9.2988C11.8836 8.98179 6.30595 5.96619 2.57017 1.38507C1.91991 2.50677 1.54601 3.80731 1.54601 5.19237C1.54601 7.81944 2.88393 10.1393 4.91438 11.4967C3.67237 11.4561 2.50515 11.1163 1.48423 10.5489V10.6465C1.48423 14.3156 4.09342 17.3767 7.55934 18.0725C6.92208 18.2448 6.25393 18.3359 5.56465 18.3359C5.07695 18.3359 4.60063 18.2903 4.13894 18.2026C5.10296 21.21 7.8991 23.4014 11.2138 23.46C8.6209 25.492 5.35494 26.7032 1.80774 26.7032C1.19649 26.7032 0.593367 26.6674 0 26.5975C3.35212 28.7482 7.33174 30 11.6072 30C25.5392 30 33.1554 18.461 33.1554 8.45345C33.1554 8.12832 33.1473 7.79994 33.1327 7.4748C34.612 6.40512 35.8963 5.0737 36.9091 3.55695L36.9123 3.55208Z" fill="white"/>
</svg>
