<svg width="24" height="24" viewBox="0 0 24 24" fill="none" xmlns="http://www.w3.org/2000/svg">
<circle cx="12" cy="12" r="11.5" fill="white" stroke="#A7236F"/>
<path fill-rule="evenodd" clip-rule="evenodd" d="M7.24975 7.71035C6.38047 7.71035 5.67578 8.36822 5.67578 9.17974V15.0573C5.67578 15.8688 6.38047 16.5267 7.24975 16.5267H16.6936C17.5629 16.5267 18.2676 15.8688 18.2676 15.0573V9.17974C18.2676 8.36822 17.5629 7.71035 16.6936 7.71035H15.4456C15.2369 7.71035 15.0367 7.63295 14.8891 7.49517L14.0067 6.67134C13.7115 6.39577 13.3111 6.24097 12.8937 6.24097H11.0497C10.6322 6.24097 10.2319 6.39577 9.93669 6.67134L9.05422 7.49517C8.90664 7.63295 8.70646 7.71035 8.49775 7.71035H7.24975ZM11.9717 14.3226C13.2756 14.3226 14.3326 13.3358 14.3326 12.1185C14.3326 10.9012 13.2756 9.91444 11.9717 9.91444C10.6678 9.91444 9.61071 10.9012 9.61071 12.1185C9.61071 13.3358 10.6678 14.3226 11.9717 14.3226Z" fill="#A7236F"/>
</svg>
