<svg width="86" height="78" viewBox="0 0 86 78" fill="none" xmlns="http://www.w3.org/2000/svg">
<path fill-rule="evenodd" clip-rule="evenodd" d="M74.7044 1.58436C73.381 0.260941 71.238 0.260941 69.9146 1.58436C68.5911 2.90779 68.5911 5.05082 69.9146 6.37425L72.6178 9.07749L69.9146 11.7807C68.5911 13.1041 68.5911 15.2472 69.9146 16.5706C71.238 17.894 73.381 17.894 74.7044 16.5706L77.4077 13.8674L80.1109 16.5706C81.4344 17.894 83.5774 17.894 84.9008 16.5706C86.2242 15.2472 86.2242 13.1041 84.9008 11.7807L82.1976 9.07749L84.9008 6.37425C86.2242 5.05082 86.2242 2.90779 84.9008 1.58436C83.5774 0.260941 81.4344 0.260941 80.1109 1.58436L77.4077 4.2876L74.7044 1.58436Z" fill="#9395C2" fill-opacity="0.4"/>
<path d="M30.3549 17.2236C13.7695 17.2236 0.275024 30.7138 0.275024 47.2993C0.275024 63.8847 13.7695 77.3792 30.3549 77.3792C46.9404 77.3792 60.4306 63.8847 60.4306 47.2993C60.4263 30.7138 46.9361 17.2236 30.3549 17.2236ZM30.3549 71.4466C17.0109 71.4466 6.2033 60.6347 6.2033 47.2993C6.2033 33.9638 17.0152 23.1519 30.3549 23.1519C43.6904 23.1519 54.5023 33.9638 54.5023 47.2993C54.5023 60.6347 43.6904 71.4466 30.3549 71.4466Z" fill="#B8E3DB" fill-opacity="0.6"/>
</svg>
