<svg width="14" height="16" viewBox="0 0 14 16" fill="none" xmlns="http://www.w3.org/2000/svg">
<path d="M7.2 2.18182C7.2 1.45882 6.66272 0.872727 6 0.872727C5.33726 0.872727 4.8 1.45882 4.8 2.18182H4C4 0.976835 4.89543 0 6 0C7.10456 0 8 0.976835 8 2.18182H11.6C11.8209 2.18182 12 2.37719 12 2.61818C12 2.85918 11.8209 3.05455 11.6 3.05455H11.1568L10.1199 12.8546C10.0268 13.7353 9.3432 14.4 8.53048 14.4H3.4695C2.6568 14.4 1.9732 13.7353 1.88005 12.8546L0.8424 3.05455H0.4C0.203632 3.05455 0.040312 2.90018 0.00644798 2.69662L0 2.61818C0 2.37719 0.179088 2.18182 0.4 2.18182H7.2ZM10.3504 3.05455H1.6488L2.67478 12.7546C2.72135 13.1949 3.06315 13.5273 3.4695 13.5273H8.53048C8.93688 13.5273 9.27864 13.1949 9.3252 12.7546L10.3504 3.05455ZM4.8 5.23636C4.99637 5.23636 5.15969 5.37144 5.19355 5.54955L5.2 5.61818V10.9636C5.2 11.1745 5.02091 11.3455 4.8 11.3455C4.60363 11.3455 4.44031 11.2104 4.40645 11.0322L4.4 10.9636V5.61818C4.4 5.40731 4.57909 5.23636 4.8 5.23636ZM7.2 5.23636C7.3964 5.23636 7.55968 5.37144 7.59352 5.54955L7.6 5.61818V10.9636C7.6 11.1745 7.42088 11.3455 7.2 11.3455C7.0036 11.3455 6.84032 11.2104 6.80648 11.0322L6.8 10.9636V5.61818C6.8 5.40731 6.97912 5.23636 7.2 5.23636Z" fill="#FF0000"/>
</svg>
