<svg width="113" height="148" viewBox="0 0 113 148" fill="none" xmlns="http://www.w3.org/2000/svg">
<path fill-rule="evenodd" clip-rule="evenodd" d="M-4.10324 99.0425C-4.62208 99.2004 -4.21603 99.5764 -4.29875 99.8471C-4.98302 99.3583 -6.08837 100.629 -6.66737 99.6967C-5.65977 99.1628 -5.01309 99.6817 -4.64464 98.9222C-4.47169 98.5613 -4.65216 96.14 -5.10333 95.5685C-5.4417 95.1324 -6.23876 95.2076 -6.47187 94.8091C-7.0659 93.8015 -6.50194 92.1923 -7.19373 91.3877C-6.11093 90.8538 -6.62977 89.9214 -6.50946 89.1544C-5.4417 88.7634 -5.41914 87.8385 -4.82511 87.4475C-4.32882 87.1242 -3.15579 87.801 -3.06556 86.6054C-2.44144 86.5527 -1.93764 87.0114 -1.36616 87.1543C-0.809724 86.8159 -1.12554 86.2745 -0.508946 85.9512C-0.320961 86.3723 -0.899958 86.6129 -0.501427 87.0866C-0.388635 87.2069 -0.230727 87.1543 -0.132974 87.3197C0.521217 87.1016 0.34827 86.6881 0.927267 86.4474C1.80704 86.7181 0.701684 87.4626 0.701684 87.9438C0.701684 88.3499 1.29572 89.568 1.17541 89.4703C1.53634 89.756 1.81456 89.4627 2.20557 89.2973C2.39356 88.9213 1.78448 88.3424 2.62666 88.1318C2.76953 88.5905 2.84473 89.0341 3.26581 89.5605C3.66434 88.9965 3.94256 88.4025 3.98768 87.7558C4.64187 88.1619 5.22839 88.8311 5.99537 88.8086C6.25103 89.6582 4.64187 89.1695 5.40134 90.0793C4.96521 90.5155 4.85242 89.6282 4.37117 90.2523C4.25838 90.9591 4.74715 91.6058 4.65691 92.5758C4.8449 92.9518 5.28854 92.2976 5.5818 92.2374C5.67204 92.4028 5.46149 92.4931 5.3487 92.6059C5.01033 93.5608 5.46901 94.4557 4.63435 95.5385C5.4239 96.0799 5.22087 96.1776 5.37878 97.1326C5.01033 97.1927 5.16823 96.8468 5.078 96.6363C4.96521 97.501 3.37109 98.7643 4.00272 99.3358C3.9952 100.396 2.371 99.5764 2.81465 100.742C2.6041 100.84 2.49131 100.524 2.34092 100.351C1.12277 101.802 -0.403675 101.276 -1.94516 101.148C-1.91508 99.8471 -2.464 99.7945 -3.26106 98.9974C-3.90022 99.223 -3.05804 99.802 -3.78742 99.9975C-4.26867 99.5613 -4.11076 99.5764 -4.10324 99.0425Z" fill="#DFACAA" fill-opacity="0.2"/>
<path fill-rule="evenodd" clip-rule="evenodd" d="M8.39465 92.3343C10.1016 91.8831 10.2745 90.7702 12.1243 92.1087C11.5979 92.9283 11.8085 93.1464 11.6731 93.9735C11.6957 93.8382 11.3498 94.6803 11.5453 94.5074C10.0414 95.8759 8.44728 93.763 8.39465 92.3343Z" fill="#DFACAA" fill-opacity="0.2"/>
<path fill-rule="evenodd" clip-rule="evenodd" d="M8.95841 91.7636C8.68019 91.4553 8.8005 91.2599 8.71779 90.9967C8.97345 90.7711 9.58252 91.7486 8.95841 91.7636Z" fill="#DFACAA" fill-opacity="0.2"/>
<path fill-rule="evenodd" clip-rule="evenodd" d="M20.9228 104.689C21.0807 105.058 20.8627 105.328 20.8326 105.652C19.9754 105.78 20.013 104.471 20.9228 104.689Z" fill="#DFACAA" fill-opacity="0.2"/>
<path fill-rule="evenodd" clip-rule="evenodd" d="M16.6804 97.7332C16.6278 97.4851 16.6879 97.2595 16.9737 97.1016C17.2895 97.5377 17.0714 97.8234 16.6804 97.7332Z" fill="#DFACAA" fill-opacity="0.2"/>
<path fill-rule="evenodd" clip-rule="evenodd" d="M19.8766 102.598C20.1247 102.546 20.3428 102.606 20.5082 102.892C20.2074 103.185 20.0495 102.854 19.8766 102.598Z" fill="#DFACAA" fill-opacity="0.2"/>
<path fill-rule="evenodd" clip-rule="evenodd" d="M11.8591 87.9512C12.2276 88.0489 12.9118 87.8986 13.1901 88.2745C14.4834 90.019 10.7162 90.4175 11.8591 87.9512Z" fill="#DFACAA" fill-opacity="0.2"/>
<path fill-rule="evenodd" clip-rule="evenodd" d="M24.1487 108.862C23.8931 108.945 23.7577 108.531 23.5773 108.298C23.7427 108.2 23.9081 108.095 24.0735 107.997C24.5849 108.403 24.0585 108.554 24.1487 108.862Z" fill="#DFACAA" fill-opacity="0.2"/>
<path fill-rule="evenodd" clip-rule="evenodd" d="M16.3352 95.6744C14.7712 94.148 17.9068 93.0201 18.0947 94.8323C18.1925 95.7872 16.9217 96.2459 16.3352 95.6744Z" fill="#DFACAA" fill-opacity="0.2"/>
<path fill-rule="evenodd" clip-rule="evenodd" d="M35.1563 121.698C35.1488 121.051 35.818 120.42 36.6075 120.36C36.5699 120.683 36.8181 121.074 36.7805 121.39C35.9233 121.939 35.9985 121.63 35.1563 121.698Z" fill="#DFACAA" fill-opacity="0.2"/>
<path fill-rule="evenodd" clip-rule="evenodd" d="M30.3746 113.479C30.6528 113.502 30.9536 113.426 31.307 113.141C31.7356 113.893 30.7431 114.69 30.3746 113.479Z" fill="#DFACAA" fill-opacity="0.2"/>
<path fill-rule="evenodd" clip-rule="evenodd" d="M34.5988 119.308C34.1326 118.804 34.8169 118.361 35.2305 118.466C35.2756 119.03 35.2004 119.203 34.5988 119.308Z" fill="#DFACAA" fill-opacity="0.2"/>
<path fill-rule="evenodd" clip-rule="evenodd" d="M27.8688 107.501C26.8011 105.877 29.6133 106.561 27.8688 107.501V107.501Z" fill="#DFACAA" fill-opacity="0.2"/>
<path fill-rule="evenodd" clip-rule="evenodd" d="M21.6737 96.9676C21.0646 97.1179 21.591 96.4111 21.433 96.2006C22.0346 96.0577 21.5082 96.7645 21.6737 96.9676Z" fill="#DFACAA" fill-opacity="0.2"/>
<path fill-rule="evenodd" clip-rule="evenodd" d="M26.1389 103.553C26.4848 103.598 26.6502 103.486 26.5374 103.087C27.0788 102.974 27.4397 103.643 27.9736 103.576C28.327 104.072 27.9285 104.463 27.4473 104.576C28.0262 104.448 26.3569 104.2 26.6502 104.38C26.402 104.23 26.3644 103.741 26.1389 103.553Z" fill="#DFACAA" fill-opacity="0.2"/>
<path fill-rule="evenodd" clip-rule="evenodd" d="M30.1415 108.621C29.931 108.712 29.8182 108.403 29.6753 108.223C30.0212 107.975 30.2844 108.035 30.4724 108.418C30.2618 108.403 30.0513 108.396 30.1415 108.621Z" fill="#DFACAA" fill-opacity="0.2"/>
<path fill-rule="evenodd" clip-rule="evenodd" d="M40.7445 126.015C40.3309 125.098 41.2783 124.526 41.9024 125.308C41.6167 125.88 41.4889 125.985 40.7445 126.015Z" fill="#DFACAA" fill-opacity="0.2"/>
<path fill-rule="evenodd" clip-rule="evenodd" d="M33.9069 109.961C34.8769 109.856 34.922 110.104 35.2379 109.149C35.2755 109.706 36.2003 110.774 36.847 110.668C36.5237 111.435 38.3133 112.999 37.6366 113.826C37.8321 113.586 36.3432 114.375 36.3733 114.368C36.3658 114.368 34.4333 114.353 34.2754 114.285C33.0196 113.691 33.4257 113.06 33.6588 112.165C33.8618 111.375 33.7039 110.608 33.9069 109.961Z" fill="#DFACAA" fill-opacity="0.2"/>
<path fill-rule="evenodd" clip-rule="evenodd" d="M21.7877 94.1694C21.7125 93.9138 21.9231 93.7333 21.8178 93.4701C22.269 93.2821 22.2163 94.1093 21.7877 94.1694Z" fill="#DFACAA" fill-opacity="0.2"/>
<path fill-rule="evenodd" clip-rule="evenodd" d="M25.0815 99.2004C25.3973 99.0125 26.1417 97.6439 26.1718 97.6289C25.9688 97.7116 27.3674 97.9673 26.8711 97.659C28.187 98.4861 28.1795 100.125 26.5252 100.817C25.9838 100.509 25.495 100.035 25.0815 99.2004Z" fill="#DFACAA" fill-opacity="0.2"/>
<path fill-rule="evenodd" clip-rule="evenodd" d="M32.8181 111.532C33.1264 111.238 33.2768 111.577 33.4498 111.825C33.2091 111.878 32.9836 111.817 32.8181 111.532Z" fill="#DFACAA" fill-opacity="0.2"/>
<path fill-rule="evenodd" clip-rule="evenodd" d="M38.3967 118.811C38.1862 118.57 38.3817 118.427 38.2613 118.209C38.5396 117.954 38.9607 118.818 38.3967 118.811Z" fill="#DFACAA" fill-opacity="0.2"/>
<path fill-rule="evenodd" clip-rule="evenodd" d="M18.5003 86.1685C17.2596 84.627 18.2146 83.8525 19.6132 83.8976C20.2223 85.2962 19.6959 86.1083 18.5003 86.1685Z" fill="#DFACAA" fill-opacity="0.2"/>
<path fill-rule="evenodd" clip-rule="evenodd" d="M44.239 127.293C44.1036 127.067 43.9683 126.849 43.8329 126.631C44.3518 125.646 45.427 126.744 44.239 127.293Z" fill="#DFACAA" fill-opacity="0.2"/>
<path fill-rule="evenodd" clip-rule="evenodd" d="M32.4258 107.908C32.0122 107.381 31.8994 106.93 32.5837 106.675C32.7491 106.953 32.9221 107.231 33.0875 107.502C32.8694 107.637 32.6514 107.772 32.4258 107.908Z" fill="#DFACAA" fill-opacity="0.2"/>
<path fill-rule="evenodd" clip-rule="evenodd" d="M45.7795 129.076C45.3133 128.632 46.0051 128.474 45.8698 128.114C46.4337 128.031 46.4262 128.978 45.7795 129.076Z" fill="#DFACAA" fill-opacity="0.2"/>
<path fill-rule="evenodd" clip-rule="evenodd" d="M40.2317 119.961C40.4798 119.908 40.6979 119.968 40.8633 120.254C40.555 120.547 40.4046 120.216 40.2317 119.961Z" fill="#DFACAA" fill-opacity="0.2"/>
<path fill-rule="evenodd" clip-rule="evenodd" d="M18.372 82.6127C18.0713 81.9285 18.9285 81.5224 18.9285 80.9133C19.1616 81.5525 19.3947 82.7255 18.372 82.6127Z" fill="#DFACAA" fill-opacity="0.2"/>
<path fill-rule="evenodd" clip-rule="evenodd" d="M33.7485 107.096C34.1621 106.908 34.3952 107.307 34.32 107.653C33.9064 107.848 33.6733 107.45 33.7485 107.096Z" fill="#DFACAA" fill-opacity="0.2"/>
<path fill-rule="evenodd" clip-rule="evenodd" d="M43.413 122.571C43.5183 122.504 43.6311 122.436 43.7439 122.368C44.3981 123.075 43.0446 123.21 43.413 122.571Z" fill="#DFACAA" fill-opacity="0.2"/>
<path fill-rule="evenodd" clip-rule="evenodd" d="M38.5255 114.187C38.0668 113.653 38.2322 113.262 38.1495 112.826C38.6533 112.638 38.6383 112.706 39.3451 112.548C39.473 113.623 39.7136 113.879 38.5255 114.187Z" fill="#DFACAA" fill-opacity="0.2"/>
<path fill-rule="evenodd" clip-rule="evenodd" d="M31.6607 102.922C31.3824 102.621 31.5103 102.418 31.42 102.155C32.4953 102.012 32.2923 101.298 33.0743 101.147C33.4954 101.531 33.1044 101.719 33.4202 102.08C32.4878 102.471 32.4126 102.809 31.6607 102.922Z" fill="#DFACAA" fill-opacity="0.2"/>
<path fill-rule="evenodd" clip-rule="evenodd" d="M25.2595 92.05C24.5602 91.644 25.0038 90.2378 25.7182 90.1852C27.3349 90.0499 26.8837 92.99 25.2595 92.05Z" fill="#DFACAA" fill-opacity="0.2"/>
<path fill-rule="evenodd" clip-rule="evenodd" d="M27.7783 95.0642C27.079 95.1469 27.876 94.4476 27.4399 94.1318C28.064 94.0265 27.7031 94.8311 27.7783 95.0642Z" fill="#DFACAA" fill-opacity="0.2"/>
<path fill-rule="evenodd" clip-rule="evenodd" d="M51.6386 133.466C51.571 133.06 51.8567 132.518 52.2628 132.631C52.4207 132.481 52.1725 132.233 52.3906 132.097C51.4431 130.857 53.6012 132.94 52.8267 132.06C53.3832 132.691 53.7967 132.977 53.6689 133.819C52.8117 133.488 52.4733 134.233 51.6386 133.466Z" fill="#DFACAA" fill-opacity="0.2"/>
<path fill-rule="evenodd" clip-rule="evenodd" d="M26.7937 92.7036C26.6433 91.6133 27.3501 92.8766 27.8238 92.5307C27.8765 92.6886 27.7561 92.8014 27.8614 92.9593C27.3576 93.4856 27.2674 92.3051 26.7937 92.7036Z" fill="#DFACAA" fill-opacity="0.2"/>
<path fill-rule="evenodd" clip-rule="evenodd" d="M46.9245 124.977C46.4132 124.39 47.2854 124.007 47.5862 124.571C47.3682 124.706 47.1426 124.842 46.9245 124.977Z" fill="#DFACAA" fill-opacity="0.2"/>
<path fill-rule="evenodd" clip-rule="evenodd" d="M39.6824 112.344C40.4794 112.239 40.5772 112.006 41.2088 111.87C41.5773 112.57 41.6675 113.201 41.457 113.765C40.69 113.871 39.7425 113.427 39.6824 112.344Z" fill="#DFACAA" fill-opacity="0.2"/>
<path fill-rule="evenodd" clip-rule="evenodd" d="M58.6543 142.363C59.3912 142.611 60.3913 141.792 61.0831 142.243C61.3011 143.754 58.7746 144.453 58.6543 142.363Z" fill="#DFACAA" fill-opacity="0.2"/>
<path fill-rule="evenodd" clip-rule="evenodd" d="M49.4288 126.857C49.4363 126.669 49.4363 126.481 49.2935 126.263C49.5717 126.082 49.7973 126.128 49.9928 126.293C50.0905 125.842 50.1281 125.383 49.7822 124.834C51.2937 124.879 50.6921 123.097 52.0381 123.684C52.2261 123.766 52.4892 123.488 52.6396 123.548C52.8577 123.646 52.963 124.21 53.1434 124.376C53.4292 124.646 54.527 124.661 54.0533 125.864C54.0232 125.917 52.7599 127.383 52.9254 127.007C52.9329 126.992 52.8502 127.496 52.963 127.436C52.8502 127.496 51.4215 127.466 50.865 127.353C50.4139 127.255 49.9251 126.594 49.4288 126.857Z" fill="#DFACAA" fill-opacity="0.2"/>
<path fill-rule="evenodd" clip-rule="evenodd" d="M52.1439 129.068C52.6552 129.151 52.392 128.745 52.9033 128.828C53.2868 128.316 52.2792 128.346 52.565 127.895C53.8658 127.677 54.7832 128.632 55.0088 130.038C54.896 130.354 54.4749 129.715 54.2042 129.843C54.0463 129.918 54.2568 130.241 54.0764 130.377C53.174 131.076 51.8732 130.723 52.1439 129.068Z" fill="#DFACAA" fill-opacity="0.2"/>
<path fill-rule="evenodd" clip-rule="evenodd" d="M46.4815 118.66C45.301 118.202 46.9553 117.487 46.4815 118.66V118.66Z" fill="#DFACAA" fill-opacity="0.2"/>
<path fill-rule="evenodd" clip-rule="evenodd" d="M41.9695 111.629C41.7965 111.065 42.0597 110.614 42.7289 110.261C43.1801 110.531 43.6313 110.817 44.0298 111.283C43.4734 110.885 42.5184 112.095 41.9695 111.629Z" fill="#DFACAA" fill-opacity="0.2"/>
<path fill-rule="evenodd" clip-rule="evenodd" d="M60.0382 140.159C60.2036 140.061 60.3691 139.956 60.5345 139.858C61.2413 140.295 61.0383 140.859 61.7752 141.144C61.7602 141.656 61.2413 141.182 61.3767 141.61C61.0984 140.866 60.1284 141.024 60.0382 140.159Z" fill="#DFACAA" fill-opacity="0.2"/>
<path fill-rule="evenodd" clip-rule="evenodd" d="M57.5785 135.745C57.789 135.76 57.9921 135.768 57.9093 135.542C58.6763 136.271 58.2552 134.903 58.9094 136.068C58.4056 135.948 58.6688 136.347 58.0823 136.572C57.7364 136.489 57.4958 136.098 57.5785 135.745Z" fill="#DFACAA" fill-opacity="0.2"/>
<path fill-rule="evenodd" clip-rule="evenodd" d="M25.5983 82.5296C25.9517 82.2439 26.2525 82.1687 26.5307 82.1912C26.7111 82.6123 26.8991 83.0334 26.275 83.259C26.0118 83.1462 25.7787 82.9507 25.5983 82.5296Z" fill="#DFACAA" fill-opacity="0.2"/>
<path fill-rule="evenodd" clip-rule="evenodd" d="M55.45 131.143C55.856 130.827 56.1342 131.037 56.3523 131.504C56.0214 131.504 55.6304 131.759 55.45 131.143Z" fill="#DFACAA" fill-opacity="0.2"/>
<path fill-rule="evenodd" clip-rule="evenodd" d="M56.4825 130.962C56.1291 130.143 57.5653 130.488 56.4825 130.962V130.962Z" fill="#DFACAA" fill-opacity="0.2"/>
<path fill-rule="evenodd" clip-rule="evenodd" d="M55.7756 129.804C55.723 129.556 55.7831 129.338 56.0689 129.173C56.3772 129.616 56.1591 129.895 55.7756 129.804Z" fill="#DFACAA" fill-opacity="0.2"/>
<path fill-rule="evenodd" clip-rule="evenodd" d="M50.9913 121.586C50.683 121.225 51.074 121.037 50.6529 120.653C50.9838 120.134 51.7658 120.593 51.6455 120.052C52.6306 120.353 51.9012 122.112 50.9913 121.586Z" fill="#DFACAA" fill-opacity="0.2"/>
<path fill-rule="evenodd" clip-rule="evenodd" d="M48.9245 116.706C48.526 115.036 50.6314 116.608 48.9245 116.706V116.706Z" fill="#DFACAA" fill-opacity="0.2"/>
<path fill-rule="evenodd" clip-rule="evenodd" d="M31.5619 88.2068C31.4266 87.9887 31.2912 87.7631 31.1559 87.5451C31.7123 87.0337 32.2763 87.9511 31.5619 88.2068Z" fill="#DFACAA" fill-opacity="0.2"/>
<path fill-rule="evenodd" clip-rule="evenodd" d="M63.0913 139.203C62.2943 138.804 63.4673 137.609 62.2116 137.015C62.5048 136.278 62.5123 137.286 62.9485 137.474C62.956 137.481 63.6177 137.428 63.55 137.331C63.9636 137.88 63.6854 138.669 63.0913 139.203Z" fill="#DFACAA" fill-opacity="0.2"/>
<path fill-rule="evenodd" clip-rule="evenodd" d="M49.6599 117.171C49.4869 116.555 49.9832 116.201 50.6224 116.134C50.9382 116.826 50.3592 117.457 49.6599 117.171Z" fill="#DFACAA" fill-opacity="0.2"/>
<path fill-rule="evenodd" clip-rule="evenodd" d="M45.7515 110.005C45.5184 110.073 45.353 109.644 45.4507 109.509C45.7139 109.14 46.2027 109.885 45.7515 110.005Z" fill="#DFACAA" fill-opacity="0.2"/>
<path fill-rule="evenodd" clip-rule="evenodd" d="M53.6298 122.932C53.5321 122.766 53.4268 122.601 53.329 122.436C53.4945 122.338 53.6599 122.233 53.8253 122.135C54.0735 122.473 54.0058 122.744 53.6298 122.932Z" fill="#DFACAA" fill-opacity="0.2"/>
<path fill-rule="evenodd" clip-rule="evenodd" d="M53.3546 121.736C53.0989 121.819 52.9636 121.405 52.7831 121.172C53.1967 120.984 53.4373 121.383 53.3546 121.736Z" fill="#DFACAA" fill-opacity="0.2"/>
<path fill-rule="evenodd" clip-rule="evenodd" d="M57.3846 127.233C56.0235 125.977 57.6628 125.699 57.8056 126.068C58.0012 126.564 58.2493 126.489 57.3846 127.233Z" fill="#DFACAA" fill-opacity="0.2"/>
<path fill-rule="evenodd" clip-rule="evenodd" d="M30.3959 79.6045C30.6591 79.9504 31.0952 80.1008 31.1704 80.4993C31.1704 80.5068 30.7493 81.5896 30.9749 81.2964C29.7567 82.8679 28.5085 80.0331 30.3959 79.6045Z" fill="#DFACAA" fill-opacity="0.2"/>
<path fill-rule="evenodd" clip-rule="evenodd" d="M56.4425 125.308C55.8484 124.751 56.45 124.18 56.9688 124.307C57.0741 124.713 57.0891 125.089 56.4425 125.308Z" fill="#DFACAA" fill-opacity="0.2"/>
<path fill-rule="evenodd" clip-rule="evenodd" d="M49.7723 114.375C49.5618 114.134 49.7497 113.991 49.637 113.773C49.9227 113.51 50.3363 114.382 49.7723 114.375Z" fill="#DFACAA" fill-opacity="0.2"/>
<path fill-rule="evenodd" clip-rule="evenodd" d="M33.4806 87.2682C33.3753 87.1027 33.2776 86.9373 33.1798 86.7719C33.4881 86.4937 33.6911 86.6215 33.9468 86.5312C33.9693 86.817 33.7814 87.0576 33.4806 87.2682Z" fill="#DFACAA" fill-opacity="0.2"/>
<path fill-rule="evenodd" clip-rule="evenodd" d="M26.3803 75.2357C26.8616 74.8146 27.215 74.8823 27.6361 74.6943C28.779 75.9877 26.275 77.0254 26.3803 75.2357Z" fill="#DFACAA" fill-opacity="0.2"/>
<path fill-rule="evenodd" clip-rule="evenodd" d="M58.9184 127.886C58.3846 127.555 59.3696 126.954 59.4147 127.585C59.2568 127.683 59.0839 127.781 58.9184 127.886Z" fill="#DFACAA" fill-opacity="0.2"/>
<path fill-rule="evenodd" clip-rule="evenodd" d="M52.2543 116.954C51.6753 116.345 52.2167 115.999 52.8408 115.683C53.4273 116.3 52.8784 116.631 52.2543 116.954Z" fill="#DFACAA" fill-opacity="0.2"/>
<path fill-rule="evenodd" clip-rule="evenodd" d="M51.0054 114.533C50.7272 114.232 50.8475 114.021 50.7648 113.766C51.2085 113.728 51.6672 114.224 51.0054 114.533Z" fill="#DFACAA" fill-opacity="0.2"/>
<path fill-rule="evenodd" clip-rule="evenodd" d="M66.7526 139.249C67.3316 138.813 67.7 139.242 68.091 139.573C67.5346 139.904 67.0909 139.791 66.7526 139.249Z" fill="#DFACAA" fill-opacity="0.2"/>
<path fill-rule="evenodd" clip-rule="evenodd" d="M31.7793 81.4849C31.3507 80.8532 32.035 80.0787 32.441 81.0788C32.2155 81.2217 31.9974 81.357 31.7793 81.4849Z" fill="#DFACAA" fill-opacity="0.2"/>
<path fill-rule="evenodd" clip-rule="evenodd" d="M59.8107 127.112C59.6754 126.894 59.54 126.668 59.4122 126.45C59.9235 126.074 60.3296 126.157 60.6454 126.601C60.1341 126.488 60.4048 126.894 59.8107 127.112Z" fill="#DFACAA" fill-opacity="0.2"/>
<path fill-rule="evenodd" clip-rule="evenodd" d="M26.4557 72.01C26.1925 71.7318 27.0648 71.3107 27.0497 71.8747C26.8166 72.0777 26.6738 71.8897 26.4557 72.01Z" fill="#DFACAA" fill-opacity="0.2"/>
<path fill-rule="evenodd" clip-rule="evenodd" d="M60.9167 127.804C60.6008 127.398 60.8114 127.119 61.2776 126.901C61.5934 127.315 61.1949 127.541 60.9167 127.804Z" fill="#DFACAA" fill-opacity="0.2"/>
<path fill-rule="evenodd" clip-rule="evenodd" d="M67.8119 138.376C67.4585 137.549 68.8947 137.894 67.8119 138.376V138.376Z" fill="#DFACAA" fill-opacity="0.2"/>
<path fill-rule="evenodd" clip-rule="evenodd" d="M31.0571 78.0635C30.7789 77.4845 30.621 76.928 31.5458 76.6348C32.2 77.4017 31.7188 77.9883 31.0571 78.0635Z" fill="#DFACAA" fill-opacity="0.2"/>
<path fill-rule="evenodd" clip-rule="evenodd" d="M67.6693 136.64C68.0076 136.391 68.0979 137.181 68.3385 137.369C67.5339 137.595 67.7445 137.241 67.6693 136.64Z" fill="#DFACAA" fill-opacity="0.2"/>
<path fill-rule="evenodd" clip-rule="evenodd" d="M52.0889 111.825C51.8257 111.525 51.8032 111.284 52.119 111.126C52.2168 111.291 52.322 111.457 52.4198 111.622C52.307 111.697 52.1942 111.765 52.0889 111.825Z" fill="#DFACAA" fill-opacity="0.2"/>
<path fill-rule="evenodd" clip-rule="evenodd" d="M38.6227 89.3568C38.4121 89.1237 38.6076 88.9808 38.4873 88.7628C38.7656 88.4996 39.1866 89.3643 38.6227 89.3568Z" fill="#DFACAA" fill-opacity="0.2"/>
<path fill-rule="evenodd" clip-rule="evenodd" d="M55.3084 114.87C55.8573 114.727 56.3386 114.885 56.6769 115.622C56.0829 115.855 55.9776 116.201 55.6167 116.494C54.5489 115.9 55.4889 115.306 55.3084 114.87Z" fill="#DFACAA" fill-opacity="0.2"/>
<path fill-rule="evenodd" clip-rule="evenodd" d="M49.556 106.555C49.2777 106.254 49.4056 106.044 49.3229 105.788C49.8192 105.532 50.1951 106.337 49.556 106.555Z" fill="#DFACAA" fill-opacity="0.2"/>
<path fill-rule="evenodd" clip-rule="evenodd" d="M34.6069 82.0339C34.84 81.7106 35.0431 81.3873 35.3965 81.094C36.6597 81.5376 35.2837 83.5529 34.6069 82.0339Z" fill="#DFACAA" fill-opacity="0.2"/>
<path fill-rule="evenodd" clip-rule="evenodd" d="M59.6835 122.429C59.2549 121.948 59.3301 121.587 59.1421 121.166C59.7587 121.158 59.7963 120.654 60.5031 120.79C60.9317 121.226 60.5106 121.451 60.9467 121.888C60.5031 122.151 60.0294 122.519 59.6835 122.429Z" fill="#DFACAA" fill-opacity="0.2"/>
<path fill-rule="evenodd" clip-rule="evenodd" d="M61.113 122.917C62.3763 122.376 62.2334 121.496 61.692 120.519C62.1808 120.052 62.3387 120.962 62.7598 120.774C63.3087 120.135 62.2184 119.827 62.286 119.248C62.5793 119.985 64.4141 120.473 64.9855 120.331C65.0908 120.301 65.0457 119.917 64.9479 119.894C65.8879 120.06 65.8879 120.353 66.9857 121.376C67.0759 121.459 67.67 121.789 67.6249 121.669C67.8956 122.353 67.3316 122.744 67.0083 123.639C67.0083 123.632 67.1962 124.557 66.8503 124.872C66.7451 124.963 66.2789 124.82 66.0909 125.113C65.8127 125.421 66.5571 125.978 65.8352 126.181C65.5194 124.91 63.2636 126.136 64.0757 127.023C62.2184 125.872 61.7146 125.218 61.113 122.917Z" fill="#DFACAA" fill-opacity="0.2"/>
<path fill-rule="evenodd" clip-rule="evenodd" d="M28.916 71.1901C28.6077 70.7389 29.0514 70.3629 29.3747 70.4532C29.3972 70.7464 29.2093 70.9795 28.916 71.1901Z" fill="#DFACAA" fill-opacity="0.2"/>
<path fill-rule="evenodd" clip-rule="evenodd" d="M58.421 117.742C56.3531 118.359 58.6917 115.667 58.421 117.742V117.742Z" fill="#DFACAA" fill-opacity="0.2"/>
<path fill-rule="evenodd" clip-rule="evenodd" d="M54.5125 110.577C52.5349 110.637 55.1291 112.931 54.5125 110.577V110.577Z" fill="#DFACAA" fill-opacity="0.2"/>
<path fill-rule="evenodd" clip-rule="evenodd" d="M56.3307 114.691C56.6841 114.405 56.9849 114.33 57.2631 114.352C57.4586 114.931 57.3383 114.743 57.7669 115.179C57.2631 115.142 56.6239 115.616 56.3307 114.691Z" fill="#DFACAA" fill-opacity="0.2"/>
<path fill-rule="evenodd" clip-rule="evenodd" d="M72.7823 140.566C73.3538 139.897 73.1433 139.912 72.7447 139.002C73.8275 138.829 74.2787 138.468 74.9404 139.25C74.384 139.107 74.2712 139.558 74.7449 140.055C73.8576 140.228 74.0005 140.197 73.1508 140.799C73.0606 140.588 72.9327 140.528 72.7823 140.566Z" fill="#DFACAA" fill-opacity="0.2"/>
<path fill-rule="evenodd" clip-rule="evenodd" d="M60.1644 119.856C60.3825 119.721 60.6081 119.586 60.8262 119.45C61.7962 120.398 60.6081 121.022 60.1644 119.856Z" fill="#DFACAA" fill-opacity="0.2"/>
<path fill-rule="evenodd" clip-rule="evenodd" d="M55.2768 111.473C55.6001 110.931 55.7957 111.164 56.3371 110.6C56.7055 111.209 56.1416 111.593 56.1115 112.097C55.7355 112.3 55.5024 111.901 55.2768 111.473Z" fill="#DFACAA" fill-opacity="0.2"/>
<path fill-rule="evenodd" clip-rule="evenodd" d="M50.6998 103.584C50.4366 103.283 50.414 103.043 50.7298 102.885C50.8276 103.05 50.9329 103.216 51.0306 103.381C50.9253 103.449 50.8126 103.524 50.6998 103.584Z" fill="#DFACAA" fill-opacity="0.2"/>
<path fill-rule="evenodd" clip-rule="evenodd" d="M31.5454 71.409C31.019 70.8676 31.6206 70.2961 32.0718 70.4089C32.0943 70.7849 32.1093 71.1684 31.5454 71.409Z" fill="#DFACAA" fill-opacity="0.2"/>
<path fill-rule="evenodd" clip-rule="evenodd" d="M58.8721 115.878C58.4059 115.48 59.0676 115.36 59.3308 115.142C59.4661 115.457 59.2782 115.691 58.8721 115.878Z" fill="#DFACAA" fill-opacity="0.2"/>
<path fill-rule="evenodd" clip-rule="evenodd" d="M56.3678 109.901C56.2775 110.247 55.8865 110.488 55.5406 110.405C55.8189 109.939 55.488 109.239 56.3678 109.901Z" fill="#DFACAA" fill-opacity="0.2"/>
<path fill-rule="evenodd" clip-rule="evenodd" d="M52.7064 105.764C52.9245 105.629 53.1501 105.494 53.3682 105.358C53.7366 105.885 52.9922 106.494 52.7064 105.764Z" fill="#DFACAA" fill-opacity="0.2"/>
<path fill-rule="evenodd" clip-rule="evenodd" d="M50.488 102.125C50.1948 101.816 50.5331 101.666 50.7888 101.493C50.8339 101.734 50.7813 101.959 50.488 102.125Z" fill="#DFACAA" fill-opacity="0.2"/>
<path fill-rule="evenodd" clip-rule="evenodd" d="M69.3831 130.142C69.3379 130.51 69.6914 130.969 69.1199 131.21C68.3303 131.067 68.6161 129.901 69.3831 130.142Z" fill="#DFACAA" fill-opacity="0.2"/>
<path fill-rule="evenodd" clip-rule="evenodd" d="M67.7738 128.625C68.4054 128.264 68.3603 128.519 68.7663 128.016C69.1047 128.474 68.7062 128.753 69.037 129.211C68.4279 129.813 67.6459 129.339 67.7738 128.625Z" fill="#DFACAA" fill-opacity="0.2"/>
<path fill-rule="evenodd" clip-rule="evenodd" d="M34.3209 73.348C34.5464 73.3856 34.8021 73.2954 35.0878 73.1074C36.0052 74.4233 33.8697 74.6564 34.3209 73.348Z" fill="#DFACAA" fill-opacity="0.2"/>
<path fill-rule="evenodd" clip-rule="evenodd" d="M58.5492 113.119C58.4139 112.894 58.2785 112.675 58.1432 112.457C58.474 112.457 58.8651 112.194 59.0455 112.818C58.8876 112.916 58.7222 113.014 58.5492 113.119Z" fill="#DFACAA" fill-opacity="0.2"/>
<path fill-rule="evenodd" clip-rule="evenodd" d="M41.4269 77.1914C41.2991 78.0035 42.2991 77.9058 42.9308 77.417C43.615 78.4021 43.5549 78.9735 44.3068 79.3044C44.1865 79.8683 43.976 79.936 43.7128 80.5752C43.4496 81.2143 43.9384 81.3497 43.4571 81.6429C42.7202 82.0791 41.9908 81.7632 41.6374 82.7558C41.0208 81.6655 39.4869 82.6956 39.2613 81.4775C39.2011 81.1466 39.5621 80.5601 39.5846 80.1466C39.5921 79.9736 39.1259 79.6428 39.1786 79.4849C39.5019 78.4998 40.6749 78.0937 41.4269 77.1914Z" fill="#DFACAA" fill-opacity="0.2"/>
<path fill-rule="evenodd" clip-rule="evenodd" d="M56.1959 108.869C56.3313 108.005 56.3313 107.997 57.2186 107.568C57.7524 108.418 56.7824 108.591 56.993 109.065C56.6471 109.35 56.5193 108.704 56.1959 108.869Z" fill="#DFACAA" fill-opacity="0.2"/>
<path fill-rule="evenodd" clip-rule="evenodd" d="M55.692 108.043C55.5867 107.878 55.489 107.712 55.3912 107.547C55.6093 107.411 55.8349 107.276 56.0529 107.141C56.3612 107.547 56.1507 107.825 55.692 108.043Z" fill="#DFACAA" fill-opacity="0.2"/>
<path fill-rule="evenodd" clip-rule="evenodd" d="M53.1875 103.2C52.8717 102.794 53.0897 102.516 53.5484 102.298C53.8718 102.711 53.6537 102.982 53.1875 103.2Z" fill="#DFACAA" fill-opacity="0.2"/>
<path fill-rule="evenodd" clip-rule="evenodd" d="M68.075 123.895C68.5336 124.338 68.481 124.534 69.1427 124.158C69.4435 124.526 69.3082 125.053 68.9848 125.391C68.8946 125.481 69.0224 125.82 69.0224 125.827C67.8419 126.729 66.3605 124.225 68.075 123.895Z" fill="#DFACAA" fill-opacity="0.2"/>
<path fill-rule="evenodd" clip-rule="evenodd" d="M33.9977 70.5878C33.7119 70.2343 33.6367 69.9336 33.6593 69.6554C34.2909 69.2568 34.9827 70.2795 33.9977 70.5878Z" fill="#DFACAA" fill-opacity="0.2"/>
<path fill-rule="evenodd" clip-rule="evenodd" d="M38.8097 78.108C38.6744 77.7922 38.8624 77.5591 39.2684 77.3711C39.7422 77.7771 39.0804 77.8974 38.8097 78.108Z" fill="#DFACAA" fill-opacity="0.2"/>
<path fill-rule="evenodd" clip-rule="evenodd" d="M36.6895 74.627C37.5092 74.7247 37.1482 73.5893 37.3437 73.093C37.7122 72.9426 37.9829 73.1607 38.3062 73.1832C38.4491 72.9877 37.5844 72.4388 38.5619 72.1155C39.0657 72.2433 38.6446 72.4764 39.0657 72.9501C39.5319 72.7697 39.9379 72.7471 40.5019 73.4389C40.0282 74.2134 40.4117 75.2586 39.3213 75.973C38.3965 76.5896 37.4114 75.785 36.6895 74.627Z" fill="#DFACAA" fill-opacity="0.2"/>
<path fill-rule="evenodd" clip-rule="evenodd" d="M70.4815 129.7C70.316 129.422 70.1431 129.151 69.9777 128.873C70.1882 128.783 70.2484 128.662 70.2032 128.504C70.489 128.038 71.0755 129.031 70.9702 128.264C71.7447 128.422 71.3161 129.474 70.4815 129.7Z" fill="#DFACAA" fill-opacity="0.2"/>
<path fill-rule="evenodd" clip-rule="evenodd" d="M53.5416 101.17C53.8424 101.102 54.1131 101.162 54.4063 101.095C54.6845 101.493 54.459 101.771 54.5793 102.125C53.7822 102.426 53.4062 101.907 53.5416 101.17Z" fill="#DFACAA" fill-opacity="0.2"/>
<path fill-rule="evenodd" clip-rule="evenodd" d="M52.3087 99.8766C52.1132 99.5007 52.5042 99.2676 52.9328 99.042C53.399 99.5458 52.7148 99.997 52.3087 99.8766Z" fill="#DFACAA" fill-opacity="0.2"/>
<path fill-rule="evenodd" clip-rule="evenodd" d="M71.9199 130.196C71.2506 129.399 72.1154 128.692 72.7771 128.993C73.0854 129.775 72.7094 130.354 71.9199 130.196Z" fill="#DFACAA" fill-opacity="0.2"/>
<path fill-rule="evenodd" clip-rule="evenodd" d="M58.2787 106.698C58.8276 106.547 58.5644 106.201 59.008 106.028C59.4367 106.464 59.2036 106.735 59.4442 107.119C58.9554 107.389 58.5343 107.389 58.2787 106.698Z" fill="#DFACAA" fill-opacity="0.2"/>
<path fill-rule="evenodd" clip-rule="evenodd" d="M48.4428 90.1922C47.939 89.3049 48.3451 88.7635 49.2624 88.553C50.2099 89.3651 48.8113 90.1396 48.4428 90.1922Z" fill="#DFACAA" fill-opacity="0.2"/>
<path fill-rule="evenodd" clip-rule="evenodd" d="M77.9125 131.083C77.4689 131.564 76.5214 131.61 77.2583 132.617C76.95 132.91 76.7997 132.572 76.6192 132.324C76.0552 132.73 77.108 133.82 76.2583 133.226C75.4311 132.655 75.8973 133.692 75.4913 133.467C75.386 133.407 74.431 132.294 74.3182 131.91C74.1829 131.452 74.5589 130.519 74.807 130.474C74.8296 130.474 75.2582 130.632 75.1755 130.707C75.6793 130.279 74.807 130.241 75.6717 130.406C75.7093 130.414 76.4312 129.888 76.4989 129.903C76.8147 129.955 77.4238 130.662 77.9125 131.083Z" fill="#DFACAA" fill-opacity="0.2"/>
<path fill-rule="evenodd" clip-rule="evenodd" d="M61.4977 110.862C61.7684 110.366 61.9037 110.065 62.5579 109.99C63.0767 110.682 62.9188 111.208 62.4376 111.66C62.1819 111.171 61.6781 111.675 61.4977 110.862Z" fill="#DFACAA" fill-opacity="0.2"/>
<path fill-rule="evenodd" clip-rule="evenodd" d="M67.8205 120.871C67.2941 120.352 68.5123 120.036 68.7153 120.104C68.9183 120.48 68.0536 120.6 67.8205 120.871Z" fill="#DFACAA" fill-opacity="0.2"/>
<path fill-rule="evenodd" clip-rule="evenodd" d="M64.2866 115.072C64.0008 114.719 63.9256 114.418 63.9482 114.14C64.2339 113.937 64.4219 114.133 64.7152 113.899C64.9708 114.388 64.8581 114.787 64.2866 115.072Z" fill="#DFACAA" fill-opacity="0.2"/>
<path fill-rule="evenodd" clip-rule="evenodd" d="M57.7221 104.306C57.4138 103.9 57.3461 103.554 57.8123 103.336C58.1281 103.742 58.1958 104.088 57.7221 104.306Z" fill="#DFACAA" fill-opacity="0.2"/>
<path fill-rule="evenodd" clip-rule="evenodd" d="M46.6828 85.8075C45.8707 85.8225 46.6828 85.0705 46.5098 84.7773C47.1866 84.7322 46.4873 85.5067 46.6828 85.8075Z" fill="#DFACAA" fill-opacity="0.2"/>
<path fill-rule="evenodd" clip-rule="evenodd" d="M67.3093 118.908C66.8581 119.089 66.9108 118.269 67.3394 118.209C67.6552 118.525 67.1664 118.638 67.3093 118.908Z" fill="#DFACAA" fill-opacity="0.2"/>
<path fill-rule="evenodd" clip-rule="evenodd" d="M55.7961 100.019C55.2246 100.139 55.3074 99.2668 55.4577 99.0863C56.0894 98.9886 55.7284 99.7931 55.7961 100.019Z" fill="#DFACAA" fill-opacity="0.2"/>
<path fill-rule="evenodd" clip-rule="evenodd" d="M70.5035 123.783C70.8118 123.489 70.9622 123.828 71.1352 124.076C70.887 124.128 70.669 124.068 70.5035 123.783Z" fill="#DFACAA" fill-opacity="0.2"/>
<path fill-rule="evenodd" clip-rule="evenodd" d="M38.863 71.4907C38.5472 71.1749 39.0359 71.0621 38.893 70.7914C39.3442 70.6034 39.4796 71.4681 38.863 71.4907Z" fill="#DFACAA" fill-opacity="0.2"/>
<path fill-rule="evenodd" clip-rule="evenodd" d="M64.677 108.246C67.181 110.953 62.3084 111.6 62.8573 109.359C63.0303 108.615 63.8649 108.795 64.677 108.246Z" fill="#DFACAA" fill-opacity="0.2"/>
<path fill-rule="evenodd" clip-rule="evenodd" d="M58.6778 102.134C58.0687 101.562 58.6327 101.276 58.3018 100.773C59.8584 100.457 60.7156 99.5319 60.866 101.254C59.9561 101.028 59.6102 102.104 58.6778 102.134Z" fill="#DFACAA" fill-opacity="0.2"/>
<path fill-rule="evenodd" clip-rule="evenodd" d="M44.0372 78.1081C43.7966 77.672 44.4131 77.3411 44.7666 77.4389C45.0072 77.875 44.3831 78.2058 44.0372 78.1081Z" fill="#DFACAA" fill-opacity="0.2"/>
<path fill-rule="evenodd" clip-rule="evenodd" d="M34.9067 62.7678C35.3053 62.8656 35.6211 63.3318 35.9444 63.7228C35.4707 63.8581 34.8541 63.0686 34.9067 62.7678Z" fill="#DFACAA" fill-opacity="0.2"/>
<path fill-rule="evenodd" clip-rule="evenodd" d="M41.336 72.9348C41.0578 73.198 40.6367 72.3257 41.2006 72.3408C41.2683 72.4536 41.336 72.5588 41.4037 72.6716C41.2382 72.7243 41.2833 72.8295 41.336 72.9348Z" fill="#DFACAA" fill-opacity="0.2"/>
<path fill-rule="evenodd" clip-rule="evenodd" d="M56.083 97.1247C55.7973 96.7713 55.7221 96.4705 55.7447 96.1998C56.0981 95.914 56.3989 95.8389 56.6696 95.8614C56.8049 96.0795 56.9403 96.2975 57.0756 96.5231C56.7748 96.8465 56.6545 97.072 56.083 97.1247Z" fill="#DFACAA" fill-opacity="0.2"/>
<path fill-rule="evenodd" clip-rule="evenodd" d="M67.1153 114.487C67.0176 114.321 66.9123 114.156 66.8146 113.99C66.98 113.885 67.1454 113.787 67.3108 113.689C67.559 114.028 67.4988 114.299 67.1153 114.487Z" fill="#DFACAA" fill-opacity="0.2"/>
<path fill-rule="evenodd" clip-rule="evenodd" d="M42.5087 73.3631C42.4561 73.1149 42.5087 72.8894 42.802 72.7314C43.1028 73.1676 42.8922 73.4458 42.5087 73.3631Z" fill="#DFACAA" fill-opacity="0.2"/>
<path fill-rule="evenodd" clip-rule="evenodd" d="M64.3536 105.486C64.6243 106.471 64.6168 106.561 63.6317 107.291C62.7595 106.862 63.1881 105.388 64.3536 105.486Z" fill="#DFACAA" fill-opacity="0.2"/>
<path fill-rule="evenodd" clip-rule="evenodd" d="M78.7457 131.707C79.1443 132.166 80.197 131.835 80.0466 132.73C79.5052 132.436 78.8059 132.444 78.7457 131.707Z" fill="#DFACAA" fill-opacity="0.2"/>
<path fill-rule="evenodd" clip-rule="evenodd" d="M78.37 130.346C78.1594 130.105 78.3549 129.962 78.2346 129.744C78.8287 129.932 78.8813 129.15 79.3325 129.308C79.3249 129.496 79.3249 129.684 79.4678 129.902C78.8287 129.97 78.9866 130.384 78.37 130.346Z" fill="#DFACAA" fill-opacity="0.2"/>
<path fill-rule="evenodd" clip-rule="evenodd" d="M77.6255 128.751C77.6255 128.42 77.5503 128.074 77.9864 127.849C78.0766 128.059 78.2045 128.127 78.3549 128.082C78.4301 128.668 78.024 128.631 77.6255 128.751Z" fill="#DFACAA" fill-opacity="0.2"/>
<path fill-rule="evenodd" clip-rule="evenodd" d="M70.662 117.323C70.1206 116.992 71.1131 116.39 71.1582 117.022C70.9928 117.12 70.8199 117.225 70.662 117.323Z" fill="#DFACAA" fill-opacity="0.2"/>
<path fill-rule="evenodd" clip-rule="evenodd" d="M63.5272 96.6729C63.6024 97.1466 63.452 98.6279 63.2114 99.1393C62.1737 101.327 59.0682 99.6581 60.369 97.4624C60.354 97.4925 61.2939 96.6804 60.933 96.8909C61.7526 96.4172 62.4369 97.1165 63.5272 96.6729Z" fill="#DFACAA" fill-opacity="0.2"/>
<path fill-rule="evenodd" clip-rule="evenodd" d="M77.0909 123.397C77.3691 123.984 76.8202 124.367 76.8653 124.894C75.1434 125.15 75.587 122.668 77.0909 123.397Z" fill="#DFACAA" fill-opacity="0.2"/>
<path fill-rule="evenodd" clip-rule="evenodd" d="M66.3771 108.802C66.4598 108.539 66.0538 108.155 66.5726 108.005C66.8208 108.343 66.7606 108.606 66.3771 108.802Z" fill="#DFACAA" fill-opacity="0.2"/>
<path fill-rule="evenodd" clip-rule="evenodd" d="M64.5587 105.817C65.4385 107.892 66.1754 105.042 64.5587 105.817V105.817Z" fill="#DFACAA" fill-opacity="0.2"/>
<path fill-rule="evenodd" clip-rule="evenodd" d="M52.5725 85.4023C53.2944 84.7782 53.8358 84.8459 54.4298 84.7256C55.1667 85.9889 54.505 86.6506 53.6854 87.2296C52.941 87.0265 52.55 86.1317 52.5725 85.4023Z" fill="#DFACAA" fill-opacity="0.2"/>
<path fill-rule="evenodd" clip-rule="evenodd" d="M43.8566 71.8589C44.1874 71.1446 44.9168 71.295 44.8115 70.8212C45.3003 70.5581 45.5334 71.3251 45.8492 71.7762C45.2777 72.3176 44.3904 72.9192 43.8566 71.8589Z" fill="#DFACAA" fill-opacity="0.2"/>
<path fill-rule="evenodd" clip-rule="evenodd" d="M58.6835 93.9502C59.0219 93.702 59.1121 94.4916 59.3527 94.672C58.3226 96.0481 57.5556 93.7697 58.6835 93.9502Z" fill="#DFACAA" fill-opacity="0.2"/>
<path fill-rule="evenodd" clip-rule="evenodd" d="M57.3145 93.1925C57.0513 92.8917 57.0288 92.6511 57.3446 92.4932C57.4499 92.6586 57.5476 92.824 57.6454 92.9895C57.5326 93.0571 57.4273 93.1248 57.3145 93.1925Z" fill="#DFACAA" fill-opacity="0.2"/>
<path fill-rule="evenodd" clip-rule="evenodd" d="M69.1953 112.307C68.8419 111.48 70.2781 111.833 69.1953 112.307V112.307Z" fill="#DFACAA" fill-opacity="0.2"/>
<path fill-rule="evenodd" clip-rule="evenodd" d="M64.5482 104.682C64.3827 104.403 64.2098 104.133 64.0444 103.854C64.4504 103.26 64.5707 103.05 65.3678 103.05C65.5858 103.524 65.3076 103.884 65.4806 104.343C65.1196 104.659 64.9317 104.268 64.5482 104.682Z" fill="#DFACAA" fill-opacity="0.2"/>
<path fill-rule="evenodd" clip-rule="evenodd" d="M58.1489 93.8169C57.6827 93.9597 57.5474 93.0349 58.0737 92.9521C58.5851 93.3582 58.0662 93.5161 58.1489 93.8169Z" fill="#DFACAA" fill-opacity="0.2"/>
<path fill-rule="evenodd" clip-rule="evenodd" d="M72.0175 115.819C71.5588 115.24 72.1604 114.916 72.3409 114.488C72.8371 115.074 72.4161 115.443 72.0175 115.819Z" fill="#DFACAA" fill-opacity="0.2"/>
<path fill-rule="evenodd" clip-rule="evenodd" d="M43.4336 68.9269C43.5163 68.6638 43.1178 68.2878 43.6291 68.1299C43.8772 68.4683 43.8171 68.739 43.4336 68.9269Z" fill="#DFACAA" fill-opacity="0.2"/>
<path fill-rule="evenodd" clip-rule="evenodd" d="M37.983 59.9785C37.8853 59.8131 37.78 59.6477 37.6822 59.4822C37.9078 59.3469 38.1259 59.2115 38.344 59.0762C38.6598 59.4897 38.4492 59.7605 37.983 59.9785Z" fill="#DFACAA" fill-opacity="0.2"/>
<path fill-rule="evenodd" clip-rule="evenodd" d="M75.4981 118.924C75.6109 119.421 75.8214 119.947 75.1747 120.255C74.325 119.909 74.7762 118.834 75.4981 118.924Z" fill="#DFACAA" fill-opacity="0.2"/>
<path fill-rule="evenodd" clip-rule="evenodd" d="M66.0839 105.342C65.4147 103.808 67.8434 104.741 66.8659 103.274C67.7006 103.312 68.2194 101.868 69.1593 102.56C69.3699 102.064 69.0917 100.951 69.8135 101.026C70.6031 102.605 70.1745 103.026 70.5354 104.447C70.8738 104.417 71.0994 104.823 71.4979 104.538C71.4904 104.801 72.0694 105.455 71.9791 106.064C71.9566 106.222 71.4453 106.245 71.1821 107.004C71.1971 106.974 71.0994 107.5 71.2197 107.44C71.2046 107.448 69.9715 107.455 69.8211 107.38C69.4376 107.192 69.0842 106.673 68.9488 106.32C68.9037 106.192 69.3924 106.515 69.3173 106.553C69.4225 106.5 69.1969 105.35 69.3097 105.425C68.6104 105.305 68.3773 106.312 67.6179 106.004C67.3096 105.643 67.7006 105.463 67.2795 105.072C66.8659 104.966 66.7757 105.575 66.0839 105.342Z" fill="#DFACAA" fill-opacity="0.2"/>
<path fill-rule="evenodd" clip-rule="evenodd" d="M83.6862 133.475C83.9343 133.422 84.1524 133.475 84.3178 133.768C84.0095 134.062 83.8591 133.723 83.6862 133.475Z" fill="#DFACAA" fill-opacity="0.2"/>
<path fill-rule="evenodd" clip-rule="evenodd" d="M55.916 87.9058C55.6904 87.2892 55.7957 86.7478 56.5702 86.3718C57.0966 87.2516 56.8634 88.1314 55.916 87.9058Z" fill="#DFACAA" fill-opacity="0.2"/>
<path fill-rule="evenodd" clip-rule="evenodd" d="M37.6387 57.9188C37.5861 57.6706 37.6387 57.4525 37.932 57.2871C38.2403 57.7308 38.0297 58.009 37.6387 57.9188Z" fill="#DFACAA" fill-opacity="0.2"/>
<path fill-rule="evenodd" clip-rule="evenodd" d="M43.6244 66.994C43.3086 66.6782 43.7974 66.5654 43.6545 66.2947C44.1056 66.1142 44.0605 66.9338 43.6244 66.994Z" fill="#DFACAA" fill-opacity="0.2"/>
<path fill-rule="evenodd" clip-rule="evenodd" d="M59.9481 93.4025C59.0307 90.9361 62.4746 92.8836 59.9481 93.4025V93.4025Z" fill="#DFACAA" fill-opacity="0.2"/>
<path fill-rule="evenodd" clip-rule="evenodd" d="M43.2032 64.0692C43.5717 64.5805 43.489 64.9866 43.0453 65.3024C42.2332 65.137 42.6092 63.8963 43.2032 64.0692Z" fill="#DFACAA" fill-opacity="0.2"/>
<path fill-rule="evenodd" clip-rule="evenodd" d="M49.2707 75.1455C48.8045 74.559 49.5414 74.2733 49.594 73.8146C50.6618 73.7319 50.2708 75.3486 49.2707 75.1455Z" fill="#DFACAA" fill-opacity="0.2"/>
<path fill-rule="evenodd" clip-rule="evenodd" d="M39.276 58.7384C39.0654 58.5053 39.2609 58.3624 39.1331 58.1443C39.4189 57.8812 39.8399 58.7459 39.276 58.7384Z" fill="#DFACAA" fill-opacity="0.2"/>
<path fill-rule="evenodd" clip-rule="evenodd" d="M37.8635 52.332C37.7583 52.6629 38.4125 52.7682 38.5328 53.0614C38.7208 53.49 38.2395 53.5878 38.3749 54.2946C38.5177 55.0766 39.1794 55.6932 37.9237 56.1594C36.8559 55.0465 35.8408 53.3321 37.8635 52.332Z" fill="#DFACAA" fill-opacity="0.2"/>
<path fill-rule="evenodd" clip-rule="evenodd" d="M40.2764 59.2643C39.8628 58.2868 40.1862 57.8507 41.2614 57.5273C42.1111 58.4522 41.0434 59.5726 40.2764 59.2643Z" fill="#DFACAA" fill-opacity="0.2"/>
<path fill-rule="evenodd" clip-rule="evenodd" d="M65.5496 99.9889C65.5647 100.004 65.0082 98.7256 65.2413 98.3571C65.6173 97.7781 67.61 98.1541 67.6701 98.2443C68.1062 98.9512 66.4971 100.35 66.452 100.35C65.8279 100.32 65.8128 100.267 65.5496 99.9889Z" fill="#DFACAA" fill-opacity="0.2"/>
<path fill-rule="evenodd" clip-rule="evenodd" d="M42.8624 63.1446C42.7647 62.6333 42.4113 62.1972 42.4865 61.7836C42.4338 62.1069 43.0805 61.2046 43.0504 61.2121C43.9302 60.9715 45.0431 62.8062 42.8624 63.1446Z" fill="#DFACAA" fill-opacity="0.2"/>
<path fill-rule="evenodd" clip-rule="evenodd" d="M54.4823 78.1008C53.9184 78.4692 54.1891 78.943 53.956 79.1084C52.0836 80.4017 52.7754 76.4766 54.4823 78.1008Z" fill="#DFACAA" fill-opacity="0.2"/>
<path fill-rule="evenodd" clip-rule="evenodd" d="M78.0623 119.405C77.957 119.24 77.8593 119.075 77.7615 118.909C78.2578 118.984 77.9645 118.766 78.4232 118.503C79.0849 119.052 78.8218 119.09 78.0623 119.405Z" fill="#DFACAA" fill-opacity="0.2"/>
<path fill-rule="evenodd" clip-rule="evenodd" d="M51.3086 75.4985C50.7672 75.1676 51.7522 74.5661 51.8049 75.1977C51.6319 75.2955 51.474 75.3932 51.3086 75.4985Z" fill="#DFACAA" fill-opacity="0.2"/>
<path fill-rule="evenodd" clip-rule="evenodd" d="M57.8943 85.5675C56.9995 85.0412 57.4431 84.5073 57.6537 83.6726C57.6687 83.605 58.1048 82.7553 58.8116 82.9658C59.0899 83.0485 60.0975 84.3343 59.6538 84.7178C59.6162 84.7554 59.2327 84.6577 59.2177 84.7554C59.2102 84.8156 59.5561 85.2216 59.5185 85.2517C59.15 85.6202 58.571 85.9586 57.8943 85.5675Z" fill="#DFACAA" fill-opacity="0.2"/>
<path fill-rule="evenodd" clip-rule="evenodd" d="M81.4241 124.172C81.1308 123.669 82.3114 122.969 82.5219 123.729C82.1836 124.511 82.1911 124.052 81.4241 124.172Z" fill="#DFACAA" fill-opacity="0.2"/>
<path fill-rule="evenodd" clip-rule="evenodd" d="M55.9917 79.4541C56.1045 80.003 56.0669 80.5069 55.5029 80.8903C54.3675 80.5144 55.2247 79.003 55.9917 79.4541Z" fill="#DFACAA" fill-opacity="0.2"/>
<path fill-rule="evenodd" clip-rule="evenodd" d="M63.2401 93.2153C62.4205 92.4333 63.2476 91.5159 64.0597 91.5836C64.9545 91.9821 64.2477 93.3056 63.2401 93.2153Z" fill="#DFACAA" fill-opacity="0.2"/>
<path fill-rule="evenodd" clip-rule="evenodd" d="M59.3014 86.755C58.9104 86.2812 59.3315 86.0105 59.8278 85.7549C60.3842 86.3038 59.6022 86.8302 59.3014 86.755Z" fill="#DFACAA" fill-opacity="0.2"/>
<path fill-rule="evenodd" clip-rule="evenodd" d="M83.2657 125.324C83.01 125.03 82.9799 124.79 83.2958 124.624C83.401 124.79 83.4988 124.955 83.5965 125.121C83.4838 125.188 83.371 125.256 83.2657 125.324Z" fill="#DFACAA" fill-opacity="0.2"/>
<path fill-rule="evenodd" clip-rule="evenodd" d="M42.1632 57.8885C41.8549 57.4825 41.7872 57.1441 42.2534 56.926C42.5692 57.3246 42.6294 57.6704 42.1632 57.8885Z" fill="#DFACAA" fill-opacity="0.2"/>
<path fill-rule="evenodd" clip-rule="evenodd" d="M77.4598 114.315C78.0237 113.946 78.3019 114.736 78.8584 114.375C79.1592 115.322 78.505 115.262 77.941 115.841C77.1364 115.225 77.1063 114.796 77.4598 114.315Z" fill="#DFACAA" fill-opacity="0.2"/>
<path fill-rule="evenodd" clip-rule="evenodd" d="M54.4133 77.2358C54.0974 76.9275 54.5862 76.8072 54.4433 76.5365C54.8945 76.356 55.0299 77.2207 54.4133 77.2358Z" fill="#DFACAA" fill-opacity="0.2"/>
<path fill-rule="evenodd" clip-rule="evenodd" d="M79.0687 147.355C79.4221 146.302 79.9785 147.43 79.0687 147.355V147.355Z" fill="#DFACAA" fill-opacity="0.2"/>
<path fill-rule="evenodd" clip-rule="evenodd" d="M55.5863 78.7926C55.278 78.3865 55.2103 78.0406 55.6765 77.8301C56.1954 77.9429 56.2556 78.567 55.5863 78.7926Z" fill="#DFACAA" fill-opacity="0.2"/>
<path fill-rule="evenodd" clip-rule="evenodd" d="M56.3695 67.4078C56.7755 68.1672 56.8507 68.9944 57.7756 68.5958C57.2718 69.2876 57.6177 70.4306 56.6928 71.3028C55.971 71.9871 54.828 72.521 54.7754 73.3782C54.7679 73.4609 55.1213 73.8143 55.0762 73.8745C54.7528 74.3407 53.7377 74.6791 53.7527 74.6866C53.0534 74.5512 53.1211 73.9422 52.6775 73.2955C52.4368 72.9421 51.6097 72.4157 51.5646 71.4758C51.542 71.0998 52.3015 70.6938 52.3541 70.5359C52.5872 69.8591 51.8879 69.5132 52.4143 69.1372C54.234 68.4906 54.8055 67.0694 56.3695 67.4078Z" fill="#DFACAA" fill-opacity="0.2"/>
<path fill-rule="evenodd" clip-rule="evenodd" d="M45.7271 58.8963C46.2534 59.8212 46.0805 60.5806 45.0428 61.1295C43.7269 60.325 44.4262 58.776 45.7271 58.8963Z" fill="#DFACAA" fill-opacity="0.2"/>
<path fill-rule="evenodd" clip-rule="evenodd" d="M82.0994 120.804C81.6482 120.323 82.0092 120.03 82.3551 119.736C82.8138 120.225 82.4453 120.511 82.0994 120.804Z" fill="#DFACAA" fill-opacity="0.2"/>
<path fill-rule="evenodd" clip-rule="evenodd" d="M74.1234 107.72C73.8452 106.961 74.146 105.757 75.2062 106.148C75.304 106.75 74.6798 107.713 74.1234 107.72Z" fill="#DFACAA" fill-opacity="0.2"/>
<path fill-rule="evenodd" clip-rule="evenodd" d="M89.8365 133.128C90.1599 132.767 90.5509 132.046 91.0622 132.158C91.4532 132.865 91.2727 133.429 90.5133 133.858C90.2501 133.752 90.017 133.542 89.8365 133.128Z" fill="#DFACAA" fill-opacity="0.2"/>
<path fill-rule="evenodd" clip-rule="evenodd" d="M63.5493 89.6211C63.0379 88.8165 64.0531 89.2075 64.2787 88.9519C64.3689 88.8391 64.429 87.9142 64.7674 87.5156C64.9178 87.3352 65.5194 87.2224 65.5946 87.0118C66.0156 85.8313 64.6922 83.974 66.2713 83.6506C66.715 84.38 65.4592 83.8913 65.7449 84.6507C67.2188 85.0718 65.9029 86.4554 65.7976 87.3427C65.9104 87.4555 66.0683 87.4104 66.166 87.5758C66.918 87.448 67.0383 86.9592 67.6624 87.8014C68.482 87.2901 67.9933 86.4704 68.279 85.8313C68.7151 85.4027 68.9407 85.8238 69.3768 85.3952C69.8731 86.5456 69.1588 86.9893 68.4294 87.5683C68.5196 87.9894 69.061 88.245 69.1362 88.7263C69.1437 88.7864 68.3692 90.922 68.1211 91.1626C67.9331 91.343 67.6022 91.0648 67.2564 91.2302C67.0308 91.3355 66.9631 91.8093 66.6924 91.8017C66.5796 91.7942 64.6847 90.8242 64.79 90.9144C64.1207 90.3505 64.5418 89.779 63.5493 89.6211Z" fill="#DFACAA" fill-opacity="0.2"/>
<path fill-rule="evenodd" clip-rule="evenodd" d="M80.582 117.187C80.0406 116.856 81.0256 116.255 81.0783 116.886C80.9053 116.984 80.7399 117.089 80.582 117.187Z" fill="#DFACAA" fill-opacity="0.2"/>
<path fill-rule="evenodd" clip-rule="evenodd" d="M72.9255 103.9C72.745 102.283 74.497 103.765 72.9255 103.9V103.9Z" fill="#DFACAA" fill-opacity="0.2"/>
<path fill-rule="evenodd" clip-rule="evenodd" d="M63.377 84.499C64.7757 85.7623 63.1139 87.1083 62.4296 86.6646C61.5348 86.0931 62.0235 84.6569 63.377 84.499Z" fill="#DFACAA" fill-opacity="0.2"/>
<path fill-rule="evenodd" clip-rule="evenodd" d="M82.6873 119.533C82.1234 118.969 82.8828 118.728 82.3113 118.172C84.4093 117.036 84.7251 119.773 82.6873 119.533Z" fill="#DFACAA" fill-opacity="0.2"/>
<path fill-rule="evenodd" clip-rule="evenodd" d="M84.2568 120.623C84.1515 120.36 84.723 120.262 84.5501 119.984C85.1216 119.826 84.5877 120.533 85.0539 120.811C84.708 121.097 84.5877 120.45 84.2568 120.623Z" fill="#DFACAA" fill-opacity="0.2"/>
<path fill-rule="evenodd" clip-rule="evenodd" d="M60.4362 77.4316C60.6242 77.8302 61.3687 77.8076 61.5416 78.1234C62.0153 78.9731 60.9175 80.1537 60.4889 80.1311C58.9624 80.0484 59.2858 78.1234 60.4362 77.4316Z" fill="#DFACAA" fill-opacity="0.2"/>
<path fill-rule="evenodd" clip-rule="evenodd" d="M68.0295 93.2532C67.3753 92.3885 67.9393 92.2381 68.616 91.9824C69.1499 92.8848 68.8717 92.8547 68.0295 93.2532Z" fill="#DFACAA" fill-opacity="0.2"/>
<path fill-rule="evenodd" clip-rule="evenodd" d="M64.6931 86.6492C64.6405 86.4011 64.7006 86.183 64.9864 86.0176C65.2947 86.4537 65.0766 86.7394 64.6931 86.6492Z" fill="#DFACAA" fill-opacity="0.2"/>
<path fill-rule="evenodd" clip-rule="evenodd" d="M83.0031 115.939C82.7624 115.999 82.597 115.578 82.7023 115.442C82.9655 115.074 83.4467 115.818 83.0031 115.939Z" fill="#DFACAA" fill-opacity="0.2"/>
<path fill-rule="evenodd" clip-rule="evenodd" d="M74.8214 102.515C75.1673 102.267 75.4305 102.327 75.6185 102.711C75.2726 102.966 75.0094 102.899 74.8214 102.515Z" fill="#DFACAA" fill-opacity="0.2"/>
<path fill-rule="evenodd" clip-rule="evenodd" d="M87.8813 120.231C88.4453 120.795 88.6483 121.126 88.8889 121.886C87.6181 123.187 85.7533 121.389 87.8813 120.231Z" fill="#DFACAA" fill-opacity="0.2"/>
<path fill-rule="evenodd" clip-rule="evenodd" d="M74.0759 100.929C73.9631 100.523 73.9481 100.147 74.6023 99.9287C74.9557 100.004 75.3016 100.575 75.2114 100.921C74.873 100.733 74.4669 100.869 74.0759 100.929Z" fill="#DFACAA" fill-opacity="0.2"/>
<path fill-rule="evenodd" clip-rule="evenodd" d="M72.6567 97.4784C72.0176 96.546 73.2357 96.6588 73.6192 96.4407C74.0253 96.2152 74.3712 95.1775 74.8148 96.1625C74.6043 96.2528 74.5441 96.3806 74.5817 96.531C74.2358 96.8017 73.935 96.8693 73.717 96.5986C73.732 97.3205 73.7395 97.1626 73.0252 97.704C72.9274 97.501 72.8071 97.4333 72.6567 97.4784Z" fill="#DFACAA" fill-opacity="0.2"/>
<path fill-rule="evenodd" clip-rule="evenodd" d="M50.6903 59.9566C50.0661 60.0544 50.6527 59.0543 50.991 59.325C51.0963 59.5881 50.5323 59.6859 50.6903 59.9566Z" fill="#DFACAA" fill-opacity="0.2"/>
<path fill-rule="evenodd" clip-rule="evenodd" d="M74.3842 98.4639C74.1511 98.5316 73.9856 98.103 74.0834 97.9676C74.3541 97.5992 74.8428 98.3361 74.3842 98.4639Z" fill="#DFACAA" fill-opacity="0.2"/>
<path fill-rule="evenodd" clip-rule="evenodd" d="M76.1376 100.584C75.9045 100.644 75.7316 100.223 75.8368 100.087C76.1 99.7115 76.5813 100.456 76.1376 100.584Z" fill="#DFACAA" fill-opacity="0.2"/>
<path fill-rule="evenodd" clip-rule="evenodd" d="M44.3285 48.3906C44.0804 48.0447 44.1405 47.7815 44.524 47.5935C44.7722 47.9319 44.7045 48.2026 44.3285 48.3906Z" fill="#DFACAA" fill-opacity="0.2"/>
<path fill-rule="evenodd" clip-rule="evenodd" d="M89.4302 122.014C89.1369 121.706 89.4753 121.556 89.7234 121.383C89.7761 121.631 89.7159 121.857 89.4302 122.014Z" fill="#DFACAA" fill-opacity="0.2"/>
<path fill-rule="evenodd" clip-rule="evenodd" d="M70.6475 91.1998C71.7603 90.0869 72.0536 90.6885 72.783 91.7187C72.7078 92.0796 72.1664 92.3202 71.7227 92.5909C71.4144 91.8991 70.9257 91.9593 70.6475 91.1998Z" fill="#DFACAA" fill-opacity="0.2"/>
<path fill-rule="evenodd" clip-rule="evenodd" d="M77.1368 101.11C77.1368 100.779 77.0692 100.434 77.4978 100.208C77.6331 100.426 77.7685 100.652 77.9038 100.87C77.603 101.148 77.3925 101.028 77.1368 101.11Z" fill="#DFACAA" fill-opacity="0.2"/>
<path fill-rule="evenodd" clip-rule="evenodd" d="M60.5575 71.6707C58.2791 72.0767 61.6253 73.8513 60.5575 71.6707V71.6707Z" fill="#DFACAA" fill-opacity="0.2"/>
<path fill-rule="evenodd" clip-rule="evenodd" d="M56.5328 67.3022C56.4576 67.0466 56.6682 66.8661 56.5629 66.6029C57.3224 66.3698 58.2247 66.6856 58.6909 65.9863C59.9542 67.0315 58.7736 67.2646 58.706 68.2497C57.8487 68.4978 57.2773 67.5579 56.5328 67.3022Z" fill="#DFACAA" fill-opacity="0.2"/>
<path fill-rule="evenodd" clip-rule="evenodd" d="M45.3899 48.654C45.1793 48.4134 45.3748 48.2705 45.2545 48.0524C45.5402 47.7893 45.9613 48.6615 45.3899 48.654Z" fill="#DFACAA" fill-opacity="0.2"/>
<path fill-rule="evenodd" clip-rule="evenodd" d="M78.3775 102.395C78.5655 102.109 77.8436 101.606 78.4678 101.433C78.7836 101.831 79.0317 102.222 78.3775 102.395Z" fill="#DFACAA" fill-opacity="0.2"/>
<path fill-rule="evenodd" clip-rule="evenodd" d="M86.5216 115.382C86.3261 114.916 86.7096 114.585 86.4088 114.089C86.9878 114.028 87.5818 113.901 87.9428 114.743C87.5518 114.72 87.3337 115.803 86.5216 115.382Z" fill="#DFACAA" fill-opacity="0.2"/>
<path fill-rule="evenodd" clip-rule="evenodd" d="M62.6178 75.4156C62.3095 75.0096 62.2494 74.6637 62.7156 74.4531C63.2269 74.5659 63.2946 75.19 62.6178 75.4156Z" fill="#DFACAA" fill-opacity="0.2"/>
<path fill-rule="evenodd" clip-rule="evenodd" d="M68.0305 83.9281C67.4891 82.898 68.1132 82.7927 68.79 82.5596C68.9253 82.7776 69.0607 83.0032 69.196 83.2213C69.0757 83.7476 68.4591 83.7852 68.0305 83.9281Z" fill="#DFACAA" fill-opacity="0.2"/>
<path fill-rule="evenodd" clip-rule="evenodd" d="M52.5869 58.5803C52.4515 58.3547 52.3162 58.1366 52.1808 57.9186C52.3688 57.9261 52.5568 57.9261 52.7824 57.7832C53.0305 58.1291 52.9629 58.3923 52.5869 58.5803Z" fill="#DFACAA" fill-opacity="0.2"/>
<path fill-rule="evenodd" clip-rule="evenodd" d="M63.4128 75.611C64.2925 75.2651 65.0821 75.3253 65.9017 75.2275C65.9468 75.8817 64.0218 76.0171 63.4128 75.611Z" fill="#DFACAA" fill-opacity="0.2"/>
<path fill-rule="evenodd" clip-rule="evenodd" d="M61.7886 71.8294C61.5781 71.5888 61.7736 71.4459 61.6533 71.2278C61.8413 71.2354 62.0293 71.2353 62.2548 71.085C62.3902 71.4083 62.2022 71.6489 61.7886 71.8294Z" fill="#DFACAA" fill-opacity="0.2"/>
<path fill-rule="evenodd" clip-rule="evenodd" d="M50.6464 53.1727C50.3982 52.8268 50.4584 52.5637 50.8419 52.3682C51.0975 52.7141 51.0298 52.9772 50.6464 53.1727Z" fill="#DFACAA" fill-opacity="0.2"/>
<path fill-rule="evenodd" clip-rule="evenodd" d="M69.7982 84.2204C69.5124 83.8669 70.1666 83.7466 69.9937 83.4233C70.5952 83.3105 70.114 84.085 69.7982 84.2204Z" fill="#DFACAA" fill-opacity="0.2"/>
<path fill-rule="evenodd" clip-rule="evenodd" d="M87.9422 113.606C88.4836 113.659 88.2129 112.99 88.2355 112.975C88.4836 112.764 88.5287 113.366 88.7017 113.373C88.9573 113.381 88.7919 112.651 88.7318 112.674C88.9649 112.591 89.1679 112.967 89.3634 112.967C90.0176 112.96 89.6642 112.155 90.2958 112.629C90.6943 112.93 90.2357 113.629 90.8372 113.892C89.8146 113.937 89.2732 115.817 87.9422 113.606Z" fill="#DFACAA" fill-opacity="0.2"/>
<path fill-rule="evenodd" clip-rule="evenodd" d="M64.6237 72.3782C63.9545 71.9195 63.0145 72.0248 62.6837 71.0547C62.5483 70.6637 63.0596 70.7765 63.1499 70.3179C63.195 70.0697 62.631 68.8215 63.5108 69.4155C63.6236 69.3027 63.5785 69.1448 63.7364 69.0471C63.5484 68.4605 63.0897 69.0019 62.9017 68.4229C62.9845 68.1146 63.3679 67.8815 63.789 67.6484C64.3455 68.1598 63.7665 68.3929 63.7966 68.7839C64.2252 69.3704 64.759 69.1147 65.0974 68.6711C65.5185 69.4982 65.5486 69.7088 65.8794 70.6938C65.2779 70.566 65.5862 71.4533 64.6538 71.6638C65.6238 72.4459 65.1952 73.07 65.8644 73.6565C65.3004 74.243 64.0673 74.6415 63.6687 73.4083C63.5559 73.0624 64.1349 73.2204 64.165 73.1076C64.2778 72.6564 63.5559 72.0849 64.6237 72.3782Z" fill="#DFACAA" fill-opacity="0.2"/>
<path fill-rule="evenodd" clip-rule="evenodd" d="M89.312 110.268C90.5302 112.163 86.981 112.411 87.3494 110.78C88.0412 110.486 88.6578 110.471 89.312 110.268Z" fill="#DFACAA" fill-opacity="0.2"/>
<path fill-rule="evenodd" clip-rule="evenodd" d="M61.8801 69.7318C61.6695 69.4912 61.8651 69.3558 61.7447 69.1378C62.023 68.8746 62.4441 69.7393 61.8801 69.7318Z" fill="#DFACAA" fill-opacity="0.2"/>
<path fill-rule="evenodd" clip-rule="evenodd" d="M58.6099 63.9942C58.3543 63.6934 58.3242 63.4528 58.64 63.2949C58.7453 63.4603 58.843 63.6258 58.9408 63.7912C58.8355 63.8664 58.7227 63.9265 58.6099 63.9942Z" fill="#DFACAA" fill-opacity="0.2"/>
<path fill-rule="evenodd" clip-rule="evenodd" d="M69.8732 80.9884C69.7905 80.5898 70.0461 80.274 70.3995 79.9883C70.9936 80.5447 70.392 81.1162 69.8732 80.9884Z" fill="#DFACAA" fill-opacity="0.2"/>
<path fill-rule="evenodd" clip-rule="evenodd" d="M53.2767 53.384C53.021 52.8952 53.1338 52.4967 53.6978 52.2185C53.9835 52.5719 54.0587 52.8727 54.0361 53.1509C53.7354 53.4291 53.5323 53.3013 53.2767 53.384Z" fill="#DFACAA" fill-opacity="0.2"/>
<path fill-rule="evenodd" clip-rule="evenodd" d="M51.2106 47.3767C51.7595 47.888 50.7519 48.0159 51.2181 48.5122C50.4661 48.7528 50.4586 47.6098 51.2106 47.3767Z" fill="#DFACAA" fill-opacity="0.2"/>
<path fill-rule="evenodd" clip-rule="evenodd" d="M62.691 66.9648C62.0744 66.5286 63.1948 66.5211 62.8865 66.1602C63.4805 66.0549 62.9993 66.8294 62.691 66.9648Z" fill="#DFACAA" fill-opacity="0.2"/>
<path fill-rule="evenodd" clip-rule="evenodd" d="M56.4279 56.6934C57.4204 56.573 56.3226 55.7684 58.2777 54.8887C59.6011 56.4452 57.4731 59.1221 56.4279 56.6934Z" fill="#DFACAA" fill-opacity="0.2"/>
<path fill-rule="evenodd" clip-rule="evenodd" d="M66.3924 72.6632C66.0841 72.2121 66.5277 71.8361 66.8511 71.9263C66.9864 72.2421 66.7984 72.4828 66.3924 72.6632Z" fill="#DFACAA" fill-opacity="0.2"/>
<path fill-rule="evenodd" clip-rule="evenodd" d="M76.5648 86.0029C74.8955 86.2436 76.9558 87.8377 76.5648 86.0029V86.0029Z" fill="#DFACAA" fill-opacity="0.2"/>
<path fill-rule="evenodd" clip-rule="evenodd" d="M89.2367 108.275C88.9435 107.967 89.2819 107.816 89.53 107.636C89.5826 107.892 89.5225 108.11 89.2367 108.275Z" fill="#DFACAA" fill-opacity="0.2"/>
<path fill-rule="evenodd" clip-rule="evenodd" d="M82.0254 96.0793C81.7772 95.7334 81.8374 95.4702 82.2209 95.2822C82.5818 95.6507 82.5142 95.9139 82.0254 96.0793Z" fill="#DFACAA" fill-opacity="0.2"/>
<path fill-rule="evenodd" clip-rule="evenodd" d="M77.5358 86.0947C77.8366 86.7263 77.9795 86.1323 77.596 85.824C77.8366 85.6661 78.4382 86.6662 78.0321 85.7864C79.1149 85.5834 78.363 86.3654 79.1074 87.1775C78.1975 88.6664 76.25 87.1098 77.5358 86.0947Z" fill="#DFACAA" fill-opacity="0.2"/>
<path fill-rule="evenodd" clip-rule="evenodd" d="M67.8199 72.0184C67.4063 71.3341 68.0605 70.3791 68.9027 70.4468C69.4215 71.2814 69.2411 71.6424 70.0457 71.5672C70.5119 72.0108 69.8201 72.1687 69.9479 72.5297C69.226 72.4018 68.5493 72.1161 67.8199 72.0184Z" fill="#DFACAA" fill-opacity="0.2"/>
<path fill-rule="evenodd" clip-rule="evenodd" d="M75.7769 82.8459C75.4987 82.5676 75.0249 82.2819 74.9046 81.7856C74.6941 80.9284 76.3032 78.4846 77.3109 78.274C78.2809 78.071 79.4464 79.3042 79.5892 80.5223C79.687 81.3946 78.4012 83.2519 77.747 83.4624C77.0251 83.6955 76.386 83.4474 75.7769 82.8459Z" fill="#DFACAA" fill-opacity="0.2"/>
<path fill-rule="evenodd" clip-rule="evenodd" d="M56.3898 51.0378C56.074 50.7295 56.5628 50.6092 56.4199 50.3385C56.8711 50.1505 56.8184 50.9701 56.3898 51.0378Z" fill="#DFACAA" fill-opacity="0.2"/>
<path fill-rule="evenodd" clip-rule="evenodd" d="M68.4375 70.0555C68.1442 69.7472 68.4826 69.5968 68.7308 69.4238C68.7834 69.6645 68.7308 69.89 68.4375 70.0555Z" fill="#DFACAA" fill-opacity="0.2"/>
<path fill-rule="evenodd" clip-rule="evenodd" d="M81.3182 89.6956C81.055 89.4099 81.9273 88.9888 81.9197 89.5603C81.6791 89.7708 81.5362 89.5753 81.3182 89.6956Z" fill="#DFACAA" fill-opacity="0.2"/>
<path fill-rule="evenodd" clip-rule="evenodd" d="M80.7701 87.3046C79.9054 86.1541 82.2514 84.7781 82.9282 85.9887C83.447 86.9286 81.883 88.7859 80.7701 87.3046Z" fill="#DFACAA" fill-opacity="0.2"/>
<path fill-rule="evenodd" clip-rule="evenodd" d="M56.0667 47.1426C55.5253 46.5862 55.9013 46.2553 55.9539 45.8417C55.3147 46.1049 54.277 44.8642 55.3072 44.413C54.1943 44.1499 54.2996 42.8565 55.6606 42.3828C56.2095 43.1648 55.9313 43.8942 55.2696 43.9769C55.6907 44.4281 56.8938 44.4732 56.0742 45.3003C56.7961 45.6312 56.969 45.556 57.3149 46.5937C56.8713 46.5786 56.7284 47.1351 56.0667 47.1426Z" fill="#DFACAA" fill-opacity="0.2"/>
<path fill-rule="evenodd" clip-rule="evenodd" d="M92.3325 104.795C92.0393 104.494 92.3776 104.336 92.6258 104.163C92.6859 104.411 92.6258 104.629 92.3325 104.795Z" fill="#DFACAA" fill-opacity="0.2"/>
<path fill-rule="evenodd" clip-rule="evenodd" d="M55.2175 40.1658C55.5785 40.7899 55.3228 40.7523 55.8266 41.1583C55.4732 41.4441 55.3679 41.7975 54.7664 42.0306C53.7587 41.3463 54.5633 40.5417 55.2175 40.1658Z" fill="#DFACAA" fill-opacity="0.2"/>
<path fill-rule="evenodd" clip-rule="evenodd" d="M70.3836 67.2802C70.2482 67.0621 70.1129 66.8365 69.9775 66.6185C70.2783 66.25 70.5941 65.5131 71.1957 65.6485C71.895 66.4831 71.2408 67.22 70.3836 67.2802Z" fill="#DFACAA" fill-opacity="0.2"/>
<path fill-rule="evenodd" clip-rule="evenodd" d="M67.6554 62.8052C67.5501 62.6397 67.4524 62.4743 67.3546 62.3089C67.4599 62.0532 67.6629 61.8201 68.084 61.6396C68.5728 62.1735 68.2645 62.527 67.6554 62.8052Z" fill="#DFACAA" fill-opacity="0.2"/>
<path fill-rule="evenodd" clip-rule="evenodd" d="M85.7775 89.9297C85.5143 89.6515 86.3791 89.2304 86.3716 89.7943C86.1384 90.0049 85.9956 89.8094 85.7775 89.9297Z" fill="#DFACAA" fill-opacity="0.2"/>
<path fill-rule="evenodd" clip-rule="evenodd" d="M65.3402 56.0315C64.2874 54.7381 65.8966 53.3621 66.6561 54.0914C67.3027 54.708 66.7613 56.3548 65.3402 56.0315Z" fill="#DFACAA" fill-opacity="0.2"/>
<path fill-rule="evenodd" clip-rule="evenodd" d="M87.3486 91.0193C87.296 90.7711 87.3562 90.5456 87.6419 90.3801C87.9502 90.8238 87.7396 91.1095 87.3486 91.0193Z" fill="#DFACAA" fill-opacity="0.2"/>
<path fill-rule="evenodd" clip-rule="evenodd" d="M69.4284 60.1293C69.1126 59.8135 69.6013 59.7007 69.4585 59.43C69.9172 59.2421 69.8645 60.0617 69.4284 60.1293Z" fill="#DFACAA" fill-opacity="0.2"/>
<path fill-rule="evenodd" clip-rule="evenodd" d="M75.1132 68.7087C75.429 68.5508 75.3388 68.2952 75.6772 68.1373C73.9778 67.5884 75.2862 65.2799 76.6622 66.4003C76.0231 66.8139 76.6171 67.3402 76.4366 67.8966C76.3765 68.0846 76.0682 67.6635 76.0682 67.6711C75.6997 67.9643 76.2411 68.799 75.6772 69.2652C75.4666 69.1975 75.2786 69.0095 75.1132 68.7087Z" fill="#DFACAA" fill-opacity="0.2"/>
<path fill-rule="evenodd" clip-rule="evenodd" d="M85.6504 85.2437C85.5151 84.9279 85.7031 84.6948 86.1166 84.5068C86.5001 84.973 86.0489 85.349 85.6504 85.2437Z" fill="#DFACAA" fill-opacity="0.2"/>
<path fill-rule="evenodd" clip-rule="evenodd" d="M72.5664 61.1743C72.9875 61.5653 72.5965 61.7458 72.9048 62.1067C71.5664 63.1745 71.6791 61.0164 72.5664 61.1743Z" fill="#DFACAA" fill-opacity="0.2"/>
<path fill-rule="evenodd" clip-rule="evenodd" d="M77.0253 69.5957C76.8373 69.1822 77.2358 68.9415 77.5893 69.0243C77.7697 69.4378 77.3712 69.6785 77.0253 69.5957Z" fill="#DFACAA" fill-opacity="0.2"/>
<path fill-rule="evenodd" clip-rule="evenodd" d="M92.9195 93.0801C92.6037 92.674 93.0022 92.4409 93.2804 92.1777C93.5962 92.5838 93.1977 92.8169 92.9195 93.0801Z" fill="#DFACAA" fill-opacity="0.2"/>
<path fill-rule="evenodd" clip-rule="evenodd" d="M85.6106 80.7166C86.3325 79.6638 84.6857 79.5586 84.5654 78.6262C84.3699 77.0847 86.0091 76.6861 87.4153 77.3403C87.0919 77.784 86.9039 78.2502 86.6558 78.7089C86.9265 79.1525 87.1972 79.5886 87.4679 80.0323C86.8438 80.709 86.4904 80.9045 85.6106 80.7166Z" fill="#DFACAA" fill-opacity="0.2"/>
<path fill-rule="evenodd" clip-rule="evenodd" d="M79.9487 70.3023C79.7833 70.0241 79.6104 69.7534 79.4449 69.4752C80.0089 69.0541 80.0916 68.7308 80.7684 68.6631C81.0992 69.4225 80.7984 70.2346 79.9487 70.3023Z" fill="#DFACAA" fill-opacity="0.2"/>
<path fill-rule="evenodd" clip-rule="evenodd" d="M71.8749 57.0534C71.5666 56.7376 72.0479 56.6248 71.905 56.3541C72.3562 56.1661 72.3035 56.9857 71.8749 57.0534Z" fill="#DFACAA" fill-opacity="0.2"/>
<path fill-rule="evenodd" clip-rule="evenodd" d="M63.4211 42.4352C63.0677 42.0216 63.9475 41.9013 63.782 41.5329C64.3986 41.4802 63.9776 42.7284 63.4211 42.4352Z" fill="#DFACAA" fill-opacity="0.2"/>
<path fill-rule="evenodd" clip-rule="evenodd" d="M91.6794 77.2432C92.0027 77.8297 93.1457 77.7846 93.2134 77.8974C93.86 78.905 92.4313 80.6194 91.6343 80.9051C90.0552 81.4691 88.3483 79.8073 90.0176 78.2508C90.4989 77.8071 91.1831 77.8974 91.6794 77.2432Z" fill="#DFACAA" fill-opacity="0.2"/>
<path fill-rule="evenodd" clip-rule="evenodd" d="M79.9788 64.3782C79.4599 63.7842 80.0088 63.4458 80.5653 63.1074C81.2195 64.0323 80.5051 64.2429 79.9788 64.3782Z" fill="#DFACAA" fill-opacity="0.2"/>
<path fill-rule="evenodd" clip-rule="evenodd" d="M64.0539 37.503C63.5426 37.0969 64.069 36.939 63.9787 36.6383C64.4449 36.4954 64.5728 37.4203 64.0539 37.503Z" fill="#DFACAA" fill-opacity="0.2"/>
<path fill-rule="evenodd" clip-rule="evenodd" d="M64.1819 27.6521C65.8587 27.8702 67.5882 27.9077 68.0845 29.5846C68.3326 30.4192 67.2498 31.2013 68.0394 32.1111C67.0393 31.8705 67.5055 33.7955 67.0243 34.5474C65.8813 35.1565 65.2196 34.1714 64.3022 35.2994C63.9714 34.2767 62.0088 34.6828 61.7306 33.6902C61.1892 31.7878 61.0688 31.1336 62.2268 29.2913C62.5351 28.8251 63.6255 28.6221 64.1819 27.6521Z" fill="#DFACAA" fill-opacity="0.2"/>
<path fill-rule="evenodd" clip-rule="evenodd" d="M76.8436 58.1138C76.6331 57.2942 77.1369 56.828 77.7685 57.7754C77.4151 58.0612 77.1143 58.1363 76.8436 58.1138Z" fill="#DFACAA" fill-opacity="0.2"/>
<path fill-rule="evenodd" clip-rule="evenodd" d="M96.4546 84.3338C96.5599 84.1232 96.3944 83.845 96.7554 83.7021C97.2817 84.0706 97.8532 84.5819 98.2517 83.9202C98.0262 84.4691 98.8007 85.3489 98.5976 85.9805C98.372 86.6798 96.6576 87.3942 96.8757 87.2589C96.8155 87.2965 96.8005 87.7025 96.9133 87.695C96.4546 87.7326 95.0259 86.9054 94.9357 85.943C94.9507 86.1309 95.7177 84.2811 95.5898 84.409C95.7026 84.2811 96.4095 83.9428 96.4546 84.3338Z" fill="#DFACAA" fill-opacity="0.2"/>
<path fill-rule="evenodd" clip-rule="evenodd" d="M85.0778 70.1373C84.9425 69.8215 85.1304 69.5884 85.5365 69.4004C85.9275 69.8666 85.4839 70.2501 85.0778 70.1373Z" fill="#DFACAA" fill-opacity="0.2"/>
<path fill-rule="evenodd" clip-rule="evenodd" d="M81.0989 63.2426C80.2643 62.4229 81.1666 61.9417 81.8509 61.874C82.1968 62.4756 81.7155 62.8741 81.0989 63.2426Z" fill="#DFACAA" fill-opacity="0.2"/>
<path fill-rule="evenodd" clip-rule="evenodd" d="M90.0415 76.4226C89.7482 76.1143 90.0866 75.964 90.3348 75.791C90.3949 76.0392 90.3348 76.2572 90.0415 76.4226Z" fill="#DFACAA" fill-opacity="0.2"/>
<path fill-rule="evenodd" clip-rule="evenodd" d="M94.0781 81.9204C94.1833 81.7099 94.0179 81.4316 94.3713 81.2812C94.7623 81.755 94.3413 82.0257 93.845 82.2813C93.5367 81.8753 93.469 81.5294 93.9352 81.3113C93.9277 81.5068 93.9277 81.6948 94.0781 81.9204Z" fill="#DFACAA" fill-opacity="0.2"/>
<path fill-rule="evenodd" clip-rule="evenodd" d="M73.2632 46.6541C72.9474 46.2481 72.8947 45.9022 73.3534 45.6917C73.6693 46.0977 73.7294 46.4436 73.2632 46.6541Z" fill="#DFACAA" fill-opacity="0.2"/>
<path fill-rule="evenodd" clip-rule="evenodd" d="M97.5899 80.236C97.5147 80.2511 97.0861 80.0631 97.1237 79.8375C97.2064 79.3337 98.3644 80.0856 97.5899 80.236Z" fill="#DFACAA" fill-opacity="0.2"/>
<path fill-rule="evenodd" clip-rule="evenodd" d="M76.4675 43.3466C76.1141 42.5195 77.5578 42.8654 76.4675 43.3466V43.3466Z" fill="#DFACAA" fill-opacity="0.2"/>
<path fill-rule="evenodd" clip-rule="evenodd" d="M67.3466 27.9984C66.6849 27.3142 67.4744 26.9908 68.1061 26.6299C68.279 27.1863 68.0083 27.645 67.3466 27.9984Z" fill="#DFACAA" fill-opacity="0.2"/>
<path fill-rule="evenodd" clip-rule="evenodd" d="M74.9499 39.7291C74.5814 39.4358 74.228 39.0824 74.243 38.5711C74.2506 38.368 74.9875 37.2101 75.1679 37.0973C75.4461 36.9243 76.8372 36.8942 76.8974 36.9544C77.8223 37.7289 76.7019 41.0976 74.9499 39.7291Z" fill="#DFACAA" fill-opacity="0.2"/>
<path fill-rule="evenodd" clip-rule="evenodd" d="M86.8506 57.0168C86.6626 56.5656 87.4898 56.6182 87.5499 57.0469C87.2942 57.1145 87.1063 56.9115 86.8506 57.0168Z" fill="#DFACAA" fill-opacity="0.2"/>
<path fill-rule="evenodd" clip-rule="evenodd" d="M71.702 32.1563C71.9201 32.021 72.1457 31.8856 72.3637 31.7502C72.7623 32.1262 72.2359 32.2841 72.4389 32.615C72.1231 32.7578 71.8825 32.5624 71.702 32.1563Z" fill="#DFACAA" fill-opacity="0.2"/>
<path fill-rule="evenodd" clip-rule="evenodd" d="M71.4816 29.5713C71.5944 28.8419 72.3538 28.2779 73.0682 27.6914C73.0155 28.6163 71.8651 29.0524 71.4816 29.5713Z" fill="#DFACAA" fill-opacity="0.2"/>
<path fill-rule="evenodd" clip-rule="evenodd" d="M87.1013 54.8204C86.8382 54.3166 87.6503 53.9406 87.8683 54.5798C87.5751 54.7828 87.3871 54.5873 87.1013 54.8204Z" fill="#DFACAA" fill-opacity="0.2"/>
<path fill-rule="evenodd" clip-rule="evenodd" d="M72.95 30.4872C72.4311 29.8856 72.5364 29.442 73.2808 29.1562C73.7997 29.7503 73.6944 30.1939 72.95 30.4872Z" fill="#DFACAA" fill-opacity="0.2"/>
<path fill-rule="evenodd" clip-rule="evenodd" d="M78.3619 37.8712C77.9108 38.0517 77.9634 37.2396 78.392 37.1719C78.4597 37.4275 78.2566 37.608 78.3619 37.8712Z" fill="#DFACAA" fill-opacity="0.2"/>
<path fill-rule="evenodd" clip-rule="evenodd" d="M72.6996 27.4645C72.7071 27.2765 72.7071 27.0885 72.5568 26.8705C73.1433 26.2088 73.3989 26.9005 73.8576 26.7652C74.181 25.0808 75.6021 24.4718 76.8955 23.5469C77.6324 25.0357 78.2114 23.9905 78.2114 25.6974C78.2039 27.5548 75.9856 30.0587 74.1584 27.254C73.7223 27.1111 73.0982 27.7503 72.6996 27.4645Z" fill="#DFACAA" fill-opacity="0.2"/>
<path fill-rule="evenodd" clip-rule="evenodd" d="M93.0773 57.5339C92.7614 57.1279 92.972 56.8497 93.4382 56.6316C93.7465 57.0452 93.348 57.2708 93.0773 57.5339Z" fill="#DFACAA" fill-opacity="0.2"/>
<path fill-rule="evenodd" clip-rule="evenodd" d="M85.1984 44.6094C85.0405 44.241 85.2661 43.9628 85.2886 43.647C85.8075 43.5567 85.6045 44.4591 85.1984 44.6094Z" fill="#DFACAA" fill-opacity="0.2"/>
<path fill-rule="evenodd" clip-rule="evenodd" d="M85.6185 43.443C85.3026 43.1272 85.7914 43.0144 85.6485 42.7437C86.0997 42.5632 86.0471 43.3828 85.6185 43.443Z" fill="#DFACAA" fill-opacity="0.2"/>
<path fill-rule="evenodd" clip-rule="evenodd" d="M95.6732 58.452C95.4627 58.2114 95.6507 58.0685 95.5379 57.8504C95.8011 57.6474 96.1394 57.873 96.0342 57.5497C96.6658 57.4895 96.2447 58.3392 95.6732 58.452Z" fill="#DFACAA" fill-opacity="0.2"/>
<path fill-rule="evenodd" clip-rule="evenodd" d="M80.1887 32.6691C80.0082 31.9171 79.918 31.1877 80.8053 30.699C82.1738 31.293 81.4068 33.0676 80.1887 32.6691Z" fill="#DFACAA" fill-opacity="0.2"/>
<path fill-rule="evenodd" clip-rule="evenodd" d="M86.5075 41.5414C86.1541 40.7143 87.5903 41.0677 86.5075 41.5414V41.5414Z" fill="#DFACAA" fill-opacity="0.2"/>
<path fill-rule="evenodd" clip-rule="evenodd" d="M93.5059 52.272C93.4533 52.0239 93.5059 51.8058 93.7992 51.6404C94.1075 52.084 93.8894 52.3698 93.5059 52.272Z" fill="#DFACAA" fill-opacity="0.2"/>
<path fill-rule="evenodd" clip-rule="evenodd" d="M96.2727 54.2193C96.205 54.1065 96.1373 54.0012 96.0697 53.8884C96.2351 53.7907 96.4005 53.6854 96.5659 53.5876C96.5584 53.7756 96.5584 53.9636 96.7013 54.1892C96.5584 54.2343 96.4381 54.114 96.2727 54.2193Z" fill="#DFACAA" fill-opacity="0.2"/>
<path fill-rule="evenodd" clip-rule="evenodd" d="M101.049 61.3097C100.229 60.4826 100.29 59.2043 101.47 59.0088C101.372 59.8134 101.884 59.9337 102.147 60.8661C101.756 61.1368 101.365 61.3774 101.049 61.3097Z" fill="#DFACAA" fill-opacity="0.2"/>
<path fill-rule="evenodd" clip-rule="evenodd" d="M108.689 73.4696C108.223 72.9658 108.908 72.5221 109.314 72.6349C109.329 72.9657 109.118 73.244 108.689 73.4696Z" fill="#DFACAA" fill-opacity="0.2"/>
<path fill-rule="evenodd" clip-rule="evenodd" d="M102.922 61.7614C103.313 61.2877 103.441 61.9494 103.659 62.2201C104.02 61.9268 103.283 61.3779 103.922 61.1523C104.178 61.6486 104.449 62.0697 104.922 61.6787C104.967 62.6262 104.561 63.6338 103.704 63.7841C102.298 64.0323 102.952 62.2351 102.922 61.7614Z" fill="#DFACAA" fill-opacity="0.2"/>
<path fill-rule="evenodd" clip-rule="evenodd" d="M111.945 76.9353C111.892 76.6872 111.953 76.4691 112.238 76.3037C112.547 76.7474 112.336 77.0256 111.945 76.9353Z" fill="#DFACAA" fill-opacity="0.2"/>
<path fill-rule="evenodd" clip-rule="evenodd" d="M98.2144 54.407C98.1618 54.1589 98.2144 53.9333 98.5077 53.7754C98.816 54.2115 98.5979 54.4973 98.2144 54.407Z" fill="#DFACAA" fill-opacity="0.2"/>
<path fill-rule="evenodd" clip-rule="evenodd" d="M88.936 26.8857C89.6127 27.9761 89.515 29.0889 88.7179 29.51C86.8907 30.5101 86.1838 26.9309 88.936 26.8857Z" fill="#DFACAA" fill-opacity="0.2"/>
<path fill-rule="evenodd" clip-rule="evenodd" d="M77.8506 12.0563C77.5799 11.2818 77.9559 10.402 78.8357 10.3193C79.4447 11.0863 78.7454 12.0939 77.8506 12.0563Z" fill="#DFACAA" fill-opacity="0.2"/>
<path fill-rule="evenodd" clip-rule="evenodd" d="M89.6786 28.4736C89.3628 28.0676 89.7688 27.8345 90.0395 27.5713C90.5358 28.0826 90.1824 28.6165 89.6786 28.4736Z" fill="#DFACAA" fill-opacity="0.2"/>
<path fill-rule="evenodd" clip-rule="evenodd" d="M93.3802 34.1716C92.741 33.5023 93.1094 33.0737 93.8764 32.7354C94.5081 33.4121 94.1471 33.8407 93.3802 34.1716Z" fill="#DFACAA" fill-opacity="0.2"/>
<path fill-rule="evenodd" clip-rule="evenodd" d="M94.9211 35.9621C94.6053 35.6463 95.094 35.5335 94.9512 35.2628C95.4023 35.0749 95.3497 35.902 94.9211 35.9621Z" fill="#DFACAA" fill-opacity="0.2"/>
<path fill-rule="evenodd" clip-rule="evenodd" d="M88.2202 24.5915C87.9721 24.2456 88.0322 23.9824 88.4157 23.7869C88.6638 24.1328 88.5962 24.4035 88.2202 24.5915Z" fill="#DFACAA" fill-opacity="0.2"/>
<path fill-rule="evenodd" clip-rule="evenodd" d="M103.056 47.8116C102.304 46.8942 102.951 45.9919 103.943 45.9092C104.071 46.1573 104.199 46.3979 104.41 46.3077C104.628 46.9469 103.898 47.8793 103.056 47.8116Z" fill="#DFACAA" fill-opacity="0.2"/>
<path fill-rule="evenodd" clip-rule="evenodd" d="M89.8905 25.8477C89.7777 25.4492 89.9356 25.3364 90.289 25.374C90.3567 25.4868 90.4243 25.5921 90.492 25.7048C90.2514 25.9154 90.1085 25.7274 89.8905 25.8477Z" fill="#DFACAA" fill-opacity="0.2"/>
<path fill-rule="evenodd" clip-rule="evenodd" d="M86.6578 20.5468C86.3194 20.0505 86.7856 19.4489 87.1842 19.5467C87.4699 20.1708 87.2669 20.4565 86.6578 20.5468Z" fill="#DFACAA" fill-opacity="0.2"/>
<path fill-rule="evenodd" clip-rule="evenodd" d="M83.6044 11.0492C83.4691 10.8311 83.3337 10.6056 83.1984 10.3875C83.6119 9.7333 83.8225 9.87617 84.3564 9.68066C85.0406 10.1243 84.3263 10.568 83.6044 11.0492Z" fill="#DFACAA" fill-opacity="0.2"/>
<path fill-rule="evenodd" clip-rule="evenodd" d="M94.3267 26.7795C93.853 26.2457 94.2741 25.9223 94.7478 25.614C95.2366 26.1554 94.9358 26.5013 94.3267 26.7795Z" fill="#DFACAA" fill-opacity="0.2"/>
<path fill-rule="evenodd" clip-rule="evenodd" d="M88.4452 13.7795C88.5505 13.9374 88.7234 13.7871 88.8738 13.7419C90.3627 16.1858 86.1142 15.5541 88.4452 13.7795Z" fill="#DFACAA" fill-opacity="0.2"/>
<path fill-rule="evenodd" clip-rule="evenodd" d="M88.4774 13.0795C88.1691 12.2974 88.2894 11.6207 89.094 11.1094C90.3497 11.6884 89.5978 13.5006 88.4774 13.0795Z" fill="#DFACAA" fill-opacity="0.2"/>
<path fill-rule="evenodd" clip-rule="evenodd" d="M85.7701 6.77099C85.4843 7.03417 85.0708 6.16191 85.6347 6.17695C85.7024 6.28974 85.7701 6.39502 85.8377 6.50781C85.6723 6.56044 85.7174 6.66572 85.7701 6.77099Z" fill="#DFACAA" fill-opacity="0.2"/>
<path fill-rule="evenodd" clip-rule="evenodd" d="M92.5284 17.8774C92.4306 17.712 92.3253 17.5465 92.2276 17.3811C92.393 17.2834 92.5584 17.1781 92.7239 17.0803C92.9795 17.4187 92.9118 17.6819 92.5284 17.8774Z" fill="#DFACAA" fill-opacity="0.2"/>
<path fill-rule="evenodd" clip-rule="evenodd" d="M88.7306 2.68848C89.2795 3.56073 89.8661 5.33533 89.1216 6.31285C87.8509 7.98969 85.2566 7.29789 85.9484 4.83903C86.0161 4.59089 86.4071 4.50817 86.5049 4.27507C86.9636 3.25242 87.347 2.98925 88.7306 2.68848Z" fill="#DFACAA" fill-opacity="0.2"/>
<path fill-rule="evenodd" clip-rule="evenodd" d="M101.371 25.6678C100.807 25.0512 100.995 24.773 101.161 24.2015C101.446 23.2014 101.093 23.4646 101.98 22.5623C104.95 19.5695 106.492 25.743 103.003 26.4799C102.499 26.5927 101.867 26.2242 101.371 25.6678Z" fill="#DFACAA" fill-opacity="0.2"/>
<path fill-rule="evenodd" clip-rule="evenodd" d="M105.875 32.6904C105.875 32.3595 105.808 32.0137 106.236 31.7881C106.454 31.8558 106.642 32.0588 106.808 32.352C106.454 32.6378 106.154 32.713 105.875 32.6904Z" fill="#DFACAA" fill-opacity="0.2"/>
<path fill-rule="evenodd" clip-rule="evenodd" d="M87.3248 1.5074C87.1895 1.19158 87.3774 0.958494 87.7835 0.770508C87.8136 1.14648 87.8061 1.63523 87.3248 1.5074Z" fill="#DFACAA" fill-opacity="0.2"/>
<path fill-rule="evenodd" clip-rule="evenodd" d="M92.5219 6.29705C91.785 5.57519 92.3791 4.67287 93.1761 4.7631C93.695 5.45489 93.304 5.91356 92.5219 6.29705Z" fill="#DFACAA" fill-opacity="0.2"/>
<path fill-rule="evenodd" clip-rule="evenodd" d="M101.718 13.1852C101.267 12.6964 101.627 12.4107 101.973 12.1174C102.372 12.5912 102.282 12.9446 101.718 13.1852Z" fill="#DFACAA" fill-opacity="0.2"/>
<path fill-rule="evenodd" clip-rule="evenodd" d="M7.18468 95.5694C7.64337 95.3889 7.16965 94.1182 8.3126 94.434C8.22989 94.84 8.35772 95.2912 8.41787 95.7273C7.83888 96.3815 7.60577 95.5769 7.18468 95.5694Z" fill="#DFACAA" fill-opacity="0.2"/>
<path fill-rule="evenodd" clip-rule="evenodd" d="M26.441 113.366C26.7268 113.058 26.6591 112.667 27.2306 112.426C27.4637 112.644 27.8396 112.253 27.9675 112.885C28.569 112.299 28.366 111.118 29.5466 111.013C29.5992 111.005 30.5617 111.539 30.6519 111.705C31.2384 112.802 29.2608 114.216 28.3961 112.855C27.8021 113.103 28.5465 113.893 27.772 113.69C27.8096 114.239 28.7495 113.81 28.3435 114.254C27.7419 113.818 26.8772 114.494 26.441 113.366Z" fill="#DFACAA" fill-opacity="0.2"/>
<path fill-rule="evenodd" clip-rule="evenodd" d="M22.4868 99.4249C22.9079 99.1016 22.5094 98.5827 22.9154 98.2519C23.547 98.6279 23.9982 98.7783 23.9907 99.643C24.5622 99.1843 25.1637 100.139 25.7653 101.064C25.0058 101.763 24.4644 101.891 23.6373 101.681C23.2839 101.921 23.9982 102.425 24.0809 102.771C23.6373 103.245 23.517 102.373 23.1786 102.41C22.9605 102.591 23.4192 102.936 23.1485 103.109C22.3515 103.215 21.8928 102.478 21.2536 103.358C20.5994 102.38 19.7798 102.042 19.2008 100.741C19.4865 100.575 19.5542 100.357 19.5016 100.109C19.8776 99.7107 20.0355 100.23 20.3663 100.034C19.7422 99.5001 19.7873 99.831 19.7572 99.0414C20.7724 99.9814 21.4717 98.485 21.3739 97.6052C21.6221 97.7782 21.7198 98.9888 22.4868 99.4249Z" fill="#DFACAA" fill-opacity="0.2"/>
<path fill-rule="evenodd" clip-rule="evenodd" d="M2.86608 44.1203C2.42995 44.2933 3.41499 44.8197 2.67057 44.9174C2.15925 44.2256 1.93366 43.609 1.99382 43.0601C2.66305 43.7895 3.35484 44.2858 4.16694 44.0076C4.52787 43.8872 4.09174 43.594 4.36244 43.2105C4.55795 42.9247 4.91136 43.1052 4.95648 43.0751C5.30989 42.827 5.12943 42.2931 5.15199 42.2781C5.37757 42.0525 5.85129 42.1352 5.91145 42.0374C6.56564 41.075 6.51301 40.2854 6.59572 39.8042C7.66348 40.0298 6.13703 40.8118 6.90402 41.4284C7.20479 41.7141 8.09961 40.9772 7.79883 40.6539C8.18232 40.4508 7.83643 41.2028 8.30263 41.481C8.89667 41.2479 9.00194 40.8945 9.35536 40.6088C9.43807 42.0901 12.0548 42.3157 11.1074 43.8572C10.4682 44.9024 12.6338 46.6017 13.5512 46.0077C13.8821 45.7896 13.4685 45.519 13.5813 45.3084C13.9121 44.6843 13.7693 45.3084 13.7768 44.5038C13.7768 44.2331 14.2656 43.4286 14.431 42.9699C13.7843 42.7443 12.9421 42.1954 12.5662 42.5187C12.0624 41.8344 12.6038 41.3983 12.9497 40.9171C12.7692 42.5713 14.9724 41.5412 14.9874 42.3984C15.6266 41.7066 16.5063 41.075 15.5739 39.9997C16.1905 39.6763 15.8747 39.1274 16.4312 38.7891C16.4838 39.541 15.7694 39.8042 16.0401 40.3907C16.3785 41.1201 17.0778 40.5185 17.6719 41.2103C18.1305 40.8494 18.3185 40.4283 18.2584 39.947C19.0178 40.0072 18.3561 40.902 18.9051 41.3682C19.4389 40.8795 20.221 42.9097 21.1759 42.4886C21.1609 42.9999 21.2436 43.5413 21.7549 44.1805C22.6272 44.4286 23.0332 44.3459 23.3265 45.2708C22.8753 45.1956 22.6046 44.376 22.0557 44.6768C21.7248 45.2558 22.2963 46.0528 22.1384 46.6694C22.5745 47.068 22.4993 46.707 22.8979 46.4288C23.0558 46.7973 22.6497 47.0304 22.8076 47.3913C22.364 47.4891 22.2136 46.3461 21.6421 46.9702C22.2587 47.5191 21.6346 47.647 21.1534 48.4064C20.9654 48.6997 21.2286 49.0681 20.7323 49.5719C20.3939 49.9103 20.3638 49.3839 20.1984 49.4366C19.7096 49.602 19.9954 50.6848 19.4089 50.3765C18.9351 50.0908 17.9726 49.7223 17.7395 50.2562C17.4087 50.5495 18.2659 51.136 18.0178 51.4518C17.1831 51.3315 17.7922 50.369 17.2733 49.8577C17.4839 51.1661 16.4387 49.3839 16.0401 49.6998C15.4085 50.2036 15.8822 52.6624 17.4538 52.0233C17.2733 52.9482 16.1905 52.5872 15.7995 53.0309C15.3108 53.5798 15.7469 54.6852 14.8446 55.204C15.1153 55.595 15.3559 55.986 15.2807 56.3018C14.3859 56.9711 12.3556 57.5049 13.07 59.0088C12.0924 58.1967 11.4608 59.5277 11.4458 60.4526C12.0849 61.0241 12.2579 59.9337 13.0399 59.7081C12.9797 60.603 16.4236 59.4826 16.4988 59.4149C17.0252 58.9938 17.0177 58.505 16.9876 57.9787C17.9952 57.8508 17.3636 58.693 17.8598 59.0389C19.063 59.8736 19.8901 57.8884 21.221 58.5802C21.0857 57.8132 21.8602 57.5726 22.3715 56.7455C22.8076 56.0311 22.4993 54.9935 23.2212 54.4069C23.913 56.1289 21.6196 57.129 22.552 58.9036C22.9806 59.0615 23.5746 58.5426 23.8829 59.2269C23.9732 59.8134 23.9807 60.3774 23.7626 60.8887C23.9957 61.6482 24.5597 61.0842 24.8003 61.8437C24.4394 62.2347 24.1235 63.3626 24.68 63.5055C23.9807 63.7687 24.3792 66.8441 24.3792 68.2277C24.7853 68.2954 25.0635 68.8894 25.6124 68.3856C25.6124 68.9495 25.5071 69.491 24.9582 69.9196C24.695 69.6489 24.3491 69.7165 24.1235 69.2954C23.8002 69.8744 23.1009 70.3632 23.9431 71.2279C23.5897 71.3106 23.0934 72.025 22.8452 71.6641C23.2062 73.4913 20.8827 74.1605 19.7623 73.3183C20.048 73.8673 19.5743 73.9349 19.3412 74.4839C18.7321 75.9126 19.281 78.1233 18.3787 79.6121C18.6118 80.1836 19.2133 79.7023 19.0479 80.3415C17.7997 80.5671 18.5817 81.8454 16.8673 82.3492C16.8823 83.056 16.5214 83.6801 16.2507 84.3193C15.6191 83.8155 14.3783 83.6952 14.1904 84.6652C13.288 84.1614 13.1376 84.4772 12.7617 85.3043C12.2804 84.8081 12.6188 84.5148 12.2203 84.0411C11.0923 84.2967 9.94187 82.2665 9.90427 81.3642C9.40799 80.8152 9.06962 81.2965 8.73876 80.9355C8.32519 80.4994 8.26504 78.7098 8.5207 78.3413C9.23504 77.3036 12.4534 77.5894 11.7616 75.4614C12.4158 75.3035 12.4308 74.9125 13.1226 75.0854C13.8069 73.589 15.1002 74.1681 16.3785 74.4613C16.2958 73.371 15.0325 73.9725 14.2054 73.5139C13.5211 73.1304 13.0549 71.8746 12.1676 72.0325C12.303 71.0324 11.3254 70.5587 11.0247 69.7767C10.5585 68.5661 10.6938 67.1298 9.73133 65.7914C10.5885 65.2575 11.2803 64.9116 10.5134 63.7235C10.378 63.731 8.85155 64.4905 8.38535 64.3401C8.80644 64.4755 7.62588 63.5055 7.71612 63.6107C6.59572 62.2196 7.41534 60.4902 7.85147 58.9863C7.66348 58.6103 7.21983 59.272 6.91906 59.3247C6.52805 58.8961 6.18215 58.1516 5.74602 57.7681C5.41517 57.4824 4.86625 57.6403 4.67826 57.5049C4.06919 57.0839 4.30981 56.6628 3.83608 55.7454C3.70825 55.4973 3.29468 55.407 3.16685 55.016C3.02398 54.5874 3.28716 53.7227 3.08414 53.0158C2.88863 52.324 1.88103 51.6172 1.90359 50.3314C1.90359 50.2712 2.24196 50.1961 2.23444 50.1284C2.12165 48.9177 1.69304 48.2936 3.15181 47.5267C2.86608 46.0829 3.74585 45.5716 2.86608 44.1203Z" fill="#DFACAA" fill-opacity="0.2"/>
<path fill-rule="evenodd" clip-rule="evenodd" d="M30.0643 102.532C30.5981 102.78 31.2072 102.712 31.1997 103.66C30.7636 103.923 30.2898 104.299 29.9364 104.201C30.0116 103.991 29.5605 103.615 29.5981 103.269C29.6206 103.096 30.0567 103.156 30.0342 103.231C30.1695 102.825 29.8612 101.599 30.0643 102.532Z" fill="#DFACAA" fill-opacity="0.2"/>
<path fill-rule="evenodd" clip-rule="evenodd" d="M45.5103 108.112C45.6006 108.676 45.0065 106.69 44.2395 107.525C43.7207 107.683 44.1268 108.059 44.044 108.322C43.2094 107.563 42.2243 108.773 41.2769 107.51C41.0814 107.698 41.3897 108.014 41.51 108.269C40.3445 107.593 40.4272 108.608 39.3369 107.322C39.0662 107.555 38.7504 107.818 37.9082 107.961C37.7352 107.503 37.9608 106.54 37.1637 106.367C36.9006 106.314 35.8102 106.074 36.2614 106.006C36.0885 106.029 36.2689 106.344 36.299 106.435C35.4644 106.405 36.487 105.645 35.7576 105.171C35.5471 104.698 34.923 105.893 34.7951 105.074C35.3591 105.224 35.2162 104.705 35.7877 104.465C35.1861 103.465 34.5996 102.397 33.9078 101.75C34.374 101.352 34.6974 102.051 34.8327 101.412C34.9831 100.389 33.7198 100.209 33.2912 99.6296C33.9605 99.0055 34.156 100.329 34.6598 100.382C36.1937 99.8101 35.7275 98.7574 35.3064 97.7197C35.0357 97.6295 34.9681 97.855 34.374 98.0581C33.2386 96.7647 34.8929 96.4263 35.2613 96.1556C35.8103 96.0278 35.3215 96.9151 35.9306 96.885C35.6899 96.0429 36.5772 96.7723 36.863 96.5391C37.4269 96.103 37.254 94.539 38.8105 94.8999C38.9083 94.0803 39.6151 93.4712 39.6602 92.5614C39.6978 91.9372 38.6376 91.08 39.585 90.5612C39.961 92.02 39.3444 93.9825 41.2393 93.6442C41.337 93.6216 41.9386 93.6742 41.9386 93.6742C42.0364 93.6141 42.2394 93.0351 42.2319 93.0426C43.0214 92.7193 43.9162 93.0652 44.5854 92.0651C43.9012 91.3507 44.5854 90.8093 44.8336 89.8619C45.1043 88.8543 45.202 88.1474 45.6457 87.0947C46.3149 87.7264 44.0215 89.922 45.9991 90.2905C46.1871 90.3281 46.2924 89.9747 46.2322 89.922C47.2248 90.2153 46.3375 91.2605 46.4728 91.8169C47.3376 90.892 47.7586 90.7717 48.5256 90.3356C48.6159 90.6364 48.0895 90.7943 48.5933 91.2003C49.1497 89.5385 50.6461 91.3432 51.9846 90.0423C52.526 90.5311 53.1125 90.8018 53.7892 90.7642C53.7968 91.1928 54.0524 91.6741 54.1652 92.1252C54.4284 91.9748 55.03 91.9523 55.6917 91.644C55.4059 93.2231 52.9546 94.2758 53.8945 96.1481C52.6989 97.4941 51.2853 97.0279 49.9769 97.1708C50.4807 97.7723 51.5936 97.4866 51.2176 98.4641C50.3077 97.9603 50.5784 99.4266 50.5634 99.9981C49.9994 100.118 50.0822 99.2386 50.225 99.0732C49.9167 98.8927 49.5107 100.389 48.8339 100.148C49.7062 101.051 49.2926 100.742 48.9768 101.878C48.8114 102.479 48.1121 104.63 47.4654 104.615C47.8188 106.111 50.1649 106.653 49.5859 108.097C49.4956 108.322 48.0745 108.856 47.7286 108.773C46.6683 108.533 46.6834 106.886 48.1421 106.48C46.9616 105.269 45.0141 106.773 45.5103 108.112ZM49.5332 97.9378C49.8115 98.3513 50.1047 98.6672 50.4656 98.7273C50.7063 98.1408 50.2401 97.5242 49.5332 97.9378ZM46.5255 92.2681C46.4578 92.1553 46.3901 92.05 46.3224 91.9373C45.7585 91.9297 46.1796 92.7945 46.4653 92.5313C46.4127 92.426 46.3675 92.3207 46.5255 92.2681Z" fill="#DFACAA" fill-opacity="0.2"/>
<path fill-rule="evenodd" clip-rule="evenodd" d="M54.3915 132.015C54.6396 132.278 55.2638 132.354 55.1585 131.775C55.9029 132.015 55.166 133.091 54.3389 133.414C53.5869 132.715 54.4141 132.399 54.2938 131.85C54.4968 131.76 54.4817 131.955 54.3915 132.015Z" fill="#DFACAA" fill-opacity="0.2"/>
<path fill-rule="evenodd" clip-rule="evenodd" d="M60.8941 129.638C61.3002 129.368 61.2175 129.014 61.7288 129.135C61.8942 130.338 61.8942 130.052 62.4055 130.992C62.0747 131.187 61.9243 130.669 61.5408 131.067C61.2475 131.278 61.7814 131.691 61.616 131.932C62.1423 132.413 62.2627 131.345 62.5785 132.03C62.6311 132.511 61.7513 132.255 61.6461 132.368C61.0821 132.977 61.834 134.338 60.3302 134.308C58.6984 134.27 58.8789 133.233 57.6232 132.097C58.1495 131.496 59.4053 131.383 59.0443 130.323C58.909 130.27 58.6232 131.045 58.0743 130.232C58.3901 130.075 58.2999 129.819 58.6383 129.661C58.9315 130.022 59.2774 130.127 59.5105 130.721C58.9015 129.42 60.0519 128.3 60.8941 129.638ZM60.4655 129.676C60.3978 130.014 60.9919 130.917 61.5032 130.631C61.1874 130.18 60.9468 129.405 60.4655 129.676Z" fill="#DFACAA" fill-opacity="0.2"/>
<path fill-rule="evenodd" clip-rule="evenodd" d="M52.2394 118.782C52.8184 119.368 54.8937 118.158 54.5253 118.067C54.6982 118.112 54.6456 118.488 54.5629 118.504C55.375 118.428 55.6231 119.376 55.4727 119.992C55.4051 120.271 54.8411 120.158 54.8787 120.135C54.6306 120.368 54.608 121.316 54.0215 121.338C53.9237 121.338 53.8185 120.865 53.7207 120.842C53.6154 120.812 53.3147 121.188 53.2244 121.143C52.6078 120.804 52.495 119.767 52.2394 118.782Z" fill="#DFACAA" fill-opacity="0.2"/>
<path fill-rule="evenodd" clip-rule="evenodd" d="M50.7825 110.811C50.978 110.969 51.2036 111.021 51.4818 110.841C51.6849 111.127 51.4894 111.315 51.7225 111.608C51.339 112.029 51.151 111.638 50.7901 111.946C50.1509 111.277 51.1209 110.991 50.4742 110.315C50.7149 110.217 51.0006 110.668 50.7825 110.811Z" fill="#DFACAA" fill-opacity="0.2"/>
<path fill-rule="evenodd" clip-rule="evenodd" d="M27.5831 72.0021C27.4026 72.3179 26.8612 70.2726 26.6056 69.6485C28.0117 69.4605 27.0192 71.1223 27.5831 72.0021Z" fill="#DFACAA" fill-opacity="0.2"/>
<path fill-rule="evenodd" clip-rule="evenodd" d="M49.8336 107.75C50.2998 106.9 50.8337 107.532 50.9314 107.306C51.0066 107.081 51.4503 107.9 51.2698 108.239C51.2172 108.336 50.9089 108.126 50.8412 108.276C50.8412 108.261 50.7886 108.93 50.9766 108.87C50.6457 108.968 50.4352 108.637 49.8336 107.75Z" fill="#DFACAA" fill-opacity="0.2"/>
<path fill-rule="evenodd" clip-rule="evenodd" d="M65.8951 130C64.8349 129.361 63.722 129.15 63.8799 127.819C63.8273 128.255 64.4739 127.202 64.504 126.984C65.3011 127.18 66.7298 127.142 66.6471 128.631C66.6471 128.609 66.0831 129.601 65.8951 130Z" fill="#DFACAA" fill-opacity="0.2"/>
<path fill-rule="evenodd" clip-rule="evenodd" d="M64.5109 113.57C64.4056 113.412 64.2327 113.563 64.0823 113.608C63.1048 112.984 64.2101 112.141 63.6011 112.081C64.5711 111.502 65.902 112.833 64.5109 113.57Z" fill="#DFACAA" fill-opacity="0.2"/>
<path fill-rule="evenodd" clip-rule="evenodd" d="M28.5376 55.2864C30.2972 55.0232 28.7632 53.5795 29.7182 52.7448C29.6054 53.1358 29.6881 53.8727 30.2596 54.0081C30.3874 53.7073 30.3197 53.3614 30.3498 53.0456C30.9213 52.8877 30.3874 53.5945 30.8536 53.8727C31.5755 53.3389 31.5379 52.6245 31.207 51.835C31.9064 51.9402 31.7108 53.5569 32.5831 53.7223C32.8087 53.3539 33.117 53.008 33.0042 52.5568C33.7787 52.5794 33.2448 53.4517 33.5456 53.8201C33.7637 54.0908 34.0644 54.0231 34.4103 53.7524C34.4855 54.73 35.2901 55.309 35.6586 56.1737C35.7563 56.3918 35.4706 56.67 35.6285 56.873C35.9217 57.2415 36.2902 57.061 36.4631 57.4971C36.3579 57.2339 35.5006 58.6777 36.7038 58.2641C36.794 58.5198 36.3729 58.6551 36.1398 58.8356C36.0044 58.61 35.8691 58.3919 35.7338 58.1739C35.824 58.8581 35.0495 59.3318 35.5458 60.1063C35.839 60.2643 36.1774 60.2116 36.5759 59.9334C37.1399 61.3772 34.7412 60.3771 35.3277 61.6027C34.9592 61.5501 34.7036 61.0764 34.2599 61.3471C33.914 61.5952 34.1547 61.9787 34.4329 62.3772C33.1245 61.8434 32.0041 62.678 31.3048 62.4675C30.0415 62.0915 29.7483 61.3847 29.2294 60.55C29.0866 60.3244 28.2143 60.3244 28.3572 59.4898C28.3722 59.3995 28.7557 59.0762 28.7557 59.0235C28.6655 57.9257 28.4775 56.7301 28.5376 55.2864Z" fill="#DFACAA" fill-opacity="0.2"/>
<path fill-rule="evenodd" clip-rule="evenodd" d="M73.6262 122.563C73.3104 122.676 73.3931 122.879 73.4984 123.097C73.0622 123.33 72.7088 123.247 72.4306 122.841C72.5283 122.676 72.6336 122.518 72.5584 122.307C73.0096 122.187 73.3404 122.585 73.7916 122.465C73.8743 122.668 73.6788 122.653 73.6262 122.563Z" fill="#DFACAA" fill-opacity="0.2"/>
<path fill-rule="evenodd" clip-rule="evenodd" d="M70.2568 116.66C69.3921 116.367 70.1741 114.118 71.0464 115.72C71.0689 116.419 70.3696 116.066 70.2568 116.66Z" fill="#DFACAA" fill-opacity="0.2"/>
<path fill-rule="evenodd" clip-rule="evenodd" d="M71.4586 112.291C72.6317 111.908 73.2407 113.562 71.6015 114.021C71.4511 113.472 71.1052 113.735 70.9323 113.292C71.4962 112.863 71.1127 112.209 71.5865 111.75C71.6015 111.953 71.6165 112.141 71.4586 112.291Z" fill="#DFACAA" fill-opacity="0.2"/>
<path fill-rule="evenodd" clip-rule="evenodd" d="M50.3833 62.4221C51.0676 63.5425 52.3835 62.9334 52.9474 62.9034C52.9549 62.2943 53.2332 61.0686 54.1355 61.4972C54.1881 62.3394 53.4512 62.4898 53.1504 63.2342C52.97 63.6779 53.1429 64.1215 52.9925 64.4674C52.6617 65.2269 52 65.6104 51.8421 66.3022C51.6466 67.1218 51.8571 66.8887 51.1879 67.8361C50.9548 68.1745 51.0826 68.6933 50.9322 68.9039C50.7893 69.0994 49.8569 68.4753 50.5337 69.3776C50.2179 69.513 49.9848 69.325 49.8043 68.9189C49.1426 69.325 48.7365 70.5206 47.8417 69.4303C47.3906 71.0845 44.1271 66.2345 44.0444 64.693C45.0294 64.2343 45.3453 63.4147 45.225 62.1514C45.6836 62.0612 45.5107 63.3696 46.195 63.3771C46.7138 63.2192 46.3078 62.8432 46.3905 62.58C46.6461 62.4973 46.7815 62.9109 46.9619 63.144C47.9846 62.2492 48.6689 62.7229 49.4584 62.7605C49.8193 62.4748 49.4133 61.9935 49.9848 61.7604C50.0449 62.189 50.9097 62.0537 50.6841 61.7905C51.1352 61.61 50.8044 62.362 50.3833 62.4221Z" fill="#DFACAA" fill-opacity="0.2"/>
<path fill-rule="evenodd" clip-rule="evenodd" d="M63.0168 41.774C63.0093 41.962 63.0093 42.15 63.1522 42.3756C63.1597 42.7891 62.7988 42.4959 62.6559 42.6763C62.7386 42.5635 62.3025 43.3757 62.295 43.5787C62.2874 43.6614 62.6333 44.0223 62.5957 44.075C62.513 44.1953 61.8062 44.7893 61.7009 44.8495C60.2271 45.6164 59.2345 44.4885 59.2947 43.135C59.3473 41.9996 59.5955 42.6312 60.0542 41.7665C60.1745 41.5409 59.994 41.3003 59.8135 41.007C60.385 41.1574 60.9565 41.3379 61.4528 41.8266C61.355 41.1424 60.8512 40.3603 61.3776 39.834C61.558 40.2852 61.5355 42.2477 63.0168 41.774Z" fill="#DFACAA" fill-opacity="0.2"/>
<path fill-rule="evenodd" clip-rule="evenodd" d="M92.7467 86.8231C92.679 87.7405 92.9346 87.4773 91.6263 87.9586C92.0248 88.0563 92.3481 88.4774 92.7918 88.3872C92.303 88.7857 93.1527 89.2294 93.0625 89.5828C93.0324 89.6956 91.7541 90.8235 91.7691 90.8235C90.2276 91.0791 90.4006 89.4173 89.8893 88.109C90.0998 88.0187 90.16 87.8909 90.1224 87.7405C90.6788 87.3796 90.8292 88.6955 91.3856 88.327C90.5059 87.1164 90.957 86.0561 91.9346 85.4922C92.1 85.7779 92.318 85.8456 92.5737 85.7855C91.912 86.3945 94.1904 87.6954 92.7467 86.8231Z" fill="#DFACAA" fill-opacity="0.2"/>
<path fill-rule="evenodd" clip-rule="evenodd" d="M77.6555 51.2567C78.0089 51.5499 78.3021 52.0989 78.7533 51.9485C78.9488 51.7605 78.6405 51.4522 78.5127 51.1815C78.8285 51.0461 79.0616 51.2416 79.2496 51.6402C79.2797 51.0386 79.5278 50.4897 79.5353 49.8806C79.9865 49.9483 80.4301 50.0686 80.9339 49.9408C81.3325 49.5046 80.5128 49.467 80.4301 49.1136C81.4453 48.279 80.964 47.0759 81.0392 46.0156C81.6859 46.3239 81.4453 47.6173 81.2197 48.1812C81.5731 49.0535 82.4303 47.8428 82.8815 48.309C83.0619 48.0684 83.1296 47.8053 83.077 47.5045C83.3176 47.5346 83.3702 48.1211 83.9116 48.1286C83.874 47.6022 83.7086 47.0458 83.8665 46.5646C84.047 47.2413 84.7237 48.0459 85.8065 47.8805C85.1749 48.655 87.0999 48.9407 86.0772 49.076C86.2652 49.4595 86.5359 49.5197 86.8743 49.2716C87.0773 50.5875 87.333 51.9184 87.2052 53.1591C86.175 53.1741 85.9945 54.4374 86.6487 54.8585C86.0697 54.9563 84.9719 55.3924 85.6261 56.1593C85.2952 56.1593 84.9042 56.4225 84.7237 55.7984C84.9644 56.5053 83.3928 56.4526 83.7086 57.0993C83.2725 57.0767 81.716 56.3699 81.9115 57.5129C81.4152 57.0316 80.7008 57.4452 80.3399 56.4225C80.3625 57.3324 79.9865 56.4601 79.415 56.7609C79.4977 55.7759 79.0541 55.1367 78.43 54.3998C78.0841 54.7833 77.9713 55.2345 78.1066 55.7383C77.6705 55.3698 76.6854 55.5277 77.3772 56.4075C77.0013 56.4301 76.723 56.009 76.3771 55.8811C76.0914 56.0466 76.0237 56.2646 76.0839 56.5128C75.2643 56.1894 73.813 56.2045 73.7754 54.9638C73.7754 54.881 73.9108 54.4299 73.9108 54.4299C73.6927 53.8584 73.1814 54.2645 73.61 53.9336C74.0762 53.5651 73.4596 52.7004 74.2266 51.9635C74.1288 52.0537 74.8432 52.3771 74.392 51.8582C74.595 51.7906 74.7003 52.1214 74.9259 51.9861C75.0988 51.8432 74.8808 51.6026 74.783 51.3845C75.4974 51.0913 76.3095 51.0537 76.708 50.4446C77.3472 51.1965 78.0314 50.7754 78.3397 50.1288C78.6631 50.6476 78.0164 50.9183 77.6555 51.2567Z" fill="#DFACAA" fill-opacity="0.2"/>
<path fill-rule="evenodd" clip-rule="evenodd" d="M76.5057 48.9998C76.2275 49.1427 76.235 48.1953 76.6035 48.0374C76.7614 48.3983 76.5433 48.6765 76.5057 48.9998Z" fill="#DFACAA" fill-opacity="0.2"/>
<path fill-rule="evenodd" clip-rule="evenodd" d="M97.283 78.605C96.5235 78.6802 97.4936 78.0184 97.2153 77.7402C97.9673 77.6726 96.9973 78.3267 97.283 78.605Z" fill="#DFACAA" fill-opacity="0.2"/>
<path fill-rule="evenodd" clip-rule="evenodd" d="M81.341 45.3677C80.9651 45.3602 81.341 44.3451 81.1305 43.9089C81.8072 43.9916 81.2433 44.9617 81.341 45.3677Z" fill="#DFACAA" fill-opacity="0.2"/>
<path fill-rule="evenodd" clip-rule="evenodd" d="M103.47 60.0608C103.305 59.9556 103.147 59.8503 102.936 59.9255C102.53 59.166 102.575 58.5194 103.124 57.993C103.395 58.4366 103.868 58.0381 104.124 58.5194C104.523 58.384 104.297 58.0908 104.154 57.8201C105.079 58.2938 104.267 59.542 103.47 60.0608Z" fill="#DFACAA" fill-opacity="0.2"/>
<path fill-rule="evenodd" clip-rule="evenodd" d="M96.8668 14.5454C96.5133 13.8988 97.2728 13.5153 97.5209 13.0115C97.4081 13.5529 97.4232 14.1168 96.8668 14.5454Z" fill="#DFACAA" fill-opacity="0.2"/>
<path fill-rule="evenodd" clip-rule="evenodd" d="M100.096 18.7197C99.8699 18.2385 100.614 17.9978 100.517 17.5467C100.975 17.5392 100.487 18.4716 100.096 18.7197Z" fill="#DFACAA" fill-opacity="0.2"/>
<path fill-rule="evenodd" clip-rule="evenodd" d="M47.9162 124.368C47.7207 123.856 47.262 123.57 47.2094 123.202C47.1568 122.811 47.6154 123.067 47.7057 122.901C48.0365 122.307 47.1868 121.984 48.3975 121.796C49.6156 123.375 49.6683 122.292 50.5781 123.879C50.2848 125.277 49.2998 123.879 49.4502 123.886C48.8787 123.886 48.7358 124.345 47.9162 124.368Z" fill="#DFACAA" fill-opacity="0.2"/>
<path fill-rule="evenodd" clip-rule="evenodd" d="M50.7808 105.584C50.6755 105.418 50.5778 105.253 50.48 105.088C50.9387 104.764 51.3673 104.516 51.6079 105.08C51.5177 105.426 51.1267 105.659 50.7808 105.584Z" fill="#DFACAA" fill-opacity="0.2"/>
<path fill-rule="evenodd" clip-rule="evenodd" d="M81.5519 99.7792C81.2812 99.3205 82.0933 98.9069 82.4467 99.0047C82.5219 99.5235 81.958 100.148 81.5519 99.7792Z" fill="#DFACAA" fill-opacity="0.2"/>
<path fill-rule="evenodd" clip-rule="evenodd" d="M104.297 87.5075C104.139 86.8082 104.583 86.703 105.192 86.733C105.462 87.1917 104.65 87.6053 104.297 87.5075Z" fill="#DFACAA" fill-opacity="0.2"/>
<path fill-rule="evenodd" clip-rule="evenodd" d="M91.6637 36.5855C91.7163 36.1268 91.5885 35.623 92.2502 35.3147C92.3855 35.5328 92.5209 35.7583 92.6562 35.9764C92.581 36.3298 92.0171 36.6757 91.6637 36.5855Z" fill="#DFACAA" fill-opacity="0.2"/>
<path fill-rule="evenodd" clip-rule="evenodd" d="M107.697 54.3091C106.96 53.5873 107.652 52.7075 108.351 52.7752C108.877 53.467 108.359 53.9031 107.697 54.3091Z" fill="#DFACAA" fill-opacity="0.2"/>
</svg>
