<svg width="16" height="16" viewBox="0 0 16 16" fill="none" xmlns="http://www.w3.org/2000/svg">
<path d="M14.6667 5.02338V11.3334C14.6667 11.8435 14.4718 12.3344 14.1219 12.7056C13.7719 13.0767 13.2933 13.3001 12.784 13.33L12.6667 13.3334H3.33337C2.82323 13.3334 2.33236 13.1385 1.9612 12.7885C1.59004 12.4385 1.36664 11.96 1.33671 11.4507L1.33337 11.3334V5.02338L7.63004 9.22138L7.70737 9.26538C7.79851 9.30991 7.89861 9.33305 8.00004 9.33305C8.10147 9.33305 8.20157 9.30991 8.29271 9.26538L8.37004 9.22138L14.6667 5.02338Z" fill="#00CAA5"/>
<path d="M12.6667 2.66669C13.3867 2.66669 14.018 3.04669 14.37 3.61802L8.00001 7.86469L1.63 3.61802C1.7972 3.34657 2.02687 3.11902 2.29985 2.95435C2.57284 2.78967 2.88124 2.69265 3.19934 2.67135L3.33334 2.66669H12.6667Z" fill="#00CAA5"/>
</svg>
