<svg width="381" height="223" viewBox="0 0 381 223" fill="none" xmlns="http://www.w3.org/2000/svg">
<path d="M-2.21955 74.9649L61.9649 10.792C76.3569 -3.59734 99.6831 -3.59734 114.075 10.792C128.467 25.1814 128.467 48.5034 114.075 62.8928L84.8448 92.1178C78.5258 98.4356 78.5258 108.676 84.8448 114.994C91.1638 121.311 101.406 121.311 107.725 114.994L114.083 108.637C127.065 95.6564 148.121 95.6564 161.111 108.637C174.094 121.617 174.094 142.668 161.111 155.656L135.06 181.703C132.249 184.514 132.249 189.062 135.06 191.873C137.871 194.683 142.421 194.683 145.232 191.873L208.782 128.334C220.01 117.107 238.223 117.107 249.452 128.334C260.681 139.56 260.681 157.77 249.452 168.997L232.296 186.15C229.837 188.608 229.837 192.585 232.296 195.043C234.755 197.502 238.732 197.502 241.191 195.043L242.616 193.618C272.716 163.524 321.514 163.524 351.613 193.618L381 223H-95C-95 223.008 3.49652 80.6877 -2.21955 74.9649Z" fill="#F6F2FA"/>
</svg>
