<svg width="18" height="17" viewBox="0 0 18 17" fill="none" xmlns="http://www.w3.org/2000/svg">
<path d="M8.97414 0.212158C4.45555 0.212158 0.779297 3.88431 0.779297 8.39786C0.779297 12.9114 4.45555 16.5836 8.97414 16.5836C13.4927 16.5836 17.169 12.9114 17.169 8.39786C17.169 3.88431 13.4927 0.212158 8.97414 0.212158ZM13.239 5.65447L7.94387 11.9512C7.88579 12.0203 7.81351 12.0761 7.73195 12.1149C7.65038 12.1536 7.56142 12.1744 7.47109 12.1759H7.46046C7.3721 12.1758 7.28474 12.1573 7.20404 12.1213C7.12334 12.0854 7.0511 12.0329 6.99201 11.9673L4.72267 9.44862C4.66504 9.38756 4.6202 9.31561 4.59081 9.237C4.56141 9.15838 4.54804 9.07469 4.55149 8.99084C4.55493 8.907 4.57512 8.82468 4.61087 8.74874C4.64662 8.67279 4.69721 8.60476 4.75965 8.54862C4.8221 8.49248 4.89516 8.44938 4.97452 8.42185C5.05388 8.39432 5.13795 8.38291 5.22179 8.3883C5.30563 8.39368 5.38755 8.41576 5.46273 8.45322C5.5379 8.49068 5.60483 8.54277 5.65956 8.60644L7.44391 10.5868L12.2737 4.84456C12.3821 4.71944 12.5354 4.64194 12.7004 4.6288C12.8655 4.61566 13.0292 4.66794 13.156 4.77434C13.2828 4.88074 13.3626 5.03271 13.3781 5.1974C13.3936 5.3621 13.3437 5.52628 13.239 5.65447Z" fill="#00CAA5"/>
</svg>
