<svg width="31" height="30" viewBox="0 0 31 30" fill="none" xmlns="http://www.w3.org/2000/svg">
<path fill-rule="evenodd" clip-rule="evenodd" d="M15.9844 29.8597C24.2686 29.8597 30.9844 23.1754 30.9844 14.9298C30.9844 6.68432 24.2686 0 15.9844 0C7.7001 0 0.984375 6.68432 0.984375 14.9298C0.984375 23.1754 7.7001 29.8597 15.9844 29.8597ZM23.2386 4.9945C22.5814 4.74027 21.8712 4.59002 20.8439 4.54335C19.5706 4.48553 19.1219 4.47852 16.3566 4.47852C13.5912 4.47852 13.1425 4.48553 11.8692 4.54335C10.8419 4.59002 10.1317 4.74028 9.47449 4.9945C8.81697 5.24887 8.31901 5.5713 7.82421 6.06383C7.32941 6.55632 7.00545 7.05193 6.74994 7.7063C6.49452 8.36062 6.3436 9.06736 6.29672 10.0898C6.23862 11.3571 6.23157 11.8037 6.23157 14.5561C6.23157 17.3086 6.23862 17.7552 6.29671 19.0225C6.3436 20.045 6.49452 20.7517 6.74991 21.4059C7.00548 22.0604 7.32944 22.556 7.82426 23.0485C8.31901 23.541 8.81697 23.8634 9.47446 24.1178C10.132 24.3721 10.842 24.5223 11.8693 24.5689C13.143 24.6268 13.592 24.6338 16.3566 24.6338C19.1212 24.6338 19.5702 24.6268 20.8439 24.5689C21.8711 24.5223 22.5811 24.3721 23.2385 24.1179C23.8962 23.8635 24.3941 23.541 24.8889 23.0485C25.3837 22.5561 25.7076 22.0605 25.9632 21.4061C26.2186 20.7517 26.3696 20.0449 26.4164 19.0225C26.4745 17.7544 26.4816 17.3074 26.4816 14.5561C26.4816 11.8049 26.4745 11.3579 26.4164 10.0899C26.3695 9.06736 26.2186 8.36062 25.9632 7.7064C25.7076 7.05186 25.3837 6.55631 24.8889 6.06379C24.3941 5.57125 23.8961 5.24884 23.2386 4.9945ZM11.9718 6.7805C13.2043 6.72453 13.6225 6.71799 16.3566 6.71799C19.0907 6.71799 19.5088 6.72453 20.7413 6.7805C21.5236 6.81603 21.9932 6.91539 22.4236 7.08188C22.791 7.22402 23.0245 7.37521 23.2979 7.6473C23.5713 7.91944 23.7232 8.15185 23.866 8.51762C24.0333 8.94598 24.1331 9.41335 24.1688 10.1919C24.225 11.4194 24.2316 11.836 24.2316 14.5561C24.2316 17.2763 24.225 17.6929 24.1688 18.9204C24.1331 19.699 24.0333 20.1663 23.866 20.5949C23.7232 20.9605 23.5713 21.1929 23.2979 21.465C23.0245 21.7371 22.791 21.8883 22.4236 22.0304C21.993 22.1969 21.5235 22.2963 20.7414 22.3318C19.5083 22.3878 19.0899 22.3943 16.3566 22.3943C13.6233 22.3943 13.2048 22.3878 11.9718 22.3318C11.1896 22.2963 10.7201 22.1969 10.2894 22.0304C9.92212 21.8883 9.68863 21.7371 9.41529 21.465C9.14184 21.1928 8.98991 20.9604 8.84712 20.5947C8.67988 20.1663 8.58008 19.699 8.54438 18.9204C8.48814 17.6937 8.48157 17.2775 8.48157 14.5561C8.48157 11.8349 8.48814 11.4186 8.54438 10.1919C8.58008 9.41335 8.67988 8.94598 8.84717 8.51744C8.9899 8.15189 9.1418 7.9195 9.41525 7.64734C9.68863 7.3752 9.92212 7.22402 10.2896 7.08187C10.7199 6.9154 11.1896 6.81603 11.9718 6.7805ZM11.1066 14.5562C11.1066 17.4421 13.4571 19.7816 16.3566 19.7816C19.2561 19.7816 21.6066 17.4421 21.6066 14.5562C21.6066 11.6702 19.2561 9.33071 16.3566 9.33071C13.4571 9.33071 11.1066 11.6702 11.1066 14.5562ZM19.3566 14.5562C19.3566 16.2053 18.0134 17.5421 16.3566 17.5421C14.6997 17.5421 13.3566 16.2053 13.3566 14.5562C13.3566 12.9071 14.6997 11.5702 16.3566 11.5702C18.0134 11.5702 19.3566 12.9071 19.3566 14.5562ZM20.4816 9.33071C20.4816 9.94913 20.9853 10.4505 21.6066 10.4505C22.2279 10.4505 22.7316 9.94913 22.7316 9.33071C22.7316 8.7123 22.2279 8.21098 21.6066 8.21098C20.9853 8.21098 20.4816 8.7123 20.4816 9.33071Z" fill="white"/>
</svg>
