<svg width="201" height="34" viewBox="0 0 201 34" fill="none" xmlns="http://www.w3.org/2000/svg">
<path d="M28.8314 5.90889L36.6635 31.42C36.7216 31.6096 36.7346 31.8101 36.7012 32.0056C36.6678 32.201 36.589 32.3859 36.4712 32.5454C36.3533 32.7049 36.1998 32.8345 36.0227 32.9238C35.8457 33.0132 35.6502 33.0598 35.4519 33.0598H34.4937C32.5547 33.06 30.6668 32.438 29.1076 31.2852C27.5484 30.1324 26.4003 28.5098 25.832 26.6559L18.8339 3.82911C18.3193 2.15072 18.0996 0.452756 21.3304 0.452756C23.0124 0.384778 24.6681 0.886519 26.0294 1.87674C27.3908 2.86696 28.3781 4.28769 28.8314 5.90889Z" fill="white"/>
<path d="M38.3901 11.5967L40.8039 3.54952C41.6098 1.40311 42.4144 0.331127 44.5595 1.67172C46.3951 2.81774 48.5831 6.49992 47.5106 11.3287L45.1016 18.6295C44.5956 20.1591 43.3272 21.4079 41.2604 19.5877C39.1935 17.7674 37.8548 14.2785 38.3901 11.5967Z" fill="white"/>
<path d="M10.2973 5.90883L18.1294 31.4199C18.1876 31.6095 18.2005 31.8101 18.1671 32.0055C18.1337 32.201 18.0549 32.3859 17.9371 32.5453C17.8193 32.7048 17.6657 32.8344 17.4887 32.9238C17.3117 33.0131 17.1162 33.0597 16.9179 33.0598H15.9597C14.0206 33.0599 12.1327 32.4379 10.5735 31.2851C9.01435 30.1324 7.86619 28.5097 7.2979 26.6558L0.299829 3.82905C-0.214762 2.15066 -0.434428 0.452695 2.7963 0.452695C4.47832 0.384717 6.13404 0.886458 7.49539 1.87668C8.85674 2.8669 9.844 4.28763 10.2973 5.90883Z" fill="white"/>
<path d="M58.2801 32.1714H57.5581L55.137 25.7493L52.8058 32.1738H52.0838L48.97 24.0195H50.2629L52.4889 30.0354L54.6854 24.0195H55.6644L57.965 30.0354H57.995L60.131 24.0195H61.2893L58.2801 32.1714Z" fill="white"/>
<path d="M63.1703 32.1114V24.0195H67.7593L67.6235 24.9985H64.3445V27.5071H67.1878V28.4861H64.3445V31.133H67.9098L67.7593 32.112L63.1703 32.1114Z" fill="white"/>
<path d="M77.0931 28.0126C77.1224 28.569 77.0306 29.1252 76.8242 29.6428C76.6178 30.1604 76.3017 30.6271 75.8975 31.0107C74.9812 31.7803 73.8053 32.1706 72.6106 32.1016H70.2641V24.0122H72.6706C73.8424 23.9559 74.9915 24.3499 75.8822 25.1135C76.2826 25.4797 76.5984 25.9288 76.8075 26.4294C77.0167 26.9301 77.1141 27.4704 77.0931 28.0126ZM75.8602 28.1184C75.8961 27.6834 75.8336 27.2459 75.6772 26.8384C75.5209 26.4309 75.2747 26.0639 74.9571 25.7646C74.247 25.2228 73.3664 24.9532 72.4748 25.0046H71.4346V31.111H72.2166C73.1785 31.1804 74.1368 30.9347 74.9467 30.4111C75.2693 30.1283 75.5203 29.7731 75.679 29.3746C75.8377 28.976 75.8996 28.5455 75.8596 28.1184H75.8602Z" fill="white"/>
<path d="M86.3632 28.0126C86.3924 28.569 86.3007 29.1252 86.0943 29.6428C85.8879 30.1604 85.5717 30.6271 85.1676 31.0107C84.2512 31.7803 83.0754 32.1706 81.8807 32.1016H79.5342V24.0122H81.9406C83.1125 23.9559 84.2616 24.3499 85.1523 25.1135C85.5527 25.4797 85.8685 25.9288 86.0776 26.4294C86.2868 26.9301 86.3842 27.4704 86.3632 28.0126ZM85.1303 28.1184C85.1662 27.6834 85.1036 27.2459 84.9473 26.8384C84.791 26.4309 84.5448 26.0639 84.2272 25.7646C83.5175 25.223 82.6373 24.9534 81.7461 25.0046H80.7047V31.111H81.4866C82.4485 31.1804 83.4069 30.9347 84.2168 30.4111C84.5394 30.1283 84.7903 29.7731 84.949 29.3746C85.1077 28.976 85.1696 28.5455 85.1297 28.1184H85.1303Z" fill="white"/>
<path d="M88.7984 32.1114V24.0195H89.9713V32.1114H88.7984Z" fill="white"/>
<path d="M99.9429 32.1114H98.9964L94.077 25.778H94.0629V32.1114H92.9793V24.0195H94.1057L98.8287 30.0959H98.8434V24.0195H99.9411L99.9429 32.1114Z" fill="white"/>
<path d="M108.753 25.4845C108.129 25.1325 107.423 24.9508 106.707 24.9577C106.299 24.9446 105.892 25.0137 105.511 25.1608C105.13 25.308 104.782 25.5302 104.489 25.8143C104.197 26.1016 103.968 26.4465 103.817 26.8271C103.665 27.2077 103.595 27.6156 103.61 28.025C103.594 28.4462 103.663 28.8663 103.813 29.2604C103.963 29.6544 104.19 30.0143 104.482 30.3188C104.768 30.6134 105.112 30.845 105.493 30.9991C105.873 31.1531 106.282 31.2261 106.692 31.2134C107.304 31.2396 107.91 31.0881 108.437 30.7771V28.9905H106.708V27.9681H109.611V31.3523C108.762 31.9631 107.739 32.2849 106.693 32.2701C106.127 32.2886 105.562 32.1952 105.032 31.9952C104.502 31.7952 104.016 31.4925 103.603 31.1045C103.202 30.7262 102.885 30.2673 102.674 29.7579C102.464 29.2486 102.363 28.7003 102.379 28.1492C102.368 27.5878 102.471 27.0299 102.683 26.5101C102.896 25.9902 103.212 25.5193 103.613 25.1266C104.02 24.7201 104.506 24.401 105.04 24.189C105.575 23.977 106.147 23.8765 106.722 23.8937C107.587 23.8999 108.437 24.128 109.189 24.5563L108.753 25.4845Z" fill="white"/>
<path d="M123.227 28.0126C123.257 28.569 123.165 29.1252 122.959 29.6428C122.752 30.1604 122.436 30.6271 122.032 31.0107C121.115 31.7803 119.94 32.1706 118.745 32.1016H116.398V24.0122H118.805C119.977 23.9559 121.126 24.3499 122.017 25.1135C122.417 25.4797 122.733 25.9288 122.942 26.4294C123.151 26.9301 123.248 27.4704 123.227 28.0126ZM121.993 28.1184C122.029 27.6835 121.967 27.2461 121.811 26.8386C121.655 26.4311 121.409 26.064 121.091 25.7646C120.381 25.2228 119.501 24.9532 118.609 25.0046H117.569V31.111H118.351C119.313 31.1804 120.271 30.9347 121.081 30.4111C121.404 30.1283 121.654 29.773 121.813 29.3745C121.972 28.976 122.033 28.5455 121.993 28.1184Z" fill="white"/>
<path d="M126.388 29.9154L125.561 32.1114H124.388L127.621 24.0195H128.495L131.623 32.1114H130.389L129.532 29.9154H126.388ZM127.998 25.6734L126.735 28.9976H129.231L127.998 25.6734Z" fill="white"/>
<path d="M138.985 24.0195L136.141 28.6666V32.1114H134.968V28.6238L132.186 24.022H133.479L135.631 27.6601L137.766 24.0195H138.985Z" fill="white"/>
<path d="M147.666 24.9826V32.1114H146.493V24.9826H144.101V24.0195H150.087L149.937 24.982L147.666 24.9826Z" fill="white"/>
<path d="M152.103 32.1114V24.0195H153.276V32.1114H152.103Z" fill="white"/>
<path d="M164.102 32.1114V25.4782H164.072L161.109 32.0802H160.448L157.44 25.4782H157.424V32.1114H156.355V24.0195H157.964L160.821 30.2764L163.636 24.0195H165.26V32.1114H164.102Z" fill="white"/>
<path d="M168.276 32.1114V24.0195H172.865L172.73 24.9985H169.451V27.5071H172.293V28.4861H169.449V31.133H173.014L172.864 32.112L168.276 32.1114Z" fill="white"/>
<path d="M175.376 32.1114V24.0195H176.549V31.1337H180.084L179.933 32.1126L175.376 32.1114Z" fill="white"/>
<path d="M181.893 32.1114V24.0195H183.065V32.1114H181.893Z" fill="white"/>
<path d="M193.025 32.1114H192.078L187.159 25.778H187.145V32.1114H186.061V24.0195H187.191L191.914 30.0959H191.929V24.0195H193.03L193.025 32.1114Z" fill="white"/>
<path d="M196.036 32.1114V24.0195H200.625L200.489 24.9985H197.21V27.5071H200.052V28.4861H197.21V31.133H200.775L200.625 32.112L196.036 32.1114Z" fill="white"/>
</svg>
