<svg width="30" height="30" viewBox="0 0 30 30" fill="none" xmlns="http://www.w3.org/2000/svg">
<path fill-rule="evenodd" clip-rule="evenodd" d="M15 29.8597C23.2843 29.8597 30 23.1754 30 14.9298C30 6.68432 23.2843 0 15 0C6.71573 0 0 6.68432 0 14.9298C0 23.1754 6.71573 29.8597 15 29.8597ZM5.11312 8.03878C4.7193 8.40627 4.49805 8.90468 4.49805 9.42439V21.1816C4.49805 21.7013 4.7193 22.1998 5.11312 22.5672C5.50695 22.9347 6.04109 23.1412 6.59805 23.1412H23.398C23.955 23.1412 24.4891 22.9347 24.883 22.5672C25.2768 22.1998 25.498 21.7013 25.498 21.1816V9.42439C25.498 8.90468 25.2768 8.40627 24.883 8.03878C24.4891 7.67129 23.955 7.46484 23.398 7.46484H6.59805C6.04109 7.46484 5.50695 7.67129 5.11312 8.03878ZM14.998 14.9807L8.193 9.42439H8.19405H21.8031L14.998 14.9807ZM15.69 17.0205L23.398 10.7265V21.1816H6.59805V10.7265L14.3061 17.0205C14.4976 17.1771 14.7435 17.2634 14.998 17.2634C15.2526 17.2634 15.4985 17.1771 15.69 17.0205Z" fill="white"/>
</svg>