<svg width="40" height="34" viewBox="0 0 40 34" fill="none" xmlns="http://www.w3.org/2000/svg">
<g opacity="0.6">
<path d="M2.92605 4.90365C4.23836 4.90365 5.30222 3.83982 5.30222 2.52751C5.30222 1.21521 4.23836 0.151367 2.92605 0.151367C1.61374 0.151367 0.549927 1.21521 0.549927 2.52751C0.549927 3.83982 1.61374 4.90365 2.92605 4.90365Z" fill="#31346B" fill-opacity="0.6"/>
<path d="M2.92605 17.3041C4.23836 17.3041 5.30222 16.2402 5.30222 14.9279C5.30222 13.6156 4.23836 12.5518 2.92605 12.5518C1.61374 12.5518 0.549927 13.6156 0.549927 14.9279C0.549927 16.2402 1.61374 17.3041 2.92605 17.3041Z" fill="#31346B" fill-opacity="0.6"/>
<path d="M15.0012 4.90365C16.3135 4.90365 17.3774 3.83982 17.3774 2.52751C17.3774 1.21521 16.3135 0.151367 15.0012 0.151367C13.6889 0.151367 12.6251 1.21521 12.6251 2.52751C12.6251 3.83982 13.6889 4.90365 15.0012 4.90365Z" fill="#31346B" fill-opacity="0.6"/>
<path d="M15.0012 17.3041C16.3136 17.3041 17.3774 16.2402 17.3774 14.9279C17.3774 13.6156 16.3136 12.5518 15.0012 12.5518C13.6889 12.5518 12.6251 13.6156 12.6251 14.9279C12.6251 16.2402 13.6889 17.3041 15.0012 17.3041Z" fill="#31346B" fill-opacity="0.6"/>
</g>
<path opacity="0.6" d="M33.387 33.7338C36.6221 33.7338 39.2447 31.1113 39.2447 27.8762C39.2447 24.6411 36.6221 22.0186 33.387 22.0186C30.152 22.0186 27.5294 24.6411 27.5294 27.8762C27.5294 31.1113 30.152 33.7338 33.387 33.7338Z" fill="#DFACAA" fill-opacity="0.35"/>
</svg>
