<svg width="16" height="16" viewBox="0 0 16 16" fill="none" xmlns="http://www.w3.org/2000/svg">
<g clip-path="url(#clip0_3049_103)">
<path d="M13.6044 10.8977C12.8902 10.124 12.0236 9.50647 11.059 9.08412C10.0945 8.66177 9.05292 8.44373 7.99995 8.44373C6.94698 8.44373 5.90541 8.66177 4.94086 9.08412C3.97631 9.50647 3.10966 10.124 2.3955 10.8977C2.28524 11.0197 2.22356 11.1778 2.22217 11.3422V14.0089C2.22451 14.1841 2.29577 14.3514 2.42055 14.4745C2.54532 14.5976 2.71355 14.6667 2.88883 14.6666H13.1111C13.2879 14.6666 13.4574 14.5964 13.5825 14.4714C13.7075 14.3464 13.7777 14.1768 13.7777 14V11.3333C13.7742 11.172 13.7126 11.0174 13.6044 10.8977Z" fill="#00CAA5"/>
<path d="M7.99978 7.55554C9.718 7.55554 11.1109 6.16264 11.1109 4.44442C11.1109 2.7262 9.718 1.33331 7.99978 1.33331C6.28156 1.33331 4.88867 2.7262 4.88867 4.44442C4.88867 6.16264 6.28156 7.55554 7.99978 7.55554Z" fill="#00CAA5"/>
</g>
<defs>
<clipPath id="clip0_3049_103">
<rect width="16" height="16" fill="white"/>
</clipPath>
</defs>
</svg>
