<svg width="16" height="16" viewBox="0 0 16 16" fill="none" xmlns="http://www.w3.org/2000/svg">
<path d="M5.18152 1.62597L5.89952 1.39664C6.57152 1.18197 7.29019 1.52931 7.57819 2.20797L8.15152 3.55998C8.40152 4.14864 8.26286 4.84131 7.80886 5.27198L6.54686 6.47064C6.62463 7.18798 6.86552 7.89398 7.26952 8.58864C7.6537 9.26055 8.16848 9.84877 8.78352 10.3186L10.3009 9.81198C10.8755 9.62064 11.5015 9.84131 11.8542 10.3593L12.6755 11.566C13.0862 12.1686 13.0122 12.9993 12.5035 13.51L11.9582 14.0573C11.4155 14.602 10.6409 14.8 9.92352 14.576C8.23108 14.048 6.67486 12.4806 5.25486 9.87398C3.83308 7.26286 3.3313 5.04775 3.74952 3.22864C3.92552 2.46331 4.47086 1.85331 5.18286 1.62597" fill="#00CAA5"/>
</svg>
