<svg width="31" height="31" viewBox="0 0 31 31" fill="none" xmlns="http://www.w3.org/2000/svg">
<path d="M15.976 0C7.69067 0 0.972656 6.71802 0.972656 15.0033C0.972656 21.1453 4.66991 26.4233 9.95457 28.7475C9.91438 27.7026 9.94787 26.4434 10.2158 25.3048C10.5038 24.0857 12.1448 17.1266 12.1448 17.1266C12.1448 17.1266 11.6625 16.1688 11.6625 14.7555C11.6625 12.5318 12.9485 10.8707 14.556 10.8707C15.9224 10.8707 16.5788 11.8955 16.5788 13.1212C16.5788 14.4943 15.7014 16.5439 15.2526 18.4461C14.8775 20.0402 16.0497 21.3329 17.6237 21.3329C20.4636 21.3329 22.3792 17.6825 22.3792 13.3557C22.3792 10.067 20.1622 7.60884 16.1368 7.60884C11.5889 7.60884 8.74895 11.0047 8.74895 14.7957C8.74895 16.1018 9.13742 17.0261 9.74024 17.7361C10.0149 18.0643 10.055 18.1983 9.95457 18.5733C9.88089 18.848 9.72014 19.511 9.64647 19.779C9.546 20.1607 9.23789 20.2947 8.8963 20.154C6.79985 19.2967 5.82195 17.006 5.82195 14.4206C5.82195 10.1608 9.41874 5.05023 16.5453 5.05023C22.2721 5.05023 26.043 9.19625 26.043 13.6437C26.043 19.5311 22.7677 23.925 17.9452 23.925C16.3243 23.925 14.8039 23.0476 14.2814 22.0563C14.2814 22.0563 13.4107 25.5124 13.2232 26.1822C12.9084 27.3409 12.2854 28.493 11.7161 29.3972C13.0972 29.8046 14.5294 30.0121 15.9693 30.0134C24.2546 30.0134 30.9727 23.2954 30.9727 15.01C30.9727 6.72472 24.2613 0 15.976 0Z" fill="white"/>
</svg>
