<svg width="46" height="52" viewBox="0 0 46 52" fill="none" xmlns="http://www.w3.org/2000/svg">
<path d="M14.0069 5.06581C15.7138 4.21611 17.2703 3.26114 18.9472 2.64455C27.3313 -0.460985 31.9332 5.14851 31.7001 11.0513C31.6851 11.4047 31.7377 11.7581 31.7678 12.3145C32.4521 12.2168 33.0461 12.0514 33.6326 12.0739C35.5125 12.1341 37.4976 11.916 39.2497 12.4349C41.9191 13.2319 43.265 15.4125 43.5583 18.1872C43.8666 21.0897 43.1147 23.7817 41.8965 26.3759C41.1671 27.9324 40.3625 29.4514 39.4903 31.1883C40.4001 31.5944 41.2874 31.9403 42.1371 32.3689C44.9945 33.8051 46.2803 36.3166 45.4006 39.377C44.9344 41.0012 44.1599 42.6405 43.1297 43.9714C40.3249 47.5958 36.5727 49.9494 32.219 51.333C31.7904 51.4683 31.249 51.7014 30.9106 51.5585C30.309 51.2953 29.6248 50.8667 29.3766 50.3253C29.2338 50.0171 29.8052 49.235 30.2263 48.8741C30.6098 48.5507 31.2415 48.5207 31.7528 48.3402C35.0538 47.1371 38.0766 45.4302 40.2798 42.6705C41.3175 41.3697 42.0394 39.7079 42.4981 38.0987C42.9116 36.6399 42.1296 35.5947 40.5054 34.9706C39.1218 34.4367 37.648 33.557 36.2644 35.1135C33.9334 37.7378 31.1663 39.8056 27.8953 41.0689C26.5719 41.5802 25.083 41.9261 23.6769 41.9111C21.218 41.8885 19.9172 39.6402 21.1428 37.4897C21.782 36.3542 22.8573 35.3616 23.9551 34.6172C26.7072 32.7524 29.8278 31.6997 33.1364 31.4215C35.1666 31.2485 36.5727 30.459 37.3623 28.6017C38.4225 26.0977 39.7685 23.6689 40.4302 21.0672C41.5431 16.6683 38.9714 14.2245 34.5049 15.0215C32.2491 15.4276 30.6399 16.2698 29.715 18.7286C28.0833 23.0749 25.2033 26.6015 21.1353 29.0152C19.5487 29.9552 17.8794 30.6545 15.977 30.5116C13.6008 30.3387 12.2248 28.4814 13.27 26.3458C14.1648 24.5186 15.4281 22.6839 16.9921 21.4131C19.8721 19.0745 23.0302 17.0668 26.1809 15.0892C28.4969 13.638 29.136 12.4349 28.5871 9.4346C28.0983 6.78024 26.3388 4.93046 23.9326 4.81015C20.6616 4.65224 17.9245 6.09598 15.5108 8.12623C15.0822 8.48716 15.0972 9.41955 14.9769 10.1038C14.6084 12.2393 14.4355 14.4275 13.849 16.5029C13.5256 17.6609 12.6534 18.7361 11.8187 19.6686C10.9014 20.6912 9.62305 20.9769 8.32971 20.3227C7.12659 19.7137 6.7431 18.5782 6.90853 17.3225C7.03636 16.3374 7.21682 15.3148 7.63039 14.435C8.52521 12.5552 9.54033 10.728 10.5855 8.92329C11.4503 7.44196 11.3976 6.42682 10.1795 5.03572C9.1794 3.88525 8.22443 3.60703 6.7807 4.35146C5.66782 4.93045 4.66773 5.75008 3.66013 6.52459C2.9157 7.09606 2.23895 7.7653 1.26894 6.99831C0.509479 6.39676 0.486923 5.2613 1.55468 4.41912C3.10369 3.18594 4.75796 1.98283 6.55511 1.20833C8.6756 0.298477 10.6682 1.06545 12.2173 2.77236C12.879 3.48671 13.4279 4.31386 14.0069 5.06581ZM26.0455 18.864C21.218 21.0597 17.2327 24.6089 16.3906 27.3234C20.2931 26.8496 24.113 23.5937 26.0455 18.864ZM24.2033 38.6852C27.0155 38.595 29.8729 37.1287 31.5122 34.9405C27.8953 35.4819 25.7823 36.5723 24.2033 38.6852Z" fill="#A695B5" fill-opacity="0.2"/>
</svg>
