<svg width="135" height="121" viewBox="0 0 135 121" fill="none" xmlns="http://www.w3.org/2000/svg">
<g opacity="0.3">
<path fill-rule="evenodd" clip-rule="evenodd" d="M33.5388 18.0937C33.0315 16.2922 31.162 15.2444 29.3605 15.7518C27.559 16.2591 26.5112 18.1286 27.0186 19.9301L28.055 23.6099L24.3752 24.6463C22.5737 25.1536 21.5259 27.0231 22.0333 28.8246C22.5406 30.6261 24.4101 31.6739 26.2116 31.1665L29.8914 30.1301L30.9278 33.8099C31.4351 35.6114 33.3046 36.6592 35.1061 36.1518C36.9076 35.6445 37.9554 33.775 37.448 31.9735L36.4116 28.2937L40.0914 27.2573C41.8929 26.75 42.9407 24.8805 42.4333 23.079C41.926 21.2775 40.0565 20.2297 38.255 20.7371L34.5752 21.7735L33.5388 18.0937Z" fill="#00F0FF" fill-opacity="0.6"/>
</g>
<g opacity="0.3">
<path d="M64.1332 70.0401C65.4008 69.7004 66.153 68.3975 65.8134 67.1299C65.4737 65.8623 64.1708 65.11 62.9032 65.4497C61.6356 65.7893 60.8834 67.0923 61.223 68.3599C61.5627 69.6275 62.8656 70.3797 64.1332 70.0401Z" fill="#31346B" fill-opacity="0.6"/>
<path d="M69.0209 79.0996C69.3595 80.3634 68.6118 81.6692 67.3407 82.0098C66.0769 82.3484 64.7711 81.6007 64.4305 80.3296C64.0919 79.0658 64.8396 77.76 66.1107 77.4194C67.3837 77.0861 68.6823 77.8358 69.0209 79.0996Z" fill="#31346B" fill-opacity="0.6"/>
<path d="M75.7963 66.9151C77.0639 66.5754 77.8161 65.2725 77.4765 64.0049C77.1368 62.7373 75.8339 61.985 74.5663 62.3247C73.2987 62.6643 72.5465 63.9673 72.8861 65.2349C73.2258 66.5025 74.5287 67.2547 75.7963 66.9151Z" fill="#31346B" fill-opacity="0.6"/>
<path d="M80.6844 75.9747C81.023 77.2385 80.2752 78.5443 79.0041 78.8849C77.7403 79.2235 76.4346 78.4757 76.094 77.2047C75.7554 75.9409 76.5031 74.6351 77.7742 74.2945C79.0399 73.9631 80.3457 74.7109 80.6844 75.9747Z" fill="#31346B" fill-opacity="0.6"/>
<path d="M40.5282 76.3653C41.7958 76.0256 42.5481 74.7227 42.2084 73.4551C41.8688 72.1875 40.5658 71.4352 39.2982 71.7749C38.0306 72.1145 37.2784 73.4175 37.618 74.6851C37.9577 75.9526 39.2606 76.7049 40.5282 76.3653Z" fill="#31346B" fill-opacity="0.6"/>
<path d="M45.4067 85.4268C45.7453 86.6906 44.9975 87.9963 43.7265 88.3369C42.4627 88.6756 41.1569 87.9278 40.8163 86.6567C40.4777 85.3929 41.2254 84.0871 42.4965 83.7466C43.7695 83.4132 45.068 84.1629 45.4067 85.4268Z" fill="#31346B" fill-opacity="0.6"/>
<path d="M52.1918 73.2393C53.4594 72.8996 54.2116 71.5967 53.872 70.3291C53.5323 69.0615 52.2294 68.3093 50.9618 68.6489C49.6942 68.9886 48.942 70.2915 49.2816 71.5591C49.6213 72.8267 50.9242 73.5789 52.1918 73.2393Z" fill="#31346B" fill-opacity="0.6"/>
<path d="M57.0707 82.3018C57.4093 83.5656 56.6616 84.8713 55.3905 85.2119C54.1267 85.5506 52.8209 84.8028 52.4803 83.5317C52.1417 82.2679 52.8895 80.9621 54.1606 80.6216C55.4336 80.2882 56.7321 81.0379 57.0707 82.3018Z" fill="#31346B" fill-opacity="0.6"/>
<path d="M111.307 57.3985C112.575 57.0588 113.327 55.7559 112.988 54.4883C112.648 53.2207 111.345 52.4684 110.078 52.8081C108.81 53.1477 108.058 54.4507 108.397 55.7183C108.737 56.9859 110.04 57.7381 111.307 57.3985Z" fill="#31346B" fill-opacity="0.6"/>
<path d="M116.195 66.458C116.534 67.7218 115.786 69.0276 114.515 69.3682C113.251 69.7068 111.945 68.9591 111.605 67.688C111.266 66.4242 112.014 65.1184 113.285 64.7778C114.558 64.4445 115.857 65.1942 116.195 66.458Z" fill="#31346B" fill-opacity="0.6"/>
<path d="M124.652 51.3631C124.99 52.6269 124.242 53.9327 122.971 54.2733C121.708 54.6119 120.402 53.8641 120.061 52.5931C119.723 51.3293 120.47 50.0235 121.741 49.6829C123.013 49.3423 124.311 50.092 124.652 51.3631Z" fill="#31346B" fill-opacity="0.6"/>
<path d="M127.859 63.334C128.198 64.5978 127.45 65.9036 126.179 66.2442C124.915 66.5828 123.61 65.835 123.269 64.564C122.93 63.3002 123.678 61.9944 124.949 61.6538C126.222 61.3205 127.521 62.0702 127.859 63.334Z" fill="#31346B" fill-opacity="0.6"/>
<path d="M87.702 63.7237C88.9696 63.384 89.7219 62.0811 89.3822 60.8135C89.0426 59.5459 87.7396 58.7936 86.472 59.1333C85.2044 59.4729 84.4522 60.7759 84.7919 62.0435C85.1315 63.3111 86.4344 64.0633 87.702 63.7237Z" fill="#31346B" fill-opacity="0.6"/>
<path d="M92.581 72.7852C92.9196 74.049 92.1718 75.3548 90.9008 75.6953C89.637 76.034 88.3312 75.2862 87.9906 74.0151C87.652 72.7513 88.3997 71.4455 89.6708 71.105C90.9438 70.7717 92.2423 71.5214 92.581 72.7852Z" fill="#31346B" fill-opacity="0.6"/>
<path d="M99.3656 60.5977C100.633 60.258 101.385 58.9551 101.046 57.6875C100.706 56.4199 99.4032 55.6677 98.1356 56.0073C96.868 56.347 96.1158 57.6499 96.4554 58.9175C96.7951 60.1851 98.098 60.9373 99.3656 60.5977Z" fill="#31346B" fill-opacity="0.6"/>
<path d="M104.245 69.6611C104.583 70.9249 103.835 72.2307 102.564 72.5713C101.301 72.9099 99.9948 72.1622 99.6542 70.8911C99.3155 69.6273 100.063 68.3215 101.334 67.9809C102.607 67.6476 103.906 68.3973 104.245 69.6611Z" fill="#31346B" fill-opacity="0.6"/>
</g>
</svg>
