<svg width="48" height="53" viewBox="0 0 48 53" fill="none" xmlns="http://www.w3.org/2000/svg">
<g opacity="0.3">
<path fill-rule="evenodd" clip-rule="evenodd" d="M9.77831 2.53922C9.42945 1.30056 8.1441 0.580133 6.90544 0.928993C5.66679 1.27785 4.94636 2.5632 5.29522 3.80186L6.0078 6.33195L3.4777 7.04454C2.23905 7.3934 1.51862 8.67875 1.86748 9.9174C2.21634 11.1561 3.50168 11.8765 4.74034 11.5276L7.27044 10.815L7.98302 13.3451C8.33188 14.5838 9.61723 15.3042 10.8559 14.9554C12.0945 14.6065 12.815 13.3212 12.4661 12.0825L11.7535 9.55241L14.2836 8.83982C15.5223 8.49096 16.2427 7.20562 15.8939 5.96696C15.545 4.7283 14.2596 4.00787 13.021 4.35673L10.4909 5.06932L9.77831 2.53922Z" fill="#00F0FF" fill-opacity="0.6"/>
</g>
<path opacity="0.3" d="M54.4702 23.2388C59.5225 28.2911 59.5225 36.4824 54.4702 41.5346C49.418 46.5869 41.2267 46.5869 36.1744 41.5346C31.1222 36.4824 31.1222 28.2911 36.1744 23.2388C41.2267 18.1866 49.418 18.1866 54.4702 23.2388Z" stroke="#DFACAA" stroke-opacity="0.65" stroke-width="2"/>
</svg>
