<svg width="93" height="97" viewBox="0 0 93 97" fill="none" xmlns="http://www.w3.org/2000/svg">
<g opacity="0.3">
<path d="M78.3989 5.42222C79.7112 5.42222 80.7751 4.35838 80.7751 3.04607C80.7751 1.73376 79.7112 0.669922 78.3989 0.669922C77.0866 0.669922 76.0228 1.73376 76.0228 3.04607C76.0228 4.35838 77.0866 5.42222 78.3989 5.42222Z" fill="#31346B" fill-opacity="0.6"/>
<path d="M78.3987 17.8148C79.711 17.8148 80.7749 16.751 80.7749 15.4386C80.7749 14.1263 79.711 13.0625 78.3987 13.0625C77.0864 13.0625 76.0226 14.1263 76.0226 15.4386C76.0226 16.751 77.0864 17.8148 78.3987 17.8148Z" fill="#31346B" fill-opacity="0.6"/>
<path d="M90.4737 5.42222C91.7861 5.42222 92.8499 4.35838 92.8499 3.04607C92.8499 1.73376 91.7861 0.669922 90.4737 0.669922C89.1614 0.669922 88.0976 1.73376 88.0976 3.04607C88.0976 4.35838 89.1614 5.42222 90.4737 5.42222Z" fill="#31346B" fill-opacity="0.6"/>
<path d="M90.4737 17.8148C91.7861 17.8148 92.8499 16.751 92.8499 15.4386C92.8499 14.1263 91.7861 13.0625 90.4737 13.0625C89.1614 13.0625 88.0976 14.1263 88.0976 15.4386C88.0976 16.751 89.1614 17.8148 90.4737 17.8148Z" fill="#31346B" fill-opacity="0.6"/>
<path d="M53.9519 5.42222C55.2642 5.42222 56.328 4.35838 56.328 3.04607C56.328 1.73376 55.2642 0.669922 53.9519 0.669922C52.6396 0.669922 51.5757 1.73376 51.5757 3.04607C51.5757 4.35838 52.6396 5.42222 53.9519 5.42222Z" fill="#31346B" fill-opacity="0.6"/>
<path d="M53.9518 17.8148C55.2641 17.8148 56.3279 16.751 56.3279 15.4386C56.3279 14.1263 55.2641 13.0625 53.9518 13.0625C52.6395 13.0625 51.5757 14.1263 51.5757 15.4386C51.5757 16.751 52.6395 17.8148 53.9518 17.8148Z" fill="#31346B" fill-opacity="0.6"/>
<path d="M66.0268 5.42222C67.3391 5.42222 68.403 4.35838 68.403 3.04607C68.403 1.73376 67.3391 0.669922 66.0268 0.669922C64.7145 0.669922 63.6507 1.73376 63.6507 3.04607C63.6507 4.35838 64.7145 5.42222 66.0268 5.42222Z" fill="#31346B" fill-opacity="0.6"/>
<path d="M66.0268 17.8148C67.3391 17.8148 68.403 16.751 68.403 15.4386C68.403 14.1263 67.3391 13.0625 66.0268 13.0625C64.7145 13.0625 63.6507 14.1263 63.6507 15.4386C63.6507 16.751 64.7145 17.8148 66.0268 17.8148Z" fill="#31346B" fill-opacity="0.6"/>
</g>
<path opacity="0.3" d="M20.8162 87.3327C25.9727 82.1763 25.9727 73.8159 20.8162 68.6594C15.6597 63.503 7.2994 63.503 2.14292 68.6594C-3.01357 73.8159 -3.01357 82.1763 2.14292 87.3327C7.2994 92.4892 15.6597 92.4892 20.8162 87.3327Z" fill="#FFCF54" fill-opacity="0.6"/>
</svg>
