<svg width="108" height="76" viewBox="0 0 108 76" fill="none" xmlns="http://www.w3.org/2000/svg">
<g opacity="0.3">
<path fill-rule="evenodd" clip-rule="evenodd" d="M13.0963 3.69307C12.5889 1.89155 10.7195 0.84375 8.91801 1.35114C7.1165 1.85852 6.0687 3.72794 6.57608 5.52945L7.61248 9.20925L3.93268 10.2456C2.13117 10.753 1.08336 12.6224 1.59075 14.424C2.09814 16.2255 3.96755 17.2733 5.76907 16.7659L9.44887 15.7295L10.4853 19.4093C10.9926 21.2108 12.8621 22.2586 14.6636 21.7512C16.4651 21.2438 17.5129 19.3744 17.0055 17.5729L15.9691 13.8931L19.6489 12.8567C21.4504 12.3493 22.4982 10.4799 21.9908 8.6784C21.4835 6.87689 19.614 5.82909 17.8125 6.33647L14.1327 7.37286L13.0963 3.69307Z" fill="#00F0FF" fill-opacity="0.6"/>
</g>
<path opacity="0.3" d="M92.9595 33.4784C100.485 41.0039 100.485 53.2051 92.9595 60.7306C85.434 68.2561 73.2328 68.2561 65.7073 60.7306C58.1818 53.2051 58.1818 41.0039 65.7073 33.4784C73.2328 25.9529 85.434 25.9529 92.9595 33.4784Z" stroke="#DFACAA" stroke-opacity="0.65" stroke-width="2"/>
</svg>
