<svg width="20" height="20" viewBox="0 0 20 20" fill="none" xmlns="http://www.w3.org/2000/svg">
<g id="plus">
<path id="Solid" d="M10.832 4.16666C10.832 3.70642 10.4589 3.33333 9.9987 3.33333C9.53846 3.33333 9.16536 3.70642 9.16536 4.16666V9.16666H4.16536C3.70513 9.16666 3.33203 9.53976 3.33203 9.99999C3.33203 10.4602 3.70513 10.8333 4.16536 10.8333H9.16536V15.8333C9.16536 16.2936 9.53846 16.6667 9.9987 16.6667C10.4589 16.6667 10.832 16.2936 10.832 15.8333V10.8333H15.832C16.2923 10.8333 16.6654 10.4602 16.6654 9.99999C16.6654 9.53976 16.2923 9.16666 15.832 9.16666H10.832V4.16666Z" fill="black"/>
</g>
</svg>
