<svg width="24" height="24" viewBox="0 0 24 24" fill="none" xmlns="http://www.w3.org/2000/svg">
<g id="alcohol">
<path id="Alcohol" d="M9.35268 8.80651H8.60268V9.53204L9.32781 9.5561L9.35268 8.80651ZM7.46504 8.80651L7.48994 9.5561L8.21504 9.53202V8.80651H7.46504ZM11.5505 11.0835L10.8005 11.0817V11.0835H11.5505ZM5.26894 13.3658V12.6158H4.51894V13.3658H5.26894ZM7.29759 13.3658V14.1158V13.3658ZM7.29759 19.1038V18.3538V19.1038ZM5.26894 19.1038H4.51894V19.8538H5.26894V19.1038ZM14.1819 20.9054C13.7677 20.9054 13.4319 21.2412 13.4319 21.6554C13.4319 22.0696 13.7677 22.4054 14.1819 22.4054V20.9054ZM18.3767 22.4054C18.7909 22.4054 19.1267 22.0696 19.1267 21.6554C19.1267 21.2412 18.7909 20.9054 18.3767 20.9054V22.4054ZM15.5293 21.6554C15.5293 22.0696 15.8651 22.4054 16.2793 22.4054C16.6935 22.4054 17.0293 22.0696 17.0293 21.6554H15.5293ZM16.2793 17.9769V17.2269V17.9769ZM18.7363 15.4931L19.4863 15.4936V15.4931H18.7363ZM13.8224 15.4913H14.5724H13.8224ZM13.8224 13.5673H13.0724H13.8224ZM10.1027 8.80651V3.12741H8.60268V8.80651H10.1027ZM10.1027 3.12741C10.1027 2.7583 9.98625 2.39798 9.7668 2.11513C9.54709 1.83195 9.19215 1.59464 8.74463 1.59464V3.09464C8.69328 3.09464 8.6501 3.08045 8.62068 3.06434C8.5931 3.04923 8.58219 3.03529 8.58167 3.03462C8.58099 3.03375 8.58669 3.04108 8.5925 3.0587C8.59815 3.07583 8.60268 3.09914 8.60268 3.12741H10.1027ZM8.74463 1.59464H8.07134V3.09464H8.74463V1.59464ZM8.07134 1.59464C7.62096 1.59464 7.26701 1.83645 7.04991 2.11727C6.83241 2.39861 6.71504 2.75753 6.71504 3.12562H8.21504C8.21504 3.09965 8.21928 3.07735 8.22495 3.06021C8.23079 3.04258 8.23671 3.03461 8.23663 3.03471C8.2364 3.03501 8.23388 3.03823 8.22815 3.04327C8.2224 3.04832 8.2129 3.05564 8.19899 3.06333C8.16967 3.07955 8.12525 3.09464 8.07134 3.09464V1.59464ZM6.71504 3.12562V8.80651H8.21504V3.12562H6.71504ZM7.46504 8.80651C7.44015 8.05692 7.43978 8.05694 7.43939 8.05695C7.43925 8.05695 7.43886 8.05697 7.43858 8.05698C7.43802 8.057 7.43743 8.05702 7.4368 8.05704C7.43554 8.05709 7.43414 8.05714 7.43261 8.05721C7.42954 8.05733 7.42591 8.05749 7.42176 8.0577C7.41344 8.05811 7.40297 8.0587 7.3905 8.05953C7.36556 8.06119 7.33246 8.06383 7.29234 8.06803C7.21234 8.07641 7.10305 8.09111 6.97395 8.11694C6.71901 8.16795 6.36916 8.26583 6.01119 8.45691C5.65063 8.64936 5.26918 8.94351 4.97923 9.38855C4.68616 9.83841 4.51367 10.4012 4.51367 11.0835H6.01367C6.01367 10.6638 6.11636 10.3911 6.23604 10.2074C6.35885 10.0189 6.52774 9.8815 6.71753 9.78019C6.90989 9.67751 7.1104 9.61937 7.26821 9.58779C7.34549 9.57234 7.40818 9.56411 7.44857 9.55988C7.46864 9.55778 7.48284 9.5567 7.49015 9.55621C7.49379 9.55597 7.49569 9.55588 7.4957 9.55588C7.49571 9.55587 7.49524 9.5559 7.49429 9.55594C7.49381 9.55596 7.49321 9.55598 7.49249 9.55601C7.49213 9.55602 7.49173 9.55604 7.49131 9.55605C7.49109 9.55606 7.49075 9.55607 7.49065 9.55607C7.4903 9.55609 7.48994 9.5561 7.46504 8.80651ZM4.51367 11.0835V20.9225H6.01367V11.0835H4.51367ZM4.51367 20.9225C4.51367 21.5549 4.9403 22.4054 5.83296 22.4054V20.9054C5.88847 20.9054 5.93623 20.9205 5.97042 20.9392C6.00281 20.9568 6.0183 20.9746 6.02277 20.9804C6.02992 20.9896 6.01367 20.9715 6.01367 20.9225H4.51367ZM5.83296 22.4054H10.9812V20.9054H5.83296V22.4054ZM10.9812 22.4054C11.8769 22.4054 12.3005 21.5532 12.3005 20.9225H10.8005C10.8005 20.9728 10.784 20.9908 10.7916 20.981C10.7963 20.9749 10.8122 20.9568 10.8449 20.939C10.8794 20.9202 10.9268 20.9054 10.9812 20.9054V22.4054ZM12.3005 20.9225V11.0835H10.8005V20.9225H12.3005ZM12.3005 11.0853C12.3022 10.4029 12.1308 9.83969 11.8383 9.38936C11.5488 8.94386 11.1674 8.6495 10.8069 8.45697C10.4489 8.26581 10.0989 8.16793 9.84392 8.11693C9.71477 8.0911 9.60543 8.0764 9.5254 8.06803C9.48527 8.06383 9.45216 8.06118 9.42722 8.05952C9.41473 8.05869 9.40426 8.05811 9.39595 8.0577C9.39179 8.05749 9.38817 8.05733 9.3851 8.0572C9.38356 8.05714 9.38217 8.05709 9.38091 8.05704C9.38028 8.05702 9.37969 8.057 9.37913 8.05698C9.37885 8.05697 9.37846 8.05695 9.37832 8.05695C9.37793 8.05694 9.37756 8.05692 9.35268 8.80651C9.32781 9.5561 9.32745 9.55609 9.3271 9.55607C9.327 9.55607 9.32665 9.55606 9.32644 9.55605C9.32602 9.55604 9.32563 9.55602 9.32526 9.55601C9.32454 9.55598 9.32394 9.55596 9.32346 9.55594C9.32251 9.5559 9.32205 9.55588 9.32206 9.55588C9.32208 9.55588 9.32398 9.55597 9.32764 9.55621C9.33496 9.5567 9.34918 9.55778 9.36928 9.55988C9.40971 9.56411 9.47245 9.57234 9.54976 9.58781C9.70768 9.61939 9.90815 9.67752 10.1003 9.78013C10.2899 9.88136 10.4582 10.0185 10.5804 10.2066C10.6995 10.3898 10.8015 10.6621 10.8005 11.0817L12.3005 11.0853ZM7.2077 5.09703H9.61V3.59703H7.2077V5.09703ZM5.26894 14.1158H7.29759V12.6158H5.26894V14.1158ZM7.29759 14.1158C7.27301 14.1158 7.25122 14.1059 7.23653 14.091L8.30333 13.0365C8.03809 12.7682 7.67649 12.6158 7.29759 12.6158V14.1158ZM7.23653 14.091C7.22213 14.0765 7.21558 14.0585 7.21558 14.0416H8.71558C8.71558 13.6663 8.56828 13.3046 8.30333 13.0365L7.23653 14.091ZM7.21558 14.0416V18.428H8.71558V14.0416H7.21558ZM7.21558 18.428C7.21558 18.4195 7.21724 18.4108 7.22066 18.4024L8.60881 18.9708C8.67937 18.7985 8.71558 18.614 8.71558 18.428H7.21558ZM7.22066 18.4024C7.22409 18.3941 7.22934 18.3859 7.23653 18.3786L8.30333 19.4331C8.43458 19.3003 8.53824 19.1432 8.60881 18.9708L7.22066 18.4024ZM7.23653 18.3786C7.24375 18.3713 7.25279 18.3651 7.26336 18.3606L7.84308 19.7441C8.01574 19.6717 8.17206 19.5659 8.30333 19.4331L7.23653 18.3786ZM7.26336 18.3606C7.27395 18.3562 7.2856 18.3538 7.29759 18.3538V19.8538C7.48502 19.8538 7.67041 19.8164 7.84308 19.7441L7.26336 18.3606ZM7.29759 18.3538H5.26894V19.8538H7.29759V18.3538ZM6.01894 19.1038V13.3658H4.51894V19.1038H6.01894ZM14.1819 22.4054H18.3767V20.9054H14.1819V22.4054ZM17.0293 21.6554V17.9769H15.5293V21.6554H17.0293ZM14.3758 13.7557H18.1811V12.2557H14.3758V13.7557ZM18.1811 13.7557C18.1266 13.7557 18.0761 13.7337 18.0403 13.6974L19.1071 12.6429C18.863 12.396 18.5301 12.2557 18.1811 12.2557V13.7557ZM18.0403 13.6974C18.0047 13.6614 17.9863 13.6145 17.9863 13.5673H19.4863C19.4863 13.2222 19.3509 12.8896 19.1071 12.6429L18.0403 13.6974ZM17.9863 13.5673V15.4931H19.4863V13.5673H17.9863ZM17.9863 15.4925C17.986 15.9554 17.8039 16.3975 17.4828 16.7221L18.5492 17.7769C19.1496 17.17 19.4857 16.3485 19.4863 15.4936L17.9863 15.4925ZM17.4828 16.7221C17.1621 17.0463 16.729 17.2269 16.2793 17.2269V18.7269C17.1323 18.7269 17.9486 18.3842 18.5492 17.7769L17.4828 16.7221ZM16.2793 17.2269C15.8294 17.2269 15.3962 17.0462 15.0754 16.7216L14.0086 17.7761C14.6094 18.3839 15.426 18.7269 16.2793 18.7269V17.2269ZM15.0754 16.7216C14.7543 16.3968 14.5724 15.9544 14.5724 15.4913H13.0724C13.0724 16.3466 13.4082 17.1687 14.0086 17.7761L15.0754 16.7216ZM14.5724 15.4913V13.5673H13.0724V15.4913H14.5724ZM14.5724 13.5673C14.5724 13.6145 14.554 13.6614 14.5184 13.6974L13.4516 12.6429C13.2078 12.8896 13.0724 13.2222 13.0724 13.5673H14.5724ZM14.5184 13.6974C14.4826 13.7337 14.4321 13.7557 14.3776 13.7557V12.2557C14.0286 12.2557 13.6957 12.396 13.4516 12.6429L14.5184 13.6974ZM14.3776 12.2557H14.3758V13.7557H14.3776V12.2557Z" fill="#344054"/>
</g>
</svg>
