<svg width="16" height="17" viewBox="0 0 16 17" fill="none" xmlns="http://www.w3.org/2000/svg">
    <path
        d="M7.99853 6.965V9.63166M7.99853 12.2983H8.0052M7.07541 3.55948L1.59216 13.0306C1.28802 13.5559 1.13595 13.8186 1.15843 14.0341C1.17803 14.2222 1.27654 14.393 1.42945 14.5042C1.60475 14.6317 1.90826 14.6317 2.51528 14.6317H13.4818C14.0888 14.6317 14.3923 14.6317 14.5676 14.5042C14.7205 14.393 14.819 14.2222 14.8386 14.0341C14.8611 13.8186 14.709 13.5559 14.4049 13.0306L8.92166 3.55948C8.61861 3.03604 8.46709 2.77432 8.2694 2.68641C8.09696 2.60974 7.90011 2.60974 7.72767 2.68641C7.52998 2.77432 7.37846 3.03604 7.07541 3.55948Z"
        stroke="#D92D20" stroke-width="1.5" stroke-linecap="round" stroke-linejoin="round" />
</svg>