<svg width="16" height="16" viewBox="0 0 16 16" fill="none" xmlns="http://www.w3.org/2000/svg">
    <path
        d="M2.66927 5.33106C2.55993 5.32824 2.48053 5.32191 2.40915 5.30771C1.88023 5.2025 1.46677 4.78904 1.36156 4.26012C1.33594 4.13132 1.33594 3.97644 1.33594 3.66667C1.33594 3.3569 1.33594 3.20201 1.36156 3.07321C1.46677 2.54429 1.88023 2.13083 2.40915 2.02562C2.53795 2 2.69283 2 3.0026 2H13.0026C13.3124 2 13.4673 2 13.5961 2.02562C14.125 2.13083 14.5384 2.54429 14.6437 3.07321C14.6693 3.20201 14.6693 3.3569 14.6693 3.66667C14.6693 3.97644 14.6693 4.13132 14.6437 4.26012C14.5384 4.78904 14.125 5.2025 13.5961 5.30771C13.5247 5.32191 13.4453 5.32824 13.3359 5.33106M6.66927 8.66667H9.33594M2.66927 5.33333H13.3359V10.8C13.3359 11.9201 13.3359 12.4802 13.118 12.908C12.9262 13.2843 12.6202 13.5903 12.2439 13.782C11.8161 14 11.256 14 10.1359 14H5.86927C4.74917 14 4.18911 14 3.76129 13.782C3.38497 13.5903 3.079 13.2843 2.88726 12.908C2.66927 12.4802 2.66927 11.9201 2.66927 10.8V5.33333Z"
        stroke="#1A3ED2" stroke-width="1.5" stroke-linecap="round" stroke-linejoin="round" />
</svg>