<svg width="16" height="17" viewBox="0 0 16 17" fill="none" xmlns="http://www.w3.org/2000/svg">
<g id="arrow-square-up-right">
<path id="Solid" fill-rule="evenodd" clip-rule="evenodd" d="M11.8911 1.50391H4.10634C3.75492 1.5039 3.45172 1.50389 3.20201 1.52429C2.93845 1.54582 2.67631 1.59337 2.42405 1.72189C2.04773 1.91364 1.74177 2.2196 1.55002 2.59593C1.42149 2.84818 1.37395 3.11033 1.35241 3.37389C1.33201 3.6236 1.33202 3.92676 1.33203 4.27819V12.0629C1.33202 12.4144 1.33201 12.7176 1.35241 12.9673C1.37395 13.2308 1.42149 13.493 1.55002 13.7452C1.74177 14.1215 2.04773 14.4275 2.42405 14.6193C2.67631 14.7478 2.93845 14.7953 3.20201 14.8169C3.45173 14.8373 3.7549 14.8373 4.10632 14.8372H11.8911C12.2425 14.8373 12.5457 14.8373 12.7954 14.8169C13.0589 14.7953 13.3211 14.7478 13.5733 14.6193C13.9497 14.4275 14.2556 14.1215 14.4474 13.7452C14.5759 13.493 14.6235 13.2308 14.645 12.9673C14.6654 12.7175 14.6654 12.4144 14.6654 12.063V4.2782C14.6654 3.92677 14.6654 3.6236 14.645 3.37389C14.6235 3.11033 14.5759 2.84818 14.4474 2.59593C14.2556 2.2196 13.9497 1.91364 13.5733 1.72189C13.3211 1.59337 13.0589 1.54582 12.7954 1.52429C12.5457 1.50389 12.2425 1.5039 11.8911 1.50391ZM5.33219 6.17057C5.33219 5.80238 5.63067 5.50391 5.99886 5.50391H9.99886C10.3671 5.50391 10.6655 5.80238 10.6655 6.17057V10.1706C10.6655 10.5388 10.3671 10.8372 9.99886 10.8372C9.63067 10.8372 9.3322 10.5388 9.3322 10.1706V7.77989L6.4701 10.642C6.20975 10.9023 5.78764 10.9023 5.52729 10.642C5.26694 10.3816 5.26694 9.95952 5.52729 9.69917L8.38922 6.83724H5.99886C5.63067 6.83724 5.33219 6.53876 5.33219 6.17057Z" fill="#079455"/>
</g>
</svg>
