<svg width="98" height="99" viewBox="0 0 98 99" fill="none" xmlns="http://www.w3.org/2000/svg">
<g id="noun-rocket-2768460 1" clip-path="url(#clip0_980_27866)">
<path id="Vector" d="M28.3871 87.8152C25.2616 85.9545 21.6922 84.9795 18.0587 84.994C14.3146 84.9486 10.6361 85.9826 7.45957 87.9733C4.28309 89.964 1.74199 92.8278 0.137756 96.2249C-0.0305985 96.5961 -0.0452252 97.0192 0.0970931 97.4011C0.239411 97.7831 0.527017 98.0926 0.896639 98.2617C1.26626 98.4307 1.68762 98.4454 2.06803 98.3025C2.44844 98.1596 2.75673 97.8708 2.92508 97.4997C4.28512 94.639 6.43375 92.2301 9.11612 90.5585C11.7985 88.887 14.9021 88.023 18.0587 88.069C21.5542 88.0508 24.9702 89.116 27.8405 91.1192C28.1652 91.3474 28.5654 91.4401 28.9569 91.378C29.3484 91.3158 29.7005 91.1035 29.9392 90.7859C32.2561 87.7392 35.2885 85.3163 38.7656 83.7336C38.529 82.6953 38.3791 81.639 38.3176 80.5757C34.4868 82.1718 31.0846 84.652 28.3871 87.8152Z" fill="#2C2C2C"/>
<path id="Vector_2" d="M97.8608 96.2249C96.2566 92.8278 93.7155 89.964 90.539 87.9733C87.3625 85.9826 83.684 84.9486 79.9398 84.994C76.3063 84.9796 72.7369 85.9546 69.6115 87.8152C66.913 84.6509 63.5094 82.1701 59.6771 80.574C59.6147 81.637 59.464 82.6929 59.2266 83.7307C62.7063 85.3134 65.741 87.7374 68.0593 90.7859C68.2983 91.1032 68.6504 91.3152 69.0418 91.3774C69.4331 91.4395 69.8332 91.347 70.1581 91.1192C73.0284 89.116 76.4443 88.0508 79.9399 88.069C83.0965 88.023 86.2001 88.887 88.8824 90.5586C91.5648 92.2301 93.7134 94.6391 95.0735 97.4997C95.2418 97.8708 95.5501 98.1596 95.9305 98.3025C96.3109 98.4454 96.7323 98.4307 97.1019 98.2617C97.4715 98.0926 97.7591 97.7831 97.9014 97.4011C98.0438 97.0192 98.0292 96.5961 97.8608 96.2249Z" fill="#2C2C2C"/>
<g id="Vector_3">
<path d="M61.0746 71.7176C61.386 70.8011 61.6684 69.9035 61.9508 69.0059L69.0539 72.8471C69.4081 73.0391 69.8233 73.0831 70.2095 72.9698C70.5958 72.8565 70.922 72.5949 71.1175 72.2417C81.1672 54.1252 68.8342 37.2546 66.2945 34.0946C64.642 17.7151 57.3402 7.18569 51.6519 1.33226C51.5453 1.2226 51.4525 1.12721 51.3749 1.04576C51.0726 0.716013 50.7056 0.452808 50.2969 0.27278C49.8882 0.0927522 49.4467 -0.000183647 49.0004 -0.00015258C48.5541 -0.000121513 48.1127 0.0928758 47.704 0.272961C47.2953 0.453046 46.9283 0.716302 46.6261 1.04609C46.5485 1.12744 46.4558 1.22275 46.3494 1.33221C40.6611 7.18569 33.3592 17.7151 31.7067 34.0947C29.167 37.2547 16.8341 54.1252 26.8837 72.2417C26.9886 72.431 27.1323 72.596 27.3052 72.7256C27.4782 72.8553 27.6765 72.9467 27.8871 72.9939C27.9968 73.0187 28.1089 73.0312 28.2213 73.0311C28.5419 73.0309 28.8543 72.93 29.1148 72.7424L35.7225 67.978C36.0974 69.2071 36.4988 70.4536 36.9266 71.7176C37.133 72.325 37.5234 72.8523 38.0431 73.2257C38.5629 73.599 39.186 73.7998 39.8251 73.7998H42.0376C40.6273 79.2976 40.7313 87.4057 48.2657 91.2908C48.5026 91.4214 48.7696 91.4869 49.0398 91.4807C49.31 91.4744 49.5738 91.3966 49.8044 91.2551C57.2708 87.3566 57.3698 79.2811 55.9638 73.7998H58.1762C58.8153 73.7998 59.4384 73.599 59.9581 73.2256C60.4779 72.8523 60.8683 72.325 61.0746 71.7176ZM66.6334 39.8417C70.295 45.7411 75.1979 57.0919 69.1444 69.4035L62.8834 66.0177L62.9055 65.8117C65.4134 57.3862 66.6695 48.6353 66.6334 39.8417ZM48.8567 3.15309C48.8723 3.12905 48.8937 3.10931 48.9188 3.09565C48.9439 3.08198 48.972 3.07482 49.0006 3.07482C49.0292 3.07482 49.0573 3.08198 49.0824 3.09565C49.1076 3.10931 49.1289 3.12905 49.1445 3.15309C52.2934 6.29614 54.9657 9.8863 57.076 13.8087C51.8692 11.8496 46.132 11.8496 40.9252 13.8087C43.0356 9.8863 45.7079 6.29615 48.8567 3.15309ZM28.7626 69.2102C22.8529 56.972 27.7252 45.7107 31.3679 39.8422C31.3223 48.2993 32.4836 56.7193 34.8162 64.8456L28.7626 69.2102ZM38.7461 18.3699C38.89 18.3265 39.0266 18.2618 39.1515 18.1781C44.5826 14.4169 53.4186 14.4169 58.8497 18.1781C58.9752 18.2642 59.1127 18.3311 59.2578 18.3764C63.4174 28.3577 65.9855 43.4527 60.0821 64.5748H37.9191C32.0144 43.4481 34.5849 28.351 38.7461 18.3699ZM49.0006 88.1846C42.9222 84.5113 44.2431 77.1419 45.2339 73.7998H47.4694V78.4123C47.4694 78.8201 47.6307 79.2112 47.9179 79.4995C48.205 79.7878 48.5945 79.9498 49.0006 79.9498C49.4067 79.9498 49.7962 79.7878 50.0834 79.4995C50.3705 79.2112 50.5319 78.8201 50.5319 78.4123V73.7998H52.7723C53.7707 77.1394 55.1026 84.5007 49.0006 88.1846ZM39.825 70.7248C39.4718 69.6851 39.1449 68.663 38.8307 67.6498H59.1706C58.8564 68.663 58.5295 69.6851 58.1762 70.7248H39.825Z" fill="#2C2C2C"/>
<path d="M38.7461 18.3699C38.89 18.3265 39.0266 18.2618 39.1515 18.1781C44.5826 14.4169 53.4186 14.4169 58.8497 18.1781C58.9752 18.2642 59.1127 18.3311 59.2578 18.3764C63.4174 28.3577 65.9855 43.4527 60.0821 64.5748H37.9191C32.0144 43.4481 34.5849 28.351 38.7461 18.3699Z" fill="#4C5EFF"/>
<path d="M66.6334 39.8417C70.295 45.7411 75.1979 57.0919 69.1444 69.4035L62.8834 66.0177L62.9055 65.8117C65.4134 57.3862 66.6695 48.6353 66.6334 39.8417Z" fill="#4C5EFF"/>
<path d="M28.7626 69.2102C22.8529 56.972 27.7252 45.7107 31.3679 39.8422C31.3223 48.2993 32.4836 56.7193 34.8162 64.8456L28.7626 69.2102Z" fill="#4C5EFF"/>
<path d="M48.8567 3.15309C48.8723 3.12905 48.8937 3.10931 48.9188 3.09565C48.9439 3.08198 48.972 3.07482 49.0006 3.07482C49.0292 3.07482 49.0573 3.08198 49.0824 3.09565C49.1076 3.10931 49.1289 3.12905 49.1445 3.15309C52.2934 6.29614 54.9657 9.8863 57.076 13.8087C51.8692 11.8496 46.132 11.8496 40.9252 13.8087C43.0356 9.8863 45.7079 6.29615 48.8567 3.15309Z" fill="#4C5EFF"/>
<path d="M39.825 70.7248C39.4718 69.6851 39.1449 68.663 38.8307 67.6498H59.1706C58.8564 68.663 58.5295 69.6851 58.1762 70.7248H39.825Z" fill="#4C5EFF"/>
<path d="M49.0006 88.1846C42.9222 84.5113 44.2431 77.1419 45.2339 73.7998H47.4694V78.4123C47.4694 78.8201 47.6307 79.2112 47.9179 79.4995C48.205 79.7878 48.5945 79.9498 49.0006 79.9498C49.4067 79.9498 49.7962 79.7878 50.0834 79.4995C50.3705 79.2112 50.5319 78.8201 50.5319 78.4123V73.7998H52.7723C53.7707 77.1394 55.1026 84.5007 49.0006 88.1846Z" fill="#4C5EFF"/>
</g>
<g id="Vector_4">
<path d="M48.9999 30.7498C50.0599 30.7498 51.0961 30.4342 51.9775 29.8429C52.8588 29.2516 53.5458 28.4112 53.9514 27.4279C54.357 26.4446 54.4632 25.3626 54.2564 24.3188C54.0496 23.2749 53.5392 22.316 52.7897 21.5635C52.0401 20.8109 51.0852 20.2984 50.0456 20.0907C49.006 19.8831 47.9284 19.9896 46.9491 20.3969C45.9698 20.8042 45.1327 21.4939 44.5438 22.3789C43.9549 23.2638 43.6406 24.3042 43.6406 25.3686C43.6406 26.7957 44.2053 28.1645 45.2103 29.1737C46.2154 30.1828 47.5786 30.7498 48.9999 30.7498ZM48.9999 23.0623C49.4542 23.0623 49.8983 23.1976 50.276 23.451C50.6537 23.7044 50.9481 24.0646 51.122 24.486C51.2958 24.9074 51.3413 25.3711 51.2527 25.8185C51.1641 26.2659 50.9453 26.6768 50.6241 26.9993C50.3029 27.3219 49.8936 27.5415 49.448 27.6305C49.0025 27.7195 48.5407 27.6738 48.121 27.4993C47.7013 27.3247 47.3425 27.0291 47.0902 26.6498C46.8378 26.2706 46.7031 25.8247 46.7031 25.3686C46.7037 24.7571 46.946 24.1709 47.3766 23.7385C47.8072 23.3062 48.391 23.063 48.9999 23.0623Z" fill="#2C2C2C"/>
<path d="M48.9999 23.0623C49.4542 23.0623 49.8983 23.1976 50.276 23.451C50.6537 23.7044 50.9481 24.0646 51.122 24.486C51.2958 24.9074 51.3413 25.3711 51.2527 25.8185C51.1641 26.2659 50.9453 26.6768 50.6241 26.9993C50.3029 27.3219 49.8936 27.5415 49.448 27.6305C49.0025 27.7195 48.5407 27.6738 48.121 27.4993C47.7013 27.3247 47.3425 27.0291 47.0902 26.6498C46.8378 26.2706 46.7031 25.8247 46.7031 25.3686C46.7037 24.7571 46.946 24.1709 47.3766 23.7385C47.8072 23.3062 48.391 23.063 48.9999 23.0623Z" fill="#FFF7E5"/>
</g>
<g id="Vector_5">
<path d="M49.0001 33.8248C47.7887 33.8248 46.6044 34.1855 45.5972 34.8613C44.5899 35.537 43.8049 36.4975 43.3413 37.6213C42.8777 38.745 42.7564 39.9816 42.9927 41.1746C43.229 42.3676 43.8124 43.4634 44.669 44.3235C45.5255 45.1836 46.6169 45.7693 47.805 46.0067C48.9932 46.244 50.2247 46.1222 51.3439 45.6567C52.4631 45.1912 53.4197 44.403 54.0927 43.3916C54.7658 42.3802 55.125 41.1912 55.125 39.9748C55.125 38.3438 54.4797 36.7795 53.3311 35.6261C52.1824 34.4728 50.6245 33.8248 49.0001 33.8248ZM49.0001 43.0498C48.3944 43.0498 47.8023 42.8695 47.2986 42.5316C46.795 42.1937 46.4025 41.7135 46.1707 41.1516C45.9389 40.5897 45.8782 39.9714 45.9964 39.3749C46.1146 38.7784 46.4063 38.2305 46.8346 37.8005C47.2629 37.3704 47.8085 37.0776 48.4026 36.9589C48.9967 36.8403 49.6124 36.9012 50.172 37.1339C50.7316 37.3666 51.2099 37.7608 51.5464 38.2664C51.883 38.7721 52.0626 39.3667 52.0626 39.9748C52.0616 40.7901 51.7387 41.5717 51.1646 42.1482C50.5904 42.7246 49.812 43.0489 49.0001 43.0498Z" fill="#2C2C2C"/>
<path d="M49.0001 43.0498C48.3944 43.0498 47.8023 42.8695 47.2986 42.5316C46.795 42.1937 46.4025 41.7135 46.1707 41.1516C45.9389 40.5897 45.8782 39.9714 45.9964 39.3749C46.1146 38.7784 46.4063 38.2305 46.8346 37.8005C47.2629 37.3704 47.8085 37.0776 48.4026 36.9589C48.9967 36.8403 49.6124 36.9012 50.172 37.1339C50.7316 37.3666 51.2099 37.7608 51.5464 38.2664C51.883 38.7721 52.0626 39.3667 52.0626 39.9748C52.0616 40.7901 51.7387 41.5717 51.1646 42.1482C50.5904 42.7246 49.812 43.0489 49.0001 43.0498Z" fill="#FFF7E5"/>
</g>
<g id="Vector_6">
<path d="M49.0001 49.1998C47.9401 49.1998 46.9039 49.5154 46.0225 50.1067C45.1412 50.698 44.4543 51.5384 44.0486 52.5217C43.643 53.505 43.5368 54.587 43.7436 55.6309C43.9504 56.6747 44.4608 57.6336 45.2103 58.3862C45.9598 59.1388 46.9148 59.6513 47.9544 59.8589C48.994 60.0666 50.0716 59.96 51.0509 59.5527C52.0302 59.1454 52.8673 58.4557 53.4562 57.5708C54.0451 56.6858 54.3594 55.6454 54.3594 54.5811C54.3594 53.1539 53.7947 51.7852 52.7897 50.776C51.7846 49.7668 50.4214 49.1998 49.0001 49.1998ZM49.0001 56.8873C48.5458 56.8873 48.1017 56.7521 47.724 56.4987C47.3463 56.2452 47.0519 55.8851 46.878 55.4636C46.7042 55.0422 46.6587 54.5785 46.7473 54.1312C46.8359 53.6838 47.0547 53.2729 47.3759 52.9503C47.6972 52.6278 48.1064 52.4081 48.552 52.3191C48.9975 52.2302 49.4593 52.2758 49.879 52.4504C50.2987 52.6249 50.6575 52.9205 50.9098 53.2998C51.1622 53.6791 51.2969 54.1249 51.2969 54.5811C51.2962 55.1925 51.054 55.7787 50.6234 56.2111C50.1928 56.6434 49.609 56.8866 49.0001 56.8873Z" fill="#2C2C2C"/>
<path d="M49.0001 56.8873C48.5458 56.8873 48.1017 56.7521 47.724 56.4987C47.3463 56.2452 47.0519 55.8851 46.878 55.4636C46.7042 55.0422 46.6587 54.5785 46.7473 54.1312C46.8359 53.6838 47.0547 53.2729 47.3759 52.9503C47.6972 52.6278 48.1064 52.4081 48.552 52.3191C48.9975 52.2302 49.4593 52.2758 49.879 52.4504C50.2987 52.6249 50.6575 52.9205 50.9098 53.2998C51.1622 53.6791 51.2969 54.1249 51.2969 54.5811C51.2962 55.1925 51.054 55.7787 50.6234 56.2111C50.1928 56.6434 49.609 56.8866 49.0001 56.8873Z" fill="#FFF7E5"/>
</g>
</g>
<defs>
<clipPath id="clip0_980_27866">
<rect width="98" height="99.0002" fill="white"/>
</clipPath>
</defs>
</svg>
