<svg width="98" height="99" viewBox="0 0 98 99" fill="none" xmlns="http://www.w3.org/2000/svg">
<g id="noun-rocket-2768460 1" clip-path="url(#clip0_5235_39135)">
<path id="Vector" d="M28.3876 87.8157C25.2621 85.955 21.6927 84.98 18.0592 84.9945C14.3151 84.9491 10.6365 85.9831 7.46006 87.9738C4.28358 89.9644 1.74248 92.8283 0.138244 96.2254C-0.0301102 96.5966 -0.0447369 97.0196 0.0975813 97.4016C0.2399 97.7836 0.527505 98.0931 0.897127 98.2621C1.26675 98.4312 1.68811 98.4459 2.06852 98.303C2.44893 98.1601 2.75722 97.8713 2.92557 97.5002C4.28561 94.6395 6.43424 92.2306 9.11661 90.559C11.799 88.8875 14.9026 88.0235 18.0592 88.0695C21.5547 88.0513 24.9707 89.1165 27.841 91.1197C28.1657 91.3479 28.5659 91.4406 28.9574 91.3784C29.3488 91.3163 29.701 91.104 29.9397 90.7864C32.2566 87.7397 35.289 85.3168 38.7661 83.7341C38.5294 82.6958 38.3796 81.6395 38.318 80.5762C34.4873 82.1722 31.0851 84.6525 28.3876 87.8157Z" fill="#2C2C2C"/>
<path id="Vector_2" d="M97.8618 96.2252C96.2575 92.828 93.7164 89.9642 90.54 87.9735C87.3635 85.9828 83.6849 84.9488 79.9408 84.9942C76.3073 84.9798 72.7379 85.9548 69.6124 87.8155C66.9139 84.6511 63.5104 82.1703 59.6781 80.5742C59.6157 81.6372 59.465 82.6931 59.2275 83.7309C62.7072 85.3136 65.742 87.7376 68.0603 90.7861C68.2993 91.1034 68.6514 91.3154 69.0427 91.3776C69.4341 91.4397 69.8342 91.3472 70.159 91.1194C73.0293 89.1162 76.4453 88.051 79.9408 88.0692C83.0975 88.0232 86.201 88.8872 88.8834 90.5588C91.5658 92.2303 93.7144 94.6393 95.0744 97.4999C95.2428 97.871 95.5511 98.1598 95.9315 98.3027C96.3119 98.4456 96.7333 98.4309 97.1029 98.2619C97.4725 98.0928 97.7601 97.7833 97.9024 97.4013C98.0447 97.0194 98.0301 96.5963 97.8618 96.2252Z" fill="#2C2C2C"/>
<g id="Vector_3">
<path d="M61.0742 71.7178C61.3856 70.8012 61.6679 69.9037 61.9503 69.0061L69.0535 72.8473C69.4076 73.0392 69.8228 73.0833 70.209 72.9699C70.5953 72.8566 70.9215 72.595 71.117 72.2418C81.1667 54.1253 68.8337 37.2548 66.294 34.0948C64.6415 17.7152 57.3397 7.18585 51.6514 1.33241C51.5448 1.22275 51.452 1.12737 51.3744 1.04591C51.0721 0.716166 50.7051 0.452961 50.2964 0.272933C49.8877 0.0929048 49.4462 -3.10595e-05 48.9999 7.78648e-09C48.5536 3.10751e-05 48.1122 0.0930284 47.7035 0.273113C47.2948 0.453198 46.9278 0.716455 46.6256 1.04624C46.548 1.1276 46.4553 1.2229 46.3489 1.33236C40.6606 7.18585 33.3587 17.7152 31.7062 34.0948C29.1665 37.2549 16.8336 54.1254 26.8832 72.2418C26.9882 72.4312 27.1318 72.5961 27.3047 72.7258C27.4777 72.8554 27.676 72.9469 27.8866 72.9941C27.9963 73.0189 28.1084 73.0313 28.2208 73.0312C28.5414 73.0311 28.8538 72.9301 29.1143 72.7426L35.722 67.9782C36.0969 69.2072 36.4983 70.4538 36.9261 71.7178C37.1325 72.3251 37.5229 72.8524 38.0426 73.2258C38.5624 73.5992 39.1855 73.8 39.8246 73.8H42.0371C40.6268 79.2978 40.7308 87.4059 48.2652 91.2909C48.5021 91.4216 48.7691 91.4871 49.0393 91.4808C49.3095 91.4745 49.5733 91.3967 49.8039 91.2552C57.2703 87.3567 57.3693 79.2813 55.9633 73.8H58.1757C58.8148 73.8 59.4379 73.5992 59.9577 73.2258C60.4774 72.8524 60.8678 72.3251 61.0742 71.7178ZM66.6329 39.8418C70.2945 45.7412 75.1974 57.0921 69.1439 69.4037L62.8829 66.0179L62.905 65.8119C65.4129 57.3864 66.669 48.6355 66.6329 39.8418ZM48.8562 3.15324C48.8719 3.12921 48.8932 3.10946 48.9183 3.0958C48.9434 3.08213 48.9716 3.07498 49.0001 3.07498C49.0287 3.07498 49.0568 3.08213 49.0819 3.0958C49.1071 3.10946 49.1284 3.12921 49.144 3.15324C52.2929 6.2963 54.9652 9.88645 57.0755 13.8089C51.8687 11.8497 46.1315 11.8497 40.9248 13.8089C43.0351 9.88645 45.7074 6.2963 48.8562 3.15324ZM28.7621 69.2104C22.8524 56.9721 27.7247 45.7109 31.3674 39.8424C31.3218 48.2994 32.4831 56.7194 34.8157 64.8458L28.7621 69.2104ZM38.7456 18.37C38.8895 18.3266 39.0261 18.262 39.151 18.1782C44.5821 14.417 53.4181 14.417 58.8492 18.1782C58.9747 18.2643 59.1122 18.3312 59.2573 18.3766C63.4169 28.3578 65.985 43.4528 60.0816 64.575H37.9186C32.0139 43.4483 34.5844 28.3511 38.7456 18.37ZM49.0001 88.1848C42.9217 84.5115 44.2426 77.1421 45.2334 73.8H47.4689V78.4125C47.4689 78.8202 47.6302 79.2113 47.9174 79.4996C48.2045 79.788 48.594 79.95 49.0001 79.95C49.4062 79.95 49.7957 79.788 50.0829 79.4996C50.3701 79.2113 50.5314 78.8202 50.5314 78.4125V73.8H52.7718C53.7702 77.1396 55.1022 84.5008 49.0001 88.1848ZM39.8246 70.725C39.4713 69.6852 39.1444 68.6632 38.8302 67.65H59.1701C58.8559 68.6632 58.529 69.6852 58.1757 70.725H39.8246Z" fill="#2C2C2C"/>
<path d="M38.7456 18.37C38.8895 18.3266 39.0261 18.262 39.151 18.1782C44.5821 14.417 53.4181 14.417 58.8492 18.1782C58.9747 18.2643 59.1122 18.3312 59.2573 18.3766C63.4169 28.3578 65.985 43.4528 60.0816 64.575H37.9186C32.0139 43.4483 34.5844 28.3511 38.7456 18.37Z" fill="#4C5EFF"/>
<path d="M66.6329 39.8418C70.2945 45.7412 75.1974 57.0921 69.1439 69.4037L62.8829 66.0179L62.905 65.8119C65.4129 57.3864 66.669 48.6355 66.6329 39.8418Z" fill="#4C5EFF"/>
<path d="M28.7621 69.2104C22.8524 56.9721 27.7247 45.7109 31.3674 39.8424C31.3218 48.2994 32.4831 56.7194 34.8157 64.8458L28.7621 69.2104Z" fill="#4C5EFF"/>
<path d="M48.8562 3.15324C48.8719 3.12921 48.8932 3.10946 48.9183 3.0958C48.9434 3.08213 48.9716 3.07498 49.0001 3.07498C49.0287 3.07498 49.0568 3.08213 49.0819 3.0958C49.1071 3.10946 49.1284 3.12921 49.144 3.15324C52.2929 6.2963 54.9652 9.88645 57.0755 13.8089C51.8687 11.8497 46.1315 11.8497 40.9248 13.8089C43.0351 9.88645 45.7074 6.2963 48.8562 3.15324Z" fill="#4C5EFF"/>
<path d="M39.8246 70.725C39.4713 69.6852 39.1444 68.6632 38.8302 67.65H59.1701C58.8559 68.6632 58.529 69.6852 58.1757 70.725H39.8246Z" fill="#4C5EFF"/>
<path d="M49.0001 88.1848C42.9217 84.5115 44.2426 77.1421 45.2334 73.8H47.4689V78.4125C47.4689 78.8202 47.6302 79.2113 47.9174 79.4996C48.2045 79.788 48.594 79.95 49.0001 79.95C49.4062 79.95 49.7957 79.788 50.0829 79.4996C50.3701 79.2113 50.5314 78.8202 50.5314 78.4125V73.8H52.7718C53.7702 77.1396 55.1022 84.5008 49.0001 88.1848Z" fill="#4C5EFF"/>
</g>
<g id="Vector_4">
<path d="M48.9999 30.7498C50.0599 30.7498 51.0961 30.4342 51.9775 29.8429C52.8588 29.2516 53.5458 28.4112 53.9514 27.4279C54.357 26.4446 54.4632 25.3626 54.2564 24.3188C54.0496 23.2749 53.5392 22.316 52.7897 21.5635C52.0401 20.8109 51.0852 20.2984 50.0456 20.0907C49.006 19.8831 47.9284 19.9896 46.9491 20.3969C45.9698 20.8042 45.1327 21.4939 44.5438 22.3789C43.9549 23.2638 43.6406 24.3042 43.6406 25.3686C43.6406 26.7957 44.2053 28.1645 45.2103 29.1737C46.2154 30.1828 47.5786 30.7498 48.9999 30.7498ZM48.9999 23.0623C49.4542 23.0623 49.8983 23.1976 50.276 23.451C50.6537 23.7044 50.9481 24.0646 51.122 24.486C51.2958 24.9074 51.3413 25.3711 51.2527 25.8185C51.1641 26.2659 50.9453 26.6768 50.6241 26.9993C50.3029 27.3219 49.8936 27.5415 49.448 27.6305C49.0025 27.7195 48.5407 27.6738 48.121 27.4993C47.7013 27.3247 47.3425 27.0291 47.0902 26.6498C46.8378 26.2706 46.7031 25.8247 46.7031 25.3686C46.7037 24.7571 46.946 24.1709 47.3766 23.7385C47.8072 23.3062 48.391 23.063 48.9999 23.0623Z" fill="#2C2C2C"/>
<path d="M48.9999 23.0623C49.4542 23.0623 49.8983 23.1976 50.276 23.451C50.6537 23.7044 50.9481 24.0646 51.122 24.486C51.2958 24.9074 51.3413 25.3711 51.2527 25.8185C51.1641 26.2659 50.9453 26.6768 50.6241 26.9993C50.3029 27.3219 49.8936 27.5415 49.448 27.6305C49.0025 27.7195 48.5407 27.6738 48.121 27.4993C47.7013 27.3247 47.3425 27.0291 47.0902 26.6498C46.8378 26.2706 46.7031 25.8247 46.7031 25.3686C46.7037 24.7571 46.946 24.1709 47.3766 23.7385C47.8072 23.3062 48.391 23.063 48.9999 23.0623Z" fill="#FFF7E5"/>
</g>
<g id="Vector_5">
<path d="M49.0001 33.8252C47.7887 33.8252 46.6044 34.1859 45.5972 34.8616C44.5899 35.5374 43.8049 36.4979 43.3413 37.6216C42.8777 38.7454 42.7564 39.982 42.9927 41.175C43.229 42.3679 43.8124 43.4638 44.669 44.3239C45.5255 45.184 46.6169 45.7697 47.805 46.007C48.9932 46.2443 50.2247 46.1225 51.3439 45.6571C52.4631 45.1916 53.4197 44.4033 54.0927 43.392C54.7658 42.3806 55.125 41.1916 55.125 39.9752C55.125 38.3441 54.4797 36.7799 53.3311 35.6265C52.1824 34.4732 50.6245 33.8252 49.0001 33.8252ZM49.0001 43.0502C48.3944 43.0502 47.8023 42.8698 47.2986 42.532C46.795 42.1941 46.4025 41.7138 46.1707 41.1519C45.9389 40.5901 45.8782 39.9718 45.9964 39.3753C46.1146 38.7788 46.4063 38.2309 46.8346 37.8008C47.2629 37.3708 47.8085 37.0779 48.4026 36.9593C48.9967 36.8406 49.6124 36.9015 50.172 37.1343C50.7316 37.367 51.2099 37.7611 51.5464 38.2668C51.883 38.7725 52.0626 39.367 52.0626 39.9752C52.0616 40.7905 51.7387 41.5721 51.1646 42.1485C50.5904 42.725 49.812 43.0493 49.0001 43.0502Z" fill="#2C2C2C"/>
<path d="M49.0001 43.0502C48.3944 43.0502 47.8023 42.8698 47.2986 42.532C46.795 42.1941 46.4025 41.7138 46.1707 41.1519C45.9389 40.5901 45.8782 39.9718 45.9964 39.3753C46.1146 38.7788 46.4063 38.2309 46.8346 37.8008C47.2629 37.3708 47.8085 37.0779 48.4026 36.9593C48.9967 36.8406 49.6124 36.9015 50.172 37.1343C50.7316 37.367 51.2099 37.7611 51.5464 38.2668C51.883 38.7725 52.0626 39.367 52.0626 39.9752C52.0616 40.7905 51.7387 41.5721 51.1646 42.1485C50.5904 42.725 49.812 43.0493 49.0001 43.0502Z" fill="#FFF7E5"/>
</g>
<g id="Vector_6">
<path d="M49.0001 49.2002C47.9401 49.2002 46.9039 49.5158 46.0225 50.1071C45.1412 50.6984 44.4543 51.5388 44.0486 52.5221C43.643 53.5054 43.5368 54.5874 43.7436 55.6312C43.9504 56.6751 44.4608 57.634 45.2103 58.3865C45.9598 59.1391 46.9148 59.6516 47.9544 59.8593C48.994 60.0669 50.0716 59.9604 51.0509 59.5531C52.0302 59.1458 52.8673 58.4561 53.4562 57.5711C54.0451 56.6862 54.3594 55.6458 54.3594 54.5814C54.3594 53.1543 53.7947 51.7855 52.7897 50.7763C51.7846 49.7672 50.4214 49.2002 49.0001 49.2002ZM49.0001 56.8877C48.5458 56.8877 48.1017 56.7524 47.724 56.499C47.3463 56.2456 47.0519 55.8854 46.878 55.464C46.7042 55.0426 46.6587 54.5789 46.7473 54.1315C46.8359 53.6842 47.0547 53.2732 47.3759 52.9507C47.6972 52.6281 48.1064 52.4085 48.552 52.3195C48.9975 52.2305 49.4593 52.2762 49.879 52.4507C50.2987 52.6253 50.6575 52.9209 50.9098 53.3002C51.1622 53.6794 51.2969 54.1253 51.2969 54.5814C51.2962 55.1929 51.054 55.7791 50.6234 56.2114C50.1928 56.6438 49.609 56.887 49.0001 56.8877Z" fill="#2C2C2C"/>
<path d="M49.0001 56.8877C48.5458 56.8877 48.1017 56.7524 47.724 56.499C47.3463 56.2456 47.0519 55.8854 46.878 55.464C46.7042 55.0426 46.6587 54.5789 46.7473 54.1315C46.8359 53.6842 47.0547 53.2732 47.3759 52.9507C47.6972 52.6281 48.1064 52.4085 48.552 52.3195C48.9975 52.2305 49.4593 52.2762 49.879 52.4507C50.2987 52.6253 50.6575 52.9209 50.9098 53.3002C51.1622 53.6794 51.2969 54.1253 51.2969 54.5814C51.2962 55.1929 51.054 55.7791 50.6234 56.2114C50.1928 56.6438 49.609 56.887 49.0001 56.8877Z" fill="#FFF7E5"/>
</g>
</g>
<defs>
<clipPath id="clip0_5235_39135">
<rect width="98" height="99.0002" fill="white"/>
</clipPath>
</defs>
</svg>
