<svg width="14" height="14" viewBox="0 0 14 14" fill="none" xmlns="http://www.w3.org/2000/svg">
    <g id="check-circle">
        <path id="Solid" fill-rule="evenodd" clip-rule="evenodd"
            d="M7.00001 0.583496C3.45618 0.583496 0.583344 3.45634 0.583344 7.00016C0.583344 10.544 3.45618 13.4168 7.00001 13.4168C10.5438 13.4168 13.4167 10.544 13.4167 7.00016C13.4167 3.45634 10.5438 0.583496 7.00001 0.583496ZM10.0375 5.66264C10.2653 5.43484 10.2653 5.06549 10.0375 4.83768C9.80968 4.60988 9.44034 4.60988 9.21253 4.83768L6.12501 7.92521L4.78749 6.58768C4.55968 6.35988 4.19034 6.35988 3.96253 6.58768C3.73473 6.81549 3.73473 7.18484 3.96253 7.41264L5.71253 9.16264C5.94034 9.39045 6.30968 9.39045 6.53749 9.16264L10.0375 5.66264Z"
            fill="#214CFE" />
    </g>
</svg>