<svg width="24" height="25" viewBox="0 0 24 25" fill="none" xmlns="http://www.w3.org/2000/svg">
    <g id="users-02">
        <path id="Fill" opacity="0.12"
            d="M9.5 12.0991C11.9853 12.0991 14 10.0844 14 7.59912C14 5.11384 11.9853 3.09912 9.5 3.09912C7.01472 3.09912 5 5.11384 5 7.59912C5 10.0844 7.01472 12.0991 9.5 12.0991Z"
            fill="black" />
        <path id="Icon"
            d="M16 3.56688C17.4817 4.30323 18.5 5.83226 18.5 7.59912C18.5 9.36598 17.4817 10.895 16 11.6314M18 16.8655C19.5115 17.5495 20.8725 18.6641 22 20.0991M2 20.0991C3.94649 17.6217 6.58918 16.0991 9.5 16.0991C12.4108 16.0991 15.0535 17.6217 17 20.0991M14 7.59912C14 10.0844 11.9853 12.0991 9.5 12.0991C7.01472 12.0991 5 10.0844 5 7.59912C5 5.11384 7.01472 3.09912 9.5 3.09912C11.9853 3.09912 14 5.11384 14 7.59912Z"
            stroke="black" stroke-width="2" stroke-linecap="round" stroke-linejoin="round" />
    </g>
</svg>