<svg width="16" height="17" viewBox="0 0 16 17" fill="none" xmlns="http://www.w3.org/2000/svg">
<g id="workforce-diversity">
<path id="Workforce diversity" d="M1.98828 10.2513C2.34989 9.8512 2.78949 9.53175 3.27919 9.31322C3.76889 9.09469 4.29799 8.98188 4.83294 8.98188C5.36788 8.98188 5.89698 9.09469 6.38667 9.31322C6.87637 9.53175 7.31597 9.8512 7.67758 10.2513M8.32552 12.5177C8.68724 12.1181 9.12679 11.799 9.61632 11.5808C10.1058 11.3626 10.6347 11.2499 11.1694 11.2499C11.704 11.2499 12.2329 11.3626 12.7224 11.5808C13.2119 11.799 13.6515 12.1181 14.0132 12.5177M6.51095 5.92684C6.51095 6.86695 5.76004 7.62907 4.83373 7.62907C3.90743 7.62907 3.15651 6.86695 3.15651 5.92684C3.15651 4.98672 3.90743 4.22461 4.83373 4.22461C5.76004 4.22461 6.51095 4.98672 6.51095 5.92684ZM9.6893 6.69104H12.6495V9.69537H9.6893V6.69104Z" stroke="#344054" stroke-linecap="round" stroke-linejoin="round"/>
</g>
</svg>
