<svg width="24" height="25" viewBox="0 0 24 25" fill="none" xmlns="http://www.w3.org/2000/svg">
<g id="users-03">
<path id="Icon" d="M18.0008 15.936C19.4567 16.6674 20.7049 17.8411 21.6161 19.3087C21.7965 19.5994 21.8867 19.7447 21.9179 19.946C21.9813 20.3549 21.7016 20.8577 21.3207 21.0195C21.1333 21.0991 20.9225 21.0991 20.5008 21.0991M16.0008 11.6314C17.4825 10.895 18.5008 9.36598 18.5008 7.59912C18.5008 5.83226 17.4825 4.30323 16.0008 3.56688M14.0008 7.59912C14.0008 10.0844 11.9861 12.0991 9.50081 12.0991C7.01553 12.0991 5.00081 10.0844 5.00081 7.59912C5.00081 5.11384 7.01553 3.09912 9.50081 3.09912C11.9861 3.09912 14.0008 5.11384 14.0008 7.59912ZM2.56004 19.0375C4.15435 16.6437 6.67019 15.0991 9.50081 15.0991C12.3314 15.0991 14.8473 16.6437 16.4416 19.0375C16.7909 19.5619 16.9655 19.8241 16.9454 20.159C16.9297 20.4198 16.7588 20.7391 16.5504 20.8967C16.2827 21.0991 15.9146 21.0991 15.1785 21.0991H3.82317C3.08698 21.0991 2.71889 21.0991 2.45125 20.8967C2.24286 20.7391 2.0719 20.4198 2.05625 20.159C2.03614 19.8241 2.21078 19.5619 2.56004 19.0375Z" stroke="#344054" stroke-width="2" stroke-linecap="round" stroke-linejoin="round"/>
</g>
</svg>
