<svg width="24" height="25" viewBox="0 0 24 25" fill="none" xmlns="http://www.w3.org/2000/svg">
    <path opacity="0.12"
        d="M9.5 12.0996C11.9853 12.0996 14 10.0849 14 7.59961C14 5.11433 11.9853 3.09961 9.5 3.09961C7.01472 3.09961 5 5.11433 5 7.59961C5 10.0849 7.01472 12.0996 9.5 12.0996Z"
        fill="#1A3ED2" />
    <path
        d="M16 3.56737C17.4817 4.30372 18.5 5.83275 18.5 7.59961C18.5 9.36647 17.4817 10.8955 16 11.6318M18 16.866C19.5115 17.5499 20.8725 18.6646 22 20.0996M2 20.0996C3.94649 17.6222 6.58918 16.0996 9.5 16.0996C12.4108 16.0996 15.0535 17.6222 17 20.0996M14 7.59961C14 10.0849 11.9853 12.0996 9.5 12.0996C7.01472 12.0996 5 10.0849 5 7.59961C5 5.11433 7.01472 3.09961 9.5 3.09961C11.9853 3.09961 14 5.11433 14 7.59961Z"
        stroke="#1A3ED2" stroke-width="2" stroke-linecap="round" stroke-linejoin="round" />
</svg>