<svg width="24" height="24" viewBox="0 0 24 24" fill="none" xmlns="http://www.w3.org/2000/svg">
<g id="close">
<path id="close_2" d="M6.22664 4.81108C5.83611 4.42056 5.20295 4.42056 4.81242 4.81108C4.4219 5.20161 4.4219 5.83477 4.81242 6.2253L10.5872 12L4.81248 17.7747C4.42196 18.1652 4.42196 18.7984 4.81248 19.1889C5.20301 19.5794 5.83617 19.5794 6.2267 19.1889L12.0014 13.4142L17.776 19.1889C18.1666 19.5794 18.7997 19.5794 19.1903 19.1889C19.5808 18.7984 19.5808 18.1652 19.1903 17.7747L13.4156 12L19.1903 6.2253C19.5808 5.83477 19.5808 5.20161 19.1903 4.81108C18.7998 4.42056 18.1666 4.42056 17.7761 4.81108L12.0014 10.5858L6.22664 4.81108Z" fill="#344054"/>
</g>
</svg>
