<svg width="24" height="25" viewBox="0 0 24 25" fill="none" xmlns="http://www.w3.org/2000/svg">
<g id="code-snippet-02">
<g id="Solid">
<path fill-rule="evenodd" clip-rule="evenodd" d="M16.2929 6.39201C16.6834 6.00149 17.3166 6.00149 17.7071 6.39201L22.7071 11.392C23.0976 11.7825 23.0976 12.4157 22.7071 12.8062L17.7071 17.8062C17.3166 18.1968 16.6834 18.1968 16.2929 17.8062C15.9024 17.4157 15.9024 16.7825 16.2929 16.392L20.5858 12.0991L16.2929 7.80623C15.9024 7.4157 15.9024 6.78254 16.2929 6.39201Z" fill="#344054"/>
<path fill-rule="evenodd" clip-rule="evenodd" d="M7.70711 6.39201C8.09763 6.78254 8.09763 7.4157 7.70711 7.80623L3.41421 12.0991L7.70711 16.392C8.09763 16.7825 8.09763 17.4157 7.70711 17.8062C7.31658 18.1968 6.68342 18.1968 6.29289 17.8062L1.29289 12.8062C0.902369 12.4157 0.902369 11.7825 1.29289 11.392L6.29289 6.39201C6.68342 6.00149 7.31658 6.00149 7.70711 6.39201Z" fill="#344054"/>
<path fill-rule="evenodd" clip-rule="evenodd" d="M14.2169 2.12293C14.7561 2.24274 15.096 2.77692 14.9762 3.31605L10.9762 21.3161C10.8564 21.8552 10.3222 22.1951 9.78307 22.0753C9.24394 21.9555 8.90401 21.4213 9.02381 20.8822L13.0238 2.88219C13.1436 2.34306 13.6778 2.00313 14.2169 2.12293Z" fill="#344054"/>
</g>
</g>
</svg>
