<svg width="14" height="14" viewBox="0 0 14 14" fill="none" xmlns="http://www.w3.org/2000/svg">
    <path opacity="0.12"
        d="M9.6224 7.87501C11.3943 7.87501 12.8307 7.35268 12.8307 6.70834V11.0833C12.8307 11.7277 11.3943 12.25 9.6224 12.25C7.85048 12.25 6.41406 11.7277 6.41406 11.0833V6.70834C6.41406 7.35268 7.85048 7.87501 9.6224 7.87501Z"
        fill="black" />
    <path
        d="M7.58073 2.91667C7.58073 3.561 6.14431 4.08333 4.3724 4.08333C2.60048 4.08333 1.16406 3.561 1.16406 2.91667M7.58073 2.91667C7.58073 2.27233 6.14431 1.75 4.3724 1.75C2.60048 1.75 1.16406 2.27233 1.16406 2.91667M7.58073 2.91667V3.79167M1.16406 2.91667V9.91667C1.16406 10.561 2.60048 11.0833 4.3724 11.0833M4.3724 6.41667C4.27408 6.41667 4.17679 6.41506 4.08073 6.41191C2.4455 6.35833 1.16406 5.85858 1.16406 5.25M4.3724 8.75C2.60048 8.75 1.16406 8.22767 1.16406 7.58333M12.8307 6.70833C12.8307 7.35267 11.3943 7.875 9.6224 7.875C7.85048 7.875 6.41406 7.35267 6.41406 6.70833M12.8307 6.70833C12.8307 6.064 11.3943 5.54167 9.6224 5.54167C7.85048 5.54167 6.41406 6.064 6.41406 6.70833M12.8307 6.70833V11.0833C12.8307 11.7277 11.3943 12.25 9.6224 12.25C7.85048 12.25 6.41406 11.7277 6.41406 11.0833V6.70833M12.8307 8.89583C12.8307 9.54017 11.3943 10.0625 9.6224 10.0625C7.85048 10.0625 6.41406 9.54017 6.41406 8.89583"
        stroke="#344054" stroke-width="1.5" stroke-linecap="round" stroke-linejoin="round" />
</svg>