<svg width="181" height="44" viewBox="0 0 181 44" fill="none" xmlns="http://www.w3.org/2000/svg">
<g id="BG">
<path id="CARD" d="M172.801 0.431885H8.23602C3.90809 0.431885 0.399597 3.9568 0.399597 8.30501V107.506C0.399597 111.855 3.90809 115.379 8.23602 115.379H172.801C177.129 115.379 180.637 111.855 180.637 107.506V8.30501C180.637 3.9568 177.129 0.431885 172.801 0.431885Z" fill="#0063FF"/>
<mask id="mask0_688_78209" style="mask-type:alpha" maskUnits="userSpaceOnUse" x="0" y="0" width="181" height="116">
<path id="CARD_2" d="M172.801 0.431885H8.23602C3.90809 0.431885 0.399597 3.9568 0.399597 8.30501V107.506C0.399597 111.855 3.90809 115.379 8.23602 115.379H172.801C177.129 115.379 180.637 111.855 180.637 107.506V8.30501C180.637 3.9568 177.129 0.431885 172.801 0.431885Z" fill="#0063FF"/>
</mask>
<g mask="url(#mask0_688_78209)">
<path id="SHAPE" d="M-22.0253 93.9242C11.5907 62.054 121.482 110.812 101.736 90.351C81.9898 69.8896 32.1589 57.4766 47.8324 28.6895C76.6234 -24.1893 150.712 88.9041 152.531 67.3858C153.427 56.8023 111.963 30.8669 131.379 11.824C163.416 -19.5951 206.957 87.5072 225.275 63.5081C233.106 53.249 204.96 36.284 222.301 19.3512C229.958 11.8733 248.077 24.5248 252.061 46.1624V116.954H-33.1844C-33.1362 109.193 -29.6916 101.191 -22.0253 93.9242Z" fill="#151F61"/>
<path id="SHAPE_2" d="M133.396 114.255C169.925 113.467 185.845 98.3789 185.845 98.3789C185.845 98.3789 151.347 109.804 119.738 103.232C117.523 95.8365 116.435 88.1459 116.514 80.4227C118.255 81.1297 120.055 81.6788 121.894 82.0634C149.102 87.6131 181.15 79.3012 185.565 78.037C185.61 78.0241 185.652 78.0018 185.689 77.9716C185.725 77.9414 185.754 77.9038 185.776 77.8615C185.797 77.8192 185.809 77.773 185.811 77.7258C185.813 77.6785 185.806 77.6313 185.789 77.5871C185.789 77.5871 146.348 79.9394 117.5 68.3643C119.103 57.7694 122.729 46.7404 128.749 35.1123C130.759 31.2262 133.087 27.5145 135.709 24.0154C163.527 52.3587 203.174 64.4258 203.174 64.4258C203.174 64.4258 200.235 61.8103 194.744 57.7932C181.941 48.4273 158.106 30.392 143.919 14.6035C152.31 6.38394 161.277 0.439891 172.606 -3.86738C195.602 7.89731 216.835 27.7222 216.835 27.7222C216.835 27.7222 214.016 14.7766 192.865 -9.54816C202.798 -11.2185 212.914 -11.491 222.923 -10.3579C230.103 12.3133 236.946 43.7589 236.946 43.7589C236.946 43.7589 241.375 22.3844 237.736 -7.71607C242.48 -6.54157 247.147 -5.07018 251.708 -3.31051V116.954H124.965C124.422 115.779 124.038 114.916 123.544 113.805C126.814 114.179 130.106 114.33 133.396 114.255Z" fill="#FADDD7"/>
<path id="SHAPE_3" d="M133.233 114.056C169.834 113.268 185.847 98.331 185.847 98.331C185.847 98.331 151.23 110.049 119.558 103.46C117.356 95.9522 116.284 88.1557 116.379 80.3294C118.123 81.0382 119.927 81.5889 121.769 81.9745C151.137 87.9682 185.77 77.8115 185.77 77.8115C185.77 77.8115 146.258 79.9639 117.353 68.3594C118.461 61.2376 120.336 54.2578 122.943 47.5426C139.347 62.8758 151.716 75.9637 152.446 67.3089C153.019 60.5182 136.232 47.4178 129.189 33.8641C131.074 30.3441 133.221 26.9723 135.611 23.7776C163.485 52.1926 203.21 64.2903 203.21 64.2903C203.21 64.2903 163.938 37.2068 143.625 14.5873C146.242 12.0118 149.025 9.61264 151.956 7.40527C179.958 18.3903 210.517 82.5747 225.09 63.4261C232.911 53.1508 204.803 36.1594 222.12 19.1998C224.351 17.0149 227.471 16.5487 230.87 17.5182C234.495 31.8333 237.048 43.572 237.048 43.572C237.048 43.572 238.71 35.5397 239.164 22.3873C244.825 27.4164 249.94 35.7084 251.84 46.0528V116.954H124.847C124.303 115.776 123.783 114.74 123.288 113.626C126.59 113.994 129.912 114.138 133.233 114.056Z" fill="#F47C6A"/>
</g>
</g>
</svg>
