<svg width="16" height="16" viewBox="0 0 16 16" fill="none" xmlns="http://www.w3.org/2000/svg">
<g clip-path="url(#clip0_14257_8758)">
<path d="M14.1399 10.593C13.7158 11.596 13.0525 12.4798 12.2079 13.1672C11.3633 13.8546 10.3631 14.3246 9.2949 14.5362C8.22668 14.7478 7.12289 14.6944 6.08004 14.3809C5.03719 14.0673 4.08703 13.5031 3.31262 12.7374C2.53822 11.9718 1.96315 11.0282 1.6377 9.98897C1.31225 8.94977 1.24632 7.84667 1.44568 6.7761C1.64503 5.70553 2.10361 4.70009 2.78131 3.84769C3.45901 2.9953 4.3352 2.32189 5.33328 1.88634M14.6666 7.99967C14.6666 7.1242 14.4942 6.25729 14.1591 5.44845C13.8241 4.63961 13.333 3.90469 12.714 3.28563C12.0949 2.66657 11.36 2.17551 10.5512 1.84048C9.74233 1.50545 8.87542 1.33301 7.99994 1.33301V7.99967H14.6666Z" stroke="#344054" stroke-width="1.5" stroke-linecap="round" stroke-linejoin="round"/>
</g>
<defs>
<clipPath id="clip0_14257_8758">
<rect width="16" height="16" fill="white"/>
</clipPath>
</defs>
</svg>
