<svg width="16" height="16" viewBox="0 0 16 16" fill="none" xmlns="http://www.w3.org/2000/svg">
    <g clip-path="url(#clip0_6029_1020)">
        <path
            d="M8.00016 14.6667C11.6821 14.6667 14.6668 11.6819 14.6668 8.00004C14.6668 4.31814 11.6821 1.33337 8.00016 1.33337C4.31826 1.33337 1.3335 4.31814 1.3335 8.00004C1.3335 11.6819 4.31826 14.6667 8.00016 14.6667Z"
            stroke="#344054" stroke-width="1.5" stroke-linecap="round" stroke-linejoin="round" />
        <path
            d="M9.8149 5.51068C10.1406 5.40212 10.3034 5.34783 10.4117 5.38645C10.506 5.42006 10.5801 5.49422 10.6138 5.58846C10.6524 5.69676 10.5981 5.8596 10.4895 6.1853L9.49782 9.16039C9.4669 9.25315 9.45144 9.29953 9.4251 9.33805C9.40176 9.37216 9.37228 9.40164 9.33817 9.42497C9.29965 9.45132 9.25327 9.46678 9.16051 9.4977L6.18543 10.4894C5.85973 10.598 5.69688 10.6522 5.58858 10.6136C5.49434 10.58 5.42018 10.5059 5.38657 10.4116C5.34796 10.3033 5.40224 10.1405 5.51081 9.81478L6.5025 6.83969C6.53342 6.74693 6.54888 6.70055 6.57523 6.66203C6.59857 6.62792 6.62804 6.59844 6.66216 6.57511C6.70067 6.54876 6.74705 6.5333 6.83981 6.50238L9.8149 5.51068Z"
            stroke="#344054" stroke-width="1.5" stroke-linecap="round" stroke-linejoin="round" />
    </g>
    <defs>
        <clipPath id="clip0_6029_1020">
            <rect width="16" height="16" fill="white" />
        </clipPath>
    </defs>
</svg>