<svg width="35" height="33" viewBox="0 0 35 33" fill="none" xmlns="http://www.w3.org/2000/svg">
<path d="M8.92188 4.85645C8.92188 3.06152 10.3769 1.60645 12.1719 1.60645L24.1719 1.60645C24.2291 1.60645 24.2839 1.62917 24.3244 1.66962L32.9587 10.3039C32.9992 10.3444 33.0219 10.3992 33.0219 10.4564V28.8565C33.0219 30.6514 31.5668 32.1064 29.7719 32.1064H12.1719C10.377 32.1064 8.92188 30.6514 8.92188 28.8564L8.92188 4.85645Z" stroke="#D0D5DD" stroke-width="1.5"/>
<path d="M24.1719 1.25635V6.45635C24.1719 8.66549 25.9627 10.4563 28.1719 10.4563H33.3719" stroke="#D0D5DD" stroke-width="1.5"/>
<rect x="0.570312" y="13.6565" width="28" height="16" rx="2" fill="#D7CEF9"/>
<path d="M10.843 20.9299H9.28755C9.25914 20.7287 9.20114 20.55 9.11355 20.3937C9.02595 20.2351 8.9135 20.1001 8.77619 19.9889C8.63888 19.8776 8.48026 19.7924 8.30034 19.7332C8.12278 19.674 7.92984 19.6444 7.7215 19.6444C7.34508 19.6444 7.01719 19.7379 6.73784 19.925C6.45848 20.1096 6.24186 20.3795 6.08798 20.7346C5.9341 21.0874 5.85716 21.5159 5.85716 22.0201C5.85716 22.5386 5.9341 22.9742 6.08798 23.3269C6.24423 23.6797 6.46203 23.946 6.74139 24.126C7.02074 24.3059 7.3439 24.3958 7.71085 24.3958C7.91681 24.3958 8.10739 24.3686 8.28258 24.3142C8.46014 24.2597 8.61757 24.1804 8.75488 24.0762C8.89219 23.9697 9.00583 23.8407 9.09579 23.6892C9.18812 23.5376 9.25204 23.3648 9.28755 23.1707L10.843 23.1778C10.8027 23.5116 10.7021 23.8336 10.5411 24.1437C10.3825 24.4515 10.1682 24.7273 9.89835 24.9711C9.63083 25.2126 9.31123 25.4044 8.93954 25.5464C8.57022 25.6861 8.15237 25.7559 7.68599 25.7559C7.03732 25.7559 6.4573 25.6091 5.94593 25.3156C5.43694 25.022 5.03448 24.5971 4.73855 24.0407C4.44499 23.4844 4.29821 22.8109 4.29821 22.0201C4.29821 21.227 4.44735 20.5523 4.74565 19.996C5.04395 19.4396 5.44877 19.0159 5.96014 18.7247C6.4715 18.4311 7.04679 18.2843 7.68599 18.2843C8.10739 18.2843 8.49802 18.3435 8.85787 18.4619C9.22008 18.5803 9.54087 18.7531 9.82022 18.9804C10.0996 19.2053 10.3269 19.4811 10.502 19.8078C10.6796 20.1345 10.7932 20.5085 10.843 20.9299ZM15.8909 20.4754C15.8625 20.1889 15.7406 19.9664 15.5251 19.8078C15.3097 19.6492 15.0173 19.5698 14.648 19.5698C14.397 19.5698 14.1852 19.6054 14.0123 19.6764C13.8395 19.745 13.7069 19.8409 13.6146 19.964C13.5247 20.0871 13.4797 20.2268 13.4797 20.3831C13.4749 20.5133 13.5022 20.6269 13.5613 20.724C13.6229 20.821 13.7069 20.9051 13.8135 20.9761C13.92 21.0448 14.0431 21.1051 14.1828 21.1572C14.3225 21.2069 14.4716 21.2495 14.6302 21.285L15.2836 21.4413C15.6009 21.5123 15.8921 21.607 16.1572 21.7254C16.4224 21.8438 16.652 21.9894 16.8461 22.1622C17.0403 22.335 17.1906 22.5386 17.2971 22.773C17.406 23.0073 17.4617 23.276 17.464 23.5791C17.4617 24.0242 17.348 24.41 17.1231 24.7367C16.9006 25.0611 16.5786 25.3132 16.1572 25.4931C15.7382 25.6707 15.2327 25.7595 14.6409 25.7595C14.0538 25.7595 13.5424 25.6695 13.1068 25.4896C12.6736 25.3097 12.335 25.0433 12.0912 24.6906C11.8497 24.3355 11.723 23.8963 11.7112 23.3731H13.1991C13.2157 23.617 13.2855 23.8206 13.4086 23.9839C13.5341 24.1449 13.701 24.2668 13.9094 24.3497C14.1201 24.4302 14.358 24.4704 14.6231 24.4704C14.8836 24.4704 15.1096 24.4325 15.3014 24.3568C15.4955 24.281 15.6459 24.1757 15.7524 24.0407C15.8589 23.9058 15.9122 23.7507 15.9122 23.5755C15.9122 23.4122 15.8637 23.2749 15.7666 23.1636C15.6719 23.0523 15.5322 22.9576 15.3476 22.8795C15.1653 22.8014 14.9416 22.7304 14.6764 22.6664L13.8845 22.4676C13.2713 22.3184 12.7872 22.0852 12.4321 21.768C12.077 21.4508 11.9006 21.0234 11.903 20.486C11.9006 20.0457 12.0178 19.661 12.2545 19.3319C12.4936 19.0028 12.8215 18.746 13.2382 18.5613C13.6549 18.3767 14.1283 18.2843 14.6586 18.2843C15.1984 18.2843 15.6695 18.3767 16.072 18.5613C16.4768 18.746 16.7917 19.0028 17.0166 19.3319C17.2415 19.661 17.3575 20.0421 17.3646 20.4754H15.8909ZM19.8122 18.3838L21.57 23.9093H21.6375L23.3989 18.3838H25.1034L22.5963 25.6565H20.6148L18.1041 18.3838H19.8122Z" fill="#344054"/>
</svg>
