<svg width="52" height="52" viewBox="0 0 52 52" fill="none" xmlns="http://www.w3.org/2000/svg">
<g filter="url(#filter0_d_11684_6975)">
<circle cx="26" cy="25" r="24" fill="white"/>
<circle cx="26" cy="25" r="23.5" stroke="#EAECF0"/>
</g>
<circle cx="26" cy="25" r="20" fill="#EAECF0"/>
<g clip-path="url(#clip0_11684_6975)">
<path d="M26 15.8333V34.1666M30.1667 19.1666H23.9167C23.1431 19.1666 22.4013 19.4739 21.8543 20.0209C21.3073 20.5679 21 21.3098 21 22.0833C21 22.8569 21.3073 23.5987 21.8543 24.1457C22.4013 24.6927 23.1431 25 23.9167 25H28.0833C28.8569 25 29.5987 25.3073 30.1457 25.8543C30.6927 26.4012 31 27.1431 31 27.9166C31 28.6902 30.6927 29.4321 30.1457 29.979C29.5987 30.526 28.8569 30.8333 28.0833 30.8333H21" stroke="#667085" stroke-width="2" stroke-linecap="round" stroke-linejoin="round"/>
</g>
<defs>
<filter id="filter0_d_11684_6975" x="0" y="0" width="52" height="52" filterUnits="userSpaceOnUse" color-interpolation-filters="sRGB">
<feFlood flood-opacity="0" result="BackgroundImageFix"/>
<feColorMatrix in="SourceAlpha" type="matrix" values="0 0 0 0 0 0 0 0 0 0 0 0 0 0 0 0 0 0 127 0" result="hardAlpha"/>
<feOffset dy="1"/>
<feGaussianBlur stdDeviation="1"/>
<feColorMatrix type="matrix" values="0 0 0 0 0.0627451 0 0 0 0 0.0941176 0 0 0 0 0.156863 0 0 0 0.05 0"/>
<feBlend mode="normal" in2="BackgroundImageFix" result="effect1_dropShadow_11684_6975"/>
<feBlend mode="normal" in="SourceGraphic" in2="effect1_dropShadow_11684_6975" result="shape"/>
</filter>
<clipPath id="clip0_11684_6975">
<rect width="20" height="20" fill="white" transform="translate(16 15)"/>
</clipPath>
</defs>
</svg>
