<svg width="24" height="24" viewBox="0 0 24 24" fill="none" xmlns="http://www.w3.org/2000/svg">
<g id="ecosystem-preservation">
<path id="Ecosystem preservation" d="M14.8456 10.27C13.5683 3.52707 20.8945 4.29176 20.8945 4.29176C19.9748 10.8621 16.0439 10.9286 16.0439 10.9286C16.0439 10.9286 16.3125 7.03388 18.1701 6.53042M13.2617 10.0166C13.9045 5.95413 9.72961 6.7489 9.72961 6.7489C10.2092 10.1781 12.2612 10.2114 12.2612 10.2114C12.2612 10.2114 12.1212 8.17854 11.152 7.91573M6.16288 19.7344L3.10547 16.8846C3.10547 16.8846 4.87728 13.8496 6.31617 13.305C7.75505 12.7603 8.60388 13.3271 10.5636 12.9503C12.5233 12.5735 14.6379 11.9038 14.7253 12.8237C14.8127 13.7435 14.094 14.6032 11.4141 15.0006C11.4141 15.0006 11.9283 15.6497 14.7319 15.2301C17.5355 14.8106 17.7102 12.5387 19.8018 13.7863C19.8018 13.7863 21.2472 14.6618 15.5164 17.1917C14.9636 17.4354 14.3901 17.6335 13.8023 17.7839L6.16288 19.7344Z" stroke="#344054" stroke-width="1.5" stroke-linecap="round" stroke-linejoin="round"/>
</g>
</svg>
