<svg width="16" height="17" viewBox="0 0 16 17" fill="none" xmlns="http://www.w3.org/2000/svg">
    <g clip-path="url(#clip0_6029_1267)">
        <path opacity="0.12"
            d="M5.3335 9.64943C5.3335 9.32331 5.3335 9.16025 5.37034 9.0068C5.403 8.87075 5.45687 8.74069 5.52998 8.6214C5.61243 8.48684 5.72773 8.37154 5.95834 8.14094L12.3335 1.76577C12.8858 1.21349 13.7812 1.21349 14.3335 1.76578C14.8858 2.31806 14.8858 3.21349 14.3335 3.76578L7.95835 10.1409C7.72775 10.3715 7.61245 10.4868 7.47789 10.5693C7.3586 10.6424 7.22854 10.6963 7.09249 10.7289C6.93904 10.7658 6.77598 10.7658 6.44986 10.7658H5.3335V9.64943Z"
            fill="black" />
        <path
            d="M7.3335 2.76578H4.5335C3.41339 2.76578 2.85334 2.76578 2.42552 2.98376C2.04919 3.17551 1.74323 3.48147 1.55148 3.8578C1.3335 4.28562 1.3335 4.84567 1.3335 5.96578V11.5658C1.3335 12.6859 1.3335 13.2459 1.55148 13.6738C1.74323 14.0501 2.04919 14.356 2.42552 14.5478C2.85334 14.7658 3.41339 14.7658 4.5335 14.7658H10.1335C11.2536 14.7658 11.8137 14.7658 12.2415 14.5478C12.6178 14.356 12.9238 14.0501 13.1155 13.6738C13.3335 13.2459 13.3335 12.6859 13.3335 11.5658V8.76578M5.33348 10.7658H6.44984C6.77596 10.7658 6.93902 10.7658 7.09247 10.7289C7.22852 10.6963 7.35858 10.6424 7.47788 10.5693C7.61243 10.4868 7.72773 10.3715 7.95833 10.1409L14.3335 3.76578C14.8858 3.21349 14.8858 2.31806 14.3335 1.76578C13.7812 1.21349 12.8858 1.21349 12.3335 1.76577L5.95832 8.14094C5.72772 8.37154 5.61241 8.48684 5.52996 8.6214C5.45685 8.74069 5.40298 8.87075 5.37032 9.0068C5.33348 9.16025 5.33348 9.32331 5.33348 9.64943V10.7658Z"
            stroke="#344054" stroke-width="1.5" stroke-linecap="round" stroke-linejoin="round" />
    </g>
    <defs>
        <clipPath id="clip0_6029_1267">
            <rect width="16" height="16" fill="white" transform="translate(0 0.0991211)" />
        </clipPath>
    </defs>
</svg>