<svg width="15" height="14" viewBox="0 0 15 14" fill="none" xmlns="http://www.w3.org/2000/svg">
    <path
        d="M1.5 4.08334L6.26287 7.41735C6.64855 7.68733 6.84139 7.82232 7.05115 7.87461C7.23644 7.92079 7.43023 7.92079 7.61551 7.87461C7.82527 7.82232 8.01811 7.68733 8.4038 7.41735L13.1667 4.08334M4.3 11.6667H10.3667C11.3468 11.6667 11.8368 11.6667 12.2111 11.4759C12.5404 11.3082 12.8081 11.0404 12.9759 10.7112C13.1667 10.3368 13.1667 9.84677 13.1667 8.86668V5.13334C13.1667 4.15325 13.1667 3.66321 12.9759 3.28886C12.8081 2.95958 12.5404 2.69186 12.2111 2.52408C11.8368 2.33334 11.3468 2.33334 10.3667 2.33334H4.3C3.31991 2.33334 2.82986 2.33334 2.45552 2.52408C2.12623 2.69186 1.85852 2.95958 1.69074 3.28886C1.5 3.66321 1.5 4.15325 1.5 5.13334V8.86668C1.5 9.84677 1.5 10.3368 1.69074 10.7112C1.85852 11.0404 2.12623 11.3082 2.45552 11.4759C2.82986 11.6667 3.31991 11.6667 4.3 11.6667Z"
        stroke="#667085" stroke-linecap="round" stroke-linejoin="round" />
</svg>