<svg width="16" height="16" viewBox="0 0 16 16" fill="none" xmlns="http://www.w3.org/2000/svg">
<g id="face-content" clip-path="url(#clip0_2200_7921)">
<path id="Icon" d="M5.33398 9.3335C5.33398 9.3335 6.33398 10.6668 8.00065 10.6668C9.66732 10.6668 10.6673 9.3335 10.6673 9.3335M11.334 6.16016C11.0707 6.48349 10.7107 6.66683 10.334 6.66683C9.95732 6.66683 9.60732 6.48349 9.33398 6.16016M6.66732 6.16016C6.40398 6.48349 6.04398 6.66683 5.66732 6.66683C5.29065 6.66683 4.94065 6.48349 4.66732 6.16016M14.6673 8.00016C14.6673 11.6821 11.6826 14.6668 8.00065 14.6668C4.31875 14.6668 1.33398 11.6821 1.33398 8.00016C1.33398 4.31826 4.31875 1.3335 8.00065 1.3335C11.6826 1.3335 14.6673 4.31826 14.6673 8.00016Z" stroke="#667085" stroke-width="1.5" stroke-linecap="round" stroke-linejoin="round"/>
</g>
<defs>
<clipPath id="clip0_2200_7921">
<rect width="16" height="16" fill="white"/>
</clipPath>
</defs>
</svg>
