<svg width="16" height="16" viewBox="0 0 16 16" fill="none" xmlns="http://www.w3.org/2000/svg">
<g id="face-neutral" clip-path="url(#clip0_2200_7917)">
<path id="Icon" d="M5.33398 10.0002H10.6673M10.0007 6.00016H10.0073M6.00065 6.00016H6.00732M14.6673 8.00016C14.6673 11.6821 11.6826 14.6668 8.00065 14.6668C4.31875 14.6668 1.33398 11.6821 1.33398 8.00016C1.33398 4.31826 4.31875 1.3335 8.00065 1.3335C11.6826 1.3335 14.6673 4.31826 14.6673 8.00016ZM10.334 6.00016C10.334 6.18426 10.1847 6.3335 10.0007 6.3335C9.81656 6.3335 9.66732 6.18426 9.66732 6.00016C9.66732 5.81607 9.81656 5.66683 10.0007 5.66683C10.1847 5.66683 10.334 5.81607 10.334 6.00016ZM6.33398 6.00016C6.33398 6.18426 6.18475 6.3335 6.00065 6.3335C5.81656 6.3335 5.66732 6.18426 5.66732 6.00016C5.66732 5.81607 5.81656 5.66683 6.00065 5.66683C6.18475 5.66683 6.33398 5.81607 6.33398 6.00016Z" stroke="#667085" stroke-width="1.5" stroke-linecap="round" stroke-linejoin="round"/>
</g>
<defs>
<clipPath id="clip0_2200_7917">
<rect width="16" height="16" fill="white"/>
</clipPath>
</defs>
</svg>
