<svg width="181" height="116" viewBox="0 0 181 116" fill="none" xmlns="http://www.w3.org/2000/svg">
<g id="BG">
<path id="CARD" d="M172.509 0.00610352H8.78376C4.47791 0.00610352 0.98732 3.55922 0.98732 7.94221V107.937C0.98732 112.32 4.47791 115.873 8.78376 115.873H172.509C176.815 115.873 180.306 112.32 180.306 107.937V7.94221C180.306 3.55922 176.815 0.00610352 172.509 0.00610352Z" fill="#FFB92B"/>
<mask id="mask0_688_78117" style="mask-type:alpha" maskUnits="userSpaceOnUse" x="0" y="0" width="181" height="116">
<path id="CARD_2" d="M172.509 0.00610352H8.78376C4.47791 0.00610352 0.98732 3.55922 0.98732 7.94221V107.937C0.98732 112.32 4.47791 115.873 8.78376 115.873H172.509C176.815 115.873 180.306 112.32 180.306 107.937V7.94221C180.306 3.55922 176.815 0.00610352 172.509 0.00610352Z" fill="#FFB92B"/>
</mask>
<g mask="url(#mask0_688_78117)">
<path id="SHAPE" d="M288.583 130.853V153.059H-17.0615V-29.251H116.271C133.963 -19.7526 133.999 -9.87152 118.896 9.0341C93.0605 41.3941 128.066 72.806 157.12 55.9789C236.228 10.1645 151.223 136.414 220.478 127.754C246.656 124.49 269.903 126.587 288.583 130.853Z" fill="#FF6A00"/>
<path id="SHAPE_2" d="M101.485 141.527C82.6175 105.452 141.086 90.9939 95.3231 63.5463C49.5602 36.0987 92.536 29.3891 85.9123 10.7855C79.2887 -7.81811 48.0553 8.65047 37.5174 -10.5628C31.039 -22.3763 49.1387 -24.8517 57.3288 -29.4714H-17.2783V6.07464C-12.5196 12.2503 -7.42785 17.0826 -4.18186 19.2485C14.3318 31.6 21.8627 -7.51288 33.6046 22.0695C45.3465 51.6519 -16.9749 49.8232 -5.53351 80.3205C5.90788 110.818 118.88 174.786 101.485 141.527Z" fill="#382FB8"/>
<path id="SHAPE_3" d="M103.801 137.305C36.6696 135.487 102.901 91.8385 64.5408 76.9862C29.0153 63.2316 6.08968 97.7936 -9.48338 86.371V149.429H137.965C138.392 143.275 127.846 137.957 103.801 137.305Z" fill="#FFB92B"/>
<path id="SHAPE_4" d="M126.706 -15.8509C153.279 2.68918 181.566 -33.5215 202.139 -26.5694C222.712 -19.6174 206.711 21.4875 263.857 -10.5072C271.199 -14.6179 277.427 -18.7981 282.716 -22.9625V-29.4663H103.501C110.773 -26.305 117.643 -22.1742 126.706 -15.8509Z" fill="#009FE3"/>
<path id="SHAPE_5" d="M0.725969 89.8096C-2.06048 86.3347 -4.1176 83.0525 -5.22447 80.0858C-16.7572 49.1751 46.7889 52.1294 34.2297 21.0462C22.1534 -8.83895 14.8016 30.7056 -3.86151 18.1869C-7.13379 15.9923 -12.2664 11.0943 -17.0635 4.83472V89.9659C-11.9711 93.7269 -6.09748 92.5893 0.725969 89.8096Z" fill="#270758"/>
</g>
</g>
</svg>
