<svg width="20" height="20" viewBox="0 0 20 20" fill="none" xmlns="http://www.w3.org/2000/svg">
<g id="layout-alt-02">
<g id="Solid">
<path d="M6.66666 3.00033C6.66666 2.53362 6.66666 2.30026 6.57583 2.122C6.49593 1.9652 6.36845 1.83772 6.21165 1.75782C6.03339 1.66699 5.80003 1.66699 5.33332 1.66699H5.13454C4.69526 1.66698 4.31627 1.66697 4.00414 1.69247C3.67468 1.71939 3.347 1.77882 3.03168 1.93948C2.56128 2.17916 2.17883 2.56161 1.93914 3.03202C1.77848 3.34733 1.71905 3.67502 1.69213 4.00447C1.66663 4.31661 1.66664 4.69557 1.66666 5.13484V14.8658C1.66664 15.3051 1.66663 15.684 1.69213 15.9962C1.71905 16.3256 1.77848 16.6533 1.93914 16.9686C2.17883 17.439 2.56128 17.8215 3.03168 18.0612C3.347 18.2218 3.67468 18.2813 4.00414 18.3082C4.31627 18.3337 4.69524 18.3337 5.13452 18.3337H5.33332C5.80003 18.3337 6.03339 18.3337 6.21165 18.2428C6.36845 18.1629 6.49594 18.0355 6.57583 17.8787C6.66666 17.7004 6.66666 17.467 6.66666 17.0003L6.66666 3.00033Z" fill="#344054"/>
<path fill-rule="evenodd" clip-rule="evenodd" d="M8.33332 17.0003C8.33332 17.467 8.33332 17.7004 8.42415 17.8787C8.50405 18.0355 8.63153 18.1629 8.78833 18.2428C8.96659 18.3337 9.19995 18.3337 9.66666 18.3337H14.8655C15.3047 18.3337 15.6837 18.3337 15.9958 18.3082C16.3253 18.2813 16.653 18.2218 16.9683 18.0612C17.4387 17.8215 17.8212 17.439 18.0608 16.9686C18.2215 16.6533 18.2809 16.3256 18.3078 15.9962C18.3334 15.684 18.3333 15.3051 18.3333 14.8658V5.13486C18.3333 4.69557 18.3334 4.31661 18.3078 4.00447C18.2809 3.67502 18.2215 3.34733 18.0608 3.03202C17.8212 2.56161 17.4387 2.17916 16.9683 1.93948C16.653 1.77882 16.3253 1.71939 15.9958 1.69247C15.6837 1.66697 15.3048 1.66698 14.8655 1.66699H9.66666C9.19995 1.66699 8.96659 1.66699 8.78833 1.75782C8.63153 1.83772 8.50405 1.9652 8.42415 2.122C8.33332 2.30026 8.33332 2.53362 8.33332 3.00033L8.33332 17.0003ZM9.99999 5.83366C9.99999 5.37342 10.3731 5.00033 10.8333 5.00033H15.8333C16.2936 5.00033 16.6667 5.37342 16.6667 5.83366C16.6667 6.2939 16.2936 6.66699 15.8333 6.66699H10.8333C10.3731 6.66699 9.99999 6.2939 9.99999 5.83366ZM10.8333 8.33366C10.3731 8.33366 9.99999 8.70676 9.99999 9.16699C9.99999 9.62723 10.3731 10.0003 10.8333 10.0003H15.8333C16.2936 10.0003 16.6667 9.62723 16.6667 9.16699C16.6667 8.70676 16.2936 8.33366 15.8333 8.33366H10.8333ZM10.8333 11.667C10.3731 11.667 9.99999 12.0401 9.99999 12.5003C9.99999 12.9606 10.3731 13.3337 10.8333 13.3337H15.8333C16.2936 13.3337 16.6667 12.9606 16.6667 12.5003C16.6667 12.0401 16.2936 11.667 15.8333 11.667H10.8333Z" fill="#344054"/>
</g>
</g>
</svg>
