<svg width="20" height="21" viewBox="0 0 20 21" fill="none" xmlns="http://www.w3.org/2000/svg">
<g id="filter-lines">
<g id="Solid">
<path fill-rule="evenodd" clip-rule="evenodd" d="M4.16666 10.099C4.16666 9.63872 4.53975 9.26562 4.99999 9.26562H15C15.4602 9.26562 15.8333 9.63872 15.8333 10.099C15.8333 10.5592 15.4602 10.9323 15 10.9323H4.99999C4.53975 10.9323 4.16666 10.5592 4.16666 10.099Z" fill="#667085"/>
<path fill-rule="evenodd" clip-rule="evenodd" d="M1.66666 5.09896C1.66666 4.63872 2.03975 4.26562 2.49999 4.26562H17.5C17.9602 4.26562 18.3333 4.63872 18.3333 5.09896C18.3333 5.5592 17.9602 5.93229 17.5 5.93229H2.49999C2.03975 5.93229 1.66666 5.5592 1.66666 5.09896Z" fill="#667085"/>
<path fill-rule="evenodd" clip-rule="evenodd" d="M6.66666 15.099C6.66666 14.6387 7.03975 14.2656 7.49999 14.2656H12.5C12.9602 14.2656 13.3333 14.6387 13.3333 15.099C13.3333 15.5592 12.9602 15.9323 12.5 15.9323H7.49999C7.03975 15.9323 6.66666 15.5592 6.66666 15.099Z" fill="#667085"/>
</g>
</g>
</svg>
