<svg width="181" height="44" viewBox="0 0 181 44" fill="none" xmlns="http://www.w3.org/2000/svg">
<g id="BG">
<path id="CARD" d="M172.873 0.646484H8.31101C3.98221 0.646484 0.473022 4.17202 0.473022 8.52099V107.72C0.473022 112.069 3.98221 115.594 8.31101 115.594H172.873C177.202 115.594 180.711 112.069 180.711 107.72V8.52099C180.711 4.17202 177.202 0.646484 172.873 0.646484Z" fill="#E5614A"/>
<mask id="mask0_688_78231" style="mask-type:alpha" maskUnits="userSpaceOnUse" x="0" y="0" width="181" height="116">
<path id="CARD_2" d="M172.873 0.646484H8.31101C3.98221 0.646484 0.473022 4.17202 0.473022 8.52099V107.72C0.473022 112.069 3.98221 115.594 8.31101 115.594H172.873C177.202 115.594 180.711 112.069 180.711 107.72V8.52099C180.711 4.17202 177.202 0.646484 172.873 0.646484Z" fill="#E5614A"/>
</mask>
<g mask="url(#mask0_688_78231)">
<path id="SHAPE" d="M53.4242 96.2498C88.1102 96.2498 116.229 68.0002 116.229 33.1525C116.229 -1.69519 88.1102 -29.9448 53.4242 -29.9448C18.7381 -29.9448 -9.38049 -1.69519 -9.38049 33.1525C-9.38049 68.0002 18.7381 96.2498 53.4242 96.2498Z" fill="#6925DB"/>
<path id="SHAPE_2" d="M-45.3275 70.4843C-31.4303 74.8909 -16.4009 73.9691 -3.14038 67.8969L-3.16903 67.9817C48.2363 44.704 90.5845 47.1931 124.36 122.49L124.402 122.357C134.146 144.123 152.647 161.82 177.094 169.57C222.579 183.984 271.094 158.627 285.457 112.934C299.82 67.2417 274.588 18.5166 229.106 4.10152C204.661 -3.64789 179.637 -0.0868454 159.215 12.118L159.01 12.2502C88.3092 54.4331 52.209 32.0591 23.428 -16.6326L23.4022 -16.5445C16.0141 -29.1612 4.23419 -38.5796 -9.66205 -42.9803C-40.853 -52.8657 -74.1189 -35.48 -83.9674 -4.14759C-93.8159 27.1849 -76.5184 60.5986 -45.3275 70.4843Z" fill="#C6BFEC"/>
</g>
</g>
</svg>
