<svg width="181" height="116" viewBox="0 0 181 116" fill="none" xmlns="http://www.w3.org/2000/svg">
<g id="BG">
<path id="CARD" d="M172.584 0.36499H8.01785C3.69023 0.36499 0.182007 3.88991 0.182007 8.23811V107.439C0.182007 111.788 3.69023 115.313 8.01785 115.313H172.584C176.912 115.313 180.42 111.788 180.42 107.439V8.23811C180.42 3.88991 176.912 0.36499 172.584 0.36499Z" fill="#B4CEFF"/>
<mask id="mask0_688_78167" style="mask-type:alpha" maskUnits="userSpaceOnUse" x="0" y="0" width="181" height="116">
<path id="CARD_2" d="M172.584 0.36499H8.01785C3.69023 0.36499 0.182007 3.88991 0.182007 8.23811V107.439C0.182007 111.788 3.69023 115.313 8.01785 115.313H172.584C176.912 115.313 180.42 111.788 180.42 107.439V8.23811C180.42 3.88991 176.912 0.36499 172.584 0.36499Z" fill="#B4CEFF"/>
</mask>
<g mask="url(#mask0_688_78167)">
<path id="SHAPE" d="M56.8545 94.389C43.6625 83.8864 32.2855 70.5598 24.9809 55.2506C18.7635 42.2195 11.0779 19.0255 23.0181 7.05497C27.5477 2.51443 33.8631 0.399841 39.7964 -2.00011C57.8263 -9.29332 72.6456 -23.6849 93.1402 -20.5806C109.876 -18.0443 125.185 -8.33001 138.438 1.76873C150.631 11.061 160.414 22.7756 164.691 35.586C168.147 45.9376 168.292 57.4096 163.316 65.3925C161.747 67.8713 159.759 70.0554 157.441 71.8462C154.979 73.7808 152.105 75.5423 148.99 77.1934C138.303 82.8567 128.955 88.6254 121.041 97.9031C114.24 105.876 106.491 110.862 95.6689 111.04C86.3375 111.192 77.216 107.836 69.2141 103.006C64.9144 100.403 60.786 97.5248 56.8545 94.389Z" fill="#75A1F3"/>
<path id="SHAPE_2" d="M-23.0294 35.4771C-22.7988 42.42 -21.7667 49.3127 -19.954 56.0165C-18.0958 62.7368 -15.2848 69.1835 -11.4221 74.9806C-6.91877 81.7392 -1.05996 87.5088 4.94185 93.0112C10.7757 98.3595 16.5462 104.514 23.4901 108.269C32.0618 112.903 39.3963 111.332 47.4891 107.787C50.0924 106.646 52.8961 105.395 55.8242 104.14C62.5547 101.534 69.5564 99.6574 76.6228 98.0115C83.2568 96.4663 90.6894 95.7866 97.0355 93.1034C99.232 92.1761 101.31 90.9885 103.227 89.5659C105.28 88.0239 107.207 86.3183 108.988 84.4655C112.054 81.3129 114.7 77.7741 116.861 73.938C118.954 70.188 120.644 66.2245 121.902 62.1148C123.298 58.0207 124.471 53.7918 125.559 49.5089C126.648 45.2259 127.626 40.8846 128.535 36.5519C129.967 29.7361 130.59 22.9606 130.099 16.5796C129.608 10.1985 127.892 4.20502 124.661 -1.0486C121.849 -5.54702 118.067 -9.35379 113.596 -12.1882C108.553 -15.3849 102.869 -17.4231 96.9513 -18.1575C92.9474 -18.6348 88.9028 -18.658 84.8938 -18.2266C80.2504 -17.7188 75.6383 -16.9546 71.0785 -15.9376C66.8384 -15.0254 62.6228 -14.1321 58.4208 -13.3234C54.2188 -12.5148 50.0477 -11.7882 45.8931 -11.209C41.7385 -10.6297 37.6367 -10.1987 33.5739 -9.98077C29.587 -9.75283 25.59 -9.76778 21.6048 -10.0257C14.658 -10.5003 8.30987 -10.2377 2.59328 -8.64548C-3.34181 -7.03246 -8.70275 -3.76773 -12.872 0.772608C-19.1183 7.48703 -21.7341 15.8398 -22.6944 24.7884C-23.0635 28.3385 -23.1754 31.9107 -23.0294 35.4771Z" fill="#0059C6"/>
</g>
</g>
</svg>
