<svg width="12" height="12" viewBox="0 0 12 12" fill="none" xmlns="http://www.w3.org/2000/svg">
<g id="Vector">
<path fill-rule="evenodd" clip-rule="evenodd" d="M2.70429 8.64799V2.79008C1.43409 4.31339 1.561 5.82687 1.59109 7.61826V9.75908L1.58124 9.76946L0.562677 10.7883L0.559943 9.34577C0.553926 6.22598 -0.0494472 3.42397 2.70703 1.26513C3.05459 0.992898 3.43145 0.760146 3.83063 0.571174V6.08184L4.81966 5.09415V0.206453C5.17536 0.110384 5.53924 0.0475067 5.9066 0.0186326V5.4545L3.83063 7.52926L2.70429 8.64799Z" fill="#161616"/>
<path fill-rule="evenodd" clip-rule="evenodd" d="M10.7522 9.29494C11.4743 8.37638 11.9084 7.26539 12 6.10145H6.55433L5.5002 7.15302H8.3639L10.7752 7.09842C10.6364 7.47693 10.4538 7.83792 10.2309 8.17402H4.4778L3.35257 9.29494L2.23116 10.418L1.2104 11.4374L2.6551 11.4401C5.25294 11.445 7.63307 11.8622 9.60237 10.4235H5.82787C5.62328 10.4273 5.41541 10.4268 5.20426 10.4235C4.72178 10.4169 4.21961 10.3995 3.69501 10.4044L4.80219 9.29494H10.7522Z" fill="#161616"/>
<path fill-rule="evenodd" clip-rule="evenodd" d="M10.8588 1.12419V5.21365H11.9851V0H6.76154V1.12419H10.8588Z" fill="#161616"/>
<path fill-rule="evenodd" clip-rule="evenodd" d="M8.76595 3.21315H6.79391V2.07858H9.90268V5.18089H8.76595V3.21315Z" fill="#161616"/>
<path fill-rule="evenodd" clip-rule="evenodd" d="M6.76154 4.05398H7.92343V5.21366L6.76428 5.21093L6.76154 4.05398Z" fill="#161616"/>
</g>
</svg>
