<svg width="181" height="116" viewBox="0 0 181 116" fill="none" xmlns="http://www.w3.org/2000/svg">
<g id="BG">
<path id="CARD" d="M172.48 0.852783H7.91542C3.58748 0.852783 0.0789948 4.3777 0.0789948 8.7259V107.927C0.0789948 112.275 3.58748 115.8 7.91542 115.8H172.48C176.808 115.8 180.317 112.275 180.317 107.927V8.7259C180.317 4.3777 176.808 0.852783 172.48 0.852783Z" fill="#2860F5"/>
<mask id="mask0_688_77987" style="mask-type:alpha" maskUnits="userSpaceOnUse" x="0" y="0" width="181" height="116">
<path id="CARD_2" d="M172.48 0.852783H7.91542C3.58748 0.852783 0.0789948 4.3777 0.0789948 8.7259V107.927C0.0789948 112.275 3.58748 115.8 7.91542 115.8H172.48C176.808 115.8 180.317 112.275 180.317 107.927V8.7259C180.317 4.3777 176.808 0.852783 172.48 0.852783Z" fill="#2860F5"/>
</mask>
<g mask="url(#mask0_688_77987)">
<path id="SHAPE" d="M188.941 127.273C188.531 127.249 188.142 127.083 187.842 126.802L182.873 122.168C182.702 122.01 182.565 121.819 182.468 121.608C182.371 121.396 182.316 121.167 182.307 120.934C182.298 120.701 182.335 120.469 182.416 120.25C182.496 120.032 182.619 119.831 182.776 119.66C182.934 119.489 183.123 119.351 183.334 119.253C183.545 119.156 183.772 119.101 184.004 119.092C184.236 119.083 184.467 119.12 184.685 119.201C184.902 119.282 185.102 119.405 185.272 119.563L190.241 124.198C190.501 124.44 190.682 124.755 190.761 125.102C190.84 125.448 190.814 125.811 190.686 126.143C190.558 126.474 190.334 126.76 190.042 126.962C189.751 127.164 189.406 127.274 189.052 127.277C189.015 127.276 188.978 127.275 188.941 127.273ZM142.922 124.621C142.612 124.602 142.313 124.502 142.054 124.331C141.795 124.16 141.586 123.923 141.446 123.645C141.307 123.367 141.243 123.056 141.261 122.746C141.278 122.435 141.377 122.134 141.547 121.873L148.154 111.742C148.411 111.349 148.813 111.074 149.272 110.979C149.731 110.884 150.208 110.975 150.599 111.234C150.991 111.492 151.264 111.896 151.359 112.357C151.454 112.818 151.362 113.298 151.105 113.691L144.498 123.822C144.338 124.068 144.119 124.27 143.861 124.41C143.603 124.55 143.315 124.624 143.023 124.624C142.989 124.624 142.955 124.623 142.922 124.621V124.621ZM86.9155 121.393C86.5688 121.372 86.2359 121.249 85.9583 121.04C85.6806 120.83 85.4705 120.543 85.3541 120.214C85.2378 119.885 85.2204 119.53 85.304 119.191C85.3876 118.852 85.5686 118.546 85.8244 118.31L91.0303 113.514C91.3772 113.203 91.8318 113.043 92.2958 113.067C92.7597 113.091 93.1956 113.297 93.5091 113.642C93.8225 113.986 93.9883 114.441 93.9705 114.907C93.9526 115.374 93.7527 115.814 93.4139 116.134L88.208 120.93C87.883 121.229 87.458 121.396 87.0169 121.396C86.9832 121.396 86.9494 121.395 86.9155 121.393V121.393ZM221.433 119.889L216.767 101.258C216.709 101.032 216.696 100.796 216.729 100.565C216.762 100.334 216.84 100.112 216.959 99.9107C217.078 99.7099 217.235 99.5346 217.421 99.3949C217.607 99.2553 217.819 99.154 218.045 99.0968C218.27 99.0397 218.505 99.0278 218.735 99.062C218.965 99.0962 219.186 99.1756 219.385 99.2959C219.584 99.4161 219.758 99.5748 219.896 99.7627C220.034 99.9505 220.134 100.164 220.19 100.391L224.856 119.021C224.913 119.247 224.925 119.482 224.891 119.712C224.857 119.943 224.779 120.164 224.66 120.364C224.541 120.564 224.385 120.738 224.199 120.878C224.013 121.017 223.801 121.118 223.577 121.175C223.352 121.232 223.118 121.243 222.889 121.21C222.659 121.176 222.439 121.097 222.24 120.978C222.041 120.858 221.867 120.701 221.729 120.514C221.59 120.327 221.49 120.115 221.433 119.889ZM29.4028 118.078L23.129 110.809L25.7934 108.48L34.3216 118.362L29.4028 118.078ZM119.349 114.927C118.895 114.809 118.507 114.515 118.268 114.11C118.03 113.705 117.962 113.221 118.078 112.765L122.819 94.1545C122.875 93.9274 122.976 93.7138 123.114 93.5259C123.253 93.338 123.428 93.1795 123.628 93.0596C123.828 92.9398 124.049 92.8609 124.28 92.8276C124.51 92.7942 124.745 92.8069 124.971 92.8651C125.196 92.9233 125.408 93.0258 125.594 93.1666C125.78 93.3075 125.937 93.484 126.055 93.6858C126.172 93.8877 126.249 94.111 126.281 94.3429C126.312 94.5747 126.298 94.8105 126.238 95.0367L121.497 113.648C121.44 113.873 121.339 114.086 121.2 114.272C121.061 114.459 120.887 114.616 120.687 114.735C120.488 114.854 120.267 114.932 120.037 114.965C119.808 114.998 119.574 114.985 119.349 114.927V114.927ZM166.514 106.932L157.927 89.771C157.82 89.5627 157.754 89.3349 157.735 89.101C157.715 88.8671 157.742 88.6316 157.814 88.4083C157.886 88.1849 158.001 87.9781 158.153 87.7998C158.305 87.6214 158.49 87.4752 158.699 87.3695C158.908 87.2638 159.135 87.2007 159.368 87.184C159.601 87.1673 159.835 87.1972 160.057 87.272C160.278 87.3468 160.483 87.4652 160.658 87.62C160.834 87.7748 160.977 87.963 161.08 88.1739L169.667 105.335C169.773 105.543 169.837 105.77 169.855 106.003C169.873 106.236 169.846 106.471 169.773 106.693C169.701 106.915 169.586 107.121 169.434 107.298C169.283 107.476 169.098 107.621 168.89 107.726C168.682 107.832 168.456 107.894 168.224 107.911C167.992 107.929 167.758 107.899 167.538 107.825C167.317 107.752 167.113 107.635 166.937 107.481C166.761 107.328 166.618 107.141 166.514 106.932L166.514 106.932ZM73.8515 102.658L59.8489 89.5955C59.6787 89.4372 59.5411 89.2468 59.4441 89.0351C59.3472 88.8234 59.2926 88.5946 59.2837 88.3617C59.2747 88.1288 59.3115 87.8963 59.3919 87.6777C59.4723 87.4591 59.5948 87.2586 59.7524 87.0876C59.91 86.9165 60.0995 86.7784 60.3103 86.681C60.521 86.5835 60.7487 86.5287 60.9805 86.5197C61.2123 86.5107 61.4436 86.5477 61.6612 86.6285C61.8788 86.7093 62.0784 86.8323 62.2486 86.9906L76.251 100.053C76.4212 100.211 76.5588 100.402 76.6558 100.613C76.7528 100.825 76.8073 101.054 76.8163 101.287C76.8252 101.52 76.7885 101.752 76.708 101.971C76.6276 102.189 76.5052 102.39 76.3476 102.561C76.19 102.732 76.0005 102.87 75.7898 102.967C75.5791 103.065 75.3513 103.12 75.1196 103.129C74.8878 103.138 74.6565 103.101 74.4389 103.02C74.2213 102.939 74.0217 102.816 73.8515 102.658ZM-3.07759 100.39C-3.36258 100.016 -3.48824 99.5435 -3.42695 99.0766C-3.36566 98.6098 -3.12244 98.1864 -2.75071 97.8996L12.4036 86.2133C12.7761 85.9331 13.2437 85.8118 13.7046 85.8759C14.1656 85.9399 14.5828 86.1842 14.8656 86.5555C15.1484 86.9268 15.274 87.3952 15.215 87.859C15.1561 88.3228 14.9174 88.7445 14.5508 89.0325L-0.60307 100.719C-0.786924 100.861 -0.996844 100.965 -1.2208 101.025C-1.44475 101.085 -1.67835 101.101 -1.90819 101.07C-2.13804 101.04 -2.35962 100.964 -2.56025 100.847C-2.76088 100.73 -2.93661 100.575 -3.07737 100.39L-3.07759 100.39ZM251.976 98.4551L251.433 97.7427C251.221 97.4632 251.127 97.1104 251.173 96.7616C251.219 96.4128 251.4 96.0965 251.678 95.8821L252.288 95.4117C252.489 95.2573 252.729 95.164 252.981 95.1429C253.232 95.1218 253.485 95.1739 253.708 95.2928C253.931 95.4118 254.116 95.5926 254.24 95.8138C254.364 96.035 254.422 96.2873 254.407 96.5407L254.34 97.724C254.325 97.9942 254.228 98.2534 254.062 98.4666C253.896 98.6798 253.669 98.8368 253.411 98.9165C253.154 98.9962 252.878 98.9947 252.622 98.9122C252.365 98.8297 252.14 98.6703 251.976 98.4553V98.4551ZM36.1744 95.2945C35.7207 95.1769 35.3319 94.8833 35.0935 94.4781C34.8551 94.0728 34.7864 93.5891 34.9026 93.133L39.6441 74.5223C39.7606 74.0668 40.0524 73.6764 40.4553 73.437C40.8583 73.1976 41.3394 73.1289 41.7928 73.2459C42.2462 73.3629 42.6348 73.656 42.873 74.0609C43.1113 74.4657 43.1797 74.949 43.0633 75.4045L38.3222 94.0154C38.2653 94.2414 38.1644 94.4538 38.0255 94.6405C37.8866 94.8272 37.7124 94.9844 37.5128 95.1033C37.3132 95.2221 37.0923 95.3002 36.8626 95.3331C36.6329 95.3659 36.399 95.3527 36.1744 95.2945ZM189.679 92.1452L175.11 79.7255C174.758 79.4201 174.539 78.9871 174.503 78.5207C174.466 78.0543 174.614 77.5922 174.915 77.235C175.216 76.8779 175.645 76.6544 176.109 76.6133C176.572 76.5722 177.034 76.7168 177.392 77.0156L191.96 89.4351C192.141 89.5846 192.29 89.7685 192.399 89.9763C192.508 90.1841 192.575 90.4117 192.596 90.6456C192.617 90.8796 192.591 91.1154 192.521 91.3394C192.45 91.5634 192.336 91.7711 192.185 91.9505C192.034 92.1299 191.849 92.2773 191.641 92.3844C191.433 92.4914 191.206 92.5558 190.973 92.5739C190.74 92.5921 190.505 92.5635 190.283 92.4899C190.061 92.4163 189.856 92.2992 189.679 92.1452H189.679ZM230.627 82.7603C230.235 82.5016 229.962 82.0973 229.867 81.6362C229.771 81.175 229.862 80.6948 230.119 80.301L240.595 64.2384C240.721 64.0418 240.885 63.8722 241.077 63.7395C241.269 63.6068 241.486 63.5136 241.714 63.4653C241.942 63.4169 242.177 63.4145 242.406 63.4579C242.635 63.5014 242.853 63.5901 243.048 63.7187C243.243 63.8473 243.41 64.0134 243.541 64.2074C243.671 64.4013 243.762 64.6193 243.809 64.8488C243.855 65.0783 243.856 65.3148 243.81 65.5445C243.765 65.7743 243.675 65.9927 243.546 66.1874L233.071 82.2499C232.944 82.4449 232.78 82.6128 232.588 82.7441C232.397 82.8753 232.181 82.9673 231.954 83.0148C231.727 83.0622 231.493 83.0642 231.265 83.0205C231.038 82.9769 230.821 82.8886 230.627 82.7606V82.7603ZM-9.77438 79.2316C-9.75993 78.9767 -9.69097 78.7279 -9.5722 78.5022C-9.45343 78.2764 -9.28763 78.0791 -9.08611 77.9235L2.88704 68.6904C3.25957 68.4101 3.72711 68.2889 4.18809 68.353C4.64907 68.4171 5.06627 68.6613 5.34907 69.0326C5.63187 69.4039 5.75743 69.8724 5.69849 70.3362C5.63953 70.8 5.40083 71.2216 5.03423 71.5096L-6.93849 80.743C-7.24278 80.9821 -7.61774 81.1124 -8.00403 81.1133C-8.24547 81.1139 -8.48447 81.0648 -8.70633 80.9692C-8.9282 80.8735 -9.12822 80.7332 -9.29408 80.5569C-9.45993 80.3806 -9.5881 80.1721 -9.6707 79.9442C-9.75331 79.7162 -9.7886 79.4737 -9.77438 79.2316ZM90.1271 78.9841C89.6962 78.7991 89.356 78.4498 89.1812 78.013C89.0064 77.5762 89.0113 77.0876 89.1947 76.6544L96.6752 58.9781C96.8589 58.5454 97.2061 58.2037 97.6406 58.0282C98.075 57.8527 98.5611 57.8579 98.9918 58.0424C99.4224 58.227 99.7625 58.5759 99.9372 59.0123C100.112 59.4488 100.107 59.9371 99.923 60.3698L92.4424 78.0463C92.352 78.2609 92.2203 78.4555 92.0549 78.6188C91.8895 78.7822 91.6936 78.9111 91.4785 78.9982C91.2634 79.0853 91.0333 79.129 90.8014 79.1265C90.5695 79.1241 90.3403 79.0757 90.1271 78.9841ZM133.715 72.5968C133.453 72.2063 133.356 71.7274 133.445 71.2652C133.534 70.8029 133.803 70.3951 134.191 70.1314L150.018 59.3866C150.407 59.1287 150.882 59.0355 151.338 59.1272C151.795 59.2189 152.197 59.4881 152.458 59.8763C152.718 60.2645 152.815 60.7402 152.728 61.2C152.641 61.6597 152.376 62.0664 151.993 62.3314L136.165 73.0762C135.973 73.2066 135.757 73.2977 135.53 73.3443C135.302 73.3908 135.068 73.3918 134.841 73.3473C134.613 73.3028 134.397 73.2135 134.203 73.0847C134.01 72.9559 133.844 72.7901 133.715 72.5968H133.715ZM62.3167 59.681L53.73 42.5199C53.624 42.3117 53.5601 42.0846 53.5418 41.8515C53.5235 41.6184 53.5512 41.384 53.6234 41.1618C53.6956 40.9395 53.8109 40.7338 53.9625 40.5565C54.1141 40.3791 54.2991 40.2337 54.5069 40.1284C54.7147 40.0231 54.9411 39.9602 55.1732 39.9431C55.4053 39.9261 55.6384 39.9554 55.8592 40.0292C56.08 40.103 56.2841 40.22 56.4598 40.3733C56.6354 40.5267 56.7792 40.7134 56.8827 40.9228L65.4696 58.0835C65.5777 58.2918 65.6434 58.5196 65.6631 58.7537C65.6827 58.9878 65.6559 59.2235 65.5842 59.4471C65.5124 59.6707 65.3972 59.8778 65.2452 60.0563C65.0932 60.2348 64.9073 60.3811 64.6986 60.4869C64.4898 60.5927 64.2622 60.6557 64.0289 60.6724C63.7957 60.689 63.5615 60.659 63.3399 60.584C63.1183 60.509 62.9137 60.3905 62.7381 60.2354C62.5624 60.0803 62.4192 59.8917 62.3167 59.6806V59.681ZM234.071 59.2691L225.484 42.108C225.376 41.8997 225.311 41.672 225.291 41.4381C225.272 41.2042 225.299 40.9687 225.371 40.7453C225.442 40.5219 225.558 40.3151 225.71 40.1368C225.862 39.9585 226.047 39.8122 226.256 39.7065C226.464 39.6008 226.692 39.5378 226.925 39.521C227.158 39.5043 227.392 39.5343 227.613 39.6091C227.835 39.6839 228.039 39.8021 228.215 39.9569C228.391 40.1117 228.534 40.3 228.637 40.5109L237.223 57.6718C237.331 57.8801 237.396 58.1078 237.416 58.3417C237.435 58.5757 237.408 58.8112 237.337 59.0345C237.265 59.2579 237.15 59.4647 236.998 59.643C236.846 59.8214 236.66 59.9676 236.452 60.0733C236.243 60.179 236.016 60.2421 235.782 60.2588C235.549 60.2755 235.315 60.2456 235.094 60.1707C234.872 60.0959 234.668 59.9777 234.492 59.8229C234.317 59.6681 234.173 59.4798 234.071 59.2689L234.071 59.2691ZM21.484 58.6162C21.0304 58.4985 20.6417 58.2048 20.4034 57.7995C20.1651 57.3943 20.0965 56.9106 20.2127 56.4546L24.9537 37.8439C25.0105 37.6174 25.1113 37.4043 25.2502 37.217C25.3892 37.0297 25.5636 36.8718 25.7635 36.7524C25.9634 36.633 26.1847 36.5545 26.4149 36.5213C26.6451 36.4881 26.8795 36.5009 27.1048 36.5591C27.33 36.6172 27.5416 36.7194 27.7273 36.86C27.9131 37.0005 28.0694 37.1765 28.1873 37.3779C28.3051 37.5793 28.3822 37.8021 28.4141 38.0335C28.446 38.2649 28.4321 38.5004 28.3731 38.7264L23.6312 57.3369C23.5742 57.5628 23.4734 57.7752 23.3345 57.9619C23.1956 58.1486 23.0213 58.3059 22.8217 58.4247C22.6222 58.5436 22.4012 58.6216 22.1715 58.6544C21.9418 58.6873 21.708 58.6741 21.4833 58.6159L21.484 58.6162ZM202.393 57.5283C201.94 57.4106 201.551 57.117 201.313 56.7118C201.075 56.3066 201.006 55.823 201.122 55.367L205.863 36.7563C205.92 36.5292 206.02 36.3156 206.159 36.1277C206.298 35.9398 206.472 35.7813 206.672 35.6615C206.872 35.5416 207.094 35.4627 207.324 35.4293C207.555 35.396 207.79 35.4087 208.015 35.4669C208.241 35.5251 208.453 35.6276 208.639 35.7685C208.825 35.9093 208.981 36.0858 209.099 36.2877C209.217 36.4895 209.294 36.7128 209.325 36.9446C209.357 37.1765 209.342 37.4123 209.283 37.6385L204.541 56.2492C204.484 56.4752 204.384 56.6876 204.245 56.8743C204.106 57.061 203.932 57.2183 203.732 57.3372C203.532 57.456 203.311 57.5341 203.082 57.5669C202.852 57.5997 202.618 57.5866 202.393 57.5283ZM140.396 41.6664L121.304 41.5065C120.837 41.4991 120.393 41.3067 120.067 40.9713C119.741 40.636 119.56 40.1848 119.564 39.7162C119.568 39.2475 119.756 38.7994 120.087 38.4695C120.419 38.1395 120.866 37.9546 121.333 37.9548L140.425 38.1143C140.884 38.1316 141.318 38.3272 141.635 38.6599C141.953 38.9925 142.13 39.4362 142.128 39.8972C142.126 40.3582 141.946 40.8004 141.626 41.1305C141.305 41.4607 140.87 41.6528 140.411 41.6664H140.396ZM254.348 40.2785L251.274 34.7766C251.044 34.3666 250.986 33.8817 251.112 33.4286C251.238 32.9755 251.538 32.5912 251.946 32.3604C252.354 32.1295 252.837 32.071 253.288 32.1977C253.739 32.3243 254.121 32.6258 254.351 33.0357L257.425 38.5381C257.577 38.8095 257.655 39.1163 257.652 39.4276C257.648 39.739 257.564 40.044 257.406 40.3122C257.249 40.5804 257.024 40.8023 256.754 40.9557C256.485 41.1091 256.179 41.1885 255.869 41.1862C255.558 41.1881 255.251 41.1046 254.984 40.9446C254.715 40.7847 254.496 40.5544 254.349 40.2785H254.348ZM-3.66847 36.2936L-6.74236 30.7914C-6.90776 30.4957 -6.98545 30.1585 -6.96626 29.8198C-6.94516 29.4367 -6.80087 29.0709 -6.55509 28.7772C-6.3093 28.4835 -5.9753 28.2778 -5.60325 28.1912C-5.2312 28.1045 -4.84119 28.1415 -4.49186 28.2966C-4.14253 28.4517 -3.85274 28.7165 -3.66601 29.0512L-0.592329 34.5529C-0.47857 34.7559 -0.405716 34.9794 -0.377929 35.2107C-0.350141 35.442 -0.367963 35.6764 -0.430377 35.9008C-0.492791 36.1251 -0.59858 36.3349 -0.741694 36.5182C-0.884809 36.7014 -1.06245 36.8546 -1.26447 36.9689C-1.4665 37.0832 -1.68894 37.1563 -1.91913 37.1843C-2.14931 37.2122 -2.38271 37.1943 -2.606 37.1316C-2.8293 37.0689 -3.03812 36.9626 -3.22053 36.8188C-3.40294 36.675 -3.55538 36.4966 -3.66914 36.2936H-3.66847ZM187.837 34.6223L170.82 25.9089C170.402 25.6957 170.086 25.3244 169.94 24.8768C169.795 24.4292 169.832 23.9418 170.045 23.522C170.257 23.1022 170.627 22.7844 171.072 22.6383C171.518 22.4923 172.003 22.53 172.421 22.7433L189.438 31.4564C189.647 31.561 189.833 31.706 189.985 31.8831C190.138 32.0602 190.254 32.2658 190.327 32.4882C190.4 32.7106 190.429 32.9454 190.411 33.1789C190.393 33.4124 190.33 33.6402 190.224 33.849C190.119 34.0578 189.973 34.2435 189.796 34.3956C189.618 34.5476 189.413 34.6629 189.191 34.7347C188.969 34.8066 188.735 34.8337 188.503 34.8144C188.271 34.7951 188.045 34.7298 187.837 34.6223H187.837ZM97.9525 32.5959L83.9502 19.5337C83.7777 19.376 83.638 19.1856 83.5391 18.9734C83.4403 18.7612 83.3842 18.5314 83.3742 18.2973C83.3642 18.0632 83.4005 17.8294 83.4809 17.6094C83.5612 17.3895 83.6842 17.1877 83.8426 17.0158C84.001 16.8438 84.1918 16.7051 84.4038 16.6075C84.6159 16.51 84.8451 16.4557 85.0782 16.4476C85.3113 16.4396 85.5436 16.478 85.7618 16.5606C85.9801 16.6432 86.1799 16.7685 86.3497 16.9291L100.352 29.991C100.696 30.3107 100.899 30.7545 100.917 31.2248C100.935 31.6951 100.767 32.1535 100.449 32.4989C100.13 32.8443 99.6887 33.0486 99.2206 33.0668C98.7525 33.085 98.2964 32.9156 97.9525 32.5959ZM222.117 24.1471L207.462 11.8309C207.283 11.6816 207.136 11.4986 207.029 11.2922C206.921 11.0858 206.855 10.8601 206.834 10.628C206.813 10.3959 206.838 10.1619 206.907 9.93939C206.976 9.71691 207.088 9.51026 207.236 9.33128C207.385 9.1523 207.567 9.00446 207.773 8.89622C207.978 8.78798 208.203 8.7215 208.434 8.70049C208.665 8.67947 208.898 8.70434 209.119 8.77375C209.341 8.84315 209.546 8.95575 209.724 9.10502L224.379 21.4211C224.563 21.5683 224.716 21.751 224.829 21.9585C224.942 22.166 225.013 22.394 225.037 22.6292C225.061 22.8644 225.038 23.1022 224.969 23.3283C224.9 23.5545 224.787 23.7645 224.636 23.9461C224.486 24.1278 224.3 24.2774 224.091 24.3861C223.882 24.4948 223.654 24.5604 223.419 24.5791C223.185 24.5979 222.949 24.5693 222.725 24.4951C222.502 24.4209 222.295 24.3026 222.118 24.1471H222.117ZM41.2967 19.4154C41.0118 19.0416 40.8863 18.5694 40.9476 18.1026C41.0089 17.6358 41.2521 17.2125 41.6238 16.9257L56.777 5.2393C57.1494 4.9564 57.618 4.83307 58.0806 4.89622C58.5432 4.95938 58.9621 5.20387 59.2458 5.57633C59.5295 5.9488 59.6549 6.41896 59.5947 6.88406C59.5345 7.34915 59.2935 7.77139 58.9244 8.05854L43.7706 19.745C43.5867 19.8869 43.3767 19.9909 43.1527 20.0512C42.9287 20.1114 42.6951 20.1266 42.4653 20.096C42.2354 20.0654 42.0138 19.9895 41.8132 19.8727C41.6125 19.7559 41.4368 19.6006 41.2961 19.4154H41.2967ZM126.536 14.9246C126.083 14.8069 125.694 14.5133 125.456 14.108C125.217 13.7028 125.149 13.2191 125.265 12.7631L130.006 -5.84765C130.123 -6.30318 130.414 -6.69357 130.817 -6.93295C131.22 -7.17233 131.701 -7.24106 132.155 -7.12407C132.608 -7.00708 132.997 -6.71391 133.235 -6.30908C133.473 -5.90424 133.542 -5.42091 133.425 -4.96539L128.684 13.6453C128.627 13.8712 128.526 14.0837 128.387 14.2704C128.249 14.4571 128.074 14.6143 127.875 14.7332C127.675 14.852 127.454 14.9302 127.225 14.963C126.995 14.9959 126.761 14.9828 126.536 14.9246ZM13.961 12.6286L5.3741 -4.53235C5.26609 -4.74071 5.20034 -4.96854 5.18068 -5.20263C5.16102 -5.43673 5.18784 -5.67244 5.25957 -5.89603C5.33131 -6.11963 5.44652 -6.3267 5.59855 -6.50519C5.75058 -6.68369 5.93638 -6.83004 6.14517 -6.93581C6.35397 -7.04157 6.58159 -7.1046 6.81483 -7.12127C7.04807 -7.13793 7.28228 -7.10792 7.50387 -7.0329C7.72545 -6.95789 7.93001 -6.83936 8.10565 -6.68428C8.28129 -6.5292 8.42452 -6.34064 8.52703 -6.12949L17.1137 11.0314C17.2197 11.2396 17.2837 11.4667 17.302 11.6998C17.3203 11.9329 17.2925 12.1673 17.2203 12.3895C17.1481 12.6118 17.0329 12.8175 16.8813 12.9948C16.7296 13.1722 16.5446 13.3177 16.3368 13.4229C16.1291 13.5282 15.9026 13.5911 15.6705 13.6082C15.4385 13.6252 15.2053 13.5959 14.9845 13.5221C14.7637 13.4483 14.5596 13.3313 14.384 13.178C14.2083 13.0246 14.0646 12.838 13.961 12.6286ZM28.936 -1.13817C28.5444 -1.3969 28.271 -1.80117 28.1759 -2.26224C28.0808 -2.72331 28.1717 -3.20346 28.4286 -3.59726L38.9037 -19.66C39.161 -20.0532 39.5632 -20.3276 40.0218 -20.4229C40.4805 -20.5181 40.958 -20.4264 41.3493 -20.1679C41.7407 -19.9095 42.0138 -19.5054 42.1086 -19.0446C42.2034 -18.5838 42.1122 -18.104 41.8549 -17.7108L31.3803 -1.64743C31.2534 -1.45243 31.0895 -1.28455 30.8979 -1.15333C30.7063 -1.02211 30.4908 -0.930138 30.2638 -0.882744C30.0367 -0.83535 29.8026 -0.833412 29.5749 -0.877087C29.3471 -0.920761 29.1301 -1.00917 28.9364 -1.13724L28.936 -1.13817ZM166.037 -2.73415C165.752 -3.10806 165.627 -3.5804 165.688 -4.04737C165.749 -4.51434 165.993 -4.93775 166.365 -5.22454L181.518 -16.9109C181.891 -17.197 182.361 -17.3229 182.825 -17.2608C183.29 -17.1987 183.71 -16.9538 183.995 -16.5799C184.28 -16.2061 184.405 -15.7338 184.343 -15.2671C184.282 -14.8004 184.038 -14.3776 183.666 -14.0915L168.511 -2.40503C168.328 -2.26318 168.118 -2.15919 167.894 -2.09897C167.67 -2.03874 167.436 -2.02351 167.206 -2.0541C166.977 -2.08469 166.755 -2.1605 166.554 -2.27723C166.354 -2.39397 166.178 -2.54932 166.037 -2.73438L166.037 -2.73415ZM93.9774 -3.80375L85.6932 -21.1152C85.5862 -21.3256 85.5221 -21.5555 85.5047 -21.7912C85.4873 -22.0269 85.517 -22.2637 85.592 -22.4877C85.667 -22.7117 85.7858 -22.9184 85.9414 -23.0956C86.0971 -23.2729 86.2864 -23.417 86.4983 -23.5197C86.7101 -23.6224 86.9403 -23.6815 87.1753 -23.6936C87.4102 -23.7057 87.6452 -23.6704 87.8664 -23.59C88.0876 -23.5095 88.2905 -23.3855 88.4633 -23.2251C88.6361 -23.0647 88.7752 -22.8712 88.8726 -22.6561L97.1557 -5.34465C97.2627 -5.13419 97.3268 -4.90436 97.3442 -4.66866C97.3615 -4.43296 97.3319 -4.19614 97.2569 -3.97213C97.1819 -3.74812 97.0631 -3.54141 96.9074 -3.36418C96.7518 -3.18695 96.5625 -3.04279 96.3506 -2.9401C96.1387 -2.83741 95.9086 -2.77829 95.6736 -2.76623C95.4387 -2.75417 95.2037 -2.7894 94.9825 -2.86986C94.7613 -2.95032 94.5584 -3.07442 94.3856 -3.23479C94.2128 -3.39517 94.0737 -3.58858 93.9763 -3.80375H93.9774ZM238.867 -4.98741C238.654 -5.40664 238.615 -5.89379 238.759 -6.34186C238.903 -6.78993 239.218 -7.1623 239.635 -7.37724L256.633 -16.1261C257.051 -16.3403 257.536 -16.3791 257.982 -16.234C258.427 -16.0889 258.798 -15.7718 259.011 -15.3524C259.224 -14.933 259.263 -14.4457 259.118 -13.9977C258.974 -13.5497 258.658 -13.1777 258.241 -12.9636L241.242 -4.2152C241.036 -4.10881 240.811 -4.04441 240.58 -4.02567C240.349 -4.00693 240.116 -4.0342 239.895 -4.10596C239.675 -4.17773 239.47 -4.29258 239.294 -4.44388C239.118 -4.59518 238.973 -4.77999 238.868 -4.98768L238.867 -4.98741ZM204.379 -11.907L195.793 -29.0677C195.685 -29.276 195.62 -29.5037 195.6 -29.7377C195.581 -29.9716 195.608 -30.207 195.679 -30.4304C195.751 -30.6538 195.866 -30.8606 196.018 -31.0389C196.17 -31.2173 196.356 -31.3635 196.564 -31.4692C196.773 -31.5749 197.001 -31.6379 197.234 -31.6546C197.467 -31.6714 197.701 -31.6415 197.922 -31.5667C198.144 -31.4918 198.348 -31.3736 198.524 -31.2188C198.699 -31.064 198.843 -30.8757 198.945 -30.6648L207.532 -13.5039C207.638 -13.2958 207.702 -13.0686 207.72 -12.8355C207.739 -12.6025 207.711 -12.3681 207.639 -12.1458C207.567 -11.9236 207.451 -11.7179 207.3 -11.5405C207.148 -11.3632 206.963 -11.2177 206.755 -11.1124C206.548 -11.0072 206.321 -10.9442 206.089 -10.9272C205.857 -10.9102 205.624 -10.9394 205.403 -11.0132C205.182 -11.0871 204.978 -11.204 204.802 -11.3574C204.627 -11.5107 204.483 -11.6974 204.379 -11.9068V-11.907ZM145.344 -20.5634C145.145 -20.9895 145.123 -21.4774 145.281 -21.9202C145.44 -22.363 145.767 -22.7245 146.191 -22.9253L163.471 -31.0961C163.894 -31.2884 164.376 -31.3055 164.811 -31.1438C165.247 -30.9821 165.602 -30.6545 165.799 -30.2319C165.996 -29.8094 166.02 -29.3258 165.865 -28.8859C165.71 -28.4459 165.389 -28.085 164.971 -27.8811L147.691 -19.7106C147.481 -19.6113 147.254 -19.5545 147.022 -19.5435C146.791 -19.5326 146.559 -19.5677 146.341 -19.6469C146.123 -19.726 145.922 -19.8477 145.751 -20.0048C145.58 -20.162 145.441 -20.3516 145.343 -20.5627L145.344 -20.5634ZM241.403 -24.5834L227.401 -37.6458C227.072 -37.9689 226.881 -38.4081 226.87 -38.8702C226.858 -39.3322 227.026 -39.7805 227.339 -40.1198C227.651 -40.4591 228.083 -40.6626 228.542 -40.687C229.002 -40.7114 229.452 -40.5548 229.799 -40.2505L243.801 -27.1883C243.972 -27.03 244.109 -26.8395 244.206 -26.6278C244.303 -26.4161 244.358 -26.1873 244.367 -25.9544C244.376 -25.7215 244.339 -25.4891 244.258 -25.2705C244.178 -25.0519 244.055 -24.8514 243.898 -24.6804C243.74 -24.5093 243.551 -24.3711 243.34 -24.2737C243.129 -24.1763 242.902 -24.1215 242.67 -24.1125C242.438 -24.1035 242.207 -24.1404 241.989 -24.2213C241.771 -24.3021 241.572 -24.4251 241.402 -24.5834H241.403ZM62.494 -25.903C62.0404 -26.0206 61.6518 -26.3142 61.4134 -26.7194C61.175 -27.1246 61.1064 -27.6082 61.2225 -28.0642L65.9638 -46.6749C66.02 -46.902 66.1205 -47.1157 66.2593 -47.3036C66.3981 -47.4915 66.5725 -47.6499 66.7726 -47.7698C66.9726 -47.8896 67.1943 -47.9685 67.4249 -48.0019C67.6554 -48.0353 67.8902 -48.0226 68.1158 -47.9643C68.3414 -47.9061 68.5533 -47.8037 68.7393 -47.6628C68.9253 -47.5219 69.0817 -47.3455 69.1995 -47.1436C69.3173 -46.9417 69.3942 -46.7185 69.4257 -46.4866C69.4572 -46.2547 69.4428 -46.0189 69.3832 -45.7927L64.6417 -27.182C64.5847 -26.956 64.4839 -26.7437 64.345 -26.557C64.2061 -26.3703 64.0319 -26.213 63.8324 -26.0942C63.6328 -25.9753 63.4118 -25.8972 63.1822 -25.8644C62.9525 -25.8316 62.7187 -25.8447 62.494 -25.903ZM112.182 -29.682L110.17 -48.7881C110.146 -49.0196 110.167 -49.2538 110.233 -49.4771C110.298 -49.7004 110.407 -49.9085 110.553 -50.0896C110.698 -50.2707 110.878 -50.4213 111.082 -50.5326C111.285 -50.6439 111.509 -50.7138 111.739 -50.7384C111.97 -50.763 112.203 -50.7417 112.425 -50.6757C112.647 -50.6098 112.855 -50.5005 113.035 -50.3542C113.215 -50.2078 113.365 -50.0272 113.476 -49.8227C113.586 -49.6182 113.656 -49.3937 113.68 -49.1622L115.692 -30.0559C115.742 -29.5879 115.604 -29.1192 115.31 -28.7529C115.016 -28.3866 114.589 -28.1528 114.123 -28.1027C114.061 -28.096 113.998 -28.0926 113.935 -28.0926C113.499 -28.0932 113.078 -28.256 112.755 -28.5496C112.431 -28.8432 112.226 -29.2468 112.181 -29.6827L112.182 -29.682ZM26.7008 -34.3902L12.6985 -47.4526C12.3547 -47.7722 12.1513 -48.2161 12.1332 -48.6864C12.1151 -49.1567 12.2837 -49.6149 12.6019 -49.9604C12.9201 -50.3058 13.3618 -50.5101 13.8299 -50.5283C14.298 -50.5465 14.7542 -50.3771 15.098 -50.0575L29.1003 -36.995C29.4442 -36.6753 29.6475 -36.2315 29.6656 -35.7612C29.6837 -35.2909 29.5152 -34.8327 29.197 -34.4872C28.8788 -34.1418 28.437 -33.9375 27.9689 -33.9193C27.5008 -33.9011 27.0446 -34.0705 26.7008 -34.3902ZM206.953 -42.0759L201.984 -46.7112C201.812 -46.8689 201.673 -47.0594 201.574 -47.2716C201.475 -47.4838 201.419 -47.7136 201.409 -47.9476C201.399 -48.1816 201.436 -48.4153 201.516 -48.6352C201.597 -48.855 201.72 -49.0567 201.878 -49.2286C202.036 -49.4005 202.227 -49.5392 202.439 -49.6367C202.651 -49.7342 202.88 -49.7886 203.113 -49.7967C203.346 -49.8048 203.578 -49.7666 203.797 -49.6841C204.015 -49.6016 204.215 -49.4764 204.384 -49.316L209.353 -44.6808C209.697 -44.3611 209.9 -43.9172 209.918 -43.4469C209.936 -42.9766 209.768 -42.5183 209.45 -42.1729C209.131 -41.8274 208.69 -41.6232 208.221 -41.605C207.753 -41.5868 207.297 -41.7562 206.953 -42.0759ZM148.264 -47.0418C147.873 -47.3006 147.6 -47.7049 147.504 -48.166C147.409 -48.627 147.5 -49.1072 147.757 -49.5009L149.389 -52.0032C149.646 -52.3964 150.048 -52.6708 150.507 -52.7661C150.966 -52.8614 151.443 -52.7696 151.834 -52.5112C152.226 -52.2527 152.499 -51.8486 152.594 -51.3878C152.689 -50.927 152.597 -50.4472 152.34 -50.0541L150.708 -47.5518C150.582 -47.3568 150.418 -47.1889 150.226 -47.0578C150.034 -46.9266 149.819 -46.8347 149.592 -46.7873C149.365 -46.7399 149.131 -46.738 148.903 -46.7817C148.675 -46.8254 148.458 -46.9138 148.264 -47.0418ZM86.9164 -48.308C86.6 -48.6555 86.4338 -49.115 86.4544 -49.5855C86.475 -50.056 86.6806 -50.499 87.0261 -50.8173L92.2678 -55.6467C92.4384 -55.8075 92.639 -55.9327 92.8581 -56.0149C93.0773 -56.0972 93.3104 -56.1349 93.5442 -56.1258C93.7779 -56.1168 94.0076 -56.0613 94.2198 -55.9624C94.432 -55.8635 94.6225 -55.7233 94.7803 -55.5498C94.9381 -55.3764 95.0601 -55.1732 95.1391 -54.952C95.2182 -54.7308 95.2527 -54.496 95.2407 -54.2613C95.2287 -54.0266 95.1704 -53.7967 95.0692 -53.5848C94.9681 -53.3729 94.8261 -53.1833 94.6514 -53.027L89.4097 -48.1976C89.2389 -48.0401 89.0388 -47.918 88.821 -47.8383C88.6032 -47.7586 88.3718 -47.7228 88.1402 -47.7331C87.9086 -47.7433 87.6813 -47.7994 87.4713 -47.8981C87.2613 -47.9967 87.0727 -48.136 86.9164 -48.308ZM46.8834 -50.6475L42.223 -56.0473C42.0656 -56.2223 41.9446 -56.427 41.8669 -56.6496C41.7892 -56.8721 41.7564 -57.1079 41.7705 -57.3433C41.7846 -57.5787 41.8452 -57.8089 41.9489 -58.0205C42.0526 -58.2321 42.1971 -58.4208 42.3742 -58.5755C42.5513 -58.7303 42.7573 -58.8481 42.9802 -58.922C43.2031 -58.9958 43.4384 -59.0243 43.6724 -59.0057C43.9064 -58.9872 44.1344 -58.9219 44.343 -58.8138C44.5516 -58.7057 44.7367 -58.557 44.8874 -58.3762L49.5476 -52.9764C49.7025 -52.801 49.8213 -52.5966 49.8971 -52.3748C49.9729 -52.153 50.0041 -51.9183 49.9891 -51.6844C49.9741 -51.4504 49.913 -51.2217 49.8095 -51.0116C49.706 -50.8015 49.562 -50.6141 49.386 -50.4602C49.2099 -50.3063 49.0052 -50.1889 48.7837 -50.115C48.5623 -50.0411 48.3284 -50.012 48.0957 -50.0294C47.863 -50.0468 47.636 -50.1104 47.4279 -50.2165C47.2197 -50.3226 47.0346 -50.4691 46.8832 -50.6475H46.8834Z" fill="#F3B3A6"/>
<path id="SHAPE_2" d="M240.902 122.656C239.562 122.578 238.306 121.973 237.406 120.973C236.506 119.972 236.034 118.656 236.092 117.309C236.15 115.961 236.734 114.691 237.717 113.772C238.7 112.854 240.003 112.36 241.345 112.399C242.686 112.438 243.959 113.006 244.887 113.981C245.816 114.955 246.325 116.257 246.306 117.605C246.286 118.954 245.74 120.241 244.783 121.187C243.827 122.134 242.539 122.665 241.196 122.664C241.099 122.664 241 122.661 240.902 122.656ZM53.8753 112.655C52.9963 112.604 52.1726 112.207 51.5823 111.551C50.9921 110.894 50.6826 110.031 50.7207 109.147C50.7589 108.264 51.1417 107.43 51.7864 106.828C52.4311 106.225 53.2858 105.902 54.1659 105.928C55.046 105.953 55.8807 106.326 56.4896 106.965C57.0985 107.604 57.4326 108.458 57.4198 109.342C57.407 110.227 57.0483 111.071 56.4212 111.692C55.7941 112.312 54.9489 112.66 54.0685 112.66C54.0037 112.66 53.9392 112.658 53.8751 112.655H53.8753ZM4.63251 111.893C4.05398 111.86 3.51168 111.599 3.12284 111.168C2.734 110.736 2.52987 110.168 2.55457 109.586C2.57926 109.005 2.83081 108.456 3.25482 108.059C3.67884 107.662 4.24126 107.449 4.82051 107.466C5.39975 107.482 5.94928 107.727 6.35031 108.147C6.75133 108.567 6.97163 109.129 6.96358 109.711C6.95553 110.294 6.71978 110.849 6.30729 111.258C5.8948 111.667 5.33872 111.896 4.75925 111.897C4.71738 111.897 4.67483 111.895 4.63251 111.893ZM197.096 111.153C196.218 111.102 195.394 110.706 194.804 110.049C194.213 109.393 193.904 108.53 193.942 107.646C193.98 106.762 194.363 105.929 195.008 105.327C195.653 104.725 196.507 104.401 197.387 104.427C198.267 104.453 199.102 104.825 199.711 105.464C200.32 106.103 200.654 106.957 200.641 107.842C200.628 108.726 200.269 109.57 199.642 110.191C199.015 110.811 198.17 111.159 197.289 111.159C197.225 111.159 197.161 111.157 197.096 111.153H197.096ZM99.6337 99.7486C98.2936 99.6708 97.0377 99.0663 96.1377 98.0657C95.2376 97.0651 94.7656 95.7488 94.8237 94.4014C94.8818 93.054 95.4654 91.7837 96.4482 90.8651C97.4311 89.9465 98.7342 89.4533 100.076 89.4923C101.418 89.5312 102.691 90.0992 103.619 91.0733C104.547 92.0474 105.057 93.3495 105.038 94.698C105.018 96.0465 104.471 97.3332 103.515 98.2799C102.559 99.2266 101.271 99.7573 99.9282 99.7572C99.8301 99.7567 99.7316 99.754 99.6333 99.7482L99.6337 99.7486ZM140.386 98.1006C139.507 98.0495 138.683 97.653 138.093 96.9967C137.503 96.3403 137.193 95.4769 137.232 94.5932C137.27 93.7095 137.653 92.8763 138.297 92.2739C138.942 91.6714 139.797 91.348 140.677 91.3737C141.557 91.3993 142.391 91.7718 143 92.4107C143.609 93.0497 143.943 93.9038 143.931 94.7883C143.918 95.6727 143.559 96.5166 142.932 97.1375C142.305 97.7584 141.46 98.1063 140.579 98.1062C140.515 98.1058 140.45 98.104 140.386 98.1002L140.386 98.1006ZM212.29 84.8918C210.95 84.814 209.694 84.2096 208.794 83.2091C207.894 82.2087 207.422 80.8926 207.48 79.5454C207.538 78.1981 208.122 76.928 209.105 76.0095C210.087 75.091 211.39 74.5979 212.732 74.6368C214.074 74.6758 215.346 75.2436 216.274 76.2175C217.203 77.1915 217.712 78.4933 217.693 79.8416C217.673 81.19 217.127 82.4765 216.171 83.4231C215.215 84.3697 213.927 84.9004 212.584 84.9004C212.486 84.8999 212.388 84.897 212.29 84.8913L212.29 84.8918ZM119.42 62.6446C118.541 62.5935 117.717 62.1968 117.127 61.5403C116.536 60.8838 116.227 60.0203 116.265 59.1363C116.303 58.2523 116.686 57.419 117.331 56.8163C117.976 56.2137 118.831 55.8902 119.711 55.9158C120.592 55.9415 121.426 56.3141 122.035 56.9532C122.645 57.5924 122.979 58.4466 122.966 59.3313C122.953 60.216 122.594 61.0601 121.967 61.6812C121.34 62.3022 120.494 62.6503 119.614 62.6502C119.549 62.6504 119.484 62.6486 119.42 62.6455L119.42 62.6446ZM41.9256 62.2642C40.5857 62.1864 39.3301 61.582 38.4301 60.5815C37.5302 59.5811 37.0583 58.2651 37.1165 56.9179C37.1746 55.5707 37.758 54.3007 38.7407 53.3822C39.7234 52.4638 41.0264 51.9707 42.368 52.0097C43.7096 52.0487 44.9821 52.6166 45.9103 53.5905C46.8385 54.5645 47.3479 55.8663 47.3285 57.2146C47.309 58.5629 46.7622 59.8494 45.8062 60.7959C44.8503 61.7424 43.562 62.2729 42.2198 62.2728C42.1217 62.2728 42.0232 62.27 41.9256 62.2642ZM173.724 60.5191C172.384 60.4413 171.128 59.8368 170.228 58.8364C169.328 57.836 168.856 56.5199 168.914 55.1727C168.972 53.8255 169.556 52.5553 170.538 51.6368C171.521 50.7183 172.824 50.2252 174.166 50.2641C175.507 50.303 176.78 50.8708 177.708 51.8448C178.636 52.8187 179.146 54.1206 179.127 55.4689C179.107 56.8172 178.561 58.1038 177.605 59.0504C176.649 59.997 175.36 60.5276 174.018 60.5276C173.92 60.5278 173.822 60.5249 173.723 60.5193L173.724 60.5191ZM1.7158 54.3493C1.13746 54.3161 0.595345 54.0556 0.206632 53.6241C-0.182081 53.1926 -0.386167 52.6247 -0.361504 52.0433C-0.336841 51.4618 -0.0854058 50.9135 0.338437 50.5167C0.762279 50.12 1.32449 49.9068 1.90354 49.9232C2.48258 49.9396 3.03196 50.1843 3.4329 50.6043C3.83384 51.0244 4.05414 51.5861 4.04619 52.168C4.03823 52.75 3.80265 53.3054 3.39037 53.7142C2.9781 54.123 2.42225 54.3524 1.84297 54.3529C1.80088 54.3531 1.75834 54.3518 1.7158 54.3493ZM244.76 47.0066C244.327 46.9817 243.922 46.7869 243.631 46.4643C243.341 46.1417 243.188 45.7171 243.207 45.2824C243.225 44.8477 243.413 44.4377 243.73 44.1411C244.047 43.8445 244.467 43.6851 244.9 43.6973C245.333 43.7096 245.744 43.8925 246.044 44.2066C246.343 44.5206 246.508 44.9406 246.502 45.3756C246.496 45.8107 246.32 46.226 246.012 46.5317C245.704 46.8374 245.288 47.0089 244.855 47.0093C244.823 47.0095 244.791 47.0086 244.76 47.0066ZM76.5062 44.7825C75.627 44.7314 74.8031 44.3347 74.2126 43.6782C73.6222 43.0217 73.3126 42.1582 73.3508 41.2742C73.389 40.3902 73.7719 39.5569 74.4167 38.9542C75.0616 38.3516 75.9166 38.0281 76.7969 38.0537C77.6772 38.0794 78.5121 38.452 79.1212 39.0912C79.7302 39.7303 80.0645 40.5845 80.0517 41.4692C80.0389 42.354 79.68 43.198 79.0528 43.8191C78.4255 44.4401 77.5801 44.7882 76.6994 44.7881C76.6354 44.7881 76.5709 44.7863 76.5062 44.7827V44.7825ZM27.5621 27.2844C26.9838 27.2512 26.4417 26.9907 26.053 26.5592C25.6642 26.1277 25.4602 25.5599 25.4848 24.9784C25.5095 24.3969 25.7609 23.8486 26.1848 23.4519C26.6086 23.0552 27.1708 22.8419 27.7499 22.8583C28.3289 22.8747 28.8783 23.1194 29.2792 23.5394C29.6802 23.9595 29.9005 24.5212 29.8925 25.1031C29.8845 25.6851 29.649 26.2405 29.2367 26.6494C28.8244 27.0582 28.2686 27.2876 27.6893 27.288C27.6461 27.2885 27.6035 27.2871 27.561 27.2839L27.5621 27.2844ZM240.423 17.5798C239.544 17.5287 238.72 17.132 238.13 16.4755C237.539 15.8191 237.23 14.9556 237.268 14.0716C237.306 13.1877 237.689 12.3544 238.334 11.7518C238.979 11.1492 239.834 10.8258 240.714 10.8514C241.594 10.8771 242.429 11.2497 243.038 11.8887C243.647 12.5278 243.981 13.382 243.968 14.2667C243.956 15.1513 243.597 15.9954 242.97 16.6164C242.342 17.2374 241.497 17.5855 240.616 17.5854C240.552 17.5854 240.487 17.5836 240.422 17.58L240.423 17.5798ZM107.18 15.4342C106.381 15.3885 105.633 15.0289 105.096 14.433C104.559 13.8372 104.277 13.0529 104.311 12.2499C104.345 11.4469 104.692 10.6896 105.277 10.1417C105.863 9.59375 106.639 9.29927 107.439 9.32185C108.238 9.34442 108.997 9.68225 109.551 10.2623C110.105 10.8424 110.409 11.6181 110.398 12.4218C110.387 13.2254 110.062 13.9925 109.492 14.5571C108.923 15.1217 108.155 15.4386 107.355 15.4392C107.296 15.4394 107.237 15.4378 107.179 15.4344L107.18 15.4342ZM-1.15233 11.4864C-1.5851 11.4616 -1.99075 11.2666 -2.28159 10.9437C-2.57244 10.6208 -2.72511 10.1959 -2.70661 9.76076C-2.68811 9.32565 -2.49993 8.91533 -2.18274 8.6185C-1.86555 8.32168 -1.44483 8.16222 -1.01154 8.17455C-0.578242 8.18686 -0.167178 8.36998 0.132796 8.68435C0.43277 8.99873 0.597564 9.41904 0.591538 9.8545C0.585512 10.29 0.409157 10.7055 0.1006 11.0114C-0.207957 11.3173 -0.623931 11.4889 -1.0574 11.4891C-1.08785 11.4891 -1.11942 11.4884 -1.15233 11.4864ZM188.253 10.1257C187.374 10.0746 186.551 9.67805 185.961 9.02177C185.37 8.36549 185.061 7.50221 185.099 6.61853C185.137 5.73486 185.52 4.9018 186.165 4.29938C186.809 3.69696 187.664 3.3736 188.544 3.39921C189.424 3.42482 190.259 3.79734 190.868 4.43624C191.476 5.07513 191.811 5.92908 191.798 6.8135C191.785 7.69791 191.426 8.54173 190.799 9.16258C190.172 9.78342 189.327 10.1314 188.447 10.1313C188.383 10.1315 188.319 10.1297 188.255 10.126L188.253 10.1257ZM70.0817 -3.82098C68.7417 -3.89878 67.486 -4.50323 66.5861 -5.50369C65.6861 -6.50415 65.2142 -7.82024 65.2723 -9.16747C65.3304 -10.5147 65.9139 -11.7848 66.8966 -12.7033C67.8793 -13.6218 69.1823 -14.1149 70.524 -14.0759C71.8656 -14.037 73.1381 -13.4691 74.0664 -12.4951C74.9947 -11.5212 75.5042 -10.2193 75.4848 -8.87096C75.4653 -7.52261 74.9185 -6.23608 73.9626 -5.28951C73.0066 -4.34293 71.7183 -3.81234 70.3761 -3.81242C70.2798 -3.81264 70.1815 -3.81558 70.0828 -3.82121L70.0817 -3.82098ZM16.4053 -17.4804C15.827 -17.5135 15.2848 -17.7741 14.8961 -18.2056C14.5074 -18.6371 14.3033 -19.2049 14.328 -19.7864C14.3527 -20.3679 14.6041 -20.9163 15.028 -21.313C15.4518 -21.7097 16.0141 -21.9228 16.5931 -21.9064C17.1722 -21.89 17.7216 -21.6453 18.1225 -21.2252C18.5234 -20.8051 18.7437 -20.2434 18.7357 -19.6615C18.7277 -19.0795 18.4921 -18.5241 18.0797 -18.1153C17.6674 -17.7065 17.1115 -17.4771 16.5322 -17.4768C16.4897 -17.476 16.4474 -17.4772 16.4053 -17.4804ZM222.424 -18.7729C221.992 -18.7978 221.586 -18.9926 221.296 -19.3153C221.005 -19.638 220.853 -20.0626 220.871 -20.4974C220.89 -20.9322 221.078 -21.3422 221.395 -21.6389C221.712 -21.9355 222.132 -22.0949 222.565 -22.0826C222.998 -22.0702 223.409 -21.8872 223.709 -21.5731C224.008 -21.2589 224.173 -20.8389 224.167 -20.4037C224.161 -19.9685 223.985 -19.5533 223.676 -19.2476C223.368 -18.9419 222.952 -18.7704 222.519 -18.7702C222.488 -18.7694 222.456 -18.77 222.424 -18.7718L222.424 -18.7729ZM132.666 -30.4456C131.326 -30.5234 130.07 -31.1278 129.17 -32.1283C128.27 -33.1288 127.799 -34.4449 127.857 -35.7921C127.915 -37.1393 128.498 -38.4095 129.481 -39.328C130.464 -40.2465 131.767 -40.7395 133.108 -40.7006C134.45 -40.6616 135.723 -40.0938 136.651 -39.1198C137.579 -38.1458 138.089 -36.8439 138.069 -35.4956C138.05 -34.1472 137.503 -32.8608 136.547 -31.9142C135.591 -30.9676 134.303 -30.437 132.96 -30.4371C132.863 -30.4373 132.764 -30.4391 132.666 -30.4447V-30.4456ZM46.8661 -30.8897C46.0675 -30.9354 45.3187 -31.295 44.7819 -31.8908C44.245 -32.4867 43.9631 -33.2709 43.997 -34.0739C44.031 -34.8769 44.3782 -35.6343 44.9635 -36.1822C45.5487 -36.7301 46.3251 -37.0246 47.1248 -37.0021C47.9245 -36.9795 48.6832 -36.6416 49.2369 -36.0616C49.7907 -35.4815 50.095 -34.7058 50.084 -33.9021C50.0731 -33.0985 49.7478 -32.3314 49.1784 -31.7668C48.6091 -31.2021 47.8415 -30.8853 47.0415 -30.8847C46.9833 -30.8836 46.9246 -30.8854 46.8659 -30.8887L46.8661 -30.8897ZM256.866 -36.7884C256.903 -37.4624 257.073 -38.1223 257.365 -38.7304C257.656 -39.3385 258.064 -39.8829 258.565 -40.3326C259.066 -40.7822 259.651 -41.1282 260.285 -41.3509C260.919 -41.5735 261.591 -41.6684 262.262 -41.6301L261.678 -31.3585C260.323 -31.4374 259.055 -32.0537 258.153 -33.0719C257.25 -34.09 256.787 -35.4265 256.866 -36.7875L256.866 -36.7884ZM180.344 -37.2986C179.911 -37.3234 179.506 -37.5181 179.216 -37.8406C178.925 -38.1631 178.773 -38.5875 178.791 -39.022C178.81 -39.4565 178.998 -39.8664 179.314 -40.1628C179.631 -40.4593 180.051 -40.6187 180.484 -40.6065C180.917 -40.5942 181.327 -40.4114 181.627 -40.0975C181.927 -39.7836 182.091 -39.3639 182.085 -38.929C182.079 -38.4941 181.904 -38.079 181.595 -37.7734C181.287 -37.4678 180.872 -37.2963 180.439 -37.2959C180.407 -37.2953 180.375 -37.2961 180.343 -37.2982L180.344 -37.2986ZM-2.62289 -46.5889L-2.03898 -56.8606C-0.710737 -56.7817 0.534766 -56.1864 1.43374 -55.2009C2.33271 -54.2154 2.81456 -52.9169 2.77722 -51.5807C2.73988 -50.2444 2.18629 -48.9752 1.2337 -48.0419C0.281109 -47.1086 -0.995673 -46.5845 -2.32623 -46.5806C-2.42429 -46.5804 -2.52325 -46.583 -2.62311 -46.5884L-2.62289 -46.5889ZM74.76 -48.8975C74.3276 -48.9224 73.9223 -49.1171 73.6317 -49.4398C73.3411 -49.7624 73.1886 -50.1871 73.207 -50.6218C73.2255 -51.0565 73.4136 -51.4665 73.7305 -51.7631C74.0474 -52.0596 74.4678 -52.219 74.9007 -52.2067C75.3337 -52.1944 75.7444 -52.0114 76.0441 -51.6973C76.3439 -51.3832 76.5085 -50.9632 76.5025 -50.5281C76.4965 -50.093 76.3203 -49.6777 76.012 -49.3721C75.7037 -49.0665 75.2881 -48.8951 74.855 -48.8948C74.8235 -48.8948 74.7917 -48.8957 74.7598 -48.8975H74.76Z" fill="#2C247F"/>
</g>
</g>
</svg>
