<svg width="96" height="16" viewBox="0 0 96 16" fill="none" xmlns="http://www.w3.org/2000/svg">
<path d="M7.52242 2.30205C7.67608 1.99076 7.7529 1.83511 7.8572 1.78538C7.94795 1.74211 8.05338 1.74211 8.14412 1.78538C8.24842 1.83511 8.32525 1.99076 8.47891 2.30205L9.93669 5.25536C9.98205 5.34726 10.0047 5.39321 10.0379 5.42889C10.0672 5.46048 10.1024 5.48607 10.1415 5.50425C10.1857 5.52479 10.2364 5.5322 10.3378 5.54702L13.5986 6.02364C13.942 6.07383 14.1137 6.09893 14.1932 6.1828C14.2623 6.25577 14.2948 6.35603 14.2817 6.45569C14.2665 6.57022 14.1422 6.69129 13.8936 6.93342L11.5349 9.23078C11.4614 9.3024 11.4247 9.33821 11.4009 9.38081C11.3799 9.41854 11.3665 9.45998 11.3613 9.50284C11.3554 9.55125 11.3641 9.60183 11.3814 9.703L11.938 12.9479C11.9967 13.2902 12.026 13.4613 11.9708 13.5628C11.9229 13.6512 11.8376 13.7132 11.7387 13.7315C11.6251 13.7525 11.4714 13.6717 11.1641 13.5101L8.2489 11.9771C8.15807 11.9293 8.11266 11.9054 8.06481 11.896C8.02245 11.8877 7.97888 11.8877 7.93651 11.896C7.88867 11.9054 7.84325 11.9293 7.75242 11.9771L4.83727 13.5101C4.52993 13.6717 4.37626 13.7525 4.26263 13.7315C4.16377 13.7132 4.07847 13.6512 4.03048 13.5628C3.97532 13.4613 4.00467 13.2902 4.06337 12.9479L4.61991 9.703C4.63726 9.60183 4.64593 9.55125 4.64006 9.50284C4.63487 9.45998 4.62139 9.41854 4.60039 9.38081C4.57667 9.33821 4.5399 9.3024 4.46637 9.23078L2.10769 6.93342C1.85909 6.69129 1.73479 6.57022 1.71967 6.45569C1.70651 6.35603 1.73902 6.25577 1.80815 6.1828C1.88761 6.09893 2.0593 6.07383 2.40268 6.02364L5.66353 5.54702C5.76493 5.5322 5.81564 5.52479 5.8598 5.50425C5.89889 5.48607 5.93409 5.46048 5.96344 5.42889C5.99659 5.39321 6.01927 5.34726 6.06463 5.25536L7.52242 2.30205Z" stroke="#344054" stroke-width="1.5" stroke-linecap="round" stroke-linejoin="round"/>
<path d="M27.5224 2.30205C27.6761 1.99076 27.7529 1.83511 27.8572 1.78538C27.9479 1.74211 28.0534 1.74211 28.1441 1.78538C28.2484 1.83511 28.3252 1.99076 28.4789 2.30205L29.9367 5.25536C29.9821 5.34726 30.0047 5.39321 30.0379 5.42889C30.0672 5.46048 30.1024 5.48607 30.1415 5.50425C30.1857 5.52479 30.2364 5.5322 30.3378 5.54702L33.5986 6.02364C33.942 6.07383 34.1137 6.09893 34.1932 6.1828C34.2623 6.25577 34.2948 6.35603 34.2817 6.45569C34.2665 6.57022 34.1422 6.69129 33.8936 6.93342L31.5349 9.23078C31.4614 9.3024 31.4247 9.33821 31.4009 9.38081C31.3799 9.41854 31.3665 9.45998 31.3613 9.50284C31.3554 9.55125 31.3641 9.60183 31.3814 9.703L31.938 12.9479C31.9967 13.2902 32.026 13.4613 31.9708 13.5628C31.9229 13.6512 31.8376 13.7132 31.7387 13.7315C31.6251 13.7525 31.4714 13.6717 31.1641 13.5101L28.2489 11.9771C28.1581 11.9293 28.1127 11.9054 28.0648 11.896C28.0224 11.8877 27.9789 11.8877 27.9365 11.896C27.8887 11.9054 27.8433 11.9293 27.7524 11.9771L24.8373 13.5101C24.5299 13.6717 24.3763 13.7525 24.2626 13.7315C24.1638 13.7132 24.0785 13.6512 24.0305 13.5628C23.9753 13.4613 24.0047 13.2902 24.0634 12.9479L24.6199 9.703C24.6373 9.60183 24.6459 9.55125 24.6401 9.50284C24.6349 9.45998 24.6214 9.41854 24.6004 9.38081C24.5767 9.33821 24.5399 9.3024 24.4664 9.23078L22.1077 6.93342C21.8591 6.69129 21.7348 6.57022 21.7197 6.45569C21.7065 6.35603 21.739 6.25577 21.8082 6.1828C21.8876 6.09893 22.0593 6.07383 22.4027 6.02364L25.6635 5.54702C25.7649 5.5322 25.8156 5.52479 25.8598 5.50425C25.8989 5.48607 25.9341 5.46048 25.9634 5.42889C25.9966 5.39321 26.0193 5.34726 26.0646 5.25536L27.5224 2.30205Z" stroke="#344054" stroke-width="1.5" stroke-linecap="round" stroke-linejoin="round"/>
<path d="M47.5224 2.30205C47.6761 1.99076 47.7529 1.83511 47.8572 1.78538C47.9479 1.74211 48.0534 1.74211 48.1441 1.78538C48.2484 1.83511 48.3252 1.99076 48.4789 2.30205L49.9367 5.25536C49.9821 5.34726 50.0047 5.39321 50.0379 5.42889C50.0672 5.46048 50.1024 5.48607 50.1415 5.50425C50.1857 5.52479 50.2364 5.5322 50.3378 5.54702L53.5986 6.02364C53.942 6.07383 54.1137 6.09893 54.1932 6.1828C54.2623 6.25577 54.2948 6.35603 54.2817 6.45569C54.2665 6.57022 54.1422 6.69129 53.8936 6.93342L51.5349 9.23078C51.4614 9.3024 51.4247 9.33821 51.4009 9.38081C51.3799 9.41854 51.3665 9.45998 51.3613 9.50284C51.3554 9.55125 51.3641 9.60183 51.3814 9.703L51.938 12.9479C51.9967 13.2902 52.026 13.4613 51.9708 13.5628C51.9229 13.6512 51.8376 13.7132 51.7387 13.7315C51.6251 13.7525 51.4714 13.6717 51.1641 13.5101L48.2489 11.9771C48.1581 11.9293 48.1127 11.9054 48.0648 11.896C48.0224 11.8877 47.9789 11.8877 47.9365 11.896C47.8887 11.9054 47.8433 11.9293 47.7524 11.9771L44.8373 13.5101C44.5299 13.6717 44.3763 13.7525 44.2626 13.7315C44.1638 13.7132 44.0785 13.6512 44.0305 13.5628C43.9753 13.4613 44.0047 13.2902 44.0634 12.9479L44.6199 9.703C44.6373 9.60183 44.6459 9.55125 44.6401 9.50284C44.6349 9.45998 44.6214 9.41854 44.6004 9.38081C44.5767 9.33821 44.5399 9.3024 44.4664 9.23078L42.1077 6.93342C41.8591 6.69129 41.7348 6.57022 41.7197 6.45569C41.7065 6.35603 41.739 6.25577 41.8082 6.1828C41.8876 6.09893 42.0593 6.07383 42.4027 6.02364L45.6635 5.54702C45.7649 5.5322 45.8156 5.52479 45.8598 5.50425C45.8989 5.48607 45.9341 5.46048 45.9634 5.42889C45.9966 5.39321 46.0193 5.34726 46.0646 5.25536L47.5224 2.30205Z" stroke="#344054" stroke-width="1.5" stroke-linecap="round" stroke-linejoin="round"/>
<path d="M67.5224 2.30205C67.6761 1.99076 67.7529 1.83511 67.8572 1.78538C67.9479 1.74211 68.0534 1.74211 68.1441 1.78538C68.2484 1.83511 68.3252 1.99076 68.4789 2.30205L69.9367 5.25536C69.9821 5.34726 70.0047 5.39321 70.0379 5.42889C70.0672 5.46048 70.1024 5.48607 70.1415 5.50425C70.1857 5.52479 70.2364 5.5322 70.3378 5.54702L73.5986 6.02364C73.942 6.07383 74.1137 6.09893 74.1932 6.1828C74.2623 6.25577 74.2948 6.35603 74.2817 6.45569C74.2665 6.57022 74.1422 6.69129 73.8936 6.93342L71.5349 9.23078C71.4614 9.3024 71.4247 9.33821 71.4009 9.38081C71.3799 9.41854 71.3665 9.45998 71.3613 9.50284C71.3554 9.55125 71.3641 9.60183 71.3814 9.703L71.938 12.9479C71.9967 13.2902 72.026 13.4613 71.9708 13.5628C71.9229 13.6512 71.8376 13.7132 71.7387 13.7315C71.6251 13.7525 71.4714 13.6717 71.1641 13.5101L68.2489 11.9771C68.1581 11.9293 68.1127 11.9054 68.0648 11.896C68.0224 11.8877 67.9789 11.8877 67.9365 11.896C67.8887 11.9054 67.8433 11.9293 67.7524 11.9771L64.8373 13.5101C64.5299 13.6717 64.3763 13.7525 64.2626 13.7315C64.1638 13.7132 64.0785 13.6512 64.0305 13.5628C63.9753 13.4613 64.0047 13.2902 64.0634 12.9479L64.6199 9.703C64.6373 9.60183 64.6459 9.55125 64.6401 9.50284C64.6349 9.45998 64.6214 9.41854 64.6004 9.38081C64.5767 9.33821 64.5399 9.3024 64.4664 9.23078L62.1077 6.93342C61.8591 6.69129 61.7348 6.57022 61.7197 6.45569C61.7065 6.35603 61.739 6.25577 61.8082 6.1828C61.8876 6.09893 62.0593 6.07383 62.4027 6.02364L65.6635 5.54702C65.7649 5.5322 65.8156 5.52479 65.8598 5.50425C65.8989 5.48607 65.9341 5.46048 65.9634 5.42889C65.9966 5.39321 66.0193 5.34726 66.0646 5.25536L67.5224 2.30205Z" stroke="#344054" stroke-width="1.5" stroke-linecap="round" stroke-linejoin="round"/>
<path d="M87.5224 2.30205C87.6761 1.99076 87.7529 1.83511 87.8572 1.78538C87.9479 1.74211 88.0534 1.74211 88.1441 1.78538C88.2484 1.83511 88.3252 1.99076 88.4789 2.30205L89.9367 5.25536C89.9821 5.34726 90.0047 5.39321 90.0379 5.42889C90.0672 5.46048 90.1024 5.48607 90.1415 5.50425C90.1857 5.52479 90.2364 5.5322 90.3378 5.54702L93.5986 6.02364C93.942 6.07383 94.1137 6.09893 94.1932 6.1828C94.2623 6.25577 94.2948 6.35603 94.2817 6.45569C94.2665 6.57022 94.1422 6.69129 93.8936 6.93342L91.5349 9.23078C91.4614 9.3024 91.4247 9.33821 91.4009 9.38081C91.3799 9.41854 91.3665 9.45998 91.3613 9.50284C91.3554 9.55125 91.3641 9.60183 91.3814 9.703L91.938 12.9479C91.9967 13.2902 92.026 13.4613 91.9708 13.5628C91.9229 13.6512 91.8376 13.7132 91.7387 13.7315C91.6251 13.7525 91.4714 13.6717 91.1641 13.5101L88.2489 11.9771C88.1581 11.9293 88.1127 11.9054 88.0648 11.896C88.0224 11.8877 87.9789 11.8877 87.9365 11.896C87.8887 11.9054 87.8433 11.9293 87.7524 11.9771L84.8373 13.5101C84.5299 13.6717 84.3763 13.7525 84.2626 13.7315C84.1638 13.7132 84.0785 13.6512 84.0305 13.5628C83.9753 13.4613 84.0047 13.2902 84.0634 12.9479L84.6199 9.703C84.6373 9.60183 84.6459 9.55125 84.6401 9.50284C84.6349 9.45998 84.6214 9.41854 84.6004 9.38081C84.5767 9.33821 84.5399 9.3024 84.4664 9.23078L82.1077 6.93342C81.8591 6.69129 81.7348 6.57022 81.7197 6.45569C81.7065 6.35603 81.739 6.25577 81.8082 6.1828C81.8876 6.09893 82.0593 6.07383 82.4027 6.02364L85.6635 5.54702C85.7649 5.5322 85.8156 5.52479 85.8598 5.50425C85.8989 5.48607 85.9341 5.46048 85.9634 5.42889C85.9966 5.39321 86.0193 5.34726 86.0646 5.25536L87.5224 2.30205Z" stroke="#344054" stroke-width="1.5" stroke-linecap="round" stroke-linejoin="round"/>
</svg>
