<svg width="20" height="20" viewBox="0 0 20 20" fill="none" xmlns="http://www.w3.org/2000/svg">
<g id="folder">
<path id="Solid" fill-rule="evenodd" clip-rule="evenodd" d="M0.833344 5.13505C0.83333 4.69578 0.833318 4.31678 0.85882 4.00465C0.885738 3.67519 0.945168 3.34751 1.10583 3.0322C1.34551 2.56179 1.72796 2.17934 2.19837 1.93966C2.51369 1.77899 2.84137 1.71956 3.17082 1.69265C3.48297 1.66714 3.86193 1.66716 4.30122 1.66717L7.62223 1.66708C8.11686 1.66643 8.55184 1.66585 8.9518 1.80381C9.30211 1.92464 9.62118 2.12183 9.88592 2.38113C10.1882 2.67717 10.3822 3.06648 10.6028 3.50919L11.3483 5.00033H14.3678C15.0386 5.00032 15.5922 5.00031 16.0432 5.03715C16.5116 5.07543 16.9422 5.15756 17.3466 5.36364C17.9739 5.68322 18.4838 6.19315 18.8034 6.82036C19.0094 7.2248 19.0916 7.65539 19.1299 8.1238C19.1667 8.5748 19.1667 9.12842 19.1667 9.79922V13.5348C19.1667 14.2056 19.1667 14.7592 19.1299 15.2102C19.0916 15.6786 19.0094 16.1092 18.8034 16.5136C18.4838 17.1408 17.9739 17.6508 17.3466 17.9703C16.9422 18.1764 16.5116 18.2586 16.0432 18.2968C15.5922 18.3337 15.0386 18.3337 14.3678 18.3337H5.63228C4.96147 18.3337 4.40782 18.3337 3.95682 18.2968C3.48841 18.2586 3.05782 18.1764 2.65338 17.9703C2.02617 17.6508 1.51623 17.1408 1.19666 16.5136C0.990581 16.1092 0.908444 15.6786 0.870173 15.2102C0.833325 14.7592 0.833334 14.2056 0.833344 13.5348V5.13505ZM7.51859 3.33384C8.17726 3.33384 8.30783 3.34471 8.40835 3.37938C8.52512 3.41966 8.63148 3.48539 8.71972 3.57182C8.79569 3.64623 8.8638 3.75814 9.15837 4.34728L9.4849 5.00033L2.50007 5.00033C2.50044 4.61284 2.50299 4.34796 2.51995 4.14037C2.53845 3.91398 2.56985 3.83005 2.59084 3.78885C2.67073 3.63204 2.79822 3.50456 2.95502 3.42467C2.99622 3.40367 3.08016 3.37227 3.30654 3.35378C3.54266 3.33449 3.85288 3.33384 4.33335 3.33384H7.51859Z" fill="#344054"/>
</g>
</svg>
