<svg width="16" height="17" viewBox="0 0 16 17" fill="none" xmlns="http://www.w3.org/2000/svg">
<g id="fossil-fuel">
<g id="Fossil fuel">
<path d="M1.86547 9.99317L6.38186 14.1163C6.72211 14.427 7.23932 14.391 7.53707 14.0361L7.53784 14.0352C7.8356 13.6802 7.80116 13.1407 7.46091 12.83L2.94452 8.70688C2.60428 8.39625 2.08707 8.43219 1.78932 8.78714L1.78855 8.78805C1.49079 9.143 1.52523 9.68255 1.86547 9.99317Z" stroke="#344054" stroke-miterlimit="10" stroke-linecap="round"/>
<path d="M6.96443 3.91172L11.4808 8.03489C11.8211 8.34552 12.3383 8.30959 12.636 7.95464L12.6368 7.95372C12.9346 7.59877 12.9001 7.05922 12.5599 6.7486L8.04348 2.62542C7.70323 2.3148 7.18603 2.35073 6.88827 2.70568L6.8875 2.7066C6.58974 3.06154 6.62418 3.6011 6.96443 3.91172Z" stroke="#344054" stroke-miterlimit="10" stroke-linecap="round"/>
<path d="M3.05842 8.81249L7.34456 12.7254L11.3662 7.93142L7.08004 4.01846L3.05842 8.81249Z" stroke="#344054" stroke-miterlimit="10" stroke-linecap="round"/>
<path d="M6.23295 5.0287L3.90027 7.80941L8.1864 11.7224L10.5191 8.94167L6.23295 5.0287Z" stroke="#344054" stroke-miterlimit="10" stroke-linecap="round"/>
<path d="M11.2268 5.53193L11.8288 6.08152C12.0463 6.28004 12.3768 6.25708 12.5671 6.03023C12.7574 5.80339 12.7354 5.45857 12.5179 5.26006L11.9159 4.71046C11.6985 4.51195 11.3679 4.53491 11.1776 4.76175C10.9874 4.98859 11.0094 5.33341 11.2268 5.53193Z" stroke="#344054" stroke-miterlimit="10" stroke-linecap="round"/>
<path d="M14.416 11.2345C14.3958 11.4775 14.289 11.7038 14.1166 11.8686C13.9443 12.0334 13.719 12.1249 13.4852 12.1249C13.2514 12.1249 13.0261 12.0334 12.8538 11.8686C12.6815 11.7038 12.5747 11.4775 12.5545 11.2345C12.5545 10.6985 13.4887 9.44851 13.4887 9.44851C13.4887 9.44851 14.416 10.6985 14.416 11.2345Z" stroke="#344054" stroke-miterlimit="10" stroke-linecap="round"/>
</g>
</g>
</svg>
