<svg width="16" height="16" viewBox="0 0 16 16" fill="none" xmlns="http://www.w3.org/2000/svg">
<g id="arrow-square-up-right">
<path id="Solid" fill-rule="evenodd" clip-rule="evenodd" d="M11.895 1.33398H4.11024C3.75882 1.33397 3.45563 1.33396 3.20592 1.35437C2.94236 1.3759 2.68021 1.42344 2.42796 1.55197C2.05163 1.74372 1.74567 2.04968 1.55393 2.42601C1.4254 2.67826 1.37785 2.9404 1.35632 3.20397C1.33592 3.45368 1.33593 3.75684 1.33594 4.10826V11.893C1.33593 12.2444 1.33592 12.5476 1.35632 12.7973C1.37785 13.0609 1.4254 13.323 1.55393 13.5753C1.74567 13.9516 2.05163 14.2576 2.42796 14.4493C2.68021 14.5779 2.94236 14.6254 3.20592 14.6469C3.45563 14.6673 3.7588 14.6673 4.11023 14.6673H11.895C12.2464 14.6673 12.5496 14.6673 12.7993 14.6469C13.0629 14.6254 13.325 14.5779 13.5773 14.4493C13.9536 14.2576 14.2595 13.9516 14.4513 13.5753C14.5798 13.323 14.6274 13.0609 14.6489 12.7973C14.6693 12.5476 14.6693 12.2445 14.6693 11.893V4.10828C14.6693 3.75685 14.6693 3.45368 14.6489 3.20397C14.6274 2.9404 14.5798 2.67826 14.4513 2.42601C14.2595 2.04968 13.9536 1.74372 13.5773 1.55197C13.325 1.42344 13.0629 1.3759 12.7993 1.35437C12.5496 1.33396 12.2464 1.33397 11.895 1.33398ZM5.3361 6.00065C5.3361 5.63246 5.63458 5.33399 6.00277 5.33399H10.0028C10.371 5.33399 10.6694 5.63246 10.6694 6.00065V10.0007C10.6694 10.3688 10.371 10.6673 10.0028 10.6673C9.63458 10.6673 9.3361 10.3688 9.3361 10.0007V7.60996L6.47401 10.4721C6.21366 10.7324 5.79155 10.7324 5.5312 10.4721C5.27085 10.2117 5.27085 9.7896 5.5312 9.52925L8.39313 6.66732H6.00277C5.63458 6.66732 5.3361 6.36884 5.3361 6.00065Z" fill="#079455"/>
</g>
</svg>
