<svg width="14" height="14" viewBox="0 0 14 14" fill="none" xmlns="http://www.w3.org/2000/svg">
<path id="Solid" fill-rule="evenodd" clip-rule="evenodd" d="M5.99091 1.10962C6.05144 0.746442 5.80609 0.402957 5.44291 0.342427C5.07973 0.281897 4.73625 0.527243 4.67572 0.890423L4.21301 3.66667H1.33333C0.965143 3.66667 0.666667 3.96514 0.666667 4.33333C0.666667 4.70152 0.965143 5 1.33333 5H3.99079L3.32412 9H0.666667C0.298477 9 0 9.29848 0 9.66667C0 10.0349 0.298477 10.3333 0.666667 10.3333H3.1019L2.67572 12.8904C2.61519 13.2536 2.86054 13.5971 3.22372 13.6576C3.5869 13.7181 3.93038 13.4728 3.99091 13.1096L4.45363 10.3333H8.43523L8.00905 12.8904C7.94852 13.2536 8.19387 13.5971 8.55705 13.6576C8.92023 13.7181 9.26371 13.4728 9.32424 13.1096L9.78696 10.3333H12C12.3682 10.3333 12.6667 10.0349 12.6667 9.66667C12.6667 9.29848 12.3682 9 12 9H10.0092L10.6758 5H12.6667C13.0349 5 13.3333 4.70152 13.3333 4.33333C13.3333 3.96514 13.0349 3.66667 12.6667 3.66667H10.8981L11.3242 1.10962C11.3848 0.746442 11.1394 0.402957 10.7762 0.342427C10.4131 0.281897 10.0696 0.527243 10.0091 0.890423L9.54635 3.66667H5.56474L5.99091 1.10962ZM8.65746 9L9.32412 5H5.34251L4.67585 9H8.65746Z" fill="black"/>
</svg>
