<svg width="17" height="17" viewBox="0 0 17 17" fill="none" xmlns="http://www.w3.org/2000/svg">
<g id="ecosystem-preservation">
<path id="Ecosystem preservation" d="M10.5104 7.21773C9.65879 2.72248 14.543 3.23227 14.543 3.23227C13.9298 7.61248 11.3092 7.65681 11.3092 7.65681C11.3092 7.65681 11.4883 5.06035 12.7266 4.72471M9.45442 7.04886C9.88295 4.34051 7.09969 4.87036 7.09969 4.87036C7.41944 7.15651 8.78745 7.17868 8.78745 7.17868C8.78745 7.17868 8.69405 5.82346 8.04795 5.64825M4.72187 13.5273L2.68359 11.6275C2.68359 11.6275 3.8648 9.60415 4.82406 9.24107C5.78331 8.87799 6.3492 9.25585 7.65567 9.00465C8.96215 8.75344 10.3719 8.30698 10.4302 8.92021C10.4884 9.53344 10.0093 10.1066 8.22266 10.3715C8.22266 10.3715 8.56548 10.8042 10.4345 10.5245C12.3036 10.2448 12.4201 8.73022 13.8145 9.56193C13.8145 9.56193 14.7781 10.1456 10.9576 11.8323C10.589 11.9947 10.2067 12.1268 9.81482 12.227L4.72187 13.5273Z" stroke="#344054" stroke-linecap="round" stroke-linejoin="round"/>
</g>
</svg>
