<svg width="24" height="25" viewBox="0 0 24 25" fill="none" xmlns="http://www.w3.org/2000/svg">
    <g id="home-line">
        <path id="Fill" opacity="0.12"
            d="M3 10.6642C3 10.0898 3 9.80264 3.07403 9.53817C3.1396 9.3039 3.24737 9.08357 3.39203 8.88798C3.55534 8.66718 3.78202 8.49087 4.23539 8.13825L11.0177 2.86312C11.369 2.58987 11.5447 2.45324 11.7387 2.40072C11.9098 2.35438 12.0902 2.35438 12.2613 2.40072C12.4553 2.45324 12.631 2.58987 12.9823 2.86312L19.7646 8.13825C20.218 8.49087 20.4447 8.66718 20.608 8.88798C20.7526 9.08357 20.8604 9.3039 20.926 9.53817C21 9.80264 21 10.0898 21 10.6642V17.8991C21 19.0192 21 19.5793 20.782 20.0071C20.5903 20.3834 20.2843 20.6894 19.908 20.8811C19.4802 21.0991 18.9201 21.0991 17.8 21.0991H6.2C5.0799 21.0991 4.51984 21.0991 4.09202 20.8811C3.71569 20.6894 3.40973 20.3834 3.21799 20.0071C3 19.5793 3 19.0192 3 17.8991V10.6642Z"
            fill="black" />
        <path id="Icon"
            d="M8 17.0991H16M11.0177 2.86312L4.23539 8.13825C3.78202 8.49087 3.55534 8.66718 3.39203 8.88798C3.24737 9.08357 3.1396 9.3039 3.07403 9.53817C3 9.80264 3 10.0898 3 10.6642V17.8991C3 19.0192 3 19.5793 3.21799 20.0071C3.40973 20.3834 3.71569 20.6894 4.09202 20.8811C4.51984 21.0991 5.07989 21.0991 6.2 21.0991H17.8C18.9201 21.0991 19.4802 21.0991 19.908 20.8811C20.2843 20.6894 20.5903 20.3834 20.782 20.0071C21 19.5793 21 19.0192 21 17.8991V10.6642C21 10.0898 21 9.80264 20.926 9.53817C20.8604 9.3039 20.7526 9.08357 20.608 8.88798C20.4447 8.66718 20.218 8.49087 19.7646 8.13825L12.9823 2.86312C12.631 2.58987 12.4553 2.45324 12.2613 2.40072C12.0902 2.35438 11.9098 2.35438 11.7387 2.40072C11.5447 2.45324 11.369 2.58987 11.0177 2.86312Z"
            stroke="black" stroke-width="2" stroke-linecap="round" stroke-linejoin="round" />
    </g>
</svg>