<svg width="24" height="25" viewBox="0 0 24 25" fill="none" xmlns="http://www.w3.org/2000/svg">
<g id="link-03">
<g id="Solid">
<path fill-rule="evenodd" clip-rule="evenodd" d="M12.7735 2.84983C13.9051 1.75688 15.4208 1.15212 16.9939 1.16579C18.5671 1.17946 20.072 1.81047 21.1844 2.92292C22.2969 4.03537 22.9279 5.54024 22.9416 7.11343C22.9552 8.68661 22.3505 10.2022 21.2575 11.3338L21.2454 11.3462L18.2455 14.3461C17.6372 14.9546 16.9052 15.4251 16.0991 15.7258C15.293 16.0265 14.4316 16.1504 13.5735 16.0889C12.7153 16.0274 11.8804 15.7821 11.1253 15.3696C10.3703 14.9571 9.71282 14.3871 9.19748 13.6981C8.86667 13.2558 8.95702 12.6292 9.39927 12.2984C9.84152 11.9675 10.4682 12.0579 10.799 12.5001C11.1426 12.9594 11.5809 13.3395 12.0843 13.6145C12.5876 13.8895 13.1442 14.053 13.7163 14.094C14.2884 14.135 14.8627 14.0524 15.4001 13.852C15.9375 13.6515 16.4255 13.3378 16.831 12.9321L19.8247 9.9385C20.5497 9.18473 20.9507 8.17686 20.9417 7.1308C20.9325 6.08202 20.5119 5.07877 19.7702 4.33713C19.0286 3.5955 18.0254 3.17483 16.9766 3.16571C15.9301 3.15662 14.9218 3.55802 14.1679 4.28366L12.4533 5.98829C12.0616 6.37767 11.4285 6.37582 11.0391 5.98416C10.6497 5.5925 10.6515 4.95934 11.0432 4.56996L12.7632 2.85996L12.7735 2.84983Z" fill="#344054"/>
<path fill-rule="evenodd" clip-rule="evenodd" d="M7.8974 8.4724C8.70351 8.1717 9.56486 8.04788 10.423 8.10934C11.2812 8.1708 12.1161 8.41611 12.8712 8.82861C13.6262 9.24112 14.2837 9.81119 14.799 10.5001C15.1298 10.9424 15.0395 11.5691 14.5972 11.8999C14.155 12.2307 13.5283 12.1403 13.1975 11.6981C12.8539 11.2388 12.4156 10.8588 11.9122 10.5837C11.4089 10.3087 10.8523 10.1452 10.2802 10.1042C9.70805 10.0633 9.13381 10.1458 8.59641 10.3463C8.059 10.5467 7.57099 10.8604 7.16548 11.2661L4.17184 14.2597C3.4468 15.0135 3.04575 16.0214 3.05484 17.0674C3.06395 18.1162 3.48463 19.1195 4.22626 19.8611C4.96789 20.6027 5.97114 21.0234 7.01993 21.0325C8.06598 21.0416 9.07384 20.6406 9.82761 19.9155L11.5311 18.212C11.9217 17.8215 12.5548 17.8215 12.9454 18.212C13.3359 18.6025 13.3359 19.2357 12.9454 19.6262L11.2354 21.3362L11.223 21.3484C10.0913 22.4414 8.57573 23.0461 7.00255 23.0325C5.42937 23.0188 3.9245 22.3878 2.81205 21.2753C1.6996 20.1629 1.06858 18.658 1.05491 17.0848C1.04124 15.5116 1.64601 13.996 2.73896 12.8644L2.75114 12.852L5.75101 9.85214C5.75097 9.85219 5.75105 9.8521 5.75101 9.85214C6.35925 9.24372 7.09134 8.77309 7.8974 8.4724Z" fill="#344054"/>
</g>
</g>
</svg>
