<svg width="16" height="16" viewBox="0 0 16 16" fill="none" xmlns="http://www.w3.org/2000/svg">
<g id="linkedin">
<g id="Icon">
<path d="M10.6654 5.33331C11.7262 5.33331 12.7436 5.75474 13.4938 6.50489C14.2439 7.25503 14.6654 8.27245 14.6654 9.33331V14H11.9987V9.33331C11.9987 8.97969 11.8582 8.64055 11.6082 8.3905C11.3581 8.14046 11.019 7.99998 10.6654 7.99998C10.3117 7.99998 9.9726 8.14046 9.72256 8.3905C9.47251 8.64055 9.33203 8.97969 9.33203 9.33331V14H6.66536V9.33331C6.66536 8.27245 7.08679 7.25503 7.83694 6.50489C8.58708 5.75474 9.6045 5.33331 10.6654 5.33331Z" stroke="#344054" stroke-width="1.5" stroke-linecap="round" stroke-linejoin="round"/>
<path d="M3.9987 5.99998H1.33203V14H3.9987V5.99998Z" stroke="#344054" stroke-width="1.5" stroke-linecap="round" stroke-linejoin="round"/>
<path d="M2.66536 3.99998C3.40174 3.99998 3.9987 3.40303 3.9987 2.66665C3.9987 1.93027 3.40174 1.33331 2.66536 1.33331C1.92898 1.33331 1.33203 1.93027 1.33203 2.66665C1.33203 3.40303 1.92898 3.99998 2.66536 3.99998Z" stroke="#344054" stroke-width="1.5" stroke-linecap="round" stroke-linejoin="round"/>
</g>
</g>
</svg>
