<svg width="21" height="20" viewBox="0 0 21 20" fill="none" xmlns="http://www.w3.org/2000/svg">
<g id="loading-01">
<g id="Solid">
<path fill-rule="evenodd" clip-rule="evenodd" d="M10.5 1.0415C10.9602 1.0415 11.3333 1.4146 11.3333 1.87484V3.95817C11.3333 4.41841 10.9602 4.7915 10.5 4.7915C10.0397 4.7915 9.66663 4.41841 9.66663 3.95817V1.87484C9.66663 1.4146 10.0397 1.0415 10.5 1.0415Z" fill="white"/>
<path fill-rule="evenodd" clip-rule="evenodd" d="M10.5 14.1665C10.9602 14.1665 11.3333 14.5396 11.3333 14.9998V18.3332C11.3333 18.7934 10.9602 19.1665 10.5 19.1665C10.0397 19.1665 9.66663 18.7934 9.66663 18.3332V14.9998C9.66663 14.5396 10.0397 14.1665 10.5 14.1665Z" fill="white"/>
<path fill-rule="evenodd" clip-rule="evenodd" d="M1.54163 9.99984C1.54163 9.5396 1.91472 9.1665 2.37496 9.1665H5.29163C5.75186 9.1665 6.12496 9.5396 6.12496 9.99984C6.12496 10.4601 5.75186 10.8332 5.29163 10.8332H2.37496C1.91472 10.8332 1.54163 10.4601 1.54163 9.99984Z" fill="white"/>
<path fill-rule="evenodd" clip-rule="evenodd" d="M16.125 9.99984C16.125 9.5396 16.4981 9.1665 16.9583 9.1665H18.2083C18.6685 9.1665 19.0416 9.5396 19.0416 9.99984C19.0416 10.4601 18.6685 10.8332 18.2083 10.8332H16.9583C16.4981 10.8332 16.125 10.4601 16.125 9.99984Z" fill="white"/>
<path fill-rule="evenodd" clip-rule="evenodd" d="M14.7024 14.2022C15.0278 13.8768 15.5554 13.8768 15.8809 14.2022L16.4701 14.7915C16.7956 15.1169 16.7956 15.6446 16.4701 15.97C16.1447 16.2955 15.6171 16.2955 15.2916 15.97L14.7024 15.3808C14.3769 15.0553 14.3769 14.5277 14.7024 14.2022Z" fill="white"/>
<path fill-rule="evenodd" clip-rule="evenodd" d="M16.6427 3.92374C16.9682 4.24917 16.9682 4.77681 16.6427 5.10225L15.4642 6.28076C15.1388 6.6062 14.6111 6.6062 14.2857 6.28076C13.9603 5.95532 13.9603 5.42769 14.2857 5.10225L15.4642 3.92374C15.7897 3.5983 16.3173 3.5983 16.6427 3.92374Z" fill="white"/>
<path fill-rule="evenodd" clip-rule="evenodd" d="M7.54755 12.9522C7.87298 13.2777 7.87298 13.8053 7.54755 14.1308L5.19053 16.4878C4.86509 16.8132 4.33745 16.8132 4.01201 16.4878C3.68658 16.1623 3.68658 15.6347 4.01201 15.3093L6.36904 12.9522C6.69447 12.6268 7.22211 12.6268 7.54755 12.9522Z" fill="white"/>
<path fill-rule="evenodd" clip-rule="evenodd" d="M4.1846 3.75115C4.51004 3.42571 5.03768 3.42571 5.36311 3.75115L7.13088 5.51891C7.45632 5.84435 7.45632 6.37199 7.13088 6.69743C6.80544 7.02286 6.27781 7.02286 5.95237 6.69743L4.1846 4.92966C3.85917 4.60422 3.85917 4.07658 4.1846 3.75115Z" fill="white"/>
</g>
</g>
</svg>
