<svg width="181" height="116" viewBox="0 0 181 116" fill="none" xmlns="http://www.w3.org/2000/svg">
<g id="BG">
<path id="CARD" d="M172.791 0.763428H8.22626C3.89832 0.763428 0.389832 4.28834 0.389832 8.63655V107.838C0.389832 112.186 3.89832 115.711 8.22626 115.711H172.791C177.119 115.711 180.628 112.186 180.628 107.838V8.63655C180.628 4.28834 177.119 0.763428 172.791 0.763428Z" fill="#202E3B"/>
<mask id="mask0_688_78145" style="mask-type:alpha" maskUnits="userSpaceOnUse" x="0" y="0" width="181" height="116">
<path id="CARD_2" d="M172.791 0.763428H8.22626C3.89832 0.763428 0.389832 4.28834 0.389832 8.63655V107.838C0.389832 112.186 3.89832 115.711 8.22626 115.711H172.791C177.119 115.711 180.628 112.186 180.628 107.838V8.63655C180.628 4.28834 177.119 0.763428 172.791 0.763428Z" fill="#202E3B"/>
</mask>
<g mask="url(#mask0_688_78145)">
<path id="SHAPE" d="M169.269 175.394C169.628 174.716 170.057 174.079 170.549 173.491C170.879 173.096 171.282 172.504 171.85 172.46C172.542 172.405 173.447 173.236 173.494 173.835C173.529 174.272 173.314 174.555 173.083 174.867C173.291 175.097 173.499 175.219 173.665 175.394L169.269 175.394ZM100.196 175.394C101.004 175.051 101.906 174.896 102.83 174.605C103.683 174.335 105.013 173.667 105.584 174.006C106.022 174.265 106.301 174.821 106.459 175.394H100.196ZM230.617 148.518C229.958 148.074 228.079 147.122 227.877 146.11C227.687 145.159 228.204 144.288 228.562 143.702C228.986 143.007 229.484 142.511 229.864 141.913C231.414 141.475 232.872 142.865 233.905 144.39C234.786 145.692 235.561 147.423 235.275 148.999C235.163 149.617 234.608 150.383 233.905 150.444C233.868 150.447 233.831 150.449 233.794 150.449C232.652 150.449 231.326 148.995 230.617 148.518H230.617ZM-29.9676 140.95C-30.5647 140.783 -31.2116 140.561 -31.817 140.33C-32.8386 139.941 -34.3609 139.155 -34.5568 138.129C-34.8255 136.718 -33.4696 135.212 -32.7757 134.483C-32.0344 133.704 -30.4946 132.498 -29.1456 132.42C-28.8521 132.412 -28.5612 132.477 -28.2985 132.609C-28.0358 132.741 -27.8094 132.935 -27.6392 133.176C-27.435 133.431 -27.3014 133.836 -27.0226 134.138C-26.6622 134.53 -25.7151 134.94 -25.4473 135.446C-24.7756 136.717 -25.2474 138.34 -25.8584 139.574C-26.239 140.344 -26.9001 141.252 -27.8443 141.294C-27.8913 141.296 -27.9391 141.297 -27.987 141.297C-28.6593 141.267 -29.325 141.151 -29.9676 140.95ZM8.81153 138.654C8.28066 138.46 7.74 138.234 7.08376 138.005C6.26899 137.721 4.25073 137.342 3.69904 136.128C3.1393 134.902 4.99474 133.84 5.98684 133.709C8.07357 133.435 11.0118 134.643 11.3698 137.248C11.4358 137.731 11.5205 138.815 10.7541 139.134C10.6684 139.167 10.5771 139.182 10.4854 139.18C9.98746 139.18 9.27458 138.824 8.81245 138.654L8.81153 138.654ZM150.823 135.858C150.5 135.577 150.178 135.352 149.863 135.102C149.076 134.474 148.068 133.949 147.945 133.037C147.808 132.013 148.686 130.972 149.179 130.285C149.486 129.858 149.789 129.511 150.069 129.185C150.224 129.005 150.372 128.893 150.548 128.703C150.828 128.404 151.165 127.878 151.712 127.809C152.605 127.694 152.812 129.019 153.562 130.011C153.878 130.429 154.786 130.933 154.863 131.455C154.979 132.247 153.724 132.828 153.288 133.313C153.064 133.558 152.879 133.836 152.739 134.138C152.419 134.939 152.611 136.32 151.918 136.478C151.879 136.487 151.839 136.491 151.799 136.491C151.438 136.491 151.121 136.12 150.823 135.859L150.823 135.858ZM70.1379 109.984C69.7154 109.446 69.2592 108.936 68.7721 108.457C67.2751 107.044 64.99 104.754 65.6749 101.493C66.0318 99.7949 67.0828 98.6366 67.9658 97.1969C68.3178 96.624 68.7678 95.8563 69.1814 95.0811C69.5806 94.3334 69.9581 93.356 70.6844 93.2971C71.8383 93.2044 72.3209 94.8841 72.7736 95.7571C73.9396 98.0092 74.7439 99.3695 75.8316 101.759C76.2946 102.777 77.1078 104.306 76.8797 105.571C76.6629 106.763 75.65 107.846 74.8167 108.756C73.8078 109.858 72.9704 110.64 71.9039 111.287C71.8535 111.306 71.7999 111.316 71.7459 111.316C71.2374 111.317 70.5774 110.517 70.1388 109.984L70.1379 109.984ZM244.694 107.863C244.209 107.453 243.893 106.878 243.805 106.248C243.479 104.38 244.195 102.12 246.235 102.014C247.256 101.963 249.042 102.184 249.166 103.27C249.229 103.817 248.518 104.923 248.093 105.518C247.642 106.153 247.14 106.75 246.59 107.302C246.329 107.556 245.911 107.943 245.592 108.032C245.478 108.068 245.361 108.089 245.242 108.093C245.039 108.082 244.845 108.001 244.695 107.863L244.694 107.863ZM-5.5186 75.9854C-6.85123 75.6917 -8.54123 75.3421 -10.227 74.9777C-11.6599 74.6677 -13.6819 74.3213 -14.8778 73.4867C-16.9488 72.0437 -16.855 69.6249 -16.4988 67.8541C-16.2077 66.4068 -15.2297 63.4096 -13.0832 63.7574C-12.1914 63.9016 -10.08 65.419 -9.29797 66.3683C-8.15609 67.7542 -8.52061 68.9491 -8.32448 70.0626C-7.29836 70.6527 -5.92292 70.3181 -4.86926 71.3599C-3.47863 72.7347 -4.05856 75.0827 -5.17581 75.9776C-5.21583 76.0147 -5.2676 76.0365 -5.32203 76.0392C-5.38916 76.0278 -5.45499 76.0098 -5.5186 75.9854ZM178.315 75.3981C177.643 75.1075 177.141 74.5642 176.548 74.0934C175.422 73.2031 173.391 71.7029 174.305 69.572C174.368 69.4184 174.454 69.2756 174.561 69.1487C174.89 68.7449 175.414 68.472 176.321 68.5935C177.672 68.7735 180.272 70.3768 180.979 71.8426C181.175 72.2737 181.28 72.7407 181.288 73.2145C181.295 73.6882 181.206 74.1584 181.024 74.5957C180.916 74.8581 180.744 75.0889 180.524 75.2666C180.303 75.4443 180.042 75.5632 179.764 75.6123C179.667 75.6302 179.569 75.6387 179.471 75.6377C179.074 75.6317 178.682 75.55 178.315 75.3972V75.3981ZM239.196 73.5374C237.782 71.3246 239.233 68.4875 240.996 67.3344C241.835 66.7858 243.932 66.3821 244.301 67.6791C244.666 68.9631 243.378 70.5688 242.943 71.3163C242.592 71.9178 242.327 72.441 242.049 72.9359C241.76 73.4532 241.37 74.4077 240.883 74.5683C240.79 74.5991 240.693 74.6149 240.596 74.6151C239.942 74.6149 239.424 73.8957 239.196 73.5362V73.5374ZM17.5012 37.1195C15.771 36.2788 12.8607 34.3468 12.3867 32.1436C12.0704 30.6723 12.3984 28.4491 14.3824 27.6805C15.2188 27.3565 16.4411 27.3894 17.4757 27.514C18.3697 27.6208 19.6027 27.6667 20.4493 28.7532C21.0623 29.5405 20.9679 30.2215 21.0079 31.0252C21.0399 31.4006 21.0436 31.7778 21.0192 32.1537C20.9968 32.5395 20.952 32.9721 21.1279 33.2936C21.6335 34.2213 22.5374 34.556 22.9935 35.2331C23.2478 35.6103 23.5557 36.214 23.506 36.6664C23.4484 37.1775 22.6829 37.8213 22.4248 37.9576C22.371 37.9855 22.3202 38.0701 22.2631 38.0854C21.9415 38.1738 21.6092 38.2171 21.2757 38.2143C19.9747 38.2141 18.5641 37.6371 17.5012 37.1195ZM221.648 33.3662C221.28 32.756 220.967 32.3654 220.555 31.7588C220.135 31.1451 219.798 30.5375 219.791 29.8629C219.78 28.9103 220.566 27.9421 220.986 27.2659C221.952 25.7088 222.419 23.9272 223.234 21.9387C223.601 21.0473 224.069 19.7934 224.858 19.7369C225.739 19.6735 226.162 20.8012 226.591 21.8688C227.359 23.7808 228.113 25.5219 228.739 27.4249C229.12 28.585 229.693 29.9603 229.593 31.521C229.504 32.3722 229.208 33.1884 228.731 33.8978C228.566 34.0975 228.391 34.2885 228.206 34.47C227.501 35.3077 226.709 36.1738 225.89 36.4946C225.736 36.543 225.576 36.5728 225.414 36.5832C225.325 36.5947 225.234 36.6004 225.144 36.6005C223.555 36.6007 222.499 34.7753 221.648 33.3664V33.3662ZM148.315 18.3384C147.411 18.0354 146.313 17.7417 145.86 16.9944C145.609 16.4863 145.515 15.9147 145.587 15.3523C145.774 14.567 146.402 14.4197 146.894 13.7838C147.504 12.994 147.704 11.9864 148.386 11.7242C149.093 11.4542 150.271 11.6778 150.933 11.9633C151.659 12.2766 152.544 13.5439 153.527 13.3703C154.231 13.2463 154.49 12.2109 154.617 11.5345C154.785 10.6347 154.657 9.64111 155.281 9.37297C155.673 9.20427 156.004 9.38495 156.525 9.59616C157.583 10.0258 158.996 10.5409 159.153 11.8287C159.335 13.3206 157.653 15.2864 156.93 16.1209C155.945 17.2587 154.83 18.4336 153.353 19.1615C153.096 19.282 152.822 19.3631 152.541 19.4022C152.386 19.4249 152.23 19.4362 152.074 19.436C150.819 19.4355 149.548 18.7495 148.315 18.3387V18.3384ZM95.5216 16.1396C94.1335 15.662 92.4572 15.422 92.403 13.6524C92.3781 12.8273 93.0153 12.026 93.4815 11.541C93.9044 11.1015 94.6457 10.36 95.4896 10.3569C96.35 10.3526 97.1169 11.2104 97.7581 12.1905C98.2886 13.0003 99.0393 14.0588 98.9097 15.1728C98.8512 15.4877 98.7014 15.7783 98.4791 16.008C98.2569 16.2377 97.972 16.3964 97.6603 16.464C97.5135 16.4986 97.3632 16.5155 97.2125 16.5144C96.6328 16.4798 96.0621 16.3534 95.5216 16.1398V16.1396ZM31.9877 12.3232C30.718 11.6685 29.1813 10.6811 28.5047 9.20949C28.041 8.19925 27.6622 5.43214 28.6505 4.71907C29.9442 3.78667 32.7637 6.54387 34.391 8.93797C35.3182 10.3011 35.9854 12.0872 35.2226 13.0063C35.2087 13.0209 35.1912 13.0314 35.1719 13.0368C35.1526 13.0422 35.1322 13.0423 35.1129 13.0371C35.0999 13.0336 35.0862 13.0336 35.0732 13.0371C34.8933 13.1366 34.69 13.1851 34.4848 13.1777C33.7412 13.1782 32.7442 12.7137 31.9877 12.3234V12.3232ZM77.6517 -21.7805C77.1799 -22.5435 76.553 -23.1976 76.2635 -23.8574C75.485 -25.6345 75.8782 -28.8166 77.5023 -28.7293C78.3715 -28.6819 78.8108 -27.5576 79.3748 -26.5345C80.1537 -25.1225 80.8995 -23.821 80.6649 -21.837C80.5805 -21.1171 80.2307 -20.4173 79.6329 -20.2792C79.5552 -20.2611 79.4756 -20.2519 79.3958 -20.2518C78.7018 -20.2513 78.1521 -20.9707 77.6517 -21.7803V-21.7805ZM184.522 -39.4082C184.148 -41.6673 185.432 -43.0984 186.371 -44.7057C186.707 -45.2798 187.106 -45.8754 187.125 -46.4256C187.142 -46.9605 186.766 -47.4291 186.508 -48.0765C185.859 -49.7058 185.814 -51.9087 187.399 -52.6861C187.622 -52.7524 187.86 -52.7524 188.083 -52.6861C188.979 -52.4713 190.201 -51.5992 190.824 -50.9662C191.412 -50.3665 191.814 -49.5179 192.193 -48.6267C192.679 -47.4851 193.178 -46.2785 192.741 -44.9117C192.353 -43.7011 190.811 -41.9494 189.864 -41.0593C189.297 -40.4969 188.678 -39.9901 188.015 -39.5457C187.394 -39.1479 186.577 -38.7929 185.841 -38.7929C185.588 -38.7817 185.336 -38.8316 185.107 -38.9386C184.877 -39.0456 184.677 -39.2065 184.522 -39.4078V-39.4082ZM109.175 -64.8795C108.371 -65.5627 106.918 -67.2899 107.388 -68.3174C107.708 -69.0179 108.912 -69.3402 109.8 -69.6569C110.999 -70.0843 112.656 -70.8802 112.979 -69.0316C113.085 -68.4267 113.032 -67.3924 113.016 -66.4852C112.989 -65.0615 113.183 -64.0994 112.236 -63.7672C112.004 -63.6838 111.761 -63.6404 111.515 -63.639C110.575 -63.6387 109.847 -64.3079 109.175 -64.8791V-64.8795ZM-2.77584 -69.3346C-3.46455 -71.2773 -4.14854 -73.0478 -4.69395 -74.9758C-5.02644 -76.1514 -5.54254 -77.5494 -5.3791 -79.104C-5.25489 -79.9509 -4.92569 -80.7542 -4.42037 -81.4434C-4.24739 -81.6366 -4.06437 -81.8204 -3.87205 -81.9941C-3.13319 -82.8019 -2.30588 -83.6337 -1.47455 -83.9201C-1.31807 -83.9618 -1.15722 -83.9849 -0.995377 -83.989C0.752594 -84.1388 1.79908 -82.1417 2.63422 -80.6181C2.97723 -79.9932 3.27431 -79.5901 3.66187 -78.9666C4.0546 -78.3367 4.36696 -77.7147 4.34636 -77.0404C4.31815 -76.0882 3.49285 -75.1542 3.0455 -74.4951C2.01691 -72.9796 1.47823 -71.2197 0.579727 -69.2665C0.176708 -68.391 -0.342056 -67.1578 -1.13242 -67.1342H-1.16264C-2.02398 -67.1329 -2.39611 -68.2628 -2.77584 -69.3344V-69.3346ZM151.234 -69.6795C151.153 -70.2868 151.248 -71.3188 151.303 -72.2247C151.388 -73.6457 151.233 -74.6154 152.193 -74.9076C153.516 -75.3107 154.401 -74.4128 155.207 -73.6704C155.981 -72.9551 157.362 -71.1688 156.851 -70.1613C156.502 -69.4747 155.286 -69.2023 154.385 -68.924C153.782 -68.7367 153.061 -68.4632 152.46 -68.4632C151.848 -68.4612 151.358 -68.7423 151.234 -69.6792V-69.6795ZM-26.543 -71.2608C-27.2116 -71.3171 -28.4746 -71.564 -28.598 -72.3615C-28.6896 -72.9546 -27.7275 -73.78 -27.2282 -74.2193C-26.8793 -74.5257 -26.2634 -74.9007 -25.8584 -75.1821C-25.4533 -75.4635 -25.1003 -75.8706 -24.6249 -75.9392C-23.8845 -76.0461 -23.1657 -75.1002 -23.187 -74.1503C-23.219 -72.7248 -24.7174 -71.2516 -26.3261 -71.2516C-26.3982 -71.2516 -26.4705 -71.2545 -26.544 -71.2606L-26.543 -71.2608ZM-60.6541 -80.4017V-89.7595C-60.5843 -89.7617 -60.5198 -89.7662 -60.447 -89.7683C-59.7021 -89.7881 -59.3669 -89.8542 -59.0089 -89.1492C-58.1805 -87.5159 -58.5849 -85.118 -59.0774 -83.2331C-59.3853 -82.0553 -59.6161 -80.5414 -60.447 -80.4125C-60.4961 -80.405 -60.5458 -80.4013 -60.5955 -80.4015C-60.6149 -80.4002 -60.6344 -80.4006 -60.6539 -80.4015L-60.6541 -80.4017ZM253.083 -82.4755C252.382 -83.4957 251.631 -84.5225 251.302 -85.2959C250.722 -86.6595 250.959 -87.9595 252.055 -88.8051C252.947 -89.4925 253.836 -89.7022 255.41 -89.76V-80.4022C254.518 -80.4422 253.687 -81.596 253.082 -82.4753L253.083 -82.4755ZM190.891 -95.6848C190.085 -96.9038 188.614 -98.7137 189.042 -100.776C189.325 -101.956 189.862 -103.06 190.617 -104.009C190.842 -104.266 191.199 -104.424 191.439 -104.697C192.791 -104.729 192.507 -102.968 192.877 -101.877C193.234 -100.827 194.619 -99.9097 194.659 -98.1617C194.681 -97.1026 194.251 -96.262 193.768 -95.4783C193.46 -94.9769 193.186 -94.4435 192.672 -94.3776C192.616 -94.3703 192.559 -94.3665 192.502 -94.3664C191.689 -94.3664 191.242 -95.1537 190.891 -95.6846V-95.6848ZM227.398 -122.998C227.568 -124.028 228.952 -126.394 230.069 -126.507C230.07 -126.507 230.086 -126.574 230.138 -126.575C230.509 -126.575 231.146 -126.137 231.37 -125.818C232.484 -124.235 231.31 -120.476 229.521 -120.383C229.487 -120.382 229.454 -120.381 229.421 -120.381C228.13 -120.38 227.181 -121.679 227.398 -122.997L227.398 -122.998ZM47.7066 -132.108C47.4505 -132.147 47.266 -132.143 47.0332 -132.189C46.6129 -132.272 46.1615 -132.356 45.656 -132.501C44.8461 -132.736 43.5157 -133.009 42.9933 -133.9C42.5285 -134.692 42.9983 -135.731 43.2311 -136.712C43.3243 -137.104 43.4398 -137.481 43.5198 -137.902C43.6021 -138.335 43.6174 -138.887 44 -139.07C44.6422 -139.375 45.3416 -138.17 46.0854 -137.741C46.3806 -137.59 46.6974 -137.485 47.0244 -137.432C47.2622 -137.404 47.5019 -137.397 47.7409 -137.41C48.3821 -137.423 49.128 -137.436 49.4052 -136.949C49.6658 -136.491 49.2621 -135.531 49.2708 -135.005C49.2918 -133.76 49.9436 -132.591 49.1714 -132.125C48.9927 -132.023 48.7895 -131.972 48.5839 -131.978C48.2885 -131.997 47.9951 -132.041 47.7066 -132.107V-132.108ZM100.268 -137.345C99.3881 -137.552 98.1659 -137.917 97.8517 -138.762C97.7125 -139.139 97.9518 -139.833 98.1748 -140.242C98.6076 -141.078 99.3248 -141.729 100.196 -142.078H106.459C106.589 -141.63 106.643 -141.162 106.618 -140.696C106.522 -139.631 105.732 -138.402 104.754 -137.736C104.189 -137.354 103.541 -137.113 102.865 -137.033C102.744 -137.02 102.622 -137.014 102.5 -137.015C101.747 -137.044 100.999 -137.154 100.269 -137.344L100.268 -137.345ZM170.891 -138.546C169.938 -139.221 168.65 -139.997 169.179 -141.849C169.204 -141.927 169.234 -142.004 169.269 -142.079H173.666C173.847 -141.884 173.956 -141.633 173.974 -141.367C174.01 -140.794 174.01 -140.22 173.974 -139.647C173.949 -138.68 173.568 -137.769 172.947 -137.652C172.873 -137.638 172.798 -137.631 172.723 -137.631C171.989 -137.63 171.292 -138.263 170.891 -138.546V-138.546Z" fill="#D65234"/>
<path id="SHAPE_2" d="M117.649 175.394C117.638 175.09 117.628 174.779 117.624 174.453C117.611 173.577 117.47 172.354 118.101 172.006C118.767 171.638 119.665 172.613 120.337 173.387C120.868 174.016 121.348 174.687 121.772 175.394H117.649ZM-1.17653 175.394C-0.531578 174.926 0.14138 174.498 0.838558 174.112C0.840347 174.045 0.922527 174.059 0.975815 174.043C1.72744 173.931 2.44571 174.553 2.84358 175.395L-1.17653 175.394ZM187.931 164.479C187.209 164.181 187.149 162.774 187.109 162.278C187.046 161.315 187.046 160.35 187.109 159.388C187.21 157.246 187.182 155.589 187.794 154.09C188.525 152.3 189.948 151.041 191.424 149.825C192.509 148.902 193.653 148.052 194.849 147.279C195.435 146.915 195.921 146.606 196.561 146.523C197.543 146.395 198.291 147.236 198.89 148.105C199.953 149.646 201.407 151.527 200.672 154.159C199.585 158.045 195.314 160.662 191.836 162.828C190.967 163.368 189.355 164.548 188.318 164.548C188.185 164.551 188.054 164.527 187.931 164.479V164.479ZM51.8866 158.847C51.1341 158.03 50.8144 157.012 51.2434 156.467C51.815 155.742 52.9016 155.868 53.7096 155.833C54.4577 155.8 55.52 155.59 56.095 155.874C57.1607 156.401 56.9158 158.129 56.7756 158.749C56.6272 159.412 56.2996 160.153 55.7029 160.383C55.5736 160.429 55.4371 160.451 55.3 160.447C54.3077 160.447 52.587 159.607 51.8866 158.847ZM30.1967 149.296C29.5338 149.26 28.2694 149.208 27.9763 148.685C27.5825 147.982 28.4242 147.003 28.9154 146.544C30.1558 145.385 32.3887 145.583 33.3315 146.733C33.9329 147.466 33.9497 148.656 33.3015 149.031C32.9805 149.178 32.6261 149.236 32.2754 149.198C32.1379 149.196 32.0002 149.194 31.8661 149.203C31.4342 149.229 30.8299 149.3 30.3759 149.3C30.3127 149.3 30.2527 149.299 30.1965 149.295L30.1967 149.296ZM159.163 145.422C159.23 144.634 159.835 143.949 160.397 143.288C160.951 142.64 161.658 141.725 162.246 141.569C162.519 141.497 163.238 141.563 163.479 141.913C163.688 142.217 163.664 143.187 163.616 143.702C163.504 144.704 163.226 145.68 162.794 146.591C162.488 147.158 161.786 147.723 161.218 147.76C161.198 147.762 161.178 147.762 161.158 147.762C160.281 147.763 159.069 146.558 159.163 145.422ZM-43.9864 146.394C-44.3785 145.784 -43.7229 144.957 -43.2326 144.574C-42.29 143.839 -40.2579 143.193 -39.4053 143.564C-38.0744 144.144 -38.014 146.047 -39.1966 146.725C-39.6198 146.968 -40.5658 147.132 -41.5151 147.132C-42.5782 147.131 -43.6448 146.925 -43.9864 146.394ZM107.261 141.772C106.778 141.201 106.322 140.851 106.292 139.884C106.254 138.63 107.548 136.107 108.739 136.065C109.363 136.042 109.731 136.635 110.23 137.311C110.837 138.134 111.387 138.688 111.695 139.591C111.81 139.921 111.848 140.272 111.806 140.619C111.681 141.482 110.548 142.621 109.294 142.859C109.157 142.886 109.018 142.9 108.879 142.901C108.16 142.9 107.83 142.445 107.26 141.771L107.261 141.772ZM44.9523 107.398C44.7358 106.586 44.6937 105.312 44.6178 104.075C44.5468 102.928 44.4846 101.363 45.3401 100.881C46.0727 100.466 47.1859 101.512 48.1527 102.247C49.6996 103.424 51.4928 105.059 51.847 106.857C51.999 107.633 51.6949 107.789 51.0969 108.236C49.7233 109.261 48.8779 109.677 47.7042 109.69H47.6684C46.3044 109.688 45.3311 108.817 44.9516 107.397L44.9523 107.398ZM123.163 94.7982C123.146 94.1009 123.466 93.5814 123.773 92.9826C124.352 91.8687 124.743 90.6659 124.929 89.4234C125.07 88.533 124.987 87.6949 125.401 87.5446C125.912 87.3574 126.464 87.9117 126.804 88.3123C127.437 89.0459 127.977 89.8561 128.411 90.7244C128.654 91.1474 128.835 91.6042 128.946 92.08C129.121 93.3505 128.479 94.3294 127.916 95.3581C127.431 96.2455 126.676 97.6568 125.826 97.855C125.762 97.8698 125.698 97.8774 125.632 97.8775C124.617 97.8757 123.197 96.2374 123.162 94.797L123.163 94.7982ZM35.0179 90.1094C32.6813 89.9553 30.3331 88.816 28.4738 87.6856C26.7473 86.6358 24.4126 84.4754 23.6021 81.9677C23.1292 80.5039 23.3058 79.1007 23.3123 77.5059C23.3186 76.1944 23.1811 74.3791 24.5769 73.8392C25.6008 73.4438 26.6739 74.2156 27.473 74.5591C29.3873 75.3795 31.2455 75.5995 33.0033 76.5161C34.3408 77.2157 36.4423 78.2381 36.4153 80.6122C36.3987 82.0048 34.8305 83.4607 34.9949 84.9087C35.1404 86.1895 36.5523 87.3322 36.2637 88.834C36.1678 89.334 35.6173 89.9724 35.1492 90.0653C35.1115 90.0741 35.0611 90.1092 35.0224 90.1092L35.0179 90.1094ZM197.584 84.2871C197.397 81.1282 200.364 78.3386 203.369 78.263C204.281 78.2405 205.481 78.7163 205.627 79.8224C205.838 81.4247 204.276 83.1457 203.535 83.9713C202.508 85.0843 201.323 86.0386 200.017 86.8032C200.019 86.8707 199.937 86.8595 199.884 86.8775C199.81 86.8918 199.735 86.899 199.659 86.899C198.628 86.8978 197.66 85.5815 197.583 84.286L197.584 84.2871ZM-36.4303 81.3925C-36.9979 81.3813 -37.5528 81.081 -38.1806 80.9374C-38.704 80.8171 -39.249 80.7091 -39.8884 80.5357C-40.8026 80.2882 -42.6079 79.7558 -43.2201 78.6158C-43.735 77.6577 -42.2873 76.8295 -41.2744 76.2043C-40.7193 75.8622 -39.9982 75.5295 -39.5898 75.5745C-38.2016 75.7281 -37.0985 78.0894 -36.4648 79.2335C-36.1066 79.8798 -35.7235 80.486 -35.7531 81.0331C-35.9514 81.1709 -36.1614 81.4134 -36.3433 81.4134C-36.3739 81.4134 -36.4042 81.4058 -36.4313 81.3913L-36.4303 81.3925ZM111.676 64.1882C110.668 63.7131 109.48 62.4241 108.549 61.4953C107.417 60.3663 106.652 58.8767 106.755 56.1992C106.795 55.637 106.887 55.0798 107.029 54.5346C107.295 53.4022 107.881 52.5517 109.298 53.0623C109.496 53.1506 109.684 53.2586 109.86 53.3849C110.852 53.99 111.869 54.6932 112.891 55.3927C113.398 55.7396 113.927 56.1457 114.433 56.2235C114.784 56.2699 115.14 56.2729 115.493 56.2325C116.095 56.1836 116.612 56.1346 117.192 56.6599C117.346 57.5777 117.063 58.3834 116.813 59.0855C116.313 60.4491 115.653 61.748 114.847 62.9545C114.334 63.7265 113.619 64.4295 112.67 64.4293C112.325 64.4236 111.985 64.3409 111.675 64.187L111.676 64.1882ZM245.175 44.9366C244.843 44.625 244.687 43.9648 244.636 43.5129C244.544 42.7004 245.015 41.8559 244.799 40.8205C244.725 40.4606 244.411 40.1612 244.144 39.884C243.883 39.6137 243.642 39.3245 243.423 39.0187C242.932 38.3816 242.421 37.9261 242.377 36.9267C242.318 35.5477 243.225 34.7085 243.835 34.0435C244.541 33.272 245.449 32.45 246.293 32.1504C248.299 31.4389 249.987 32.9152 250.698 34.2395C251.763 36.2235 250.802 39.5919 250.032 41.3604C249.434 42.7305 248.48 44.5353 247.036 45.202C246.999 45.2135 246.96 45.2161 246.922 45.2096C246.892 45.2054 246.862 45.2054 246.832 45.2096C246.686 45.2362 246.538 45.2482 246.391 45.2455C245.977 45.2466 245.429 45.1754 245.174 44.9357L245.175 44.9366ZM6.6241 4.99037C4.62089 3.5957 3.01932 1.71225 1.26083 -0.750916C0.45681 -1.87564 -0.642296 -3.34972 -0.155319 -4.00813C0.160156 -4.43396 0.972027 -4.4729 1.51856 -4.54106C2.32034 -4.64229 2.86197 -4.66277 3.29498 -4.72104C4.50627 -4.88007 5.80953 -5.28339 6.83028 -5.32365C7.50198 -5.3502 8.93492 -5.18866 9.49623 -4.36626C9.86611 -3.82639 9.74389 -2.97501 9.77747 -2.22548C9.803 -1.64264 9.59521 -0.510925 9.90866 -0.053833C10.1057 0.233429 10.5513 0.291901 10.8663 0.501999C11.2167 0.733093 11.5283 1.01859 11.7897 1.34779C12.8335 2.78453 12.0939 5.01062 10.4686 5.89285C10.1403 6.07338 9.77182 6.16756 9.39751 6.16663C8.46834 6.16753 7.52909 5.61978 6.6241 4.99037ZM92.6058 -0.37236C91.9742 -0.709778 91.1552 -1.86958 90.4564 -2.62495C89.7142 -3.42577 88.9518 -3.88464 88.3103 -4.80693C87.7094 -5.67184 87.3456 -6.72144 86.8828 -7.8466C86.3967 -9.0269 85.783 -10.2588 85.903 -11.6615C85.9975 -12.7687 86.6154 -13.7985 87.213 -14.8146C88.3896 -16.8166 89.3367 -18.2769 90.4761 -20.4589C90.9053 -21.2791 91.6146 -22.6211 92.7151 -22.6859C94.1111 -22.768 95.0456 -20.8414 95.7225 -19.5747C96.5166 -18.0867 97.0126 -16.499 97.5452 -15.2429C98.1634 -13.8559 98.8598 -12.5055 99.6313 -11.1983C100.338 -9.94225 101.602 -8.32556 101.549 -6.25177C101.477 -3.42712 98.8179 -0.460724 95.9155 0.111084C95.6781 0.154617 95.4372 0.175308 95.1959 0.172928C94.3044 0.172516 93.4225 -0.0131531 92.6058 -0.37236ZM212.451 -28.8125C210.632 -29.5047 209.025 -30.5286 207.519 -31.6336C206.073 -32.6949 204.573 -33.9281 205.328 -36.5181C205.889 -38.4459 207.421 -40.7021 208.547 -42.5039C209.367 -43.8138 210.261 -45.2914 211.287 -46.7003C211.887 -47.5249 211.782 -48.1035 212.793 -48.2827C213.604 -48.4263 214.174 -48.0556 214.848 -47.5949C215.923 -46.8598 217.123 -46.3802 218.205 -45.5992C218.771 -45.1907 219.235 -44.7091 219.643 -44.4294C220.404 -43.9082 222.128 -43.4489 222.177 -42.1591C222.217 -41.0998 221.181 -40.4906 220.602 -40.0266C219.233 -38.9297 217.544 -37.711 217.451 -35.3477C217.406 -34.1852 217.624 -33.0701 217.793 -31.8385C217.953 -30.6746 218.248 -29.2638 217.724 -28.5361C217.38 -28.0567 216.796 -27.8838 216.123 -27.8838C214.875 -27.8858 213.325 -28.4796 212.451 -28.8125ZM155.123 -40.7842C155.25 -42.0515 156.965 -43.3697 157.725 -44.0861C158.816 -45.1133 159.787 -46.1383 160.876 -46.7691C160.926 -46.7986 160.928 -46.8213 161.013 -46.838C161.043 -46.844 161.071 -46.9171 161.15 -46.907C161.783 -46.8247 162.31 -46.2171 162.52 -46.0121C162.913 -45.6516 163.218 -45.2041 163.41 -44.705C163.75 -43.6977 163.438 -42.2825 162.93 -41.609C162.48 -41.0114 161.273 -40.5255 160.465 -40.0958C159.536 -39.6009 158.553 -38.8996 157.794 -38.7887C157.631 -38.7647 157.466 -38.7526 157.301 -38.7525C156.081 -38.7525 154.986 -39.4282 155.123 -40.7842ZM-44.9835 -61.0786C-45.6073 -61.0824 -45.9502 -61.6889 -46.422 -62.3858C-46.9947 -63.2336 -47.5216 -63.8101 -47.7916 -64.7252C-47.8931 -65.0592 -47.9165 -65.4122 -47.8601 -65.7568C-47.6996 -66.6116 -46.5205 -67.7049 -45.2575 -67.8895C-44.2242 -68.0412 -43.9061 -67.5384 -43.2711 -66.7198C-42.8123 -66.1289 -42.3713 -65.7604 -42.3809 -64.7929C-42.3939 -63.5406 -43.7869 -61.0777 -44.9781 -61.0779L-44.9835 -61.0786ZM62.2437 -61.7521C62.1727 -61.7607 62.1414 -61.8326 62.1179 -61.8398C61.9336 -61.9066 61.7607 -62.0018 61.6056 -62.1219C61.1092 -62.5203 60.4975 -64.1772 60.3251 -64.8062C59.9911 -66.0247 60.0896 -67.0437 59.9263 -68.3378C59.7065 -70.0798 58.615 -72.4769 58.6828 -74.2146C58.7067 -74.6272 58.765 -75.0372 58.857 -75.4401C59.1546 -76.7286 59.839 -78.0468 60.6558 -79.3524C61.1567 -80.1525 62.6053 -82.0202 63.571 -81.8547C64.5785 -81.6815 64.7059 -80.0166 64.8696 -78.8199C65.0487 -77.5152 65.1208 -76.3513 65.2394 -75.0838C65.4553 -72.7713 66.2591 -70.0207 65.9015 -67.5537C65.5845 -65.3576 64.3918 -64.1491 63.4344 -62.8334C63.0663 -62.3282 62.8491 -61.7476 62.3292 -61.7476C62.3007 -61.7475 62.2722 -61.749 62.2439 -61.7521H62.2437ZM95.3774 -73.2642C95.3965 -73.9422 95.862 -74.3169 96.1996 -74.9513C96.5182 -75.5515 96.6299 -76.3667 97.7197 -76.3221C98.7536 -76.2805 99.4396 -74.913 99.344 -73.4974C99.2739 -72.4627 98.2693 -70.9981 97.6039 -70.8082C97.4992 -70.7784 97.3909 -70.7632 97.2821 -70.7632C96.3028 -70.7637 95.3414 -71.9597 95.3774 -73.264V-73.2642ZM219.574 -83.5076C218.869 -83.8801 217.938 -84.7725 217.861 -85.5026C217.747 -86.5792 219.539 -88.8046 220.533 -88.9427C221.725 -89.1085 223.351 -87.0563 223.135 -85.2273C223.027 -84.3104 222.45 -83.1695 221.559 -83.026C221.49 -83.0155 221.421 -83.0104 221.351 -83.0109C220.732 -83.0535 220.127 -83.2224 219.575 -83.5073L219.574 -83.5076ZM-23.957 -97.8854C-24.9395 -99.912 -23.8401 -103.237 -22.9983 -104.971C-22.3451 -106.316 -21.3172 -108.08 -19.8476 -108.686C-19.8103 -108.696 -19.7712 -108.697 -19.7334 -108.689C-19.7032 -108.684 -19.6725 -108.683 -19.642 -108.686C-19.3554 -108.74 -18.3571 -108.709 -17.9982 -108.343C-17.6802 -108.018 -17.5504 -107.351 -17.519 -106.897C-17.4611 -106.083 -17.9668 -105.258 -17.7931 -104.215C-17.7324 -103.852 -17.4326 -103.54 -17.1763 -103.252C-16.9259 -102.971 -16.697 -102.672 -16.4913 -102.357C-16.0274 -101.701 -15.5344 -101.224 -15.5326 -100.224C-15.5295 -98.8444 -16.4708 -98.0425 -17.108 -97.4039C-17.8451 -96.6633 -18.7854 -95.8794 -19.642 -95.6151C-19.9434 -95.5205 -20.2572 -95.472 -20.573 -95.4711C-22.1631 -95.4713 -23.4035 -96.7461 -23.9559 -97.8852L-23.957 -97.8854ZM173.136 -102.702C172.916 -103.977 174.007 -105.517 174.573 -106.278C174.969 -106.811 175.332 -107.235 175.67 -107.654C176.074 -108.157 176.327 -108.738 176.766 -109.099C176.835 -109.251 177.062 -109.244 177.289 -109.237C177.368 -109.235 177.447 -109.232 177.519 -109.237C177.88 -108.825 177.951 -108.11 178.067 -107.38C178.273 -106.087 178.859 -103.546 177.862 -102.564C177.568 -102.275 176.796 -102.089 176.15 -102.014C175.651 -101.943 175.149 -101.901 174.647 -101.887C173.893 -101.888 173.248 -102.054 173.137 -102.702L173.136 -102.702ZM49.6797 -114.366C48.7359 -114.446 47.3827 -114.597 47.0824 -115.903C46.8959 -116.713 47.7427 -118.672 48.8427 -119.218C50.7683 -120.172 53.8838 -115.831 51.6605 -114.617C51.2153 -114.413 50.7285 -114.319 50.2399 -114.341C50.0491 -114.342 49.8597 -114.35 49.6808 -114.365L49.6797 -114.366ZM-60.8074 -115.84V-126.208C-60.5296 -125.777 -60.3429 -125.292 -60.2589 -124.785C-60.142 -124.208 -60.1834 -123.559 -59.9839 -123.066C-59.7777 -122.553 -59.1555 -122.183 -58.6826 -121.621C-58.2165 -121.066 -57.5728 -120.371 -57.4499 -119.488C-57.1931 -117.633 -57.6993 -114.984 -59.1625 -114.948H-59.1849C-59.6891 -114.947 -60.2791 -115.372 -60.8063 -115.84L-60.8074 -115.84ZM254.162 -116.875C252.578 -118.254 250.463 -119.5 250.463 -122.379C250.463 -124.497 252.099 -125.796 253.614 -126.851C253.92 -126.928 254.243 -126.908 254.537 -126.793C254.831 -126.678 255.083 -126.474 255.256 -126.21V-115.842C254.821 -116.227 254.429 -116.643 254.164 -116.874L254.162 -116.875ZM121.689 -134.298C121.087 -134.369 120.498 -134.521 119.938 -134.752C118.201 -135.558 118.143 -136.813 117.983 -138.118C117.81 -139.531 117.698 -140.722 117.647 -142.079H121.771C121.831 -141.979 121.888 -141.885 121.935 -141.807C122.93 -140.15 123.975 -138.626 124.17 -137.149C124.268 -136.395 124.117 -134.963 123.476 -134.436C123.242 -134.248 122.948 -134.15 122.649 -134.16C122.326 -134.18 122.005 -134.226 121.69 -134.298L121.689 -134.298ZM-2.86155 -134.969C-3.77327 -134.984 -4.95322 -135.508 -5.0533 -136.62C-5.19839 -138.23 -3.56684 -139.885 -2.79328 -140.679C-2.29376 -141.189 -1.75322 -141.657 -1.17718 -142.078H2.8427C3.04324 -141.662 3.15355 -141.208 3.16642 -140.746C3.22284 -137.611 0.200665 -134.966 -2.77852 -134.966L-2.86155 -134.969Z" fill="#343FD6"/>
<path id="SHAPE_3" d="M211.883 175.394C212.4 174.585 212.999 173.832 213.671 173.147C214.702 172.051 215.864 170.924 217.37 170.258C217.632 170.148 217.909 170.079 218.192 170.052C219.605 169.901 221.004 170.771 222.371 171.289C223.263 171.629 224.347 171.969 224.768 172.733C224.998 173.251 225.07 173.826 224.973 174.385C224.83 174.895 224.508 175.123 224.157 175.394L211.883 175.394ZM-39.8561 175.394C-39.8265 175.146 -39.7753 174.901 -39.7031 174.661C-39.2757 173.264 -37.8994 171.735 -36.9629 170.602C-35.8611 169.269 -34.7481 167.945 -33.8805 166.887C-33.8001 166.79 -33.7954 166.68 -33.6058 166.681C-32.1775 166.691 -30.2761 168.177 -30.5236 170.121C-30.7105 171.595 -31.9986 172.185 -32.4419 173.285C-32.0763 173.972 -31.4864 174.531 -31.1633 175.394H-39.8561ZM166.812 160.42C165.808 160.402 165.524 159.203 165.099 158.356C164.41 156.98 163.384 155.481 163.866 153.677C164.123 152.717 165.142 151.54 165.785 150.787C167.238 149.087 168.938 147.597 170.511 145.902C170.888 145.471 171.232 145.011 171.539 144.527C171.96 143.883 172.132 143.357 172.84 143.288C173.495 143.226 174.09 144.068 174.485 144.595C175.274 145.725 175.918 146.951 176.403 148.242C176.838 149.352 177.009 150.617 176.403 151.545C175.854 152.385 174.8 152.969 173.8 153.609C172.824 154.232 171.984 154.668 171.06 155.535C169.91 156.613 168.937 158.03 167.976 159.456C167.771 159.761 167.296 160.42 166.821 160.42L166.812 160.42ZM226.55 130.974C226.431 129.854 227.041 128.56 227.647 127.535C228.162 126.662 228.929 125.269 229.839 125.058C229.867 125.051 229.905 124.996 229.976 124.989C230.849 124.91 231.511 126.08 231.825 126.64C232.256 127.478 232.535 128.387 232.647 129.323C232.844 131.366 231.888 131.875 230.387 132.419C229.836 132.627 229.254 132.739 228.666 132.751C227.583 132.751 226.687 132.267 226.55 130.974H226.55ZM65.1064 130.606C63.3167 130.1 61.5662 129.464 59.8687 128.702C59.1433 128.382 57.7182 127.682 57.4565 126.844C57.1654 125.913 58.1942 124.694 59.0101 124.043C60.1164 123.159 61.6393 122.455 62.5651 122.462C63.9842 122.471 65.2096 124.032 66.2518 125.502C67.2224 126.871 68.2425 128.296 68.4346 129.291C68.5197 129.735 68.4055 130.646 67.8961 130.942C67.6902 131.052 67.4593 131.105 67.2265 131.096C66.5286 131.096 65.6744 130.756 65.1075 130.606H65.1064ZM-4.17193 118.624C-5.07827 118.152 -6.45344 117.449 -6.90347 116.581C-7.44508 115.538 -6.34372 114.131 -5.90085 113.076C-5.47186 112.056 -4.65373 109.421 -3.15384 109.683C-2.24839 109.841 0.29686 112.386 0.856159 113.694C1.5377 115.287 0.598209 118.196 -1.1164 119.188C-1.37109 119.334 -1.65983 119.409 -1.95285 119.405C-2.72843 119.404 -3.54252 118.95 -4.17078 118.624H-4.17193ZM158.556 116.115C158.091 115.296 157.775 114.399 157.623 113.468C157.342 111.435 158.277 110.887 159.755 110.281C161.425 109.595 163.362 109.626 163.648 111.565C163.812 112.68 163.256 113.998 162.694 115.048C162.215 115.94 161.506 117.365 160.605 117.613C160.578 117.621 160.542 117.678 160.471 117.688C160.43 117.694 160.389 117.697 160.347 117.697C159.536 117.696 158.878 116.636 158.557 116.116L158.556 116.115ZM83.2141 107.522C83.1707 106.884 83.6857 106.51 83.9044 105.979C84.1296 105.433 84.1399 104.745 84.3846 104.306C84.5725 103.982 84.8335 103.707 85.1467 103.502C85.4599 103.298 85.8165 103.17 86.1877 103.13C86.9125 103.079 87.8311 103.465 88.0127 104.155C88.3933 105.614 86.768 108.305 86.0148 108.921C85.8247 109.077 85.5102 109.128 85.3431 109.293C85.2627 109.327 85.1765 109.343 85.0895 109.342C84.3258 109.341 83.2624 108.196 83.2161 107.521L83.2141 107.522ZM-58.1122 101.644C-58.5332 100.286 -58.2466 96.6913 -57.6598 95.98C-56.6883 94.8022 -54.362 96.2704 -53.3764 96.7673C-52.3565 97.2791 -50.6092 97.6299 -50.3448 98.7765C-50.1249 99.73 -50.7165 101.161 -51.0996 102.112C-51.4636 103.015 -51.9409 104.325 -53.056 104.534C-53.2492 104.57 -53.4453 104.587 -53.6417 104.587C-55.4862 104.585 -57.6473 103.139 -58.1103 101.643L-58.1122 101.644ZM144.424 89.1767C143.266 87.9668 143.327 85.2953 144.066 83.8207C144.364 83.2255 144.976 82.5181 145.595 82.6553C146.584 82.8742 146.58 85.6021 146.532 87.0919C146.492 88.3165 146.583 89.435 145.747 89.6725C145.685 89.6892 145.621 89.6973 145.557 89.6966C145.131 89.6643 144.729 89.4795 144.426 89.1756L144.424 89.1767ZM227.768 86.5993C227.849 85.8745 230.448 83.7341 231.681 85.0598C232.173 85.5879 231.981 86.6483 231.643 87.4718C231.287 88.3392 230.97 88.9239 230.139 89.2553C230.155 89.3135 230.116 89.3214 230.074 89.327C229.293 89.145 227.623 87.8977 227.77 86.5982L227.768 86.5993ZM101.64 81.4446C100.736 81.2676 99.4783 80.4473 98.8312 79.8406C98.2171 79.2661 97.782 78.4351 97.3656 77.5598C96.8334 76.4398 96.2844 75.2548 96.6654 73.8707C97.0031 72.6448 98.4726 70.8303 99.3814 69.9015C99.9251 69.3161 100.523 68.7841 101.168 68.313C102.191 67.5967 103.779 66.9786 104.652 68.0309C105.119 70.2725 103.895 71.7553 103.022 73.3999C102.71 73.9877 102.336 74.6004 102.339 75.15C102.344 75.6854 102.74 76.1382 103.024 76.7743C103.741 78.3748 103.875 80.5739 102.324 81.4167C102.216 81.4634 102.098 81.4847 101.981 81.4789C101.867 81.4779 101.753 81.466 101.642 81.4435L101.64 81.4446ZM-36.3526 64.1798C-37.7645 64.0383 -39.3546 63.9132 -40.6238 63.1752C-42.3881 62.1503 -42.3622 60.6391 -42.0138 59.2836C-41.6762 57.9721 -41.0906 56.8956 -40.4098 55.6554C-40.0905 55.0737 -39.6745 54.2246 -39.079 53.9045C-37.6747 53.1493 -35.4202 55.1138 -34.2111 56.4504C-32.2292 58.6407 -29.1511 62.3573 -31.8242 63.8415C-31.8871 63.8761 -31.9424 63.8602 -31.974 63.8725C-32.774 64.1708 -33.6226 64.3157 -34.4758 64.2999C-35.1056 64.3006 -35.731 64.2419 -36.3526 64.1798ZM47.0982 61.0058C47.0825 61.0058 47.0669 61.009 47.0524 61.0153C47.0181 61.0285 46.9801 61.0285 46.9458 61.0153C46.4118 60.7708 46.5401 60.1285 46.4835 59.4712C46.3419 57.8487 45.9445 56.1947 46.8045 54.1499C47.7713 51.8537 49.8773 49.9186 51.2538 48.0522C52.0077 47.0281 52.6702 46.0707 53.4957 45.0474C54.2533 44.1087 55.221 42.7512 56.1726 43.1264C57.0841 43.4863 57.3611 45.8383 57.3763 46.7824C57.4023 48.3237 57.3091 49.8084 56.9005 51.0656C56.7706 51.4582 56.6088 51.8394 56.4169 52.2055C55.5788 53.727 53.4102 55.2103 52.3238 56.5852C51.5178 57.6096 51.076 58.5305 50.1623 59.4003C49.6921 59.848 48.3129 60.948 47.6831 61.0312C47.6146 61.0394 47.5458 61.0432 47.4769 61.0427C47.3497 61.0448 47.2227 61.0324 47.0982 61.0058ZM199.504 59.7911C198.618 58.2165 198.454 56.8818 197.332 55.3371C196.713 54.5196 195.992 53.7858 195.186 53.1541C194.479 52.5984 192.986 51.7774 193.144 50.2086C193.222 49.4485 193.876 48.8636 194.44 48.364C195.036 47.837 195.609 47.303 196.094 46.9188C197.365 45.9124 199.304 44.3112 201.015 44.8551C202.242 45.2449 203.244 47.042 204.251 48.5078C205.303 50.0154 205.964 51.7627 206.174 53.5916C206.433 56.021 205.174 57.2357 203.908 58.5051C203.55 58.8629 203.118 59.2753 202.652 59.6597C202.112 60.1056 201.689 60.5165 200.91 60.627C200.899 60.6283 200.833 60.6944 200.775 60.7012C200.716 60.7082 200.656 60.7119 200.596 60.712C199.813 60.7131 199.649 60.0477 199.504 59.7911ZM1.49183 47.5497C0.89156 46.8702 0.182461 46.1184 -0.128536 45.5905C-1.0792 43.974 0.696545 43.4971 1.88365 43.0393C2.76334 42.6997 3.88752 42.1589 4.58496 42.4828C5.60616 42.9579 5.61981 45.2184 5.45055 46.2619C5.27546 47.3468 5.13128 48.6013 3.84341 49.1068C3.7108 49.1614 3.56916 49.1906 3.42585 49.1927C2.74452 49.1921 2.28286 48.4432 1.49183 47.5497ZM127.011 37.8372C126.796 37.5898 126.646 37.1925 126.355 36.9003C125.98 36.524 125.015 36.1544 124.727 35.6598C124.003 34.4169 124.408 32.7764 124.968 31.5174C125.317 30.7332 125.94 29.7974 126.882 29.7178C127.603 29.6965 128.322 29.7827 129.018 29.9733C129.622 30.116 130.277 30.3107 130.892 30.5157C131.928 30.8625 133.482 31.5853 133.72 32.6011C134.047 33.9998 132.754 35.5612 132.09 36.3191C131.381 37.1275 129.892 38.3962 128.547 38.5314C128.494 38.5368 128.441 38.5395 128.388 38.5395C128.122 38.5298 127.861 38.4619 127.623 38.3407C127.385 38.2194 127.176 38.0476 127.011 37.8372ZM174.177 21.1687C173.778 20.1339 172.356 19.2755 172.243 17.5299C172.176 16.4727 172.573 15.6155 173.023 14.8124C173.312 14.2986 173.561 13.7551 174.074 13.6672C174.991 13.5097 175.509 14.3495 175.906 14.8992C176.763 16.0838 178.307 17.8312 177.965 19.9097C177.73 21.1012 177.238 22.2265 176.523 23.2058C176.309 23.4713 175.958 23.6436 175.73 23.9256C175.697 23.9277 175.666 23.9288 175.635 23.9288C174.39 23.9286 174.582 22.2163 174.177 21.1676V21.1687ZM239.783 17.2285C238.929 15.8667 239.826 13.4091 241.115 12.9727C241.495 12.8448 241.937 12.9095 242.414 12.8504C243.076 12.7683 243.854 12.4433 244.522 12.4178C245.315 12.3891 246.284 12.6736 246.478 13.3012C246.718 14.0771 246.197 15.1359 245.755 15.7412C245.097 16.6461 243.485 17.9641 242.361 18.2234C242.213 18.2567 242.062 18.2733 241.911 18.2727C241.025 18.2714 240.106 17.7432 239.783 17.2274V17.2285ZM118.321 -8.71613C118.306 -9.13704 118.358 -9.55756 118.475 -9.96205C118.578 -10.3274 118.88 -10.6628 118.844 -11.0101C118.786 -11.5624 117.895 -12.2865 117.538 -12.7463C117.078 -13.3372 116.435 -13.9047 116.366 -14.5568C116.262 -15.5484 117.244 -16.6063 117.774 -17.0258C118.575 -17.6613 119.826 -18.205 120.851 -18.8745C121.218 -19.1147 121.642 -19.4521 122.317 -19.8993C122.776 -20.2036 123.418 -20.7042 123.934 -20.5865C124.73 -20.4043 124.848 -18.5667 124.966 -17.1867C125.222 -14.1661 125.224 -11.6892 124.603 -9.32166C124.215 -7.83813 123.673 -6.43063 122.267 -6.12584C122.038 -6.07649 121.804 -6.05177 121.57 -6.05208C119.98 -6.05231 118.44 -7.17049 118.321 -8.717V-8.71613ZM188.118 -14.6396C187.691 -14.823 187.075 -15.2202 186.954 -15.6029C186.681 -16.4621 187.417 -17.5079 187.982 -18.2174C188.564 -18.948 189.233 -19.698 189.831 -20.0739C190.413 -20.4307 191.07 -20.6432 191.75 -20.6938C192.928 -20.7768 194.306 -20.3011 195.038 -19.5241C195.53 -19.0011 196.279 -17.6073 195.929 -16.7033C195.688 -16.0831 194.23 -15.7823 193.394 -15.466C192.101 -14.9741 191.017 -14.2905 189.722 -14.2907C189.169 -14.2954 188.623 -14.4144 188.118 -14.6405V-14.6396ZM-44.3578 -14.8727C-45.3808 -14.9334 -47.1776 -15.1613 -47.028 -16.6155C-46.974 -17.1395 -45.8684 -18.3832 -45.1575 -18.7905C-44.858 -18.9524 -44.5146 -19.0132 -44.1781 -18.9639C-43.8416 -18.9146 -43.5297 -18.7578 -43.2887 -18.5168C-42.7762 -18.0466 -41.5597 -16.6758 -41.587 -16.0097C-41.6025 -15.6325 -41.9189 -15.3532 -42.1719 -15.1977C-42.6272 -14.9417 -43.145 -14.8197 -43.6661 -14.8457C-43.8961 -14.8477 -44.1278 -14.86 -44.3578 -14.8735V-14.8727ZM149.672 -19.2971C149.506 -19.782 149.462 -20.3004 149.542 -20.8068C149.801 -22.1517 150.703 -23.8075 151.679 -23.8559C152.796 -23.9121 154.136 -22.313 154.059 -20.9944C154.002 -20.0129 152.36 -18.1715 151.167 -17.9819C151.071 -17.9661 150.973 -17.9578 150.876 -17.9571C150.175 -17.9582 149.897 -18.4495 149.672 -19.298V-19.2971ZM56.6036 -21.5437C55.4237 -21.7067 53.8071 -22.0102 52.7935 -22.7377C51.3178 -23.795 51.4672 -25.3351 51.4887 -26.5202C51.4992 -27.1167 51.4851 -27.7891 51.5269 -28.4754C51.6064 -29.8046 51.5086 -32.847 53.6572 -32.4326C55.1669 -32.1402 56.2638 -30.7231 57.8138 -29.2384C58.9165 -28.1812 60.1647 -26.9991 60.7916 -25.989C61.582 -24.7181 62.1437 -22.376 60.7885 -21.8739C60.3183 -21.5252 60.008 -21.6489 59.5347 -21.5841C58.9852 -21.5023 58.4306 -21.4586 57.8751 -21.4535C57.4497 -21.4544 57.0249 -21.4848 56.6036 -21.5445V-21.5437ZM-10.4507 -36.3791C-11.4927 -36.3849 -13.0526 -36.7053 -13.3959 -37.6177C-13.7057 -38.4387 -13.0152 -39.8741 -12.6427 -40.5757C-11.777 -42.2277 -10.7925 -43.8141 -9.69684 -45.3221C-9.21703 -45.9591 -8.53727 -47.1986 -7.70974 -47.3171C-7.12627 -47.4008 -6.47695 -46.7547 -6.27119 -46.3541C-5.80929 -45.4518 -5.73384 -43.6984 -5.65503 -42.0201C-5.56995 -40.2169 -5.57351 -38.23 -6.68247 -37.3412C-7.39894 -36.7674 -9.00231 -36.378 -10.4059 -36.378L-10.4507 -36.3791ZM-49.8408 -48.3501C-49.7439 -49.3279 -48.0273 -51.1 -46.8272 -51.2393C-45.9027 -51.347 -45.6015 -50.8312 -45.3882 -49.8633C-45.2426 -49.3722 -45.2191 -48.8527 -45.3196 -48.3503C-45.6344 -47.0166 -46.6032 -45.4001 -47.581 -45.392H-47.5904C-48.7063 -45.3925 -49.9722 -47.0405 -49.841 -48.351L-49.8408 -48.3501ZM240.388 -62.8667C239.656 -64.3865 239.226 -65.9935 238.745 -67.2701C238.184 -68.6813 237.543 -70.0593 236.827 -71.3976C236.171 -72.6821 234.976 -74.3496 235.114 -76.4198C235.301 -79.239 238.08 -82.0923 241.005 -82.5431C242.034 -82.7005 243.628 -82.3138 244.294 -81.9235C244.91 -81.5614 245.682 -80.3676 246.348 -79.5841C247.057 -78.7518 247.8 -78.2632 248.404 -77.3142C248.969 -76.4249 249.289 -75.3616 249.705 -74.218C250.142 -73.0182 250.705 -71.7623 250.528 -70.3656C250.388 -69.2634 249.727 -68.2603 249.088 -67.2699C247.831 -65.3189 246.824 -63.8982 245.596 -61.7657C245.133 -60.9637 244.369 -59.6511 243.266 -59.6331H243.24C241.857 -59.6345 241.009 -61.581 240.388 -62.8677V-62.8667ZM161.812 -81.4422C160.739 -83.7391 159.991 -85.1313 159.003 -87.5652C158.582 -88.6013 157.832 -90.1635 158.112 -91.4176C158.378 -92.6006 159.433 -93.6396 160.305 -94.5138C161.357 -95.571 162.227 -96.3192 163.319 -96.9207C163.853 -97.1007 164.571 -96.1541 165.032 -95.5445C165.432 -94.99 165.867 -94.4616 166.333 -93.9624C167.771 -92.4886 169.96 -90.1055 169.142 -86.8766C168.716 -85.1949 167.618 -84.0803 166.676 -82.6798C166.301 -82.1217 165.819 -81.3731 165.375 -80.6159C164.944 -79.8848 164.527 -78.9243 163.798 -78.8958C163.783 -78.8958 163.768 -78.8958 163.753 -78.8958C162.631 -78.8964 162.222 -80.5626 161.812 -81.443V-81.4422ZM22.8141 -84.7538C21.506 -85.3135 20.2359 -85.9586 19.0118 -86.6852C17.353 -87.6345 15.7398 -88.6364 14.7197 -90.2771C13.8651 -91.652 13.6157 -93.2888 13.1576 -95.3835C12.9349 -96.3212 12.7736 -97.2725 12.6749 -98.2315C12.6301 -98.7291 12.455 -100.126 13.1161 -100.541C14.0095 -101.1 16.1663 -100.011 17.2426 -99.5721C21.0343 -98.0241 25.6835 -96.1647 27.404 -92.5179C28.5698 -90.0471 27.4507 -87.9478 26.6608 -86.2492C26.2155 -85.2912 25.6186 -84.3372 24.6297 -84.2963C24.595 -84.2949 24.5607 -84.2943 24.5266 -84.2943C23.9261 -84.2954 23.4184 -84.5082 22.8141 -84.7547V-84.7538ZM72.1088 -116.249C71.1066 -117.351 69.3387 -119.42 69.9484 -120.232C70.3308 -120.741 71.254 -120.602 71.8652 -120.344C73.3812 -119.706 75.1565 -117.715 75.0593 -116.04C75.032 -115.58 74.736 -114.966 74.3746 -114.799C74.2627 -114.746 74.1404 -114.718 74.0164 -114.717C73.3781 -114.718 72.8031 -115.486 72.1088 -116.249V-116.249ZM-3.32581 -120.381C-3.89249 -121.594 -2.92276 -122.554 -2.22868 -123.202C-1.74662 -123.654 -1.10249 -124.134 -0.515873 -124.234C1.97924 -124.659 2.19955 -119.312 0.100063 -118.868C-0.0337334 -118.84 -0.169979 -118.827 -0.306515 -118.828C-1.48579 -118.829 -3.01146 -119.71 -3.32581 -120.382V-120.381ZM-37.5105 -137.374C-38.7377 -138.424 -40.1149 -140.016 -39.8554 -142.077H-31.1626C-30.9952 -141.63 -30.9173 -141.154 -30.9335 -140.677C-30.9644 -139.445 -31.6912 -136.941 -32.3038 -136.273C-32.4951 -136.062 -32.7296 -135.894 -32.9914 -135.781C-33.2531 -135.668 -33.536 -135.614 -33.8207 -135.621C-35.1764 -135.623 -36.7182 -136.698 -37.5103 -137.376L-37.5105 -137.374ZM213.808 -137.787C212.768 -138.26 211.378 -138.834 211.273 -140.127C211.223 -140.744 211.496 -141.429 211.884 -142.077H224.158C223.955 -141.93 223.77 -141.76 223.605 -141.572C222.962 -140.808 222.721 -139.809 222.029 -139.576C221.313 -139.335 220.144 -139.608 219.495 -139.92C218.78 -140.264 217.95 -141.566 216.96 -141.434C216.25 -141.339 215.948 -140.316 215.795 -139.645C215.59 -138.753 215.677 -137.755 215.042 -137.513C214.951 -137.477 214.854 -137.459 214.757 -137.459C214.472 -137.459 214.193 -137.613 213.809 -137.788L213.808 -137.787Z" fill="#A8CCBA"/>
<path id="SHAPE_4" d="M238.265 175.547C238.571 175.193 238.941 174.81 239.231 174.539C240.244 173.637 241.32 172.809 242.45 172.061C243.3 171.471 243.831 170.973 244.779 170.617C244.766 170.558 244.805 170.552 244.848 170.548C246.004 170.486 246.435 171.665 246.902 172.474C247.241 173.058 247.631 173.611 248.067 174.126C248.433 174.573 248.764 175.048 249.058 175.547H238.265ZM62.8604 175.547C62.6589 175.329 62.5194 175.061 62.4564 174.771C62.3933 174.481 62.4091 174.179 62.5021 173.897C62.8288 172.83 64.5606 171.525 64.3177 170.538C64.0194 169.327 61.7531 167.872 61.6121 166.636C61.5485 166.078 62.0785 165.39 62.7157 165.151C63.1664 165.015 63.6376 164.961 64.1072 164.992H64.2474C66.2322 164.99 69.166 165.338 69.8025 168.306C69.9006 168.764 69.6906 169.336 69.8645 169.833C69.9689 170.131 70.2539 170.466 70.3923 170.728C71.3651 172.594 71.4929 173.841 70.8009 175.482C70.7917 175.504 70.783 175.524 70.7738 175.546L62.8604 175.547ZM147.793 168.69C146.61 167.037 145.747 163.978 146.423 161.329C148.878 160.532 149.985 163.019 150.738 164.905C151.462 166.72 151.768 169.017 150.122 170.135C150.014 170.15 149.905 170.157 149.796 170.157C148.8 170.159 148.333 169.445 147.793 168.69V168.69ZM-39.3674 159.403C-39.4075 158.855 -38.6525 157.777 -38.2031 157.201C-37.726 156.586 -37.1991 156.01 -36.6278 155.482C-36.356 155.237 -35.9232 154.87 -35.6001 154.794C-35.4477 154.738 -35.2824 154.728 -35.1243 154.764C-34.9663 154.801 -34.8222 154.883 -34.7097 155C-34.2425 155.43 -33.95 156.018 -33.8884 156.652C-33.6394 158.53 -34.4482 160.76 -36.491 160.779H-36.5378C-37.5662 160.779 -39.2895 160.477 -39.3674 159.402V159.403ZM15.5914 157.384C15.171 157.17 14.7988 156.871 14.4984 156.507C14.1979 156.142 13.9755 155.719 13.845 155.264C13.4337 153.689 14.3735 150.771 15.2831 149.753C15.8944 149.068 16.4682 148.934 16.9794 149.025C17.143 149.052 17.3016 149.104 17.4496 149.179C19.5227 150.201 18.9497 152.669 18.67 154.079C18.5225 154.823 18.493 155.564 18.1705 156.223C17.9524 156.672 17.6203 157.055 17.2078 157.333C16.9462 157.485 16.6502 157.565 16.3485 157.568C16.0854 157.567 15.8261 157.504 15.5919 157.384H15.5914ZM67.978 150.433C66.9841 150.291 64.9914 149.948 64.3345 148.672C63.8576 147.744 64.5702 146.181 65.134 145.241C65.4681 144.683 65.8404 144.108 66.2069 143.606C66.6117 143.007 67.1031 142.471 67.6648 142.017C68.4323 141.464 69.5106 141.768 70.2844 142.137C71.5239 142.728 72.8936 143.711 73.1467 145.128C73.2485 145.691 72.7548 146.6 72.713 147.134C72.6803 147.544 72.8238 147.944 72.8209 148.273C72.835 148.568 72.7768 148.862 72.6515 149.128C72.5261 149.395 72.3374 149.627 72.1019 149.803C71.3279 150.343 70.1433 150.511 69.1373 150.511C68.7495 150.512 68.3621 150.486 67.978 150.432V150.433ZM208.067 149.221C207.395 149.059 207.019 148.06 207.108 146.951C207.204 145.759 208.304 143.638 209.162 143.373C209.775 143.185 210.487 143.565 211.012 143.993C211.504 144.393 212.758 145.6 212.245 146.676C211.968 147.256 211.004 147.75 210.396 148.189C209.816 148.607 209.144 149.258 208.378 149.258C208.273 149.258 208.169 149.245 208.067 149.221V149.221ZM177.519 129.82C177.429 129.768 177.192 129.779 177.108 129.682C176.685 129.199 175.572 128.644 175.533 127.825C175.5 127.145 175.934 126.321 176.354 125.554C176.688 124.945 177.205 123.943 177.656 123.766C177.963 123.644 178.397 123.749 178.683 123.766C179.22 124.427 179.596 125.205 179.78 126.038C180.011 126.962 180.242 128.059 180.19 128.996C180.137 129.963 179.653 130.315 179.034 130.315C178.495 130.28 177.974 130.11 177.519 129.819V129.82ZM243.118 118.639C243.065 118.626 242.984 118.643 242.978 118.576C241.611 117.93 240.346 117.086 239.225 116.069C238.415 115.312 236.707 113.737 236.777 112.122C236.824 111.008 237.978 110.426 238.888 110.368C241.889 110.176 245.089 112.691 245.18 115.854C245.219 117.196 244.311 118.645 243.237 118.645C243.198 118.644 243.158 118.642 243.118 118.638V118.639ZM106.917 109.081C106.865 108.647 107.068 108.355 107.285 108.034C106.873 107.616 106.475 107.587 106.345 106.833C106.285 106.262 106.261 105.688 106.273 105.115C106.259 104.149 106.602 103.221 107.218 103.078C108.024 102.892 108.854 103.594 109.308 103.888C110.288 104.522 111.608 105.245 111.154 107.116C111.03 107.632 110.295 108.755 109.874 109.305C109.56 109.713 109.183 110.32 108.616 110.389C108.582 110.393 108.548 110.395 108.514 110.395C107.838 110.393 106.987 109.648 106.917 109.081V109.081ZM0.975601 93.849C0.861099 93.7337 0.760445 93.6053 0.675613 93.4665C0.269684 92.6846 0.239876 91.5082 0.257114 90.4118C0.23716 90.153 0.230747 89.8933 0.237873 89.6338C0.343849 88.7845 0.655659 87.9744 1.14598 87.2745C2.09285 86.0337 3.42507 85.3764 4.47269 84.7551C6.19022 83.7345 7.89832 82.9233 9.73047 81.9909C10.7528 81.4702 11.8089 80.9008 12.4313 81.5314C12.9886 82.0951 12.5196 83.349 12.2115 84.2622C11.5232 86.2993 10.7076 87.9484 10.4152 89.7592C10.288 90.5465 10.2461 91.7941 9.6136 92.5049C9.1658 93.0083 8.5136 93.2429 7.79623 93.4287C7.08782 93.6123 6.59635 93.6987 5.91928 93.9158C4.95966 94.2217 3.83928 94.5947 2.84025 94.5947C2.12086 94.5938 1.46397 94.4001 0.975872 93.8483L0.975601 93.849ZM56.0247 91.0403C55.1345 90.3304 54.8544 88.7504 54.832 87.9572C54.8154 87.3949 54.9216 85.7734 55.5277 85.395C56.0066 85.0952 56.9593 85.5 57.6749 85.7999C58.2971 86.0615 59.3299 86.5733 59.7058 87.171C60.1409 87.8625 59.7361 88.7355 59.9761 89.4088C60.1355 89.8587 60.562 90.1493 60.6072 90.6602C60.6112 90.8683 60.5561 91.0731 60.4485 91.251C60.341 91.4289 60.1853 91.5724 59.9996 91.6648C59.952 91.6852 59.9007 91.6958 59.8489 91.6958C59.5123 91.7727 59.1679 91.8093 58.8228 91.8049C57.832 91.8049 56.6716 91.555 56.025 91.0397L56.0247 91.0403ZM-57.8072 76.7018C-59.3949 75.9068 -60.1037 74.8766 -60.5717 72.8226C-60.6373 72.5326 -60.6371 72.0917 -60.7508 71.7977C-60.7669 71.757 -60.7877 71.719 -60.8074 71.6805V65.6189C-60.438 65.2015 -60.0391 64.8116 -59.6136 64.4521C-59.205 64.1009 -58.8192 63.7458 -58.3475 63.5726C-57.7087 63.3382 -56.8606 63.5143 -56.548 63.9799C-55.8555 65.0125 -56.6365 67.5955 -56.0794 68.7117C-55.6258 69.6193 -53.4641 69.4817 -52.5268 70.0789C-51.0003 71.0505 -52.0154 73.1204 -52.6934 74.3547C-53.3319 75.5172 -53.8502 76.8354 -55.5257 77.158C-55.7248 77.1977 -55.9272 77.2183 -56.1302 77.2196C-56.7439 77.2194 -57.2025 77.0034 -57.8072 76.7011V76.7018ZM254.374 70.5967C253.306 68.6127 254.139 66.8993 255.257 65.6189V71.6805C255.035 71.2585 254.576 70.9744 254.373 70.596L254.374 70.5967ZM147.075 69.2115C146.398 67.7775 146.776 65.5491 147.205 64.0416C147.499 63.0831 147.733 62.1073 147.907 61.1197C148.23 59.1344 148.422 56.1979 150.025 55.9374C150.806 55.8096 151.705 56.5018 152.189 56.88C152.82 57.3748 153.134 57.8195 153.759 58.3988C154.211 58.8158 154.826 59.3062 155.395 59.845C155.888 60.3113 156.546 60.9247 156.638 61.7217C156.755 62.7234 156.155 63.8344 155.668 64.7917C154.666 66.7567 153.66 67.9169 152.153 69.344C151.446 70.0139 150.668 70.7837 149.896 71.1593C149.871 71.1675 149.843 71.1694 149.817 71.1649C149.798 71.1625 149.779 71.1625 149.76 71.1649C149.704 71.1754 149.646 71.1806 149.589 71.1805C148.623 71.1794 147.35 69.7921 147.075 69.2108L147.075 69.2115ZM77.332 60.5317C76.8653 59.8868 76.453 59.227 76.5629 58.4984C76.6599 57.853 77.2894 57.4052 77.7374 57.0723C78.2645 56.6811 79.0432 56.363 79.3318 55.8351C79.6556 55.2473 79.5882 53.9588 79.4872 52.9371C79.3735 51.7959 79.1514 50.5387 79.8556 50.2359C80.5933 49.921 81.7222 50.7556 82.2223 51.1015C83.2001 51.7795 84.1848 52.525 84.3877 53.7663C84.6788 55.5399 83.647 57.3836 82.9377 58.5086C82.5181 59.1758 82.0766 59.7327 81.6434 60.3531C81.1761 61.0217 80.7675 61.8884 80.0687 62.0706C79.8906 62.1187 79.7072 62.1438 79.5228 62.1451C78.5195 62.1444 77.9083 61.3291 77.332 60.5317ZM183.678 52.1849C182.504 51.9844 181.855 50.1917 181.678 48.5495C181.364 45.668 181.724 41.7318 183.311 41.5962C184.523 41.4932 186.025 43.8432 186.327 44.9142C186.765 46.4744 186.237 48.2278 185.694 49.5541C185.274 50.5826 184.629 51.97 183.812 52.1106C183.789 52.1147 183.759 52.1862 183.694 52.1862C183.689 52.1862 183.683 52.1856 183.678 52.1846L183.678 52.1849ZM80.7095 30.3273C80.1461 29.6896 79.7391 28.9282 79.5212 28.1041C79.2526 27.1904 78.9767 26.1048 78.989 25.1659C79.0114 23.4563 80.4569 23.6095 81.6245 24.2308C81.7164 24.2798 81.9523 24.258 82.0399 24.3511C82.4825 24.8161 83.6177 25.3234 83.6907 26.142C83.7502 26.8195 83.351 27.6603 82.9628 28.444C82.654 29.0662 82.1792 30.0886 81.7363 30.2852C81.595 30.3402 81.444 30.3656 81.2925 30.3599C81.0841 30.3592 80.8723 30.33 80.7093 30.3268L80.7095 30.3273ZM-19.3586 18.9358C-20.0889 18.7479 -20.7846 18.6119 -21.5358 18.3795C-22.8019 17.9888 -24.7794 17.2604 -25.7056 15.7222C-26.3549 14.6461 -26.0885 13.4376 -25.784 12.283C-25.6272 11.6932 -25.3093 10.3219 -24.5458 10.0807C-23.8155 9.8504 -23.1704 10.9513 -22.5173 11.8922C-21.9334 12.7351 -21.1515 13.7577 -20.5246 13.9939C-19.9635 14.206 -19.1667 13.9399 -18.5131 13.8931C-17.9568 13.8531 -17.1881 13.7822 -16.6975 14.2096C-16.1425 14.6917 -16.029 15.4622 -15.9659 16.2567C-15.8763 17.4055 -15.8042 18.6049 -17.0499 19.2138C-17.2273 19.2964 -17.4212 19.3371 -17.6166 19.3328C-18.1623 19.333 -18.7827 19.0838 -19.3586 18.9358ZM202.78 16.3687C202.419 15.7986 202.007 15.2625 201.549 14.7671C200.583 13.6682 199.086 11.6705 199.834 9.74266C200.216 8.75717 201.34 7.65065 202.116 6.89415C204.329 4.73219 206.699 3.1461 208.71 0.560349C209.115 0.0398102 209.667 -0.58931 210.103 -0.598984C210.804 -0.61496 211.11 0.407394 211.336 1.07076C212.326 3.99979 213.364 9.76695 211.667 12.4189C211.276 12.978 210.839 13.5029 210.36 13.9877C209.385 14.9304 208.344 15.802 207.246 16.5957C206.421 17.2219 205.911 17.7429 204.978 18.1365C204.993 18.1943 204.954 18.2022 204.913 18.2079C204.861 18.2128 204.811 18.2151 204.763 18.2151C203.718 18.2148 203.258 17.1227 202.78 16.3685L202.78 16.3687ZM230.793 5.75865C230.247 5.03096 229.539 3.28714 230.101 2.27556C230.314 1.98473 230.621 1.77721 230.969 1.68848C232.113 1.54137 233.434 3.19133 233.611 4.26433C233.817 5.52402 233.389 6.67865 232.415 6.86131C232.359 6.87201 232.302 6.87743 232.245 6.87752C231.672 6.87729 231.215 6.3217 230.793 5.75865H230.793ZM-32.9295 -22.7434C-33.3717 -23.0808 -33.8085 -23.3751 -34.1623 -23.7066C-34.6862 -24.1997 -35.3603 -24.8853 -35.2593 -25.8393C-35.1736 -26.6361 -34.5686 -26.9528 -33.8898 -27.284C-33.9019 -27.3427 -33.8622 -27.3492 -33.8212 -27.3528C-32.024 -27.5064 -30.9106 -26.848 -30.0537 -25.908C-29.5285 -25.3319 -28.4609 -22.8745 -29.1635 -21.7808C-29.3005 -21.5665 -29.6055 -21.5374 -29.7112 -21.2986C-29.8393 -21.2741 -29.9694 -21.2618 -30.0999 -21.2617C-31.1152 -21.2615 -31.9781 -22.0166 -32.9295 -22.7434ZM171.834 -27.0098C171.64 -27.105 171.456 -27.2202 171.286 -27.3534C170.32 -28.0002 169.333 -28.7448 168.341 -29.4864C167.848 -29.8549 167.337 -30.2807 166.834 -30.381C166.481 -30.4427 166.121 -30.4603 165.763 -30.4334C165.164 -30.4096 164.65 -30.3857 164.094 -30.931C163.979 -31.8544 164.295 -32.6478 164.573 -33.3379C165.129 -34.6795 165.841 -35.9498 166.696 -37.1217C167.416 -38.1135 168.485 -38.9702 169.916 -38.224C170.905 -37.7066 172.037 -36.3698 172.929 -35.4032C174.014 -34.2278 174.717 -32.7086 174.505 -30.0366C174.441 -29.477 174.326 -28.9244 174.162 -28.3857C173.919 -27.5161 173.491 -26.8244 172.66 -26.8244C172.375 -26.8321 172.095 -26.8947 171.834 -27.009V-27.0098ZM31.5278 -30.2312C31.2718 -30.4671 31.0732 -30.7592 30.9477 -31.0847C30.5975 -31.9716 30.6566 -32.7517 30.5852 -33.7738C30.5275 -34.6147 30.4236 -35.3035 30.9125 -35.6942C31.8453 -36.4397 34.4614 -35.3676 35.2441 -34.3895C35.8464 -33.6348 35.7264 -33.0716 35.7293 -32.3219C35.7331 -31.2846 35.7922 -30.6919 34.8874 -30.1695C34.3646 -29.883 33.7773 -29.7363 33.1818 -29.7433C32.506 -29.7424 31.8798 -29.9217 31.5278 -30.2305V-30.2312ZM92.9784 -36.5052C92.6457 -36.9101 91.717 -37.3777 91.6189 -37.8949C91.4702 -38.6806 92.7005 -39.3148 93.1159 -39.8159C93.3295 -40.0705 93.5032 -40.3564 93.6309 -40.6638C93.9174 -41.4769 93.6691 -42.8482 94.3545 -43.0351C94.7638 -43.1463 95.1334 -42.7366 95.4753 -42.4617C95.8089 -42.1938 96.1405 -41.9831 96.4645 -41.7456C97.2768 -41.1515 98.3063 -40.6691 98.4657 -39.763C98.6448 -38.7454 97.8108 -37.6684 97.3462 -36.9623C97.0551 -36.5209 96.7677 -36.163 96.5015 -35.8252C96.3548 -35.6389 96.2115 -35.5215 96.0425 -35.3249C95.7758 -35.0133 95.4603 -34.4748 94.9158 -34.3828C94.8705 -34.375 94.8247 -34.371 94.7788 -34.3709C94.0009 -34.3702 93.7256 -35.5959 92.9784 -36.5045V-36.5052ZM235.327 -40.1493C233.799 -40.3517 231.988 -43.5568 233.204 -45.6535C233.409 -45.9979 233.722 -46.2641 234.094 -46.4102C234.716 -46.6507 235.3 -46.3385 235.876 -46.0656C236.826 -45.6157 237.235 -44.9092 237.382 -43.5204C237.551 -41.9151 237.087 -40.1306 235.597 -40.1308C235.507 -40.1311 235.417 -40.1374 235.327 -40.1495V-40.1493ZM-59.7101 -52.0512C-60.1114 -52.5043 -60.4714 -52.9735 -60.8072 -53.3948V-59.7383C-60.5282 -60.0708 -60.2439 -60.381 -59.9837 -60.6511C-59.2999 -61.3597 -58.5152 -61.9624 -57.6552 -62.4395C-57.2428 -62.6822 -57.0759 -62.9712 -56.4909 -62.9901C-55.1166 -63.4364 -54.1176 -61.2461 -53.9568 -59.7565C-53.8292 -58.5733 -54.0826 -56.8691 -54.2987 -55.3534C-54.603 -53.2236 -54.5931 -51.4286 -55.6 -50.2624C-55.7272 -50.0934 -55.8906 -49.9551 -56.078 -49.8578C-56.2654 -49.7605 -56.4722 -49.7066 -56.683 -49.7001C-57.8466 -49.7012 -59.0418 -51.2959 -59.7101 -52.0515V-52.0512ZM131.359 -53.5563C130.821 -53.8551 129.923 -54.9708 129.885 -56.0429C129.902 -56.5705 130.02 -57.0899 130.233 -57.5725C130.628 -58.4361 131.617 -59.4378 132.028 -60.6077C132.443 -61.7894 132.487 -63.1206 133.112 -64.2334C133.877 -65.5914 135.038 -67.0648 135.948 -68.6199C136.352 -69.3109 136.645 -69.8735 137.203 -69.774C137.828 -69.6627 137.782 -68.3699 137.849 -67.391C137.925 -66.2809 137.861 -65.4565 137.9 -64.5007C138.004 -61.9729 138.21 -59.8288 137.733 -58.5724C137.438 -57.7993 136.321 -56.4401 135.59 -55.6603C135.179 -55.2212 134.738 -54.8119 134.269 -54.4352C133.751 -54.0211 133.17 -53.5168 132.529 -53.3989C132.416 -53.3798 132.301 -53.3706 132.186 -53.3714C131.899 -53.3643 131.615 -53.4278 131.359 -53.5565V-53.5563ZM255.121 -53.5649C254.376 -54.4834 253.311 -55.6006 253.82 -57.3487C254.06 -58.1724 254.646 -59.0133 255.257 -59.7387V-53.3953C255.211 -53.4519 255.166 -53.5107 255.121 -53.5649ZM208.341 -68.6318C207.042 -69.184 205.92 -69.6665 204.848 -70.4894C203.742 -71.3379 202.791 -72.5094 203.546 -74.4109C204.091 -75.7779 205.263 -76.8628 206.286 -77.8508C207.326 -78.8545 208.392 -79.8566 209.916 -80.3279C209.948 -80.338 209.982 -80.3848 210.054 -80.3953C213.068 -80.8875 212.935 -76.055 212.725 -73.1028C212.596 -71.3019 212.033 -68.3582 210.465 -68.0804C210.383 -68.0663 210.299 -68.0594 210.216 -68.0598C209.597 -68.0607 208.876 -68.4046 208.341 -68.6325V-68.6318ZM42.2447 -73.352C42.0711 -73.3369 41.8963 -73.3416 41.7237 -73.366C40.5466 -73.6434 39.4446 -74.1776 38.4958 -74.9305C36.8909 -76.286 36.9332 -78.6212 36.8181 -80.0818C36.7646 -80.7591 36.615 -81.736 37.4139 -82.2147C37.8595 -82.4822 38.4009 -82.2321 38.9523 -82.0301C39.8139 -81.7136 40.6707 -81.3199 41.3032 -80.4734C42.3475 -79.0744 41.8224 -77.4929 42.1885 -76.4469C42.5691 -75.3593 43.8753 -74.1509 42.793 -73.337C42.6113 -73.363 42.4273 -73.3681 42.2445 -73.352H42.2447ZM81.265 -83.763C80.6486 -83.9767 80.1508 -84.5634 79.7004 -85.0508C79.2937 -85.4939 78.9191 -85.9655 78.5795 -86.4624C77.975 -87.3442 77.073 -88.8567 76.8983 -89.666C76.6158 -90.9802 77.141 -93.0684 77.6237 -95.5518C77.8051 -96.4911 77.8651 -97.3158 78.1071 -98.4012C78.3205 -99.3592 78.4694 -100.644 79.1041 -100.659C79.6706 -100.673 79.8759 -100.072 80.1714 -99.3282C80.8362 -97.653 81.7647 -96.0201 82.3153 -94.5618C82.7678 -93.3667 82.6106 -92.0444 82.8437 -90.8137C83.0745 -89.5947 83.9011 -88.4543 84.1624 -87.541C84.3 -87.0318 84.3387 -86.5007 84.2764 -85.9767C84.0785 -84.9219 83.0226 -83.9545 82.4469 -83.7412C82.2815 -83.6833 82.1072 -83.6551 81.932 -83.6577C81.7056 -83.6583 81.4806 -83.6938 81.265 -83.763ZM-46.4226 -91.954C-47.0424 -92.0908 -46.943 -93.3806 -46.9708 -94.3609C-47.0019 -95.4728 -46.9025 -96.2932 -46.9018 -97.2503C-46.9018 -99.7808 -47.0198 -101.931 -46.4914 -103.166C-46.1661 -103.927 -44.9931 -105.238 -44.23 -105.987C-43.8015 -106.409 -43.3438 -106.8 -42.8602 -107.157C-42.3258 -107.549 -41.7255 -108.028 -41.0798 -108.12C-40.6799 -108.172 -40.2736 -108.1 -39.9155 -107.913C-39.3916 -107.593 -38.5397 -106.441 -38.5457 -105.368C-38.5846 -104.842 -38.7242 -104.328 -38.957 -103.854C-39.3871 -103.008 -40.4164 -102.048 -40.8752 -100.896C-41.3382 -99.7326 -41.4362 -98.4046 -42.1077 -97.3194C-42.9269 -95.9938 -44.1492 -94.5701 -45.1214 -93.0542C-45.5127 -92.4441 -45.8088 -91.9362 -46.2716 -91.9362C-46.3224 -91.9366 -46.3731 -91.9426 -46.4226 -91.954ZM210.396 -104.544C210.062 -104.88 209.729 -105.779 209.711 -106.402C209.677 -107.563 210.484 -109.576 211.491 -109.773C212.858 -110.04 214.152 -108.136 214.779 -107.09C215.165 -106.446 215.46 -105.909 215.327 -105.37C215.201 -104.86 214.292 -104.566 213.751 -104.407C213.126 -104.211 212.478 -104.101 211.823 -104.081C211.252 -104.081 210.734 -104.204 210.396 -104.544ZM-14.1625 -109.497C-14.8942 -110.103 -16.1064 -114.613 -14.1625 -114.795C-13.7434 -114.834 -13.5253 -114.6 -13.1355 -113.969C-12.508 -113.016 -12.2407 -111.869 -12.3819 -110.735C-12.4277 -110.206 -12.6728 -109.714 -13.0671 -109.36C-13.1917 -109.275 -13.3397 -109.231 -13.4904 -109.235C-13.7382 -109.24 -13.9761 -109.333 -14.1625 -109.497ZM119.39 -115.861C119.02 -116.362 118.729 -117.276 118.785 -117.747C118.906 -118.755 120.248 -119.498 121.339 -119.938C121.862 -120.149 122.757 -120.481 123.17 -120.159C123.607 -119.818 123.704 -119.212 123.797 -118.467C123.948 -117.256 124.102 -114.955 122.863 -114.316C122.699 -114.237 122.518 -114.198 122.336 -114.202C121.359 -114.202 119.963 -115.083 119.39 -115.861ZM12.1387 -118.579C10.7969 -118.815 8.26419 -120.525 7.61847 -122.019C7.44106 -122.458 7.35561 -122.929 7.36752 -123.402C7.37942 -123.876 7.48839 -124.342 7.68762 -124.771C7.80576 -125.029 7.98715 -125.253 8.21473 -125.421C8.44231 -125.589 8.70866 -125.697 8.98891 -125.734C9.48385 -125.77 9.97964 -125.676 10.4266 -125.459C11.0864 -125.14 11.5656 -124.576 12.1387 -124.083C13.2271 -123.147 15.1945 -121.563 14.1937 -119.473C14.1249 -119.322 14.0323 -119.183 13.9196 -119.06C13.7616 -118.883 13.5662 -118.744 13.3476 -118.652C13.129 -118.56 12.8928 -118.519 12.6562 -118.531C12.4826 -118.532 12.3095 -118.548 12.1387 -118.579V-118.579ZM169.643 -121.4C168.993 -122.46 169.879 -125.009 169.368 -126.146C168.952 -127.073 166.788 -127.024 165.876 -127.66C164.39 -128.693 165.49 -130.719 166.217 -131.925C166.904 -133.061 167.476 -134.356 169.163 -134.609C170.126 -134.753 170.655 -134.483 171.424 -134.058C172.978 -133.198 173.644 -132.139 174.027 -130.068C174.081 -129.775 174.062 -129.335 174.163 -129.036C174.332 -128.539 174.85 -128.218 175.054 -127.798C176.379 -125.069 174.288 -122.974 172.725 -121.744C172.302 -121.411 171.902 -121.072 171.424 -120.918C171.251 -120.864 171.072 -120.837 170.892 -120.838C170.375 -120.838 169.859 -121.045 169.642 -121.4H169.643ZM238.888 -128.349C238.186 -128.362 237.921 -129.396 237.724 -130.068C236.855 -133.036 236.056 -138.841 237.861 -141.42C237.964 -141.567 238.107 -141.742 238.264 -141.925H249.056C249.681 -140.841 250.12 -139.513 249.571 -138.255C249.148 -137.286 247.982 -136.229 247.174 -135.503C244.874 -133.436 242.441 -131.949 240.324 -129.449C239.902 -128.95 239.33 -128.347 238.895 -128.347L238.888 -128.349ZM65.3951 -140.435C64.5832 -140.741 63.4696 -141.207 62.8604 -141.926H70.7731C70.4433 -141.151 70.1847 -140.626 69.3612 -140.154C68.9137 -139.888 68.4035 -139.747 67.8835 -139.745C67.0089 -139.745 66.2 -140.131 65.3951 -140.435Z" fill="#D8881E"/>
<path id="SHAPE_5" d="M192.486 175.394C192.424 175.269 192.362 175.141 192.299 175.005C192.073 174.572 191.911 174.109 191.82 173.629C191.697 172.351 192.38 171.4 192.984 170.396C193.506 169.529 194.318 168.151 195.176 167.988C196.201 167.792 197.736 169.618 197.71 171.151C197.698 171.849 197.357 172.355 197.025 172.941C196.582 173.714 196.232 174.537 195.982 175.393L192.486 175.394ZM134.479 175.394C134.587 174.836 134.752 174.291 134.971 173.767C135.23 173.168 136.068 171.614 136.615 171.29C136.786 171.193 136.971 171.123 137.163 171.083C137.187 171.08 137.23 171.013 137.3 171.014C137.886 171.03 138.018 171.671 138.328 172.253C138.848 173.233 139.477 174.188 139.83 175.394L134.479 175.394ZM14.8119 175.394C14.9015 174.272 15.0067 173.078 15.1664 171.74C15.3455 170.228 15.6699 169.288 16.0351 167.729C16.3158 166.53 16.6226 164.453 17.7271 163.767C19.2073 162.848 21.6652 165.084 23.0592 166.908C24.6663 169.01 23.9118 170.496 23.237 172.368C23.0384 172.92 22.8819 173.593 22.6754 174.211C22.5373 174.624 22.342 175.015 22.2093 175.394L14.8119 175.394ZM-60.9581 170.6V164.047C-60.7233 163.866 -60.4701 163.711 -60.2028 163.585C-60.1594 163.565 -60.1462 163.532 -60.0665 163.516C-59.8635 163.473 -59.6526 163.489 -59.4583 163.562C-59.264 163.635 -59.0944 163.762 -58.9694 163.928C-58.6902 164.359 -58.8463 164.851 -58.6951 165.305C-58.4699 165.983 -57.6148 166.418 -57.5309 167.231C-57.459 167.935 -57.9563 168.978 -58.2845 169.571C-58.6618 170.251 -59.1619 171.16 -59.7228 171.223C-59.7451 171.225 -59.7675 171.226 -59.79 171.226C-60.144 171.225 -60.575 170.941 -60.9581 170.6ZM254.218 169.639C253.748 169.001 252.995 167.585 253.259 166.474C253.46 165.626 254.287 164.66 255.107 164.047V170.6C254.78 170.309 254.482 169.987 254.217 169.639L254.218 169.639ZM90.4654 169.267C89.618 169.099 88.7211 168.934 88.1837 168.356C87.3927 167.501 87.6318 165.742 88.3606 165.242C88.8297 164.919 89.7297 164.927 90.3188 165.183C91.2185 165.631 92.0378 166.227 92.743 166.945C93.0974 167.321 93.7133 168.068 93.735 168.436C93.7621 168.861 93.2375 169.358 92.9776 169.471C92.7922 169.541 92.5949 169.573 92.397 169.565C91.7453 169.523 91.0985 169.423 90.4641 169.267L90.4654 169.267ZM227.505 165.443C227.341 164.398 228.49 161.722 228.943 161.177C229.156 160.923 229.333 160.957 229.833 160.971C230.337 161.185 230.493 161.804 230.656 162.554C230.87 163.539 231.641 165.374 230.93 166.337C230.644 166.723 229.904 166.819 229.628 166.819H229.626C228.752 166.819 227.616 166.151 227.505 165.442L227.505 165.443ZM-10.9567 160.764C-11.568 160.243 -11.8624 159.786 -12.4635 159.182C-12.8977 158.745 -13.4915 158.23 -14.0389 157.668C-14.5129 157.182 -15.1441 156.542 -15.2032 155.742C-15.2782 154.736 -14.6336 153.651 -14.106 152.715C-13.0253 150.792 -11.9719 149.675 -10.408 148.311C-9.6738 147.672 -8.86505 146.935 -8.07939 146.592C-8.05323 146.585 -8.02564 146.584 -7.99903 146.589C-7.98022 146.592 -7.96119 146.593 -7.94218 146.592C-6.95524 146.448 -5.60513 148.027 -5.33981 148.656C-4.72208 150.116 -5.1916 152.327 -5.68216 153.815C-6.01495 154.761 -6.28942 155.726 -6.50407 156.706C-6.90709 158.676 -7.22052 161.602 -8.83258 161.796C-8.87977 161.802 -8.92725 161.805 -8.97476 161.805C-9.72325 161.805 -10.519 161.139 -10.9572 160.764H-10.9567ZM94.1291 157.151C93.3316 155.369 92.9297 153.085 94.5299 151.901C95.7483 151.681 96.2868 152.441 96.9162 153.248C98.1669 154.851 99.1552 157.871 98.5882 160.547C98.2713 160.67 97.9351 160.734 97.5955 160.739C95.8202 160.738 94.8368 158.733 94.1286 157.151H94.1291ZM138.205 151.899C137.946 150.616 137.256 148.101 138.212 147.078C138.494 146.777 139.258 146.561 139.901 146.458C141.075 146.271 142.711 145.956 142.939 147.021C143.212 148.286 142.184 149.87 141.649 150.655C141.277 151.204 140.932 151.642 140.611 152.076C140.229 152.595 140 153.185 139.576 153.564C139.491 153.772 139.108 153.705 138.829 153.732C138.451 153.335 138.35 152.625 138.204 151.899H138.205ZM130.597 138.004C130.089 137.625 128.785 136.471 129.254 135.376C129.507 134.784 130.449 134.251 131.04 133.787C131.676 133.285 132.42 132.48 133.324 132.658C134.002 132.793 134.419 133.775 134.374 134.887C134.328 136.081 133.316 138.248 132.469 138.546C132.343 138.59 132.21 138.612 132.076 138.611C131.569 138.611 131.024 138.326 130.596 138.003L130.597 138.004ZM244.354 136.547C244.244 135.352 246.895 133.465 247.916 133.313C249.263 133.113 250.387 134.646 249.697 135.928C249.255 136.75 247.26 137.503 246.066 137.51H246.052C245.429 137.51 244.42 137.264 244.354 136.547H244.354ZM48.273 136.2C47.8463 135.634 47.9314 134.801 47.9493 134.006C47.9634 133.389 47.8277 132.331 48.4494 131.861C49.0974 131.371 50.375 131.996 51.0227 132.367C51.9673 132.907 52.8081 133.524 53.2617 134.449C52.929 135.269 52.6384 136.063 51.7345 136.617C51.2674 136.878 50.7397 137.011 50.205 137.001C49.4579 137.001 48.6962 136.761 48.2723 136.2L48.273 136.2ZM-9.71653 136.025C-11.9622 135.131 -12.5094 131.488 -11.4332 130.378C-10.2331 129.143 -8.64857 130.308 -7.74425 131.754C-7.00539 132.936 -6.89228 133.745 -7.36358 134.69C-7.64816 135.262 -7.91597 135.87 -8.55184 136.067C-8.73769 136.113 -8.92814 136.139 -9.11962 136.142C-9.32434 136.142 -9.52708 136.102 -9.71653 136.024V136.025ZM-48.186 125.594C-49.1201 124.328 -49.9658 122.632 -49.7444 121.044C-49.6573 120.423 -49.1349 119.634 -48.4347 119.545C-47.2738 119.395 -45.823 120.872 -45.0705 121.333C-44.3945 121.749 -42.4784 122.622 -42.2339 123.624C-42.0058 124.567 -42.4865 125.459 -42.8199 126.059C-43.2148 126.77 -43.6915 127.288 -44.0462 127.9C-44.263 127.972 -44.4897 128.008 -44.7179 128.008C-46.0133 128.008 -47.2531 126.856 -48.186 125.594ZM120.24 126.337C119.115 124.841 117.584 123.023 118.21 120.362C119.136 116.435 123.296 113.642 126.682 111.334C127.643 110.679 129.526 109.163 130.515 109.523C131.249 109.789 131.366 111.194 131.427 111.688C131.53 112.647 131.569 113.611 131.546 114.575C131.534 116.719 131.629 118.373 131.08 119.897C130.423 121.715 129.053 123.033 127.628 124.309C126.582 125.276 125.474 126.173 124.311 126.994C123.741 127.382 123.268 127.714 122.632 127.822C122.547 127.837 122.46 127.844 122.374 127.845C121.516 127.844 120.817 127.105 120.24 126.337H120.24ZM203.692 123.051C203.28 122.423 202.962 121.899 203.074 121.356C203.179 120.841 204.075 120.509 204.609 120.328C205.722 119.949 207.223 119.638 207.967 120.326C208.314 120.648 208.684 121.532 208.728 122.154C208.81 123.313 208.087 125.356 207.088 125.596C206.983 125.621 206.876 125.633 206.768 125.633C205.521 125.633 204.309 123.989 203.692 123.051H203.692ZM36.3565 120.909C35.7139 120.67 34.7713 120.307 34.3363 119.441C33.873 118.519 34.763 116.605 35.0079 115.847C35.2807 115.006 35.4282 112.937 36.4069 112.293C36.9975 111.904 37.905 112.162 38.3729 112.579C39.5688 113.64 40.0235 115.481 40.1316 117.053C40.2581 118.891 39.9675 120.89 38.4784 121.508C37.8145 121.274 37.1175 121.192 36.3567 120.909L36.3565 120.909ZM214.32 119.688C213.528 118.381 214.458 116.816 214.151 115.564C213.804 114.15 211.829 113.332 211.332 112.033C210.484 109.815 212.1 108.123 213.113 107.001C214.442 105.527 216.108 104.671 217.619 103.233C218.25 102.633 218.989 101.533 220.086 101.546C221.581 101.565 222.081 103.314 222.54 104.543C223.1 106.037 223.749 107.29 223.814 108.828C223.922 111.462 222.48 114.303 221.225 115.89C219.873 117.6 218.066 119.489 215.929 120.448C215.903 120.456 215.876 120.458 215.85 120.454C215.83 120.452 215.811 120.452 215.792 120.454C215.752 120.46 215.713 120.463 215.673 120.463C215.405 120.44 215.145 120.359 214.912 120.225C214.678 120.091 214.476 119.908 214.321 119.688H214.32ZM-34.3314 114.927C-35.7129 113.385 -35.7996 111.332 -36.0745 109.915C-36.3342 108.419 -36.6786 106.938 -37.1062 105.48C-37.5144 104.178 -38.1637 102.647 -38.5233 100.999C-38.8298 99.593 -39.3649 97.5189 -38.2506 96.6704C-37.3724 96.0014 -35.9648 96.5579 -35.1079 96.9016C-32.83 97.8158 -31.1644 98.3082 -28.9754 99.0611C-27.8642 99.4435 -26.7272 99.8228 -25.9393 100.602C-24.9405 101.59 -24.6102 102.927 -24.2153 104.142C-23.8396 105.299 -23.437 106.333 -23.3347 107.383C-23.2243 108.504 -23.5075 109.351 -23.5532 110.443C-23.5951 111.473 -23.4673 112.889 -23.7292 113.557C-24.0113 114.277 -25.0278 115.57 -25.933 116.085C-26.9697 116.646 -28.1318 116.932 -29.3092 116.915C-31.2305 116.915 -33.1723 116.221 -34.331 114.927H-34.3314ZM149.334 114.107C149.037 113.69 149.173 113.191 149.003 112.744C148.751 112.077 147.878 111.678 147.761 110.868C147.66 110.169 148.113 109.105 148.417 108.499C148.766 107.804 149.229 106.875 149.787 106.79C150.492 106.683 151.621 107.845 151.973 108.284C152.469 108.901 153.278 110.284 153.061 111.406C152.844 112.53 151.549 113.911 150.58 114.4C150.535 114.422 150.524 114.456 150.446 114.475C150.359 114.495 150.271 114.504 150.183 114.504C150.02 114.51 149.858 114.478 149.711 114.409C149.563 114.34 149.434 114.237 149.334 114.107H149.334ZM183.483 111.339C183.156 110.966 182.863 110.563 182.61 110.136C182.063 109.091 181.822 107.412 181.893 106.035C181.985 104.251 183.201 102.079 184.361 101.043C185.765 99.7888 187.744 99.3114 190.073 99.9111C191.484 100.274 192.813 101.118 192.538 103.182C192.29 105.055 190.49 106.927 189.383 108.133C188.105 109.528 186.726 110.984 184.951 112.036C184.848 112.091 184.733 112.121 184.615 112.122C184.182 112.121 183.791 111.716 183.483 111.339H183.483ZM26.1429 106.746C25.4524 106.599 22.9022 105.208 22.3886 104.286C22.0398 103.658 22.523 102.426 23.2108 101.885C23.4293 101.714 24.0688 101.329 24.5307 101.455C25.6826 101.77 26.2052 103.693 26.6431 104.6C26.9758 105.291 27.2347 105.874 26.9703 106.355C26.6508 106.623 26.5148 106.763 26.2909 106.763C26.2412 106.762 26.1917 106.757 26.1432 106.746H26.1429ZM100.528 98.4763C99.4225 98.045 98.1465 97.4066 97.5502 96.4517C96.5134 94.7905 97.9647 93.505 99.6773 92.9348C101.193 92.4306 102.257 92.2374 103.359 93.9652C103.846 94.7718 104.187 95.6592 104.364 96.5858C104.462 97.2211 104.662 98.551 103.926 99.031C103.866 99.0702 103.801 99.0506 103.776 99.0618C103.567 99.1533 103.341 99.1975 103.113 99.1912C102.289 99.1916 101.254 98.7586 100.528 98.476L100.528 98.4763ZM76.395 86.7116C76.1731 86.4169 76.1579 85.4465 76.1843 84.9301C76.2554 83.924 76.4926 82.9369 76.8863 82.0091C77.1686 81.4301 77.8475 80.8358 78.4128 80.775C79.2903 80.6796 80.6106 81.8599 80.5622 83.027C80.5291 83.8167 79.9537 84.5263 79.4179 85.209C78.892 85.8809 78.2216 86.8244 77.6413 87.0048C77.5365 87.0324 77.4283 87.0452 77.32 87.0428C76.9962 87.0423 76.5766 86.9545 76.3953 86.7116H76.395ZM51.1899 73.7677C50.5534 73.7117 50.0033 73.1271 49.7841 72.9312C49.3765 72.5868 49.0535 72.1525 48.8406 71.662C48.46 70.6691 48.7125 69.2425 49.1926 68.5488C49.618 67.9324 50.8046 67.3973 51.5934 66.9341C52.5006 66.4019 53.4556 65.6598 54.2088 65.517C55.5969 65.254 57.0523 65.8566 56.9596 67.3995C56.8841 68.6707 55.2259 70.059 54.4951 70.8068C53.4484 71.8775 52.5199 72.9424 51.4577 73.6186C51.4078 73.6501 51.4087 73.6724 51.3234 73.6928C51.2948 73.6994 51.271 73.7677 51.2003 73.7677H51.1899ZM216.566 70.5092C215.597 70.0988 215.16 69.4105 214.956 68.0294C214.707 66.34 215.159 64.4205 216.87 64.5755C218.405 64.7157 220.346 67.842 219.218 69.9875C219.027 70.3401 218.725 70.6188 218.36 70.78C218.197 70.8507 218.022 70.8868 217.845 70.886C217.398 70.8454 216.964 70.7174 216.567 70.5092H216.566ZM230.92 60.9442C228.907 59.9056 228.868 56.1009 229.594 53.7009C229.904 52.6765 230.374 51.5977 231.423 51.4906C232.471 51.3836 233.813 52.3933 234.499 52.9469C234.923 53.2977 235.327 53.6716 235.711 54.0669C236.169 54.5317 236.723 55.1316 236.74 55.8134C236.768 56.8534 235.601 57.9367 234.804 58.717C233.851 59.6497 233.07 60.4323 232.014 60.899C231.807 60.9739 231.589 61.0105 231.369 61.007C231.217 61.0092 231.066 60.9881 230.92 60.9442H230.92ZM31.6958 56.7265C31.7668 55.8062 32.2959 54.6421 33.1794 54.4624C33.7273 54.3499 34.7019 54.6316 35.1828 54.8601C35.902 55.2036 36.8692 56.0571 36.976 56.7834C37.1343 57.8539 35.4354 60.1519 34.4489 60.3303C34.3886 60.3412 34.3274 60.3467 34.2662 60.3465C33.0983 60.3463 31.563 58.4705 31.6967 56.7265H31.6958ZM173.906 54.5989C172.812 54.185 171.69 53.8595 171 52.7796C170.778 52.3451 170.619 51.8804 170.53 51.4C170.298 50.4572 170.183 49.489 170.19 48.5177C170.19 47.9914 170.25 47.2099 170.76 47.018C171.172 46.8635 171.652 47.5536 172.334 48.1387C173.28 48.9604 174.355 49.6193 175.515 50.0887C176.138 50.3432 176.716 50.5299 177.154 51.0704C178.119 52.2601 178.035 54.6488 177.109 55.1311C176.901 55.2297 176.673 55.2769 176.443 55.2688C175.651 55.2679 174.622 54.8695 173.907 54.5987L173.906 54.5989ZM-53.95 49.3826C-53.5419 48.5432 -51.5796 47.7073 -50.3881 47.6506C-49.7676 47.622 -48.7344 47.8229 -48.6381 48.5422C-48.4782 49.7318 -51.0499 51.7268 -52.0637 51.9216C-52.1638 51.9409 -52.2656 51.9506 -52.3676 51.9506C-52.6654 51.9422 -52.9565 51.8596 -53.2148 51.7102C-53.473 51.5608 -53.6903 51.3494 -53.8472 51.0948C-54.004 50.8403 -54.0955 50.5506 -54.1135 50.2518C-54.1314 49.953 -54.0753 49.6543 -53.95 49.3826ZM-21.2034 49.7757C-21.4437 49.411 -21.2435 48.5962 -21.0496 47.9657C-20.0828 44.8311 -20.1368 41.9716 -19.6317 38.9128C-19.4552 37.8393 -19.1926 36.2831 -18.604 35.4056C-17.4538 33.6888 -14.9667 33.7838 -13.5174 33.9543C-12.8512 34.0486 -12.1778 34.083 -11.5055 34.0571C-10.5745 34.0186 -9.35295 33.752 -8.78492 34.7663C-8.76633 34.8036 -8.75044 34.8408 -8.80597 34.8613C-8.59729 35.8551 -8.73052 36.5731 -8.77284 37.6107C-8.79498 38.9699 -8.91399 40.3257 -9.12902 41.6677C-9.25204 42.3396 -9.43185 42.9997 -9.66641 43.6409C-10.8667 46.5542 -16.1742 48.9877 -19.1343 49.8416C-19.559 49.9882 -20.0009 50.0785 -20.4489 50.1099C-20.5925 50.1239 -20.7373 50.1004 -20.8693 50.0419C-21.0014 49.9834 -21.1162 49.8917 -21.2027 49.7757H-21.2034ZM139.504 48.9267C139.251 47.9273 139.49 46.9109 139.858 45.8822C140.11 45.177 140.677 43.8688 141.487 43.8179C142.264 43.7698 142.844 44.6613 143.256 45.1213C143.784 45.7143 144.389 46.291 144.43 47.0007C144.501 48.2402 143.13 49.4076 142.068 49.5779C141.913 49.6031 141.755 49.6159 141.598 49.6162C140.791 49.6164 140.165 49.2689 139.504 48.9269L139.504 48.9267ZM73.798 45.1764C73.0232 45.1156 72.2547 44.9903 71.5004 44.8018C70.7938 44.6275 69.5375 44.2501 69.2312 43.7936C68.6227 42.8864 69.8369 41.5534 70.6463 40.9265C72.2637 39.673 74.2712 40.9247 75.2315 42.5558C75.572 43.0925 75.7038 43.7364 75.6017 44.3646C75.585 44.5266 75.5219 44.6802 75.4201 44.8069C75.3183 44.9336 75.1822 45.028 75.0281 45.0787C74.7806 45.1672 74.5182 45.2059 74.2559 45.1926C74.092 45.1933 73.9317 45.1852 73.7987 45.1766L73.798 45.1764ZM156.853 37.2943C158.042 36.9901 159.954 37.9261 160.336 38.6644C160.953 39.8526 160.022 40.8516 159.358 41.5284C158.894 42.0008 158.27 42.507 157.689 42.6307C157.579 42.6547 157.466 42.6671 157.353 42.6675C155.178 42.6664 154.873 37.7997 156.853 37.2947L156.853 37.2943ZM100.391 35.8841C100.137 34.9082 99.2906 33.1062 99.9625 32.1149C100.231 31.7176 100.966 31.5914 101.243 31.5791C102.116 31.5419 103.28 32.1625 103.421 32.8662C103.628 33.9032 102.589 36.6251 102.16 37.1877C101.957 37.4511 101.778 37.4252 101.277 37.4313C100.767 37.2378 100.584 36.6259 100.391 35.8843L100.391 35.8841ZM198.374 34.4959C197.708 33.57 197.394 32.4354 197.488 31.297C197.513 30.7659 197.738 30.2643 198.117 29.8935C198.31 29.7361 198.761 29.6396 199.217 29.9855C199.972 30.5609 201.37 35.0162 199.435 35.2796C199.396 35.285 199.357 35.2878 199.317 35.288C198.972 35.288 198.75 35.0511 198.375 34.4962L198.374 34.4959ZM6.96386 22.1531C6.28926 22.0116 5.0027 21.6371 4.57484 21.3271C3.02009 20.1999 3.55457 18.7886 3.88975 17.6681C4.04469 17.149 4.22109 16.0735 4.95435 15.6886C5.5141 15.3962 6.37567 15.876 6.98983 16.6195C7.37029 17.0477 7.72366 17.4994 8.04793 17.972C8.43752 18.6298 8.15205 18.9108 8.11041 19.4988C8.48231 19.6005 8.8269 19.6904 9.06826 20.0542C9.39919 20.5554 9.19991 21.7705 8.6227 22.1561C8.43503 22.2734 8.21666 22.3315 7.99578 22.323C7.64696 22.3018 7.30121 22.245 6.96386 22.1534V22.1531ZM61.2081 21.51C60.5763 21.2866 59.9843 20.9625 59.4549 20.5504C58.8096 19.9731 58.6294 19.0286 58.135 18.4708C57.7405 18.0247 57.0545 17.8042 56.4475 17.4382C55.8918 17.104 55.3361 16.6937 54.8283 16.4035C53.1043 15.4214 51.5697 14.7839 51.4307 12.138C51.3098 9.8418 51.7316 6.53691 53.4518 6.26945C54.7334 6.07016 56.3105 7.44814 57.3006 8.17584C58.5866 9.12242 59.441 9.62653 60.5558 10.6572C61.6646 11.6823 62.6078 12.6192 63.4831 13.4963C64.4702 14.4861 65.4135 15.5361 66.0172 16.7652C67.2517 19.2826 66.2999 21.5215 64.0392 22.0112C63.8503 22.0514 63.6576 22.0713 63.4645 22.0706C62.7081 22.071 61.935 21.7907 61.2083 21.51H61.2081ZM116.847 16.8799C115.785 15.8407 115.193 14.0893 114.464 12.2964C114.103 11.4392 113.814 10.5528 113.601 9.64677C113.385 8.64127 113.144 7.33728 113.836 7.02124C114.491 6.72026 115.383 7.56444 116.075 8.09846C117.368 9.09941 118.603 10.1745 119.772 11.3184C120.719 12.2267 121.685 13.0243 121.291 14.9051C121.14 15.4942 120.909 16.0598 120.606 16.5862C120.367 17.0361 120.141 17.7642 119.429 17.9428C119.332 17.9664 119.233 17.978 119.133 17.9772C118.347 17.9772 117.327 17.3492 116.847 16.8799H116.847ZM181.535 1.47359C181.588 -0.330933 182.03 -3.29526 183.587 -3.63785C184.246 -3.78294 185.112 -3.40886 185.731 -3.17604C187.051 -2.67801 188.192 -2.24207 189.298 -1.4651C190.439 -0.663177 191.436 0.468307 190.759 2.3988C190.272 3.78738 189.144 4.9211 188.164 5.94977C187.166 6.99554 186.142 8.04181 184.638 8.57494C184.606 8.58664 184.574 8.63474 184.504 8.64935C184.34 8.68419 184.173 8.70221 184.005 8.70311C181.506 8.7029 181.452 4.25797 181.535 1.47359H181.535ZM249.15 2.30907C249.277 0.828918 250.539 0.185532 250.936 -0.932236C250.366 -1.90715 249.315 -2.57703 249.286 -4.37524C249.266 -5.60773 249.889 -8.13972 250.473 -8.83144C251.669 -10.2486 253.787 -9.27435 255.105 -8.39143V2.16171C254.214 3.33144 253.339 4.46739 252.636 5.40092C252.56 5.50192 252.56 5.61192 252.37 5.6189C252.346 5.61964 252.322 5.62004 252.297 5.62004C250.878 5.61937 248.986 4.22763 249.15 2.30907H249.15ZM-60.9581 -8.39188C-60.7265 -8.23666 -60.5166 -8.08417 -60.3437 -7.94829C-58.9269 -6.83527 -57.29 -5.05727 -57.9299 -2.60895C-58.2988 -1.19472 -59.612 0.389557 -60.5011 1.56041C-60.6533 1.76151 -60.8051 1.9608 -60.9581 2.161V-8.39188ZM73.3713 -0.155243C72.8584 -0.656433 72.0523 -2.01849 72.366 -2.93605C72.58 -3.56589 74.024 -3.92581 74.847 -4.27853C76.6035 -5.03142 77.9496 -6.13521 80.0829 -5.32225C80.5168 -5.15715 81.1486 -4.78508 81.2856 -4.40874C81.5941 -3.56024 80.901 -2.48595 80.3677 -1.75443C79.8169 -0.999954 79.1787 -0.22226 78.5966 0.179047C78.0304 0.559036 77.3823 0.798035 76.7058 0.876343C76.5587 0.892761 76.4108 0.900909 76.2627 0.900681C75.1943 0.902252 74.0399 0.499115 73.3709 -0.155029L73.3713 -0.155243ZM134.927 -1.00439C134.9 -2.49355 136.469 -4.10193 138.162 -4.03085C138.832 -4.00227 140.104 -3.80771 140.26 -3.0159C140.377 -2.42722 139.449 -1.56274 138.968 -1.10385C138.632 -0.78331 138.033 -0.384003 137.639 -0.0852814C137.249 0.210526 136.91 0.634521 136.439 0.722031C136.39 0.731293 136.34 0.735962 136.289 0.735977C135.603 0.737091 134.944 -0.11879 134.927 -1.00418L134.927 -1.00439ZM-37.4257 0.277786C-39.0469 0.0832062 -41.6256 -0.164017 -43.0274 -1.42506C-44.5707 -2.81412 -44.1088 -4.32352 -43.2703 -5.52068C-41.8878 -7.49615 -40.0751 -8.42607 -38.1961 -8.3894C-36.6456 -8.35925 -34.3149 -7.50267 -33.0913 -6.20743C-32.1462 -5.20665 -31.2428 -3.77284 -30.9826 -2.62202C-30.898 -2.13185 -30.8591 -1.63478 -30.8664 -1.13736C-30.8541 -0.527069 -30.9125 0.203323 -31.5312 0.350449C-32.3117 0.484589 -33.1024 0.549759 -33.8942 0.545242C-35.0759 0.526901 -36.2554 0.437332 -37.4264 0.277069L-37.4257 0.277786ZM224.092 -8.36441C224.185 -10.2627 224.786 -12.4079 226.661 -12.5343C227.759 -12.608 229.715 -11.7513 229.957 -10.743C230.281 -9.40125 229.197 -8.09628 228.46 -7.16905C227.592 -6.07874 227.011 -5.10071 225.893 -4.58333C225.852 -4.57185 225.81 -4.56892 225.768 -4.57475C225.741 -4.577 225.714 -4.577 225.687 -4.57475C225.628 -4.56682 225.569 -4.56277 225.51 -4.56262C224.144 -4.56352 224.017 -6.85799 224.091 -8.36513L224.092 -8.36441ZM32.9226 -6.96234C32.1954 -7.13466 31.1146 -7.59848 30.7955 -8.34508C30.5369 -8.94839 31.0888 -9.79755 31.7099 -10.2929C32.2341 -10.7108 33.0352 -10.9709 33.5907 -11.3402C33.9912 -11.6066 34.2848 -11.9442 34.656 -12.0945C35.9179 -12.6042 38.1895 -11.3227 38.4222 -9.72986C38.5252 -9.02441 38.0191 -7.7715 37.1074 -7.29169C36.4713 -6.9572 35.4264 -6.81186 34.4654 -6.81186C33.9471 -6.80533 33.4297 -6.856 32.9224 -6.963L32.9226 -6.96234ZM-1.17955 -23.309C-1.05753 -23.8713 -0.651161 -24.0911 -0.402412 -24.0963C0.125511 -24.0623 0.620792 -23.8278 0.982845 -23.4403C1.7909 -22.6364 2.28639 -21.5688 2.37997 -20.4301C2.46102 -19.693 2.43397 -19.3729 2.07976 -19.1437C1.92043 -19.0357 1.73295 -18.9773 1.54079 -18.9756C0.0670929 -18.9776 -1.36045 -22.4807 -1.17999 -23.3099L-1.17955 -23.309ZM17.0182 -19.9348C15.7093 -20.5306 15.0504 -21.5339 14.3131 -22.5304C13.1862 -24.0121 12.2251 -25.614 11.4472 -27.307C11.0361 -28.2531 10.6517 -29.3695 11.0473 -30.2342C11.5021 -31.2289 12.9993 -31.5229 13.9067 -31.8988C14.4197 -32.1074 14.9455 -32.2826 15.4809 -32.4231C16.0252 -32.5806 16.653 -32.8874 17.2833 -32.5711C18.1735 -32.1246 18.1106 -30.5255 18.3094 -29.5627C18.4697 -28.7855 18.8213 -27.0122 19.5113 -26.6364C19.744 -26.5097 20.1194 -26.5143 20.3946 -26.4612C21.9486 -26.1577 23.0473 -25.509 23.1528 -24.2117C22.8841 -22.9893 22.0236 -22.4033 21.3347 -21.8002C20.612 -21.1668 19.9607 -20.4742 19.1882 -20.0938C18.7897 -19.8763 18.3466 -19.7542 17.8934 -19.7371C17.5906 -19.7392 17.2919 -19.8071 17.0177 -19.9364L17.0182 -19.9348ZM-55.2301 -28.2162C-56.0486 -28.9779 -56.1637 -30.2722 -56.2842 -31.2336C-56.4308 -32.3972 -56.404 -33.5505 -55.7469 -34.1086C-55.1043 -34.6562 -54.0609 -34.5772 -53.4541 -34.5192C-52.7874 -34.4553 -51.7839 -34.2623 -51.2689 -33.6194C-50.1651 -32.2391 -51.283 -30.9621 -52.0301 -29.693C-52.4828 -28.9239 -52.9054 -28.326 -53.4452 -28.0508C-53.6935 -27.9249 -53.9678 -27.8593 -54.246 -27.8592C-54.6073 -27.8509 -54.9585 -27.9789 -55.2305 -28.218L-55.2301 -28.2162ZM132.248 -32.9401C131.56 -33.4487 131.196 -36.9275 131.982 -37.7487C132.831 -38.6382 133.997 -37.8364 134.676 -37.2415C135.129 -36.8435 135.825 -36.4213 135.908 -35.6401C136.01 -34.6748 134.155 -33.0473 133.212 -32.8427C133.066 -32.8078 132.917 -32.7885 132.767 -32.785C132.581 -32.7791 132.399 -32.8342 132.248 -32.9421L132.248 -32.9401ZM-30.7509 -35.2086C-31.5392 -35.4237 -31.5811 -37.264 -31.6417 -38.6481C-31.7745 -41.677 -31.6737 -44.1512 -30.9568 -46.4915C-30.5075 -47.9577 -29.9086 -49.3409 -28.4906 -49.5872C-26.6697 -49.9035 -24.7184 -48.6123 -24.6555 -46.8352C-24.6583 -46.4145 -24.7276 -45.9969 -24.861 -45.598C-24.979 -45.2381 -25.2936 -44.9142 -25.2721 -44.5662C-25.2369 -44.0119 -24.3765 -43.2518 -24.0388 -42.7772C-23.6043 -42.1676 -22.9849 -41.5742 -22.9431 -40.9198C-22.8795 -39.9246 -23.9043 -38.909 -24.45 -38.5117C-25.2773 -37.9095 -26.5501 -37.4185 -27.6009 -36.7918C-27.9768 -36.5668 -28.4147 -36.2477 -29.1079 -35.8291C-29.5206 -35.5794 -30.0801 -35.1846 -30.5552 -35.1848C-30.6214 -35.1846 -30.6874 -35.1933 -30.7513 -35.2107L-30.7509 -35.2086ZM113.724 -40.4452C113.103 -41.042 112.69 -41.8996 112.191 -42.7225C111.715 -43.5073 111.071 -44.3262 111.183 -45.5726C111.674 -46.7772 112.917 -47.0629 114.489 -46.8804C114.768 -46.8483 115.123 -46.7295 115.384 -46.7794C116.155 -46.9293 117.023 -48.5115 117.41 -49.2052C117.888 -50.0627 118.309 -51.6061 119.292 -51.762C119.987 -51.8722 120.493 -51.3888 120.965 -51.0739C121.434 -50.778 121.882 -50.4516 122.309 -50.097C123.061 -49.4622 124.399 -48.7272 124.534 -47.6417C124.652 -46.6969 123.949 -45.7501 123.273 -44.9727C122.023 -43.5947 120.626 -42.3589 119.107 -41.2876C118.104 -40.5617 117.174 -39.8043 115.747 -39.6335C115.656 -39.6226 115.564 -39.617 115.473 -39.6169C114.724 -39.6196 114.185 -40.0054 113.724 -40.4467L113.724 -40.4452ZM44.396 -45.0663C43.1742 -45.2134 41.7045 -45.3751 40.7688 -46.1399C39.7761 -46.9517 39.4058 -48.646 39.0981 -49.7213C38.379 -52.2479 38.1098 -53.8072 37.5393 -56.2789C37.3177 -57.2388 36.599 -58.83 37.5346 -59.513C38.1253 -59.9426 39.0437 -59.4455 39.8318 -59.1384C40.6477 -58.8199 41.4869 -58.5297 42.1245 -58.3237C43.727 -57.8063 45.275 -57.6117 46.6457 -56.5547C49.2756 -54.5235 49.021 -51.291 48.7969 -49.2401C48.7376 -48.5578 48.7208 -47.8724 48.7468 -47.1879C48.7598 -46.4231 48.779 -45.2338 48.2475 -45.044C47.698 -44.9535 47.1419 -44.9089 46.585 -44.9108C45.8528 -44.9195 45.1216 -44.9722 44.3955 -45.0683L44.396 -45.0663ZM67.1116 -47.5733C66.1998 -48.5255 66.1833 -50.615 67.0686 -51.302C67.8417 -51.9021 69.5986 -51.2324 70.6655 -50.3797C71.0543 -50.0478 71.3555 -49.6248 71.5425 -49.1479C71.9713 -48.2542 72.0505 -47.6633 71.2581 -47.1729C70.774 -46.9249 70.2337 -46.808 69.6909 -46.8339C68.6605 -46.833 67.5383 -47.1277 67.1116 -47.5733ZM201.888 -52.4793C200.876 -53.5296 202.148 -54.8242 202.916 -55.5062C203.477 -56.0069 204.054 -56.5147 204.833 -56.6085C205.127 -56.6431 205.548 -56.6199 205.792 -56.3331C206.224 -55.8268 206.111 -53.9937 205.997 -53.3062C205.956 -52.9669 205.807 -52.65 205.573 -52.4022C205.339 -52.1544 205.031 -51.9891 204.696 -51.9305C204.553 -51.9109 204.41 -51.9017 204.266 -51.903C203.409 -51.9017 202.196 -52.1595 201.889 -52.4791L201.888 -52.4793ZM229.97 -61.4923C229.11 -61.5238 228.379 -62.4125 227.778 -63.4185C227.281 -64.2494 226.576 -65.3377 226.751 -66.4454C226.822 -66.7575 226.984 -67.0414 227.216 -67.2615C227.447 -67.4816 227.738 -67.6281 228.053 -67.6826C228.646 -67.8016 229.346 -67.5939 230.175 -67.2705C231.543 -66.7353 233.208 -66.426 233.189 -64.6559C233.18 -63.8308 232.51 -63.0561 232.025 -62.5916C231.593 -62.179 230.845 -61.4894 230.025 -61.4894C230.007 -61.4912 229.989 -61.4914 229.97 -61.4921L229.97 -61.4923ZM22.42 -62.7929C21.4124 -63.7179 21.3822 -65.3879 22.4797 -66.1671C23.9436 -67.2041 27.1798 -64.9785 27.2774 -63.0415C27.298 -62.6519 27.0663 -61.9111 26.7743 -61.681C26.7629 -61.6736 26.7496 -61.6697 26.736 -61.6697C26.7225 -61.6697 26.7092 -61.6736 26.6978 -61.681C26.6912 -61.6844 26.6848 -61.6882 26.6787 -61.6925C26.4332 -61.5563 26.1548 -61.4918 25.8747 -61.506C24.7151 -61.506 23.0218 -62.2398 22.4204 -62.7929H22.42ZM165.724 -61.7669C164.694 -61.8517 164.063 -63.2464 164.218 -64.6566C164.33 -65.6882 165.394 -67.1085 166.066 -67.2711C167.156 -67.5325 168.289 -66.1689 168.189 -64.7254C168.143 -64.0488 167.662 -63.6936 167.299 -63.0741C166.974 -62.5178 166.826 -61.7602 165.883 -61.7602C165.833 -61.7602 165.78 -61.7624 165.724 -61.7669H165.724ZM-28.0804 -81.6493C-29.3315 -82.703 -30.5208 -83.8286 -31.6424 -85.0203C-32.5503 -85.9667 -33.4842 -86.8041 -33.012 -88.6667C-32.8366 -89.2487 -32.5832 -89.8041 -32.2588 -90.3175C-32.0022 -90.758 -31.7439 -91.4758 -31.0274 -91.6247C-30.2153 -91.793 -29.0123 -91.0077 -28.4922 -90.455C-27.4737 -89.3726 -26.9544 -87.5982 -26.3009 -85.7761C-25.9743 -84.9049 -25.7222 -84.0074 -25.5473 -83.0932C-25.3724 -82.0809 -25.1857 -80.767 -25.89 -80.4791C-25.9746 -80.4448 -26.065 -80.4274 -26.1562 -80.428C-26.7729 -80.4285 -27.4978 -81.1595 -28.0802 -81.6493H-28.0804ZM128.66 -81.1726C127.129 -81.2581 125.324 -81.1114 124.007 -82.4294C123.306 -83.1314 122.798 -84.6057 122.469 -85.5397C121.725 -87.6515 121.285 -89.8751 120.607 -92.089C120.422 -92.6325 120.196 -93.161 119.931 -93.6697C119.586 -94.3571 119.216 -94.7695 119.511 -95.4198C119.783 -96.0204 120.806 -96.1187 121.459 -96.2008C122.827 -96.3245 124.205 -96.275 125.561 -96.0534C126.735 -95.8793 127.912 -95.3977 128.411 -94.4084C128.864 -93.5116 128.842 -92.3025 128.895 -91.1128C128.948 -89.9527 128.906 -89.005 129.193 -87.7673C129.551 -86.2294 130.29 -84.6757 131.043 -83.1292C131.205 -82.796 131.54 -82.0474 131.294 -81.6353C131.02 -81.1744 130.559 -81.0583 130.044 -81.0583C129.593 -81.0581 129.101 -81.1479 128.661 -81.1726H128.66ZM-8.83526 -83.0937C-9.81392 -83.3537 -9.69844 -86.0782 -9.58873 -87.5658C-9.49917 -88.7877 -9.54283 -89.9086 -8.69784 -90.1115C-8.31207 -90.2042 -7.70055 -89.9055 -7.39627 -89.5609C-6.28954 -88.3045 -6.46107 -85.6378 -7.25994 -84.195C-7.549 -83.6727 -8.09507 -83.0703 -8.6481 -83.0703C-8.71101 -83.07 -8.77369 -83.0779 -8.83461 -83.0937H-8.83526ZM199.969 -85.1584C199.176 -85.1616 198.219 -85.4869 198.051 -86.1217C197.843 -86.9069 198.408 -87.9423 198.874 -88.5297C199.569 -89.407 201.233 -90.6566 202.366 -90.8691C203.379 -91.0581 204.548 -90.3873 204.901 -89.7682C205.697 -88.3718 204.699 -85.9545 203.394 -85.5719C203.142 -85.5136 202.883 -85.4935 202.626 -85.5121C202.448 -85.5181 202.27 -85.5151 202.092 -85.503C201.432 -85.4486 200.648 -85.1591 199.982 -85.1591L199.969 -85.1584ZM144.408 -88.462C143.229 -89.9984 144.249 -93.8024 146.032 -93.9691C147.37 -94.0942 148.427 -92.805 148.261 -91.445C148.133 -90.4076 146.847 -87.9871 145.736 -87.829C145.736 -87.829 145.722 -87.7595 145.671 -87.7572H145.648C145.276 -87.7566 144.642 -88.1592 144.409 -88.462H144.408ZM58.4691 -94.8802C56.3998 -94.9809 54.8845 -95.2056 52.8522 -96.0458C51.8619 -96.4552 50.688 -96.9082 50.1282 -97.7453C49.6833 -98.4109 49.7852 -99.3066 49.8584 -99.983C49.9428 -100.764 50.0928 -101.539 50.1663 -102.15C50.267 -102.998 50.2176 -103.541 50.3776 -104.33C50.499 -104.932 50.7359 -106.046 51.4109 -106.459C52.798 -107.307 54.8444 -105.201 56.3747 -103.902C57.1458 -103.265 57.9554 -102.677 58.7987 -102.14C60.1 -101.275 61.8291 -99.829 62.2422 -98.2969C62.4198 -97.638 62.3304 -95.5586 61.4653 -95.0576C61.4322 -95.0378 61.3959 -94.982 61.3583 -94.9728C60.8866 -94.8639 60.4031 -94.8147 59.9193 -94.8262C59.4372 -94.8271 58.9393 -94.857 58.4691 -94.8802ZM223.6 -103.527C222.354 -104.527 221.52 -105.065 220.45 -106.142C219.384 -107.212 218.479 -108.189 217.641 -109.1C216.695 -110.129 215.796 -111.218 215.244 -112.471C214.114 -115.038 215.157 -117.235 217.436 -117.631C218.378 -117.795 219.348 -117.402 220.244 -117.012C220.866 -116.762 221.444 -116.414 221.956 -115.98C222.577 -115.376 222.717 -114.425 223.189 -113.847C223.565 -113.386 224.242 -113.136 224.833 -112.745C225.375 -112.388 225.913 -111.955 226.408 -111.644C228.09 -110.591 229.598 -109.892 229.628 -107.242C229.654 -104.943 229.097 -101.659 227.366 -101.463C227.305 -101.456 227.243 -101.452 227.18 -101.452C225.935 -101.452 224.513 -102.796 223.6 -103.527H223.6ZM2.3294 -102.839C1.8937 -103.255 1.21592 -103.706 1.16509 -104.49C1.10329 -105.457 3.02349 -107.009 3.97371 -107.173C4.28716 -107.227 4.65163 -107.262 4.93172 -107.036C5.59962 -106.499 5.81882 -103.008 5.00114 -102.22C4.89017 -102.106 4.7578 -102.016 4.61173 -101.954C4.46566 -101.892 4.30882 -101.86 4.15032 -101.86C3.47572 -101.86 2.7857 -102.404 2.32984 -102.839H2.3294ZM159.902 -112.197C159.581 -113.669 161.316 -116.291 162.094 -116.876C162.29 -117.023 162.606 -117.061 162.778 -117.219C163.549 -117.509 164.813 -116.117 164.833 -115.362C164.85 -114.722 164.32 -114.371 164.081 -113.848C163.832 -113.312 163.794 -112.626 163.532 -112.197C163.331 -111.881 163.059 -111.616 162.738 -111.425C162.417 -111.234 162.055 -111.121 161.683 -111.097C161.665 -111.097 161.647 -111.097 161.63 -111.097C160.914 -111.094 160.05 -111.514 159.902 -112.196L159.902 -112.197ZM98.5817 -119.957C98.7358 -120.712 99.4903 -121.659 100.035 -122.561C100.508 -123.346 101.061 -124.529 101.681 -124.946C102.38 -125.416 103.804 -125.647 104.787 -125.248C105.271 -125.027 105.698 -124.696 106.033 -124.281C106.226 -124.058 106.798 -123.495 106.844 -122.855C106.849 -122.776 106.776 -122.752 106.767 -122.721C106.746 -122.637 106.722 -122.637 106.691 -122.589C106.001 -121.531 104.926 -120.618 103.843 -119.584C103.087 -118.863 101.678 -117.22 100.411 -117.164C100.378 -117.162 100.344 -117.162 100.312 -117.162C98.8506 -117.161 98.3048 -118.597 98.5822 -119.957L98.5817 -119.957ZM-31.6427 -119.007C-32.0517 -119.375 -32.4403 -119.766 -32.8069 -120.177C-33.2464 -120.661 -33.7762 -121.283 -33.7661 -121.965C-33.7509 -123.005 -32.5396 -124.039 -31.7112 -124.786C-30.7204 -125.679 -29.9079 -126.428 -28.8348 -126.85C-28.4778 -126.96 -28.096 -126.96 -27.739 -126.85C-25.7687 -125.729 -25.8869 -121.926 -26.7117 -119.558C-27.0628 -118.547 -27.5764 -117.488 -28.629 -117.425C-28.6594 -117.423 -28.6899 -117.422 -28.7208 -117.422C-29.7545 -117.422 -31.0005 -118.442 -31.6422 -119.006L-31.6427 -119.007ZM217.504 -127.331C217.35 -128.598 217.825 -129.734 218.805 -129.877C219.465 -129.973 219.943 -129.344 220.381 -128.707C220.896 -127.958 221.531 -126.186 220.929 -125.198C220.704 -124.917 220.39 -124.722 220.039 -124.647C220.006 -124.645 219.974 -124.643 219.941 -124.643C218.82 -124.644 217.633 -126.282 217.504 -127.331ZM133.258 -129.258C132.633 -130.666 132.138 -132.068 132.025 -133.386C131.991 -133.797 131.991 -134.211 132.025 -134.623C132.202 -136.353 133.618 -138.571 134.08 -140.264C134.258 -140.915 134.356 -141.501 134.478 -142.077H139.829C140.012 -141.467 140.105 -140.833 140.107 -140.196C140.114 -137.703 138.932 -135.093 138.395 -132.834C138.1 -131.597 137.865 -130.454 137.504 -129.188C137.173 -128.026 136.814 -126.396 135.792 -126.367H135.772C134.799 -126.368 133.639 -128.401 133.258 -129.258H133.258ZM14.9677 -137.525C14.6305 -138.852 14.6684 -140.267 14.7781 -141.664C14.7886 -141.799 14.8005 -141.94 14.8112 -142.078H22.2086C22.1223 -141.853 22.0723 -141.616 22.0604 -141.375C22.0456 -140.629 22.5203 -139.793 22.4032 -138.934C22.2681 -138.274 22.0277 -137.641 21.6912 -137.059C21.2266 -136.196 20.706 -135.285 19.8646 -134.829C19.3773 -134.555 18.8297 -134.408 18.2716 -134.401C16.7972 -134.401 15.4778 -135.516 14.9684 -137.525L14.9677 -137.525ZM193.805 -139.99C193.292 -140.636 192.849 -141.336 192.485 -142.077H195.981C195.885 -141.746 195.798 -141.396 195.723 -141.022C195.547 -140.138 195.594 -139.298 195.175 -139.164C195.115 -139.145 195.052 -139.135 194.988 -139.135C194.533 -139.136 194.09 -139.626 193.806 -139.99L193.805 -139.99Z" fill="#2C3E50"/>
</g>
</g>
</svg>
