<svg width="23" height="23" viewBox="0 0 23 23" fill="none" xmlns="http://www.w3.org/2000/svg">
<path fill-rule="evenodd" clip-rule="evenodd" d="M4.40859 17.296V5.58015C1.86819 8.62677 2.12201 11.6537 2.18218 15.2365V19.5182L2.16249 19.5389L0.125355 21.5765L0.119886 18.6915C0.107851 12.452 -1.09889 6.84794 4.41406 2.53025C5.10919 1.9858 5.8629 1.52029 6.66125 1.14235V12.1637L8.63931 10.1883V0.412906C9.35072 0.220768 10.0785 0.0950134 10.8132 0.0372652V10.909L6.66125 15.0585L4.40859 17.296Z" fill="#161616"/>
<path fill-rule="evenodd" clip-rule="evenodd" d="M20.5045 18.5899C21.9486 16.7528 22.8167 14.5308 23 12.2029H12.1087L10.0004 14.306H15.7278L20.5504 14.1968C20.2729 14.9539 19.9075 15.6758 19.4618 16.348H7.95561L5.70513 18.5899L3.46231 20.8361L1.4208 22.8748L4.31021 22.8803C9.50589 22.8901 14.2661 23.7244 18.2047 20.847H10.6557C10.2466 20.8546 9.83082 20.8535 9.40852 20.847C8.44356 20.8339 7.43921 20.7989 6.39001 20.8088L8.60439 18.5899H20.5045Z" fill="#161616"/>
<path fill-rule="evenodd" clip-rule="evenodd" d="M20.7176 2.24838V10.4273H22.9702V0H12.5231V2.24838H20.7176Z" fill="#161616"/>
<path fill-rule="evenodd" clip-rule="evenodd" d="M16.5319 6.42629H12.5878V4.15716H18.8054V10.3618H16.5319V6.42629Z" fill="#161616"/>
<path fill-rule="evenodd" clip-rule="evenodd" d="M12.5231 8.10796H14.8469V10.4273L12.5286 10.4219L12.5231 8.10796Z" fill="#161616"/>
</svg> 