<svg width="16" height="16" viewBox="0 0 16 16" fill="none" xmlns="http://www.w3.org/2000/svg">
    <path
        d="M0.666504 8.00004C0.666504 4.34208 3.52829 1.33337 7.11095 1.33337C8.28872 1.33337 9.3935 1.66079 10.3431 2.23125C10.6588 2.42085 10.7609 2.83041 10.5713 3.14603C10.3817 3.46165 9.97216 3.56381 9.65654 3.37421C8.90651 2.92366 8.03794 2.66671 7.11095 2.66671C4.31165 2.66671 1.99984 5.03058 1.99984 8.00004C1.99984 10.9695 4.31165 13.3334 7.11095 13.3334C8.03794 13.3334 8.90651 13.0764 9.65654 12.6259C9.97216 12.4363 10.3817 12.5384 10.5713 12.854C10.7609 13.1697 10.6588 13.5792 10.3431 13.7688C9.3935 14.3393 8.28872 14.6667 7.11095 14.6667C3.52829 14.6667 0.666504 11.658 0.666504 8.00004Z"
        fill="#B32318" />
    <path
        d="M11.5284 4.86197C11.7888 4.60162 12.2109 4.60162 12.4712 4.86197L15.1379 7.52864C15.3983 7.78899 15.3983 8.2111 15.1379 8.47145L12.4712 11.1381C12.2109 11.3985 11.7888 11.3985 11.5284 11.1381C11.2681 10.8778 11.2681 10.4557 11.5284 10.1953L13.057 8.66671H5.99984C5.63165 8.66671 5.33317 8.36823 5.33317 8.00004C5.33317 7.63185 5.63165 7.33337 5.99984 7.33337H13.057L11.5284 5.80478C11.2681 5.54443 11.2681 5.12232 11.5284 4.86197Z"
        fill="#B32318" />
</svg>