<svg width="24" height="25" viewBox="0 0 24 25" fill="none" xmlns="http://www.w3.org/2000/svg">
    <g id="layout-alt-03">
        <path id="Fill" opacity="0.12"
            d="M21 9.09912V7.89912C21 6.21896 21 5.37889 20.673 4.73715C20.3854 4.17266 19.9265 3.71372 19.362 3.4261C18.7202 3.09912 17.8802 3.09912 16.2 3.09912L7.8 3.09912C6.11984 3.09912 5.27976 3.09912 4.63803 3.4261C4.07354 3.71372 3.6146 4.17266 3.32698 4.73715C3 5.37888 3 6.21896 3 7.89912L3 9.09912L21 9.09912Z"
            fill="#1A3ED2" />
        <path id="Icon"
            d="M17.5 17.0991H6.5M17.5 13.0991H6.5M3 9.09912H21M7.8 3.09912H16.2C17.8802 3.09912 18.7202 3.09912 19.362 3.4261C19.9265 3.71372 20.3854 4.17266 20.673 4.73715C21 5.37888 21 6.21896 21 7.89912V16.2991C21 17.9793 21 18.8194 20.673 19.4611C20.3854 20.0256 19.9265 20.4845 19.362 20.7721C18.7202 21.0991 17.8802 21.0991 16.2 21.0991H7.8C6.11984 21.0991 5.27976 21.0991 4.63803 20.7721C4.07354 20.4845 3.6146 20.0256 3.32698 19.4611C3 18.8194 3 17.9793 3 16.2991V7.89912C3 6.21896 3 5.37888 3.32698 4.73715C3.6146 4.17266 4.07354 3.71372 4.63803 3.4261C5.27976 3.09912 6.11984 3.09912 7.8 3.09912Z"
            stroke="#1A3ED2" stroke-width="2" stroke-linecap="round" stroke-linejoin="round" />
    </g>
</svg>