<svg width="20" height="21" viewBox="0 0 20 21" fill="none" xmlns="http://www.w3.org/2000/svg">
    <path opacity="0.12"
        d="M16.7678 3.33135C17.7441 4.30766 17.7441 5.89058 16.7678 6.86689C15.7915 7.8432 14.2085 7.8432 13.2322 6.86689C12.2559 5.89058 12.2559 4.30766 13.2322 3.33135C14.2085 2.35504 15.7915 2.35504 16.7678 3.33135Z"
        fill="black" />
    <path
        d="M9.16667 3.43245H6.5C5.09987 3.43245 4.3998 3.43245 3.86502 3.70494C3.39462 3.94462 3.01217 4.32707 2.77248 4.79748C2.5 5.33226 2.5 6.03232 2.5 7.43245V13.5991C2.5 14.9993 2.5 15.6993 2.77248 16.2341C3.01217 16.7045 3.39462 17.087 3.86502 17.3266C4.3998 17.5991 5.09987 17.5991 6.5 17.5991H12.6667C14.0668 17.5991 14.7669 17.5991 15.3016 17.3266C15.772 17.087 16.1545 16.7045 16.3942 16.2341C16.6667 15.6993 16.6667 14.9993 16.6667 13.5991V10.9325M16.7678 3.33135C17.7441 4.30766 17.7441 5.89058 16.7678 6.86689C15.7915 7.8432 14.2085 7.8432 13.2322 6.86689C12.2559 5.89058 12.2559 4.30766 13.2322 3.33135C14.2085 2.35504 15.7915 2.35504 16.7678 3.33135Z"
        stroke="#344054" stroke-width="1.67" stroke-linecap="round" stroke-linejoin="round" />
</svg>