<svg width="103" height="102" viewBox="0 0 103 102" fill="none" xmlns="http://www.w3.org/2000/svg">
<g id="Nuclear energy">
<path id="Commodities like gold" d="M75.2593 35.7436L38.6841 62.4635M75.2593 35.7436L64.5284 31.8971L28.2366 58.6885M75.2593 35.7436L79 49.213L42.5001 76M38.6841 62.4635L28.2366 58.6885M38.6841 62.4635L42.5001 76M28.2366 58.6885L24 69.5892L42.5001 76M41.8405 38.8842C41.8405 40.6058 41.1628 42.2569 39.9565 43.4742C38.7502 44.6915 37.1141 45.3754 35.4081 45.3754C33.7022 45.3754 32.0661 44.6915 30.8599 43.4742C29.6536 42.2569 28.9759 40.6058 28.9759 38.8842C28.9759 35.3102 35.4081 26 35.4081 26C35.4081 26 41.8405 35.3013 41.8405 38.8842Z" stroke="#667085" stroke-width="2" stroke-linecap="round" stroke-linejoin="round"/>
</g>
</svg>
