<svg width="103" height="102" viewBox="0 0 103 102" fill="none" xmlns="http://www.w3.org/2000/svg">
<g id="Nuclear energy">
<path id="Mutual fund" d="M30.5274 43.6068L31.5063 43.8111L31.5066 43.8099L30.5274 43.6068ZM36.9849 49.5476L35.9913 49.434L35.9913 49.4342L36.9849 49.5476ZM47.1893 49.5432L47.4102 50.5186L47.4175 50.5169L47.1893 49.5432ZM56.8789 58.9025C57.285 58.5282 57.3107 57.8955 56.9364 57.4895C56.562 57.0834 55.9294 57.0577 55.5233 57.432L56.8789 58.9025ZM43.762 68.2745C43.3559 68.6489 43.3302 69.2815 43.7045 69.6876C44.0789 70.0936 44.7115 70.1194 45.1176 69.745L43.762 68.2745ZM57.758 37.2714L57.0681 37.9953C57.4544 38.3635 58.0617 38.3635 58.4479 37.9953L57.758 37.2714ZM32.2422 37.9335V41.3752H34.2422V37.9335H32.2422ZM32.2422 52.0423V55.4621H34.2422V52.0423H32.2422ZM37.6879 41.0903C36.7439 40.7699 35.0593 40.2901 33.4716 40.358C32.6702 40.3923 31.8092 40.569 31.0744 41.0541C30.3093 41.5591 29.7684 42.3417 29.5482 43.4038L31.5066 43.8099C31.6268 43.23 31.8817 42.9176 32.1762 42.7232C32.5009 42.5089 32.9631 42.3816 33.5571 42.3562C34.7601 42.3047 36.1546 42.682 37.0451 42.9842L37.6879 41.0903ZM29.5485 43.4026C29.4132 44.0509 29.4362 44.6616 29.6449 45.2186C29.8533 45.7748 30.2161 46.1953 30.6255 46.5147C31.396 47.1158 32.457 47.4441 33.3042 47.7017C34.2495 47.9891 34.9872 48.2046 35.4971 48.5258C35.7307 48.6731 35.8531 48.8066 35.9171 48.9212C35.9737 49.0226 36.0212 49.1726 35.9913 49.434L37.9784 49.6613C38.0504 49.0316 37.9464 48.453 37.6631 47.9458C37.3873 47.452 36.9813 47.0971 36.5633 46.8337C35.7698 46.3337 34.7107 46.0389 33.886 45.7882C32.9633 45.5076 32.2812 45.2698 31.8557 44.9378C31.6671 44.7907 31.5687 44.653 31.5177 44.5168C31.467 44.3815 31.4323 44.1657 31.5063 43.8111L29.5485 43.4026ZM35.9913 49.4342C35.9108 50.1391 35.587 50.4954 35.1236 50.7203C34.5893 50.9796 33.8254 51.0738 32.9454 51.0335C32.0856 50.9941 31.2221 50.8322 30.5619 50.6748C30.2348 50.5969 29.9641 50.5216 29.777 50.4665C29.6836 50.4389 29.6114 50.4165 29.5638 50.4014C29.54 50.3938 29.5224 50.3881 29.5114 50.3845C29.5059 50.3827 29.5021 50.3814 29.4999 50.3807C29.4989 50.3803 29.4982 50.3801 29.498 50.38C29.4979 50.38 29.4979 50.38 29.498 50.38C29.4981 50.3801 29.4982 50.3801 29.4983 50.3801C29.4985 50.3802 29.4987 50.3803 29.1787 51.3277C28.8586 52.2751 28.8589 52.2752 28.8592 52.2753C28.8594 52.2753 28.8597 52.2754 28.86 52.2755C28.8605 52.2757 28.8612 52.276 28.862 52.2762C28.8636 52.2767 28.8656 52.2774 28.868 52.2782C28.8729 52.2799 28.8796 52.2821 28.888 52.2848C28.9047 52.2903 28.9282 52.298 28.9582 52.3075C29.0181 52.3265 29.1036 52.353 29.2113 52.3848C29.4265 52.4482 29.7315 52.533 30.0982 52.6204C30.8258 52.7938 31.8228 52.9842 32.8539 53.0314C33.8647 53.0777 35.0219 52.9927 35.9969 52.5196C37.0427 52.012 37.8161 51.0825 37.9784 49.6611L35.9913 49.4342ZM36.1347 59.7701C33.8752 60.2828 31.5223 60.1869 29.3107 59.4919L28.7111 61.3999C31.26 62.201 33.9726 62.3116 36.5773 61.7205L36.1347 59.7701ZM29.3107 59.4919C27.0991 58.7968 25.1056 57.5265 23.5299 55.8068L22.0553 57.1579C23.8673 59.1356 26.1622 60.5988 28.7111 61.3999L29.3107 59.4919ZM23.5299 55.8068C21.9541 54.087 20.8517 51.9781 20.334 49.6905L18.3833 50.132C18.9775 52.7574 20.2433 55.1803 22.0553 57.1579L23.5299 55.8068ZM20.334 49.6905C19.8163 47.403 19.9017 45.018 20.5816 42.7744L18.6676 42.1944C17.8871 44.7696 17.7891 47.5066 18.3833 50.132L20.334 49.6905ZM20.5816 42.7744C21.2615 40.5309 22.5117 38.5085 24.2061 36.9087L22.833 35.4545C20.884 37.2948 19.4481 39.619 18.6676 42.1944L20.5816 42.7744ZM24.2061 36.9087C25.9003 35.3089 27.9792 34.1879 30.2345 33.6563L29.7757 31.7097C27.1759 32.3224 24.7821 33.6141 22.833 35.4545L24.2061 36.9087ZM30.2345 33.6563C32.4897 33.1248 34.8434 33.2011 37.0605 33.8778L37.6443 31.9649C35.0889 31.185 32.3755 31.0969 29.7757 31.7097L30.2345 33.6563ZM37.0605 33.8778C39.2776 34.5544 41.2815 35.8081 42.8711 37.5146L44.3345 36.1514C42.5064 34.1888 40.1996 32.7448 37.6443 31.9649L37.0605 33.8778ZM48.3739 48.3221C47.8987 48.3778 47.4271 48.4604 46.9612 48.5696L47.4175 50.5169C47.8098 50.4249 48.2068 50.3554 48.6068 50.3085L48.3739 48.3221ZM46.9684 48.568C43.6162 49.3273 40.6178 51.2077 38.4572 53.9021L40.0175 55.1532C41.897 52.8094 44.5022 51.1773 47.4102 50.5185L46.9684 48.568ZM38.4572 53.9021C36.2968 56.5963 35.1002 59.9472 35.0589 63.4122L37.0588 63.436C37.0947 60.4156 38.1379 57.4973 40.0175 55.1532L38.4572 53.9021ZM35.0589 63.4122C35.0177 66.8772 36.1343 70.2561 38.2298 73.002L39.8197 71.7886C37.9963 69.3994 37.0229 66.4564 37.0588 63.436L35.0589 63.4122ZM38.2298 73.002C40.3255 75.748 43.2781 77.7007 46.6112 78.5413L47.1003 76.6021C44.2087 75.8728 41.6429 74.1777 39.8197 71.7886L38.2298 73.002ZM46.6112 78.5413C49.9444 79.382 53.4605 79.0607 56.5899 77.63L55.7583 75.8111C53.0421 77.0529 49.9918 77.3313 47.1003 76.6021L46.6112 78.5413ZM56.5899 77.63C59.7191 76.1995 62.2767 73.7443 63.8511 70.6642L62.0702 69.7539C60.6994 72.4359 58.4747 74.5693 55.7583 75.8111L56.5899 77.63ZM63.8511 70.6642C65.4253 67.5842 65.9249 64.0584 65.27 60.6567L63.3061 61.0348C63.8769 63.9995 63.4411 67.0718 62.0702 69.7539L63.8511 70.6642ZM65.27 60.6567C64.6151 57.255 62.8434 54.1742 60.2393 51.9141L58.9283 53.4245C61.192 55.3891 62.7353 58.0702 63.3061 61.0348L65.27 60.6567ZM71 38.3982C71 45.8082 65.0611 51.7964 57.758 51.7964V53.7964C66.1862 53.7964 73 46.8921 73 38.3982H71ZM57.758 51.7964C50.4549 51.7964 44.5161 45.8082 44.5161 38.3982H42.5161C42.5161 46.8921 49.3299 53.7964 57.758 53.7964V51.7964ZM44.5161 38.3982C44.5161 30.9883 50.4549 25 57.758 25V23C49.3299 23 42.5161 29.9043 42.5161 38.3982H44.5161ZM57.758 25C65.0611 25 71 30.9883 71 38.3982H73C73 29.9043 66.1862 23 57.758 23V25ZM55.5233 57.432L43.762 68.2745L45.1176 69.745L56.8789 58.9025L55.5233 57.432ZM53.8394 67.1245C53.8394 67.2145 53.7701 67.2688 53.7075 67.2688V69.2688C54.8952 69.2688 55.8394 68.2985 55.8394 67.1245H53.8394ZM53.7075 67.2688C53.6449 67.2688 53.5756 67.2145 53.5756 67.1245H51.5756C51.5756 68.2985 52.5198 69.2688 53.7075 69.2688V67.2688ZM53.5756 67.1245C53.5756 67.0345 53.6449 66.9802 53.7075 66.9802V64.9802C52.5198 64.9802 51.5756 65.9505 51.5756 67.1245H53.5756ZM53.7075 66.9802C53.7701 66.9802 53.8394 67.0345 53.8394 67.1245H55.8394C55.8394 65.9505 54.8952 64.9802 53.7075 64.9802V66.9802ZM47.3125 60.0482C47.3125 60.1382 47.2432 60.1925 47.1806 60.1925V62.1925C48.3683 62.1925 49.3125 61.2221 49.3125 60.0482H47.3125ZM47.1806 60.1925C47.118 60.1925 47.0487 60.1382 47.0487 60.0482H45.0487C45.0487 61.2221 45.993 62.1925 47.1806 62.1925V60.1925ZM47.0487 60.0482C47.0487 59.9581 47.1181 59.9038 47.1806 59.9038V57.9038C45.993 57.9038 45.0487 58.8742 45.0487 60.0482H47.0487ZM47.1806 59.9038C47.2432 59.9038 47.3125 59.9581 47.3125 60.0482H49.3125C49.3125 58.8742 48.3683 57.9038 47.1806 57.9038V59.9038ZM58.4479 36.5475L52.6193 30.9926L51.2395 32.4404L57.0681 37.9953L58.4479 36.5475ZM58.758 46.6978V36.4866H56.758V46.6978H58.758ZM58.4479 37.9953L64.2766 32.4404L62.8968 30.9926L57.0681 36.5475L58.4479 37.9953ZM62.8841 38.6697H52.6276V40.6697H62.8841V38.6697ZM62.8841 42.2035H52.6276V44.2035H62.8841V42.2035Z" fill="#667085"/>
</g>
</svg>
