<svg width="103" height="102" viewBox="0 0 103 102" fill="none" xmlns="http://www.w3.org/2000/svg">
<g id="Nuclear energy">
<path id="portfolio of 15 common stocks" d="M27 57.1406L26.1333 56.6418L25.2706 58.1406H27V57.1406ZM66.235 58.1406C66.7873 58.1406 67.235 57.6929 67.235 57.1406C67.235 56.5884 66.7873 56.1406 66.235 56.1406V58.1406ZM27 71C26.4477 71 26 71.4477 26 72C26 72.5523 26.4477 73 27 73V71ZM59.4041 73C59.9564 73 60.4041 72.5523 60.4041 72C60.4041 71.4477 59.9564 71 59.4041 71V73ZM27 63.568C26.4477 63.568 26 64.0157 26 64.568C26 65.1202 26.4477 65.568 27 65.568V63.568ZM75 65.568C75.5523 65.568 76 65.1202 76 64.568C76 64.0157 75.5523 63.568 75 63.568V65.568ZM35.0149 43.2162L35.5634 42.38C35.3331 42.229 35.0509 42.1796 34.7831 42.2434C34.5152 42.3073 34.2856 42.4787 34.1483 42.7173L35.0149 43.2162ZM48.6578 52.1639L48.1094 53.0001C48.5043 53.2591 49.0266 53.2065 49.3619 52.874L48.6578 52.1639ZM71.009 30L71.9957 30.1629C72.0458 29.8591 71.9532 29.5491 71.7446 29.3226C71.536 29.096 71.2346 28.9783 70.9277 29.0033L71.009 30ZM61.7853 29.7493C61.2348 29.7943 60.825 30.2769 60.8699 30.8274C60.9149 31.3778 61.3975 31.7876 61.948 31.7427L61.7853 29.7493ZM68.6307 38.2654C68.5408 38.8103 68.9096 39.325 69.4545 39.415C69.9994 39.5049 70.514 39.1361 70.604 38.5912L68.6307 38.2654ZM27 58.1406H66.235V56.1406H27V58.1406ZM27 73H59.4041V71H27V73ZM27 65.568H75V63.568H27V65.568ZM27.8667 57.6395L35.8816 43.7151L34.1483 42.7173L26.1333 56.6418L27.8667 57.6395ZM34.4665 44.0524L48.1094 53.0001L49.2062 51.3277L35.5634 42.38L34.4665 44.0524ZM49.3619 52.874L71.7132 30.7101L70.3049 29.2899L47.9537 51.4538L49.3619 52.874ZM70.9277 29.0033L61.7853 29.7493L61.948 31.7427L71.0904 30.9967L70.9277 29.0033ZM70.604 38.5912L71.9957 30.1629L70.0224 29.8371L68.6307 38.2654L70.604 38.5912Z" fill="#667085"/>
</g>
</svg>
