<svg width="103" height="102" viewBox="0 0 103 102" fill="none" xmlns="http://www.w3.org/2000/svg">
<g id="Nuclear energy">
<path id="Saving account" d="M34.0836 55.9627L33.1058 55.7532L33.1054 55.7551L34.0836 55.9627ZM40.8894 62.0949L39.8965 61.9763L39.8962 61.9791L40.8894 62.0949ZM63.1135 37.6617L62.1354 37.4536L62.1353 37.4541L63.1135 37.6617ZM69.9194 43.7939L68.9264 43.6753L68.9261 43.6781L69.9194 43.7939ZM23.8445 75.1319C23.3651 75.4061 23.1987 76.017 23.4729 76.4964C23.7471 76.9759 24.358 77.1422 24.8374 76.8681L23.8445 75.1319ZM67.1115 72.8005C67.6216 73.0121 68.2067 72.77 68.4183 72.2599C68.6299 71.7498 68.3878 71.1647 67.8777 70.9531L67.1115 72.8005ZM35.9721 50.1127V53.6619H37.9721V50.1127H35.9721ZM35.9721 64.6683V68.1936H37.9721V64.6683H35.9721ZM41.6074 53.4023C40.6135 53.0701 38.8507 52.5784 37.1927 52.6472C36.3571 52.6819 35.4639 52.8616 34.7018 53.3528C33.9086 53.8641 33.3398 54.6611 33.1058 55.7532L35.0614 56.1722C35.1897 55.5734 35.4614 55.2427 35.7854 55.0338C36.1407 54.8049 36.6416 54.6718 37.2756 54.6455C38.5568 54.5924 40.0351 54.9856 40.9734 55.2992L41.6074 53.4023ZM33.1054 55.7551C32.9636 56.423 32.9887 57.0513 33.208 57.6229C33.4266 58.1926 33.8057 58.6213 34.2313 58.9461C35.0342 59.5589 36.1413 59.8948 37.0364 60.1613C38.0296 60.4569 38.8173 60.6817 39.3624 61.0183C39.6142 61.1738 39.7477 61.3161 39.8177 61.4392C39.8793 61.5476 39.9289 61.7049 39.8965 61.9763L41.8824 62.2136C41.9598 61.5654 41.8518 60.9707 41.5566 60.4512C41.2698 59.9464 40.8476 59.5848 40.4133 59.3166C39.5862 58.8059 38.4801 58.5042 37.607 58.2444C36.6358 57.9553 35.904 57.7068 35.4446 57.3562C35.239 57.1993 35.131 57.0516 35.0753 56.9064C35.0203 56.7631 34.9838 56.5379 35.0618 56.1703L33.1054 55.7551ZM39.8962 61.9791C39.8111 62.7091 39.4663 63.0894 38.9571 63.331C38.3779 63.6059 37.5567 63.703 36.6221 63.661C35.7079 63.6199 34.7912 63.4515 34.0917 63.2883C33.7449 63.2074 33.4579 63.1294 33.2593 63.0721C33.1602 63.0435 33.0835 63.0202 33.0328 63.0044C33.0075 62.9965 32.9887 62.9906 32.9768 62.9868C32.9709 62.9849 32.9668 62.9835 32.9644 62.9827C32.9632 62.9824 32.9625 62.9821 32.9622 62.982C32.9621 62.982 32.9621 62.982 32.9622 62.982C32.9622 62.982 32.9624 62.9821 32.9624 62.9821C32.9626 62.9822 32.9628 62.9822 32.649 63.9317C32.3352 64.8812 32.3355 64.8813 32.3358 64.8814C32.3359 64.8814 32.3363 64.8815 32.3365 64.8816C32.3371 64.8818 32.3378 64.8821 32.3386 64.8823C32.3402 64.8828 32.3423 64.8835 32.3448 64.8843C32.3499 64.886 32.3568 64.8882 32.3656 64.8911C32.383 64.8967 32.4077 64.9045 32.4391 64.9142C32.5018 64.9338 32.5917 64.961 32.7048 64.9937C32.931 65.0589 33.2518 65.1461 33.6374 65.2361C34.4031 65.4146 35.4505 65.6104 36.5323 65.659C37.5939 65.7067 38.8008 65.619 39.8146 65.1378C40.8986 64.6234 41.7118 63.6762 41.8827 62.2107L39.8962 61.9791ZM49.3667 69.1725C51.4738 66.6052 52.7165 63.4473 52.9185 60.1425L50.9222 60.0205C50.746 62.9034 49.6619 65.6604 47.8207 67.9036L49.3667 69.1725ZM52.9185 60.1425C53.1205 56.8377 52.2715 53.554 50.4921 50.7531L48.804 51.8256C50.358 54.2717 51.0984 57.1376 50.9222 60.0205L52.9185 60.1425ZM50.4921 50.7531C48.7128 47.9524 46.0931 45.7759 43.0025 44.5278L42.2536 46.3823C44.9595 47.4751 47.2498 49.3793 48.804 51.8256L50.4921 50.7531ZM43.0025 44.5278C39.912 43.2798 36.5049 43.0223 33.2595 43.7911L33.7205 45.7373C36.5632 45.0638 39.5476 45.2896 42.2536 46.3823L43.0025 44.5278ZM33.2595 43.7911C30.014 44.56 27.0918 46.317 24.9044 48.817L26.4096 50.134C28.3214 47.9489 30.8779 46.4107 33.7205 45.7373L33.2595 43.7911ZM24.9044 48.817C22.7169 51.3172 21.3745 54.4346 21.0676 57.7315L23.059 57.9169C23.3267 55.0408 24.4979 52.3189 26.4096 50.134L24.9044 48.817ZM21.0676 57.7315C20.7606 61.0283 21.5047 64.337 23.1943 67.1921L24.9155 66.1735C23.4401 63.6803 22.7912 60.7929 23.059 57.9169L21.0676 57.7315ZM23.1943 67.1921C24.8838 70.047 27.4332 72.3042 30.4827 73.6481L31.2892 71.8179C28.6195 70.6414 26.391 68.6669 24.9155 66.1735L23.1943 67.1921ZM65.002 31.8117V35.361H67.002V31.8117H65.002ZM65.002 46.3674V49.8927H67.002V46.3674H65.002ZM70.6373 35.1013C69.6433 34.7691 67.8794 34.2775 66.2208 34.3463C65.385 34.3809 64.4915 34.5606 63.7296 35.0519C62.9362 35.5635 62.3679 36.361 62.1354 37.4536L64.0916 37.8699C64.219 37.2715 64.49 36.9414 64.8134 36.7328C65.1683 36.5039 65.6693 36.3709 66.3037 36.3445C67.5856 36.2914 69.0652 36.6847 70.0033 36.9982L70.6373 35.1013ZM62.1353 37.4541C61.9935 38.1221 62.0186 38.7503 62.238 39.3219C62.4566 39.8916 62.8356 40.3203 63.2612 40.6451C64.0642 41.2579 65.1712 41.5939 66.0663 41.8603C67.0595 42.1559 67.8472 42.3807 68.3923 42.7173C68.6441 42.8728 68.7777 43.0151 68.8476 43.1382C68.9092 43.2466 68.9589 43.4039 68.9264 43.6753L70.9123 43.9126C70.9898 43.2644 70.8817 42.6698 70.5865 42.1503C70.2997 41.6455 69.8775 41.2839 69.4432 41.0156C68.6161 40.5049 67.51 40.2032 66.6369 39.9434C65.6657 39.6543 64.9339 39.4058 64.4745 39.0552C64.2689 38.8983 64.1609 38.7506 64.1052 38.6054C64.0502 38.4621 64.0137 38.237 64.0917 37.8693L62.1353 37.4541ZM68.9261 43.6781C68.841 44.4082 68.4962 44.7884 67.987 45.03C67.4078 45.3049 66.5866 45.402 65.652 45.36C64.7378 45.3189 63.8211 45.1505 63.1216 44.9874C62.7748 44.9065 62.4878 44.8284 62.2893 44.7711C62.1901 44.7425 62.1134 44.7192 62.0627 44.7034C62.0374 44.6956 62.0186 44.6896 62.0067 44.6858C62.0008 44.6839 61.9967 44.6825 61.9943 44.6818C61.9931 44.6814 61.9924 44.6811 61.9922 44.6811C61.992 44.681 61.992 44.681 61.9921 44.681C61.9921 44.6811 61.9923 44.6811 61.9923 44.6811C61.9925 44.6812 61.9927 44.6812 61.6789 45.6307C61.3651 46.5802 61.3654 46.5803 61.3657 46.5804C61.3658 46.5805 61.3662 46.5806 61.3665 46.5807C61.367 46.5808 61.3677 46.5811 61.3685 46.5813C61.3701 46.5819 61.3722 46.5825 61.3747 46.5834C61.3798 46.585 61.3867 46.5873 61.3955 46.5901C61.4129 46.5957 61.4376 46.6035 61.469 46.6133C61.5317 46.6328 61.6216 46.6601 61.7348 46.6927C61.9609 46.758 62.2817 46.8451 62.6674 46.9351C63.433 47.1137 64.4804 47.3094 65.5623 47.358C66.6238 47.4057 67.8307 47.318 68.8445 46.8369C69.9285 46.3224 70.7418 45.3753 70.9126 43.9098L68.9261 43.6781ZM80 40.8522C80 48.4934 73.7421 54.7044 66.002 54.7044V56.7044C74.8282 56.7044 82 49.6163 82 40.8522H80ZM66.002 54.7044C58.2619 54.7044 52.004 48.4934 52.004 40.8522H50.004C50.004 49.6163 57.1758 56.7044 66.002 56.7044V54.7044ZM52.004 40.8522C52.004 33.211 58.2619 27 66.002 27V25C57.1758 25 50.004 32.0881 50.004 40.8522H52.004ZM66.002 27C73.7421 27 80 33.211 80 40.8522H82C82 32.0881 74.8282 25 66.002 25V27ZM24.8374 76.8681C34.3771 71.4124 50.0295 65.7156 67.1115 72.8005L67.8777 70.9531C49.9692 63.5254 33.6258 69.5381 23.8445 75.1319L24.8374 76.8681Z" fill="#667085"/>
</g>
</svg>
