<svg width="22" height="14" viewBox="0 0 22 14" fill="none" xmlns="http://www.w3.org/2000/svg">
<path d="M6.52379 5.47001V6.26547H4.01527V5.47001H6.52379ZM4.63459 4.42456H5.663V8.52115C5.663 8.65941 5.68383 8.76547 5.7255 8.83933C5.76906 8.9113 5.82588 8.96054 5.89595 8.98706C5.96603 9.01357 6.04368 9.02683 6.12891 9.02683C6.1933 9.02683 6.25201 9.0221 6.30504 9.01263C6.35997 9.00316 6.40163 8.99463 6.43004 8.98706L6.60334 9.79104C6.54841 9.80997 6.46982 9.83081 6.36754 9.85354C6.26716 9.87626 6.14406 9.88952 5.99822 9.89331C5.74065 9.90088 5.50864 9.86206 5.3022 9.77683C5.09576 9.68971 4.93194 9.55524 4.81072 9.37342C4.69141 9.1916 4.63269 8.96433 4.63459 8.6916V4.42456Z" fill="#344054"/>
<rect x="0.988281" y="1.09106" width="20.0215" height="11.818" rx="3.72179" stroke="#344054"/>
<path d="M9.26953 3.0713L9.26953 10.9288" stroke="#344054" stroke-linecap="square"/>
</svg>
