<svg width="16" height="16" viewBox="0 0 16 16" fill="none" xmlns="http://www.w3.org/2000/svg">
<g id="presentation-chart-01">
<path id="Solid" fill-rule="evenodd" clip-rule="evenodd" d="M0.666626 2.00016C0.666626 1.63197 0.965103 1.3335 1.33329 1.3335H14.6666C15.0348 1.3335 15.3333 1.63197 15.3333 2.00016C15.3333 2.36835 15.0348 2.66683 14.6666 2.66683V7.49438C14.6666 8.03102 14.6666 8.47392 14.6372 8.83471C14.6065 9.20944 14.5408 9.55391 14.376 9.87747C14.1203 10.3792 13.7124 10.7872 13.2106 11.0428C12.887 11.2077 12.5426 11.2734 12.1678 11.304C11.807 11.3335 11.3641 11.3335 10.8275 11.3335H9.84134L12.4268 13.488C12.7096 13.7237 12.7478 14.1441 12.5121 14.427C12.2764 14.7098 11.856 14.748 11.5732 14.5123L8.66663 12.0902V14.0002C8.66663 14.3684 8.36815 14.6668 7.99996 14.6668C7.63177 14.6668 7.33329 14.3684 7.33329 14.0002V12.0902L4.42677 14.5123C4.14391 14.748 3.72354 14.7098 3.48783 14.427C3.25212 14.1441 3.29034 13.7237 3.57319 13.488L6.15861 11.3335H5.17244C4.63579 11.3335 4.19288 11.3335 3.83208 11.304C3.45734 11.2734 3.11288 11.2077 2.78932 11.0428C2.28755 10.7872 1.87961 10.3792 1.62394 9.87747C1.45908 9.55391 1.39337 9.20944 1.36276 8.83471C1.33328 8.47392 1.33328 8.031 1.33329 7.49436L1.33329 2.66683C0.965103 2.66683 0.666626 2.36835 0.666626 2.00016ZM7.99996 4.00016C8.36815 4.00016 8.66663 4.29864 8.66663 4.66683V8.00016C8.66663 8.36835 8.36815 8.66683 7.99996 8.66683C7.63177 8.66683 7.33329 8.36835 7.33329 8.00016V4.66683C7.33329 4.29864 7.63177 4.00016 7.99996 4.00016ZM5.33329 5.3335C5.70148 5.3335 5.99996 5.63197 5.99996 6.00016V8.00016C5.99996 8.36835 5.70148 8.66683 5.33329 8.66683C4.9651 8.66683 4.66663 8.36835 4.66663 8.00016V6.00016C4.66663 5.63197 4.9651 5.3335 5.33329 5.3335ZM11.3333 7.3335C11.3333 6.96531 11.0348 6.66683 10.6666 6.66683C10.2984 6.66683 9.99996 6.96531 9.99996 7.3335V8.00016C9.99996 8.36835 10.2984 8.66683 10.6666 8.66683C11.0348 8.66683 11.3333 8.36835 11.3333 8.00016V7.3335Z" fill="#1A3ED2"/>
</g>
</svg>
