<svg width="16" height="16" viewBox="0 0 16 16" fill="none" xmlns="http://www.w3.org/2000/svg">
<g id="pencil-line" clip-path="url(#clip0_7185_129478)">
<path id="Fill" opacity="0.12" d="M3.03612 10.7665C3.13431 10.5113 3.1834 10.3836 3.2676 10.3252C3.34119 10.2741 3.43225 10.2547 3.52024 10.2715C3.62093 10.2908 3.71763 10.3875 3.91103 10.5809L5.41709 12.0869C5.61049 12.2803 5.70719 12.377 5.72642 12.4777C5.74323 12.5657 5.7239 12.6568 5.67281 12.7304C5.61434 12.8146 5.4867 12.8637 5.23142 12.9618L1.66406 14.3339L3.03612 10.7665Z" fill="#667085"/>
<path id="Icon" d="M13.9974 13.9996H8.66408M1.66406 14.3329L5.36358 12.91C5.6002 12.819 5.71852 12.7735 5.82921 12.7141C5.92753 12.6613 6.02126 12.6004 6.10942 12.532C6.20868 12.4549 6.29831 12.3653 6.47758 12.186L13.9974 4.66622C14.7338 3.92984 14.7338 2.73593 13.9974 1.99955C13.261 1.26317 12.0671 1.26317 11.3307 1.99955L3.81092 9.51936C3.63165 9.69864 3.54201 9.78827 3.46499 9.88752C3.39658 9.97569 3.33566 10.0694 3.28289 10.1677C3.22347 10.2784 3.17796 10.3967 3.08695 10.6334L1.66406 14.3329ZM1.66406 14.3329L3.03614 10.7655C3.13433 10.5102 3.18342 10.3826 3.26762 10.3241C3.34121 10.273 3.43226 10.2537 3.52026 10.2705C3.62095 10.2898 3.71765 10.3865 3.91105 10.5799L5.41711 12.0859C5.61051 12.2793 5.70721 12.376 5.72644 12.4767C5.74324 12.5647 5.72392 12.6558 5.67283 12.7293C5.61436 12.8135 5.48672 12.8626 5.23144 12.9608L1.66406 14.3329Z" stroke="#667085" stroke-width="2" stroke-linecap="round" stroke-linejoin="round"/>
</g>
<defs>
<clipPath id="clip0_7185_129478">
<rect width="16" height="16" fill="white"/>
</clipPath>
</defs>
</svg>
