<svg width="15" height="14" viewBox="0 0 15 14" fill="none" xmlns="http://www.w3.org/2000/svg">
    <path
        d="M7.66671 10.2083H7.67254M5.45004 12.8333H9.88337C10.5368 12.8333 10.8635 12.8333 11.113 12.7062C11.3326 12.5943 11.511 12.4158 11.6229 12.1963C11.75 11.9467 11.75 11.6201 11.75 10.9667V3.03332C11.75 2.37993 11.75 2.05323 11.6229 1.80367C11.511 1.58415 11.3326 1.40567 11.113 1.29382C10.8635 1.16666 10.5368 1.16666 9.88337 1.16666H5.45004C4.79665 1.16666 4.46995 1.16666 4.22039 1.29382C4.00086 1.40567 3.82239 1.58415 3.71053 1.80367C3.58337 2.05323 3.58337 2.37993 3.58337 3.03332V10.9667C3.58337 11.6201 3.58337 11.9467 3.71053 12.1963C3.82239 12.4158 4.00086 12.5943 4.22039 12.7062C4.46995 12.8333 4.79665 12.8333 5.45004 12.8333ZM7.95837 10.2083C7.95837 10.3694 7.82779 10.5 7.66671 10.5C7.50562 10.5 7.37504 10.3694 7.37504 10.2083C7.37504 10.0472 7.50562 9.91666 7.66671 9.91666C7.82779 9.91666 7.95837 10.0472 7.95837 10.2083Z"
        stroke="#667085" stroke-linecap="round" stroke-linejoin="round" />
</svg>