<svg width="22" height="14" viewBox="0 0 22 14" fill="none" xmlns="http://www.w3.org/2000/svg">
<rect x="0.988281" y="1.091" width="20.0215" height="11.818" rx="3.72179" stroke="#344054"/>
<mask id="mask0_980_22205" style="mask-type:alpha" maskUnits="userSpaceOnUse" x="0" y="0" width="22" height="14">
<rect x="0.988281" y="1.091" width="20.0215" height="11.818" rx="3.72179" fill="#D9D9D9" stroke="#344054"/>
</mask>
<g mask="url(#mask0_980_22205)">
<path d="M13.4464 4.18131V3.448L15.6065 0.0350044H16.218V1.07904H15.8452L14.391 3.38337V3.42314H17.4062V4.18131H13.4464ZM15.875 5.12591V3.95759L15.8849 3.62946V0.0350044H16.755V5.12591H15.875Z" fill="#344054"/>
<path d="M15.3082 13.4787C14.9768 13.4787 14.6802 13.4166 14.4183 13.2923C14.1565 13.1663 13.9485 12.994 13.7944 12.7752C13.6419 12.5565 13.5607 12.3063 13.5508 12.0245H14.4457C14.4622 12.2333 14.5526 12.404 14.7166 12.5366C14.8807 12.6675 15.0779 12.733 15.3082 12.733C15.4889 12.733 15.6496 12.6916 15.7905 12.6087C15.9313 12.5258 16.0424 12.4107 16.1236 12.2632C16.2048 12.1157 16.2446 11.9475 16.2429 11.7586C16.2446 11.5663 16.204 11.3956 16.1211 11.2465C16.0382 11.0973 15.9247 10.9805 15.7805 10.896C15.6364 10.8098 15.4706 10.7667 15.2834 10.7667C15.1309 10.7651 14.9809 10.7932 14.8335 10.8512C14.686 10.9092 14.5691 10.9855 14.483 11.0799L13.6502 10.9432L13.9162 8.31821H16.8693V9.08881H14.6793L14.5327 10.4386H14.5625C14.657 10.3276 14.7904 10.2356 14.9627 10.1627C15.1351 10.0881 15.324 10.0508 15.5295 10.0508C15.8377 10.0508 16.1128 10.1237 16.3548 10.2696C16.5967 10.4137 16.7873 10.6126 16.9265 10.8661C17.0657 11.1197 17.1353 11.4097 17.1353 11.7362C17.1353 12.0726 17.0574 12.3725 16.9016 12.636C16.7475 12.8979 16.5329 13.1042 16.2578 13.255C15.9844 13.4041 15.6679 13.4787 15.3082 13.4787Z" fill="#344054"/>
</g>
<path d="M6.79261 4.40903V9.49994H5.87038V5.3064H5.84055L4.64986 6.06706V5.22189L5.91513 4.40903H6.79261Z" fill="#344054"/>
<path d="M11 1.41913L11 12.5808" stroke="#344054" stroke-linecap="square"/>
</svg>
