<svg width="24" height="21" viewBox="0 0 24 21" fill="none" xmlns="http://www.w3.org/2000/svg">
<path d="M12.0002 7.99999V12M12.0002 16H12.0102M10.6156 2.89171L2.39068 17.0983C1.93447 17.8863 1.70637 18.2803 1.74008 18.6037C1.76949 18.8857 1.91726 19.142 2.14661 19.3088C2.40957 19.5 2.86483 19.5 3.77536 19.5H20.2251C21.1357 19.5 21.5909 19.5 21.8539 19.3088C22.0832 19.142 22.231 18.8857 22.2604 18.6037C22.2941 18.2803 22.066 17.8863 21.6098 17.0983L13.3849 2.89171C12.9304 2.10654 12.7031 1.71396 12.4065 1.58211C12.1479 1.4671 11.8526 1.4671 11.5939 1.58211C11.2974 1.71396 11.0701 2.10655 10.6156 2.89171Z" stroke="#D92D20" stroke-width="2" stroke-linecap="round" stroke-linejoin="round"/>
</svg>
