<svg width="38" height="38" viewBox="0 0 38 38" fill="none" xmlns="http://www.w3.org/2000/svg">
    <path
        d="M30.6058 10.5988L31.2708 8.41859C31.3317 8.21971 31.431 8.03475 31.5633 7.87428C31.6956 7.71381 31.8582 7.58098 32.0419 7.48335C32.2255 7.38573 32.4266 7.32523 32.6336 7.30531C32.8406 7.28539 33.0495 7.30644 33.2484 7.36725C33.4473 7.42807 33.6323 7.52747 33.7927 7.65977C33.9532 7.79206 34.086 7.95467 34.1837 8.13831C34.2813 8.32194 34.3418 8.52301 34.3617 8.73003C34.3816 8.93704 34.3606 9.14596 34.2997 9.34484L32.4473 15.4011C32.3245 15.8024 32.0474 16.1386 31.6769 16.3358C31.3063 16.5329 30.8727 16.5749 30.4713 16.4524L24.415 14.5999C24.212 14.5428 24.0224 14.4456 23.8574 14.3142C23.6924 14.1828 23.5554 14.0197 23.4543 13.8346C23.3532 13.6494 23.2902 13.446 23.2688 13.2361C23.2475 13.0263 23.2682 12.8143 23.33 12.6126C23.3917 12.4109 23.4931 12.2235 23.6282 12.0616C23.7633 11.8996 23.9294 11.7663 24.1168 11.6694C24.3041 11.5725 24.509 11.514 24.7192 11.4974C24.9295 11.4808 25.141 11.5063 25.3413 11.5726L27.9886 12.3817C26.8183 10.6066 25.1859 9.18441 23.2672 8.2683C21.3485 7.3522 19.2163 6.97687 17.1001 7.18276C14.9839 7.38864 12.964 8.16793 11.2579 9.43669C9.55179 10.7055 8.22413 12.4156 7.41792 14.383L7.00625 15.3853C6.93138 15.5831 6.81763 15.7639 6.6717 15.9171C6.52578 16.0702 6.35065 16.1926 6.15665 16.2769C5.96265 16.3613 5.75372 16.4059 5.5422 16.4081C5.33067 16.4104 5.12084 16.3702 4.9251 16.29C4.72936 16.2098 4.55167 16.0912 4.40253 15.9412C4.25339 15.7911 4.13583 15.6128 4.05678 15.4165C3.97773 15.2203 3.9388 15.0103 3.94229 14.7988C3.94577 14.5873 3.99161 14.3786 4.07708 14.1851L4.48875 13.1828C5.51195 10.6864 7.19581 8.51573 9.35953 6.904C11.5232 5.29228 14.0851 4.30034 16.77 4.0347C19.4549 3.76906 22.1615 4.23974 24.5991 5.39621C27.0367 6.55269 29.1133 8.35127 30.6058 10.5988ZM6.02934 27.4028L5.51158 29.4785C5.46526 29.6844 5.37825 29.8789 5.25568 30.0507C5.1331 30.2224 4.97743 30.3679 4.79781 30.4787C4.6182 30.5894 4.41825 30.6631 4.20974 30.6955C4.00123 30.7279 3.78834 30.7182 3.58361 30.6672C3.37887 30.6161 3.18641 30.5246 3.01754 30.3981C2.84866 30.2715 2.70678 30.1125 2.60023 29.9304C2.49368 29.7483 2.42461 29.5467 2.39708 29.3375C2.36955 29.1283 2.38411 28.9157 2.43992 28.7122L3.971 22.5688C4.02266 22.3597 4.11646 22.1632 4.24666 21.9916C4.37687 21.8199 4.54074 21.6767 4.72824 21.5705C4.91574 21.4644 5.12293 21.3977 5.33712 21.3744C5.55131 21.3511 5.768 21.3718 5.97392 21.4352L12.0349 22.9457C12.4425 23.0473 12.7929 23.3066 13.0092 23.6667C13.2256 24.0267 13.29 24.4579 13.1884 24.8655C13.0868 25.273 12.8274 25.6235 12.4674 25.8398C12.1073 26.0561 11.6761 26.1205 11.2686 26.0189L8.44075 25.3143C9.64965 27.165 11.3585 28.635 13.3689 29.5539C15.3794 30.4728 17.6092 30.8028 19.7997 30.5058C21.9902 30.2088 24.0516 29.2969 25.7448 27.8758C27.438 26.4547 28.6936 24.5828 29.3661 22.477C29.4937 22.0768 29.7751 21.7437 30.1484 21.551C30.3332 21.4556 30.535 21.3975 30.7423 21.3801C30.9495 21.3627 31.1582 21.3862 31.3563 21.4494C31.5545 21.5126 31.7383 21.6143 31.8971 21.7485C32.056 21.8827 32.1869 22.0469 32.2823 22.2317C32.3777 22.4165 32.4358 22.6183 32.4533 22.8256C32.4707 23.0329 32.4471 23.2415 32.3839 23.4397C31.7248 25.5074 30.6205 27.4057 29.1488 29.0007C27.6771 30.5958 25.8737 31.849 23.8656 32.6721C20.7366 33.9539 17.2641 34.1304 14.0213 33.1724C10.7785 32.2144 7.95936 30.1792 6.02934 27.4028Z"
        fill="#1A3ED2" />
</svg>