<svg width="182" height="116" viewBox="0 0 182 116" fill="none" xmlns="http://www.w3.org/2000/svg">
<g id="BG">
<path id="CARD" d="M173.326 0.410645H8.75771C4.43063 0.410645 0.922836 3.93301 0.922836 8.27807V107.491C0.922836 111.836 4.43063 115.358 8.75771 115.358H173.326C177.653 115.358 181.161 111.836 181.161 107.491V8.27807C181.161 3.93301 177.653 0.410645 173.326 0.410645Z" fill="#F68E78"/>
<mask id="mask0_688_78011" style="mask-type:alpha" maskUnits="userSpaceOnUse" x="0" y="0" width="182" height="116">
<path id="CARD_2" d="M173.326 0.410645H8.75771C4.43063 0.410645 0.922836 3.93301 0.922836 8.27807V107.491C0.922836 111.836 4.43063 115.358 8.75771 115.358H173.326C177.653 115.358 181.161 111.836 181.161 107.491V8.27807C181.161 3.93301 177.653 0.410645 173.326 0.410645Z" fill="#F68E78"/>
</mask>
<g mask="url(#mask0_688_78011)">
<path id="SHAPE" d="M-3.97969 125.116C-4.35378 124.534 -4.58634 123.872 -4.65863 123.183C-4.73092 122.494 -4.64087 121.797 -4.39581 121.149C-3.97873 120.038 -3.14302 119.137 -2.06929 118.64C-0.995556 118.143 0.22989 118.09 1.34218 118.492C49.3934 136.103 83.4964 139.199 105.6 127.958C128.747 116.187 136.621 89.3179 144.237 63.3329C147.72 51.4499 151.321 39.1623 156.35 28.5107C159.119 22.6466 162.09 17.7232 165.433 13.4595C169.032 8.81107 173.372 4.79307 178.277 1.56842C178.765 1.24349 179.312 1.01905 179.887 0.908123C180.462 0.797197 181.053 0.802043 181.626 0.922282C182.199 1.04252 182.743 1.27579 183.225 1.6086C183.708 1.9414 184.119 2.36714 184.437 2.86104C184.754 3.35495 184.971 3.90717 185.074 4.48578C185.177 5.0644 185.165 5.65786 185.038 6.2317C184.911 6.80553 184.672 7.34836 184.335 7.82867C183.997 8.30898 183.568 8.71714 183.072 9.02964C166.204 19.9748 159.685 42.215 152.785 65.7606C148.808 79.3299 144.696 93.361 138.367 105.631C131.018 119.878 121.6 129.777 109.575 135.892C103.809 138.825 97.3173 140.929 90.2792 142.146C82.9283 143.417 74.7126 143.767 65.861 143.186C56.664 142.581 46.4484 140.951 35.4982 138.339C24.1311 135.627 11.5831 131.766 -1.79575 126.862C-2.69431 126.536 -3.46148 125.922 -3.97969 125.116Z" fill="#F65C44"/>
<path id="SHAPE_2" d="M-4.51289 124.182C-4.97528 123.462 -5.2229 122.624 -5.22654 121.767C-5.23018 120.911 -4.98969 120.071 -4.53344 119.347C-4.07719 118.623 -3.42424 118.045 -2.65162 117.682C-1.87901 117.318 -1.01899 117.184 -0.173057 117.296C27.643 120.989 46.9598 117.131 60.6182 105.156C72.7452 94.5236 78.9518 78.8786 85.5221 62.3154C92.1983 45.4866 99.1015 28.0847 112.855 15.7458C120.388 8.98704 129.184 4.39187 139.744 1.69829C151.331 -1.25739 164.704 -1.84386 180.629 -0.0948223C181.802 0.0406537 182.875 0.63706 183.613 1.56416C184.35 2.49127 184.692 3.67368 184.564 4.85316C184.436 6.03264 183.848 7.11329 182.929 7.85909C182.01 8.60489 180.835 8.9552 179.659 8.83352C152.275 5.82592 132.371 10.2784 118.808 22.4462C106.625 33.3765 100.407 49.0496 93.8246 65.6426C87.1501 82.4679 80.2481 99.8655 66.495 111.924C58.9648 118.526 50.159 122.925 39.575 125.372C27.998 128.046 14.6138 128.318 -1.34244 126.2C-1.98521 126.115 -2.60184 125.891 -3.14939 125.542C-3.69694 125.194 -4.16227 124.73 -4.51289 124.182Z" fill="#F13958"/>
<path id="SHAPE_3" d="M-4.65195 124.384C-5.04164 123.779 -5.28109 123.09 -5.35023 122.373C-5.41938 121.657 -5.31617 120.934 -5.04927 120.265C1.65089 103.452 8.82742 90.0729 16.8902 79.3674C24.2435 69.6035 32.1952 62.2647 41.2006 56.9308C48.7546 52.4576 57.1806 49.3669 66.9605 47.4848C75.5207 45.8376 84.3065 45.2472 92.8029 44.6767C121.784 42.7299 149.157 40.8911 176.762 1.69631C177.102 1.21416 177.533 0.804071 178.031 0.489301C178.529 0.174531 179.084 -0.0387126 179.664 -0.138183C180.244 -0.237654 180.837 -0.221411 181.411 -0.0904388C181.985 0.0405334 182.527 0.283705 183.007 0.625181C183.488 0.966657 183.896 1.39969 184.21 1.89969C184.523 2.39968 184.735 2.95675 184.834 3.53914C184.933 4.12153 184.917 4.71782 184.787 5.29394C184.656 5.87006 184.414 6.4148 184.074 6.89695C176.916 17.061 169.521 25.2064 161.469 31.7989C154.243 37.7154 146.68 42.2118 138.35 45.5449C123.053 51.6662 107.979 52.6786 93.4021 53.658C59.0762 55.9638 29.4313 57.9552 3.26758 123.613C2.96253 124.378 2.45357 125.045 1.79646 125.54C1.13935 126.035 0.359396 126.339 -0.45814 126.418C-1.27568 126.498 -2.09928 126.35 -2.83882 125.991C-3.57837 125.633 -4.20536 125.076 -4.65124 124.384L-4.65195 124.384Z" fill="#F24054"/>
<path id="SHAPE_4" d="M-4.51882 124.278C-5.04553 123.459 -5.2922 122.491 -5.22147 121.519C-3.38364 95.7541 0.179659 75.5323 5.6728 59.6979C10.8214 44.8579 17.6096 34.0798 26.4258 26.7469C30.9167 23.0203 36.039 20.1357 41.5476 18.2314C46.5314 16.4956 51.9547 15.4414 58.1263 15.0091C69.312 14.2257 81.0476 15.6059 93.4728 17.0673C122.008 20.4235 151.515 23.8939 177.271 1.03585C178.161 0.247217 179.326 -0.153977 180.511 -0.0796155C181.696 -0.00525386 182.803 0.538608 183.588 1.43241C184.373 2.3262 184.773 3.49662 184.699 4.68628C184.625 5.87594 184.083 6.98743 183.193 7.77607C154.446 33.289 121.504 29.4141 92.4391 25.9956C68.4279 23.1714 47.6908 20.7326 32.1316 33.6734C24.6072 39.9318 18.7152 49.414 14.1192 62.6619C8.88889 77.739 5.48072 97.2031 3.70042 122.167C3.63377 123.107 3.27416 124.003 2.67258 124.726C2.07101 125.449 1.25796 125.964 0.348683 126.198C-0.560596 126.431 -1.51995 126.371 -2.39347 126.027C-3.26698 125.682 -4.01036 125.07 -4.51816 124.277L-4.51882 124.278Z" fill="#F65C44"/>
</g>
</g>
</svg>
