<svg width="19" height="19" viewBox="0 0 19 19" fill="none" xmlns="http://www.w3.org/2000/svg">
<path id="Icon" d="M8.9987 12.5L6.4987 10M8.9987 12.5C10.1627 12.0573 11.2794 11.4989 12.332 10.8333M8.9987 12.5V16.6667C8.9987 16.6667 11.5237 16.2083 12.332 15C13.232 13.65 12.332 10.8333 12.332 10.8333M6.4987 10C6.94215 8.84954 7.50053 7.74673 8.16536 6.70835C9.13635 5.15584 10.4884 3.87755 12.0929 2.99509C13.6973 2.11262 15.5009 1.65532 17.332 1.66668C17.332 3.93335 16.682 7.91668 12.332 10.8333M6.4987 10H2.33203C2.33203 10 2.79036 7.47501 3.9987 6.66668C5.3487 5.76668 8.16536 6.66668 8.16536 6.66668M2.7487 13.75C1.4987 14.8 1.08203 17.9167 1.08203 17.9167C1.08203 17.9167 4.1987 17.5 5.2487 16.25C5.84036 15.55 5.83203 14.475 5.1737 13.825C4.84979 13.5159 4.42311 13.3372 3.97555 13.3234C3.528 13.3095 3.09109 13.4615 2.7487 13.75Z" stroke="white" stroke-width="1.67" stroke-linecap="round" stroke-linejoin="round"/>
</svg>
