<svg width="24" height="25" viewBox="0 0 24 25" fill="none" xmlns="http://www.w3.org/2000/svg">
<g id="rocket-02">
<path id="Icon" d="M12 15.0991L9 12.0991M12 15.0991C13.3968 14.5679 14.7369 13.8978 16 13.0991M12 15.0991V20.0991C12 20.0991 15.03 19.5491 16 18.0991C17.08 16.4791 16 13.0991 16 13.0991M9 12.0991C9.53214 10.7186 10.2022 9.39519 11 8.14913C12.1652 6.28611 13.7876 4.75217 15.713 3.69322C17.6384 2.63426 19.8027 2.0855 22 2.09912C22 4.81912 21.22 9.59912 16 13.0991M9 12.0991H4C4 12.0991 4.55 9.06912 6 8.09912C7.62 7.01912 11 8.09912 11 8.09912M4.5 16.5991C3 17.8591 2.5 21.5991 2.5 21.5991C2.5 21.5991 6.24 21.0991 7.5 19.5991C8.21 18.7591 8.2 17.4691 7.41 16.6891C7.02131 16.3181 6.50929 16.1038 5.97223 16.0872C5.43516 16.0705 4.91088 16.2529 4.5 16.5991Z" stroke="#344054" stroke-width="2" stroke-linecap="round" stroke-linejoin="round"/>
</g>
</svg>
