<svg width="21" height="20" viewBox="0 0 21 20" fill="none" xmlns="http://www.w3.org/2000/svg">
<g id="face-frown">
<path id="Icon" d="M13.8327 13.3337C13.8327 13.3337 12.5827 11.667 10.4993 11.667C8.41602 11.667 7.16602 13.3337 7.16602 13.3337M12.9993 7.50033H13.0077M7.99935 7.50033H8.00768M18.8327 10.0003C18.8327 14.6027 15.1017 18.3337 10.4993 18.3337C5.89698 18.3337 2.16602 14.6027 2.16602 10.0003C2.16602 5.39795 5.89698 1.66699 10.4993 1.66699C15.1017 1.66699 18.8327 5.39795 18.8327 10.0003ZM13.416 7.50033C13.416 7.73044 13.2295 7.91699 12.9993 7.91699C12.7692 7.91699 12.5827 7.73044 12.5827 7.50033C12.5827 7.27021 12.7692 7.08366 12.9993 7.08366C13.2295 7.08366 13.416 7.27021 13.416 7.50033ZM8.41602 7.50033C8.41602 7.73044 8.22947 7.91699 7.99935 7.91699C7.76923 7.91699 7.58268 7.73044 7.58268 7.50033C7.58268 7.27021 7.76923 7.08366 7.99935 7.08366C8.22947 7.08366 8.41602 7.27021 8.41602 7.50033Z" stroke="#667085" stroke-width="1.67" stroke-linecap="round" stroke-linejoin="round"/>
</g>
</svg>
