<svg width="16" height="16" viewBox="0 0 16 16" fill="none" xmlns="http://www.w3.org/2000/svg">
    <path
        d="M6.99833 8.00003H3.33166M3.27523 8.19436L1.71861 12.8442C1.59632 13.2095 1.53518 13.3921 1.57906 13.5046C1.61717 13.6023 1.69901 13.6763 1.8 13.7045C1.91629 13.7369 2.09193 13.6579 2.44322 13.4998L13.5842 8.48639C13.9271 8.33209 14.0985 8.25494 14.1515 8.14777C14.1976 8.05466 14.1976 7.9454 14.1515 7.85229C14.0985 7.74512 13.9271 7.66797 13.5842 7.51367L2.43934 2.49851C2.08911 2.34091 1.91399 2.26211 1.79782 2.29443C1.69692 2.32251 1.61509 2.39636 1.57685 2.49386C1.53282 2.60612 1.59331 2.78837 1.7143 3.15288L3.27566 7.85705C3.29644 7.91965 3.30683 7.95095 3.31093 7.98297C3.31457 8.01138 3.31453 8.04013 3.31082 8.06853C3.30664 8.10054 3.29617 8.13181 3.27523 8.19436Z"
        stroke="#1A3ED2" stroke-width="1.5" stroke-linecap="round" stroke-linejoin="round" />
</svg>