<svg width="479" height="134" viewBox="0 0 479 134" fill="none" xmlns="http://www.w3.org/2000/svg">
<mask id="mask0_980_27839" style="mask-type:alpha" maskUnits="userSpaceOnUse" x="0" y="0" width="479" height="134">
<path d="M0 8C0 3.58172 3.58172 0 8 0H471C475.418 0 479 3.58172 479 8V134H0V8Z" fill="#FFF7E6"/>
</mask>
<g mask="url(#mask0_980_27839)">
<path d="M156.076 54.8559C155.896 54.1325 155.246 53.625 154.5 53.625C153.754 53.625 153.104 54.1325 152.924 54.8559L150.809 63.3156C150.368 65.0771 150.22 65.5872 149.967 65.9817C149.714 66.3777 149.378 66.7141 148.982 66.9675C148.587 67.2199 148.077 67.3682 146.316 67.8086L137.856 69.9235C137.132 70.1044 136.625 70.7543 136.625 71.5C136.625 72.2457 137.132 72.8956 137.856 73.0765L146.316 75.1914C148.077 75.6318 148.587 75.7801 148.982 76.0325C149.378 76.2859 149.714 76.6223 149.968 77.0183C150.22 77.4128 150.368 77.9229 150.809 79.6844L152.924 88.1441C153.104 88.8675 153.754 89.375 154.5 89.375C155.246 89.375 155.896 88.8675 156.076 88.1441L158.191 79.6844C158.632 77.9229 158.78 77.4128 159.033 77.0183C159.286 76.6223 159.622 76.2859 160.018 76.0325C160.413 75.7801 160.923 75.6318 162.684 75.1914L171.144 73.0765C171.868 72.8956 172.375 72.2457 172.375 71.5C172.375 70.7543 171.868 70.1044 171.144 69.9235L162.684 67.8086C160.923 67.3682 160.413 67.2199 160.018 66.9675C159.622 66.7141 159.286 66.3777 159.033 65.9817C158.78 65.5872 158.632 65.0771 158.191 63.3156L156.076 54.8559Z" fill="#FAEAC6"/>
<path d="M62.6481 41.1716C62.5739 40.8749 62.3072 40.6667 62.0013 40.6667C61.6954 40.6667 61.4287 40.8749 61.3545 41.1716L60.4869 44.6423C60.3062 45.365 60.2454 45.5742 60.1418 45.7361C60.0378 45.8985 59.8999 46.0365 59.7374 46.1405C59.5755 46.244 59.3663 46.3049 58.6436 46.4856L55.1729 47.3532C54.8762 47.4274 54.668 47.6941 54.668 48C54.668 48.3059 54.8762 48.5726 55.1729 48.6468L58.6436 49.5144C59.3663 49.6951 59.5755 49.7559 59.7374 49.8595C59.8999 49.9634 60.0378 50.1014 60.1418 50.2639C60.2454 50.4257 60.3062 50.635 60.4869 51.3577L61.3545 54.8283C61.4287 55.1251 61.6954 55.3333 62.0013 55.3333C62.3072 55.3333 62.5739 55.1251 62.6481 54.8283L63.5157 51.3577C63.6964 50.635 63.7572 50.4257 63.8608 50.2639C63.9648 50.1014 64.1027 49.9634 64.2652 49.8595C64.4271 49.7559 64.6363 49.6951 65.359 49.5144L68.8297 48.6468C69.1264 48.5726 69.3346 48.3059 69.3346 48C69.3346 47.6941 69.1264 47.4274 68.8297 47.3532L65.359 46.4856C64.6363 46.3049 64.4271 46.244 64.2652 46.1405C64.1027 46.0365 63.9648 45.8985 63.8608 45.7361C63.7572 45.5742 63.6964 45.365 63.5157 44.6423L62.6481 41.1716Z" fill="#FAEAC6"/>
<path d="M158.97 120.757C158.859 120.312 158.459 120 158 120C157.541 120 157.141 120.312 157.03 120.757L155.728 125.963C155.457 127.047 155.366 127.361 155.211 127.604C155.055 127.848 154.848 128.055 154.604 128.211C154.361 128.366 154.047 128.457 152.963 128.728L147.757 130.03C147.312 130.141 147 130.541 147 131C147 131.459 147.312 131.859 147.757 131.97L152.963 133.272C154.047 133.543 154.361 133.634 154.604 133.789C154.848 133.945 155.055 134.152 155.211 134.396C155.366 134.639 155.457 134.953 155.728 136.037L157.03 141.243C157.141 141.688 157.541 142 158 142C158.459 142 158.859 141.688 158.97 141.243L160.272 136.037C160.543 134.953 160.634 134.639 160.789 134.396C160.945 134.152 161.152 133.945 161.396 133.789C161.639 133.634 161.953 133.543 163.037 133.272L168.243 131.97C168.688 131.859 169 131.459 169 131C169 130.541 168.688 130.141 168.243 130.03L163.037 128.728C161.953 128.457 161.639 128.366 161.396 128.211C161.152 128.055 160.945 127.848 160.789 127.604C160.634 127.361 160.543 127.047 160.272 125.963L158.97 120.757Z" fill="#FAEAC6"/>
<path d="M204.591 14.9771C204.466 14.4763 204.016 14.125 203.5 14.125C202.984 14.125 202.534 14.4763 202.409 14.9771L200.944 20.8339C200.64 22.0534 200.537 22.4065 200.362 22.6796C200.187 22.9538 199.954 23.1867 199.68 23.3621C199.407 23.5368 199.053 23.6395 197.834 23.9444L191.977 25.4086C191.476 25.5338 191.125 25.9838 191.125 26.5C191.125 27.0162 191.476 27.4662 191.977 27.5914L197.834 29.0556C199.053 29.3605 199.407 29.4631 199.68 29.6379C199.954 29.8133 200.187 30.0462 200.362 30.3204C200.537 30.5935 200.64 30.9466 200.944 32.1661L202.409 38.0229C202.534 38.5237 202.984 38.875 203.5 38.875C204.016 38.875 204.466 38.5237 204.591 38.0229L206.056 32.1661C206.36 30.9466 206.463 30.5935 206.638 30.3204C206.813 30.0462 207.046 29.8133 207.32 29.6379C207.593 29.4631 207.947 29.3605 209.166 29.0556L215.023 27.5914C215.524 27.4662 215.875 27.0162 215.875 26.5C215.875 25.9838 215.524 25.5338 215.023 25.4086L209.166 23.9444C207.947 23.6395 207.593 23.5368 207.32 23.3621C207.046 23.1867 206.813 22.9538 206.638 22.6796C206.463 22.4065 206.36 22.0534 206.056 20.8339L204.591 14.9771Z" fill="#FAEAC6"/>
<path d="M349.913 27.563C349.751 26.9138 349.168 26.4583 348.499 26.4583C347.83 26.4583 347.246 26.9138 347.084 27.563L345.186 35.155C344.791 36.7359 344.658 37.1937 344.431 37.5477C344.204 37.9031 343.902 38.2049 343.546 38.4324C343.192 38.6589 342.735 38.792 341.154 39.1872L333.562 41.0852C332.912 41.2475 332.457 41.8308 332.457 42.5C332.457 43.1692 332.912 43.7525 333.562 43.9148L341.154 45.8128C342.735 46.208 343.192 46.3411 343.546 46.5676C343.902 46.7951 344.204 47.0969 344.431 47.4524C344.658 47.8063 344.791 48.2641 345.186 49.845L347.084 57.437C347.246 58.0862 347.83 58.5417 348.499 58.5417C349.168 58.5417 349.751 58.0862 349.913 57.437L351.812 49.845C352.207 48.2641 352.34 47.8063 352.566 47.4524C352.794 47.0969 353.096 46.7951 353.451 46.5676C353.805 46.3411 354.263 46.208 355.844 45.8128L363.436 43.9148C364.085 43.7525 364.54 43.1692 364.54 42.5C364.54 41.8308 364.085 41.2475 363.436 41.0852L355.844 39.1872C354.263 38.792 353.805 38.6589 353.451 38.4324C353.096 38.2049 352.794 37.9031 352.566 37.5477C352.34 37.1937 352.207 36.7359 351.812 35.1551L349.913 27.563Z" fill="#FAEAC6"/>
<path d="M288.269 19.3913C288.181 19.0389 287.865 18.7917 287.501 18.7917C287.138 18.7917 286.821 19.0389 286.733 19.3913L285.703 23.5127C285.488 24.3709 285.416 24.6194 285.293 24.8116C285.17 25.0045 285.006 25.1684 284.813 25.2918C284.621 25.4148 284.372 25.4871 283.514 25.7016L279.393 26.732C279.04 26.8201 278.793 27.1367 278.793 27.5C278.793 27.8633 279.04 28.1799 279.393 28.268L283.514 29.2984C284.372 29.5129 284.621 29.5852 284.813 29.7081C285.006 29.8316 285.17 29.9955 285.293 30.1884C285.416 30.3806 285.488 30.6291 285.703 31.4873L286.733 35.6087C286.821 35.9611 287.138 36.2083 287.501 36.2083C287.865 36.2083 288.181 35.9611 288.269 35.6087L289.3 31.4873C289.514 30.6291 289.586 30.3806 289.709 30.1884C289.833 29.9955 289.997 29.8316 290.19 29.7081C290.382 29.5852 290.63 29.5129 291.489 29.2984L295.61 28.268C295.962 28.1799 296.21 27.8633 296.21 27.5C296.21 27.1367 295.962 26.8201 295.61 26.732L291.489 25.7016C290.63 25.4871 290.382 25.4148 290.19 25.2918C289.997 25.1684 289.833 25.0045 289.709 24.8116C289.586 24.6194 289.514 24.3709 289.3 23.5127L288.269 19.3913Z" fill="#FAEAC6"/>
<path d="M304.698 86.0756C304.503 85.2965 303.803 84.75 303 84.75C302.197 84.75 301.497 85.2965 301.302 86.0756L299.025 95.186C298.55 97.0831 298.391 97.6324 298.119 98.0572C297.846 98.4837 297.484 98.8459 297.057 99.1188C296.632 99.3907 296.083 99.5504 294.186 100.025L285.076 102.302C284.297 102.497 283.75 103.197 283.75 104C283.75 104.803 284.297 105.503 285.076 105.698L294.186 107.975C296.083 108.45 296.632 108.609 297.057 108.881C297.484 109.154 297.846 109.516 298.119 109.943C298.391 110.368 298.55 110.917 299.025 112.814L301.302 121.924C301.497 122.703 302.197 123.25 303 123.25C303.803 123.25 304.503 122.703 304.698 121.924L306.975 112.814C307.45 110.917 307.609 110.368 307.881 109.943C308.154 109.516 308.516 109.154 308.943 108.881C309.368 108.609 309.917 108.45 311.814 107.975L320.924 105.698C321.703 105.503 322.25 104.803 322.25 104C322.25 103.197 321.703 102.497 320.924 102.302L311.814 100.025C309.917 99.5504 309.368 99.3907 308.943 99.1188C308.516 98.8459 308.154 98.4837 307.881 98.0572C307.609 97.6324 307.45 97.0831 306.975 95.186L304.698 86.0756Z" fill="#FAEAC6"/>
<path d="M379.97 73.7575C379.859 73.3123 379.459 73 379 73C378.541 73 378.141 73.3123 378.03 73.7575L376.728 78.9635C376.457 80.0475 376.366 80.3614 376.211 80.6041C376.055 80.8478 375.848 81.0548 375.604 81.2108C375.361 81.3661 375.047 81.4574 373.963 81.7284L368.757 83.0299C368.312 83.1411 368 83.5411 368 84C368 84.4589 368.312 84.8589 368.757 84.9701L373.963 86.2716C375.047 86.5426 375.361 86.6339 375.604 86.7892C375.848 86.9452 376.055 87.1522 376.211 87.3959C376.366 87.6386 376.457 87.9525 376.728 89.0365L378.03 94.2425C378.141 94.6877 378.541 95 379 95C379.459 95 379.859 94.6877 379.97 94.2425L381.272 89.0365C381.543 87.9525 381.634 87.6386 381.789 87.3959C381.945 87.1522 382.152 86.9452 382.396 86.7892C382.639 86.6339 382.953 86.5426 384.037 86.2716L389.243 84.9701C389.688 84.8589 390 84.4589 390 84C390 83.5411 389.688 83.1411 389.243 83.0299L384.037 81.7284C382.953 81.4574 382.639 81.3661 382.396 81.2108C382.152 81.0548 381.945 80.8478 381.789 80.6041C381.634 80.3614 381.543 80.0475 381.272 78.9635L379.97 73.7575Z" fill="#FAEAC6"/>
</g>
</svg>
