<svg width="16" height="16" viewBox="0 0 16 16" fill="none" xmlns="http://www.w3.org/2000/svg">
<g id="face-smile" clip-path="url(#clip0_1013_22571)">
<path id="Icon" d="M5.33203 9.33334C5.33203 9.33334 6.33203 10.6667 7.9987 10.6667C9.66536 10.6667 10.6654 9.33334 10.6654 9.33334M9.9987 6.00001H10.0054M5.9987 6.00001H6.00536M14.6654 8.00001C14.6654 11.6819 11.6806 14.6667 7.9987 14.6667C4.3168 14.6667 1.33203 11.6819 1.33203 8.00001C1.33203 4.31811 4.3168 1.33334 7.9987 1.33334C11.6806 1.33334 14.6654 4.31811 14.6654 8.00001ZM10.332 6.00001C10.332 6.18411 10.1828 6.33334 9.9987 6.33334C9.8146 6.33334 9.66536 6.18411 9.66536 6.00001C9.66536 5.81592 9.8146 5.66668 9.9987 5.66668C10.1828 5.66668 10.332 5.81592 10.332 6.00001ZM6.33203 6.00001C6.33203 6.18411 6.18279 6.33334 5.9987 6.33334C5.8146 6.33334 5.66536 6.18411 5.66536 6.00001C5.66536 5.81592 5.8146 5.66668 5.9987 5.66668C6.18279 5.66668 6.33203 5.81592 6.33203 6.00001Z" stroke="#344054" stroke-width="1.5" stroke-linecap="round" stroke-linejoin="round"/>
</g>
<defs>
<clipPath id="clip0_1013_22571">
<rect width="16" height="16" fill="white"/>
</clipPath>
</defs>
</svg>
