<svg width="18" height="16" viewBox="0 0 18 16" fill="none" xmlns="http://www.w3.org/2000/svg">
    <path
        d="M13.7533 0.744078C13.4279 0.418641 12.9002 0.418641 12.5748 0.744078L9.24147 4.07741C8.91604 4.40285 8.91604 4.93049 9.24147 5.25592C9.56691 5.58136 10.0945 5.58136 10.42 5.25592L12.3307 3.34518L12.3307 14.6667C12.3307 15.1269 12.7038 15.5 13.1641 15.5C13.6243 15.5 13.9974 15.1269 13.9974 14.6667V3.34518L15.9081 5.25592C16.2336 5.58136 16.7612 5.58136 17.0867 5.25592C17.4121 4.93049 17.4121 4.40285 17.0867 4.07741L13.7533 0.744078Z"
        fill="#667085" />
    <path
        d="M5.66406 1.33333C5.66406 0.873096 5.29097 0.5 4.83073 0.5C4.37049 0.5 3.9974 0.873096 3.9974 1.33333V12.6548L2.08665 10.7441C1.76121 10.4186 1.23358 10.4186 0.90814 10.7441C0.582703 11.0695 0.582703 11.5972 0.90814 11.9226L4.24147 15.2559C4.56691 15.5814 5.09455 15.5814 5.41998 15.2559L8.75332 11.9226C9.07876 11.5972 9.07876 11.0695 8.75332 10.7441C8.42788 10.4186 7.90024 10.4186 7.57481 10.7441L5.66406 12.6548V1.33333Z"
        fill="#667085" />
</svg>