<svg width="16" height="17" viewBox="0 0 16 17" fill="none" xmlns="http://www.w3.org/2000/svg">
    <g clip-path="url(#clip0_6029_1263)">
        <path
            d="M3.3335 8.09916C3.3335 5.52183 5.42283 3.4325 8.00016 3.4325M11.0001 5.09916L8.0001 8.09916M14.6668 8.09916C14.6668 11.7811 11.6821 14.7658 8.00016 14.7658C4.31826 14.7658 1.3335 11.7811 1.3335 8.09916C1.3335 4.41726 4.31826 1.4325 8.00016 1.4325C11.6821 1.4325 14.6668 4.41726 14.6668 8.09916ZM8.66683 8.09916C8.66683 8.46735 8.36835 8.76583 8.00016 8.76583C7.63197 8.76583 7.3335 8.46735 7.3335 8.09916C7.3335 7.73097 7.63197 7.4325 8.00016 7.4325C8.36835 7.4325 8.66683 7.73097 8.66683 8.09916Z"
            stroke="#344054" stroke-width="1.5" stroke-linecap="round" stroke-linejoin="round" />
    </g>
    <defs>
        <clipPath id="clip0_6029_1263">
            <rect width="16" height="16" fill="white" transform="translate(0 0.0991211)" />
        </clipPath>
    </defs>
</svg>