<svg width="16" height="16" viewBox="0 0 16 16" fill="none" xmlns="http://www.w3.org/2000/svg">
<g id="star-01">
<path id="Icon" d="M7.52047 2.3022C7.67412 1.99091 7.75095 1.83526 7.85525 1.78553C7.946 1.74227 8.05142 1.74227 8.14217 1.78553C8.24647 1.83526 8.3233 1.99091 8.47695 2.3022L9.93474 5.25551C9.9801 5.34741 10.0028 5.39336 10.0359 5.42904C10.0653 5.46063 10.1005 5.48622 10.1396 5.5044C10.1837 5.52494 10.2344 5.53235 10.3358 5.54717L13.5967 6.02379C13.9401 6.07398 14.1118 6.09908 14.1912 6.18295C14.2604 6.25592 14.2929 6.35619 14.2797 6.45584C14.2646 6.57038 14.1403 6.69144 13.8917 6.93358L11.533 9.23094C11.4595 9.30255 11.4227 9.33836 11.399 9.38096C11.378 9.41869 11.3645 9.46013 11.3593 9.50299C11.3534 9.5514 11.3621 9.60199 11.3795 9.70315L11.936 12.9481C11.9947 13.2903 12.0241 13.4614 11.9689 13.563C11.9209 13.6513 11.8356 13.7133 11.7367 13.7316C11.6231 13.7527 11.4694 13.6719 11.1621 13.5103L8.24695 11.9772C8.15612 11.9294 8.11071 11.9056 8.06286 11.8962C8.0205 11.8879 7.97692 11.8879 7.93456 11.8962C7.88671 11.9056 7.8413 11.9294 7.75047 11.9772L4.83531 13.5103C4.52797 13.6719 4.37431 13.7527 4.26068 13.7316C4.16182 13.7133 4.07651 13.6513 4.02852 13.563C3.97336 13.4614 4.00271 13.2903 4.06141 12.9481L4.61796 9.70315C4.63531 9.60199 4.64398 9.5514 4.63811 9.50299C4.63291 9.46013 4.61944 9.41869 4.59844 9.38096C4.57471 9.33836 4.53795 9.30255 4.46442 9.23094L2.10574 6.93358C1.85714 6.69144 1.73284 6.57038 1.71772 6.45584C1.70456 6.35619 1.73707 6.25592 1.8062 6.18295C1.88565 6.09908 2.05735 6.07398 2.40073 6.02379L5.66157 5.54717C5.76298 5.53235 5.81368 5.52494 5.85784 5.5044C5.89694 5.48622 5.93214 5.46063 5.96149 5.42904C5.99464 5.39336 6.01732 5.34741 6.06268 5.25551L7.52047 2.3022Z" stroke="#344054" stroke-width="1.5" stroke-linecap="round" stroke-linejoin="round"/>
</g>
</svg>
