<svg width="15" height="14" viewBox="0 0 15 14" fill="none" xmlns="http://www.w3.org/2000/svg">
<g id="stem-cells-research">
<g id="Stem cells research">
<path d="M7.72819 4.8523C7.72819 6.12047 6.76781 7.43588 5.14391 7.43588C3.52 7.43588 2.20312 6.40762 2.20312 5.13945C2.20312 3.87128 3.52 2.84375 5.14391 2.84375C6.76781 2.84375 7.72819 3.58339 7.72819 4.8523Z" stroke="#344054" stroke-linecap="round" stroke-linejoin="round"/>
<path d="M5.26614 5.9758C5.76238 5.9758 6.16467 5.56764 6.16467 5.06415C6.16467 4.56067 5.76238 4.15252 5.26614 4.15252C4.76989 4.15252 4.3676 4.56067 4.3676 5.06415C4.3676 5.56764 4.76989 5.9758 5.26614 5.9758Z" stroke="#344054" stroke-linecap="round" stroke-linejoin="round"/>
<path d="M12.7723 6.35595C12.7723 7.62412 10.7934 9.97961 9.83155 8.65238C8.95848 7.44326 7.94354 6.84682 7.52956 6.55599C7.05519 6.22233 8.20692 4.05951 9.83155 4.05951C11.4562 4.05951 12.7723 5.08777 12.7723 6.35595Z" stroke="#344054" stroke-linecap="round" stroke-linejoin="round"/>
<path d="M9.95378 7.19082C10.45 7.19082 10.8523 6.78267 10.8523 6.27918C10.8523 5.7757 10.45 5.36755 9.95378 5.36755C9.45753 5.36755 9.05524 5.7757 9.05524 6.27918C9.05524 6.78267 9.45753 7.19082 9.95378 7.19082Z" stroke="#344054" stroke-linecap="round" stroke-linejoin="round"/>
<path d="M9.05597 8.85169C9.04433 10.1199 7.73909 11.1481 6.11519 11.1481C4.49128 11.1481 3.67424 10.0136 3.17441 8.85169C1.98485 6.08799 5.09879 8.24713 6.89512 6.9856C7.69325 6.42533 9.06615 7.66545 9.05597 8.85169Z" stroke="#344054" stroke-linecap="round" stroke-linejoin="round"/>
<path d="M6.23743 9.68656C6.73368 9.68656 7.13596 9.2784 7.13596 8.77492C7.13596 8.27144 6.73368 7.86329 6.23743 7.86329C5.74119 7.86329 5.3389 8.27144 5.3389 8.77492C5.3389 9.2784 5.74119 9.68656 6.23743 9.68656Z" stroke="#344054" stroke-linecap="round" stroke-linejoin="round"/>
</g>
</g>
</svg>
