<svg width="12" height="31" viewBox="0 0 12 31" fill="none" xmlns="http://www.w3.org/2000/svg">
<g id="thermometer" clip-path="url(#clip0_2509_36413)">
<path id="Vector" d="M4.09228 13.8086H3.12109V14.4709H4.09228V13.8086Z" fill="#344054"/>
<path id="Vector_2" d="M8.90033 20.0058V4.00287C8.90033 2.35363 7.5282 1.01172 5.84182 1.01172C4.15544 1.01172 2.78332 2.35363 2.78332 4.00287V20.0061C1.19819 21.0208 0.257812 22.7131 0.257812 24.5687C0.257812 27.58 2.76266 30.0297 5.84182 30.0297C8.92099 30.0297 11.4258 27.58 11.4258 24.5687C11.4258 22.7128 10.4855 21.0208 8.90033 20.0058ZM5.84182 29.3674C3.13617 29.3674 0.935073 27.2148 0.935073 24.5687C0.935073 22.8833 1.81822 21.3517 3.29803 20.4714L3.46058 20.3747V19.4388H4.09314V18.7765H3.46058V17.783H4.09314V17.1206H3.46058V16.1271H4.09314V15.4647H3.46058V14.4712H4.09314V13.8089H3.46058V12.8154H4.09314V12.153H3.46058V11.1595H4.09314V10.4972H3.46058V9.50364H4.09314V8.8413H3.46058V7.84778H4.09314V7.18544H3.46058V6.19192H4.09314V5.52957H3.46058V4.00287C3.46058 2.71891 4.52861 1.67406 5.84182 1.67406C7.15503 1.67406 8.22307 2.71858 8.22307 4.00287V20.3747L8.38561 20.4714C9.86509 21.3517 10.7486 22.8833 10.7486 24.5687C10.7486 27.2148 8.54748 29.3674 5.84182 29.3674Z" fill="#344054"/>
<g id="Group">
<path id="Vector_3" d="M7.54823 21.8133L6.61497 21.2583V10.6055H5.06066V21.2583L4.12773 21.8133C3.13047 22.4068 2.53516 23.4374 2.53516 24.5704C2.53516 26.3511 4.01666 27.8003 5.83781 27.8003C7.65863 27.8003 9.14047 26.3511 9.14047 24.5704C9.14047 23.4374 8.54516 22.4068 7.54823 21.8133ZM5.83781 26.5137C5.65089 26.5137 5.49918 26.3656 5.49918 26.1825C5.49918 25.9994 5.65089 25.8513 5.83781 25.8513C6.63156 25.8513 7.27699 25.2201 7.27699 24.4438C7.27699 24.1438 7.18184 23.8573 7.00169 23.6153C6.89163 23.4675 6.92482 23.2602 7.07618 23.1526C7.22721 23.0453 7.43886 23.0774 7.54925 23.2255C7.81406 23.5811 7.95425 24.0027 7.95425 24.4442C7.95425 25.5851 7.00473 26.5137 5.83781 26.5137Z" fill="#344054"/>
<path id="Vector_4" d="M5.83966 3.58954C6.08489 3.58954 6.27141 3.78289 6.27141 4.00418V9.5977H5.4079V4.00418C5.4079 3.78289 5.59442 3.58954 5.83966 3.58954Z" fill="#344054" stroke="#344054" stroke-width="0.690805"/>
</g>
</g>
<defs>
<clipPath id="clip0_2509_36413">
<rect width="11.5134" height="29.4744" fill="white" transform="translate(0 0.763672)"/>
</clipPath>
</defs>
</svg>
