<svg width="26" height="64" viewBox="0 0 26 64" fill="none" xmlns="http://www.w3.org/2000/svg">
<g id="thermometer" clip-path="url(#clip0_3700_40323)">
<path id="Vector" d="M8.93255 28.3267H6.82373V29.7649H8.93255V28.3267Z" fill="#344054"/>
<path id="Vector_2" d="M19.3707 41.7829V7.03447C19.3707 3.45335 16.3913 0.539551 12.7295 0.539551C9.06773 0.539551 6.08832 3.45335 6.08832 7.03447V41.7836C2.6464 43.9869 0.604492 47.6615 0.604492 51.6907C0.604492 58.2294 6.04346 63.5486 12.7295 63.5486C19.4155 63.5486 24.8545 58.2294 24.8545 51.6907C24.8545 47.6608 22.8126 43.9869 19.3707 41.7829ZM12.7295 62.1104C6.85449 62.1104 2.07508 57.4363 2.07508 51.6907C2.07508 48.0312 3.99273 44.7053 7.20596 42.7939L7.5589 42.584V40.5518H8.93243V39.1136H7.5589V36.9563H8.93243V35.5181H7.5589V33.3608H8.93243V31.9226H7.5589V29.7653H8.93243V28.3271H7.5589V26.1698H8.93243V24.7316H7.5589V22.5742H8.93243V21.136H7.5589V18.9787H8.93243V17.5405H7.5589V15.3832H8.93243V13.945H7.5589V11.7877H8.93243V10.3495H7.5589V7.03447C7.5589 4.24652 9.87802 1.97775 12.7295 1.97775C15.581 1.97775 17.9001 4.2458 17.9001 7.03447V42.584L18.253 42.7939C21.4655 44.7053 23.3839 48.0312 23.3839 51.6907C23.3839 57.4363 18.6045 62.1104 12.7295 62.1104Z" fill="#344054"/>
<g id="Group">
<path id="Vector_3" d="M16.4439 45.7037L14.4174 44.4985V21.3672H11.0424V44.4985L9.01668 45.7037C6.85124 46.9924 5.55859 49.2302 5.55859 51.6902C5.55859 55.5569 8.7755 58.7036 12.7299 58.7036C16.6836 58.7036 19.9012 55.5569 19.9012 51.6902C19.9012 49.2302 18.6086 46.9924 16.4439 45.7037ZM12.7299 55.9099C12.324 55.9099 11.9946 55.5885 11.9946 55.1908C11.9946 54.7932 12.324 54.4717 12.7299 54.4717C14.4534 54.4717 15.8549 53.1011 15.8549 51.4155C15.8549 50.764 15.6483 50.142 15.2571 49.6164C15.0182 49.2956 15.0902 48.8455 15.4189 48.6118C15.7468 48.3788 16.2064 48.4485 16.4461 48.77C17.0211 49.5423 17.3255 50.4577 17.3255 51.4163C17.3255 53.8936 15.2637 55.9099 12.7299 55.9099Z" fill="#344054"/>
<path id="Vector_4" d="M12.73 6.13379C13.2625 6.13379 13.6675 6.55361 13.6675 7.03413V19.1798H11.7925V7.03413C11.7925 6.55361 12.1975 6.13379 12.73 6.13379Z" fill="#344054" stroke="#344054" stroke-width="1.5"/>
</g>
</g>
<defs>
<clipPath id="clip0_3700_40323">
<rect width="25" height="64" fill="white" transform="translate(0.0458984)"/>
</clipPath>
</defs>
</svg>
