<svg width="181" height="44" viewBox="0 0 181 44" fill="none" xmlns="http://www.w3.org/2000/svg">
<g id="BG">
<path id="CARD" d="M172.837 0.568848H8.27041C3.9428 0.568848 0.43457 4.09314 0.43457 8.44058V107.645C0.43457 111.992 3.9428 115.516 8.27041 115.516H172.837C177.164 115.516 180.672 111.992 180.672 107.645V8.44058C180.672 4.09314 177.164 0.568848 172.837 0.568848Z" fill="#F68B9C"/>
<mask id="mask0_688_78187" style="mask-type:alpha" maskUnits="userSpaceOnUse" x="0" y="0" width="181" height="116">
<path id="CARD_2" d="M172.837 0.568848H8.27041C3.9428 0.568848 0.43457 4.09314 0.43457 8.44058V107.645C0.43457 111.992 3.9428 115.516 8.27041 115.516H172.837C177.164 115.516 180.672 111.992 180.672 107.645V8.44058C180.672 4.09314 177.164 0.568848 172.837 0.568848Z" fill="#F68B9C"/>
</mask>
<g mask="url(#mask0_688_78187)">
<path id="SHAPE" d="M231.55 41.5258L-270.697 149.489C-270.708 133.692 -283.711 104.786 -265.287 89.89C-234.823 65.6 -183.392 59.9677 -141.484 44.0607C-115.772 34.5921 -93.2643 23.8401 -81.1011 7.4266C-72.4131 -4.29734 -72.6942 -16.0649 -58.9716 -26.4066C-58.6331 -26.6765 -58.2999 -26.9355 -57.9571 -27.1964C-57.6143 -27.4573 -57.281 -27.7164 -56.9389 -27.9771L-56.9306 -27.9789C-56.4027 -28.3781 -55.8647 -28.7746 -55.3252 -29.1667C-54.7856 -29.5587 -54.242 -29.9417 -53.6985 -30.3245C-52.6099 -31.0858 -51.505 -31.8293 -50.3836 -32.5549C-48.703 -33.6455 -46.9904 -34.6937 -45.2456 -35.6995C-44.6198 -36.0556 -43.9934 -36.4103 -43.3664 -36.7637C-42.232 -37.3918 -41.0834 -38.005 -39.9206 -38.6033C-38.1504 -39.516 -36.3405 -40.3978 -34.5159 -41.2434C-34.474 -41.2583 -34.4337 -41.2769 -34.3952 -41.299C-33.1627 -41.8597 -31.9267 -42.411 -30.6812 -42.9409C-30.0472 -43.2108 -29.4111 -43.475 -28.7753 -43.7397C-28.1374 -44 -27.4983 -44.2572 -26.8582 -44.5114C-26.2168 -44.7628 -25.5673 -45.0156 -24.9221 -45.2578C-24.2786 -45.5052 -23.6321 -45.742 -22.9868 -45.984L-22.9622 -45.9894C-22.3152 -46.2269 -21.6583 -46.4617 -20.9995 -46.6922C-20.3406 -46.9228 -19.682 -47.1529 -19.0195 -47.3742C-17.0276 -48.0489 -15.0132 -48.6905 -12.9765 -49.299C-10.9397 -49.9074 -8.88544 -50.487 -6.81351 -51.0377C-6.11813 -51.2215 -5.42065 -51.4011 -4.73135 -51.5786L-2.63409 -52.1033C12.1463 -55.7088 27.8456 -57.9496 43.8911 -59.3775C44.2187 -59.4086 44.5483 -59.435 44.8677 -59.4643C49.1049 -59.8329 53.3723 -60.1489 57.6414 -60.4158C61.3443 -60.6451 65.0526 -60.8458 68.7663 -61.018C69.6898 -61.0587 70.6022 -61.1023 71.5201 -61.1367C73.5776 -61.2289 75.6324 -61.3055 77.6867 -61.3825C80.6603 -61.4894 83.6304 -61.5824 86.5971 -61.6616C88.0834 -61.7049 89.5654 -61.7442 91.043 -61.7794C94.1986 -61.8564 97.3429 -61.9243 100.476 -61.9833C101.753 -62.0115 103.032 -62.0366 104.312 -62.0586C105.041 -62.0723 105.78 -62.0831 106.508 -62.0968C107.973 -62.1258 109.432 -62.1488 110.889 -62.176C112.346 -62.2032 113.805 -62.2264 115.253 -62.2516C117.431 -62.2907 119.59 -62.3311 121.749 -62.3711C123.187 -62.3995 124.62 -62.4282 126.047 -62.4571C131.757 -62.5703 137.376 -62.7168 142.904 -62.8964C186.238 -64.2908 238.534 -73.6082 271.244 -94.5315C272.375 -93.7938 273.506 -93.0546 274.638 -92.3139C275.198 -91.9464 275.769 -91.5762 276.339 -91.206C279.181 -89.3575 282.06 -87.5072 285.03 -85.6717C285.544 -85.3533 286.058 -85.0348 286.589 -84.7157C287.328 -84.2586 288.075 -83.808 288.831 -83.3546C289.318 -83.0598 289.812 -82.7668 290.315 -82.4756C290.777 -82.1954 291.246 -81.9217 291.725 -81.645C292.24 -81.3466 292.755 -81.0436 293.279 -80.747C295.492 -79.4782 297.776 -78.221 300.13 -76.9755C317.249 -67.8413 332.354 -59.2601 351.577 -51.564C352.923 -51.0242 354.245 -50.4565 355.508 -49.8558C354.702 -49.3673 353.932 -48.8617 353.202 -48.3402C348.778 -45.2455 345.552 -41.6887 343.474 -37.9494C342.959 -37.0369 342.508 -36.0902 342.122 -35.1157C341.866 -34.4906 341.643 -33.8525 341.454 -33.204C341.361 -32.9031 341.277 -32.5993 341.204 -32.2928C341.119 -31.9494 341.035 -31.6057 340.976 -31.263C340.907 -30.9481 340.847 -30.6292 340.804 -30.3144C340.755 -29.9932 340.715 -29.6738 340.683 -29.3519C340.644 -29.0281 340.621 -28.7076 340.607 -28.3894C340.589 -28.08 340.579 -27.7727 340.577 -27.4672C340.573 -27.4378 340.573 -27.4078 340.577 -27.3784C340.565 -27.0752 340.57 -26.7757 340.585 -26.4734C340.585 -26.4536 340.585 -26.4284 340.585 -26.4045C340.596 -26.1112 340.616 -25.8198 340.643 -25.5302C340.695 -24.8922 340.781 -24.2575 340.901 -23.629C340.945 -23.3672 340.996 -23.1072 341.058 -22.8446C341.083 -22.7168 341.116 -22.5909 341.151 -22.4604C341.202 -22.2447 341.263 -22.0308 341.323 -21.8122C341.329 -21.7722 341.339 -21.7331 341.353 -21.6954C341.432 -21.4116 341.52 -21.1251 341.618 -20.8408C342.168 -19.4804 340.247 -17.5892 338.783 -16.7817C313.164 -4.86865 282.415 -1.21654 254.322 6.79262C239.864 10.8879 221.752 32.7872 231.55 41.5258ZM-29.1619 9.42715C-50.7089 22.2693 -57.8795 46.0954 -42.737 56.5612C-12.7343 77.2826 98.2633 41.1201 116.005 35.3404C152.84 23.338 200.273 7.8843 199.974 -9.4234C199.719 -24.1829 164.801 -36.4257 134.183 -33.5109C113.038 -31.4996 109.534 -23.738 79.5406 -13.4771C26.0305 4.83862 -3.23538 -6.0217 -29.1619 9.42715Z" fill="#2B4C65"/>
<path id="SHAPE_2" d="M108.729 58.0858C206.251 39.8857 289.853 49.6875 295.456 79.9789C301.058 110.27 226.542 149.581 129.019 167.781C31.4951 185.981 -52.1054 176.179 -57.7085 145.887C-63.3116 115.596 11.2048 76.286 108.729 58.0858Z" fill="#08DB94"/>
<path id="SHAPE_3" d="M-43.5022 57.632C-58.6901 47.141 -51.491 23.2507 -29.8728 10.3726C-3.86006 -5.11989 25.4959 5.76506 79.1797 -12.6067C109.269 -22.8982 112.788 -30.6804 134 -32.6998C164.716 -35.6254 199.741 -23.3551 199.994 -8.55714C200.291 8.79576 152.702 24.296 115.748 36.3342C97.9486 42.132 -13.4093 78.4037 -43.5022 57.632Z" fill="#AED2DA"/>
</g>
</g>
</svg>
