<svg width="16" height="17" viewBox="0 0 16 17" fill="none" xmlns="http://www.w3.org/2000/svg">
<g id="tobacco">
<path id="Tobacco" d="M10.3943 6.02526C11.4545 4.64953 12.9731 3.02742 13.9898 3.1512C14.0836 3.1593 14.173 3.19446 14.2472 3.25243C14.3215 3.31039 14.3773 3.38866 14.408 3.47775C14.5894 4.08133 12.8706 3.61449 11.5193 6.72667M11.2036 7.54127C9.69331 11.8913 8.61184 12.7436 7.47382 13.3035C6.12021 13.9672 4.09038 13.8093 2.97946 9.6137L6.91894 8.17314C6.91894 8.17314 7.17105 9.20936 7.70118 9.20936C8.23132 9.20936 8.63657 8.70362 9.3175 7.56602C9.43531 7.3609 9.63676 7.06266 9.8818 6.71725M1.94069 7.81142L6.15834 6.25776C6.44531 6.15205 6.7636 6.29915 6.86924 6.58631L6.88307 6.62392C6.98871 6.91108 6.84171 7.22956 6.55474 7.33528L2.33709 8.88893C2.05012 8.99464 1.73184 8.84756 1.6262 8.5604L1.61236 8.52279C1.50672 8.23563 1.65372 7.91713 1.94069 7.81142Z" stroke="#344054" stroke-linecap="round" stroke-linejoin="round"/>
</g>
</svg>
