<svg width="16" height="16" viewBox="0 0 16 16" fill="none" xmlns="http://www.w3.org/2000/svg">
<g id="twitter" clip-path="url(#clip0_980_27862)">
<path id="Icon" d="M15.3346 1.99999C14.6962 2.45031 13.9894 2.79473 13.2413 3.01999C12.8398 2.55833 12.3062 2.23112 11.7127 2.08261C11.1191 1.9341 10.4943 1.97145 9.92269 2.18963C9.35108 2.4078 8.86026 2.79626 8.51662 3.30247C8.17298 3.80868 7.9931 4.40821 8.0013 5.01999V5.68666C6.82972 5.71703 5.66882 5.4572 4.62197 4.93029C3.57513 4.40338 2.67485 3.62575 2.0013 2.66666C2.0013 2.66666 -0.665365 8.66666 5.33464 11.3333C3.96165 12.2653 2.32607 12.7326 0.667969 12.6667C6.66797 16 14.0013 12.6667 14.0013 4.99999C14.0007 4.81429 13.9828 4.62905 13.948 4.44666C14.6284 3.77565 15.1085 2.92847 15.3346 1.99999Z" stroke="#344054" stroke-width="1.5" stroke-linecap="round" stroke-linejoin="round"/>
</g>
<defs>
<clipPath id="clip0_980_27862">
<rect width="16" height="16" fill="white"/>
</clipPath>
</defs>
</svg>
