<svg width="14" height="14" viewBox="0 0 14 14" fill="none" xmlns="http://www.w3.org/2000/svg">
    <path opacity="0.12"
        d="M5.53906 7C6.98881 7 8.16406 5.82475 8.16406 4.375C8.16406 2.92525 6.98881 1.75 5.53906 1.75C4.08931 1.75 2.91406 2.92525 2.91406 4.375C2.91406 5.82475 4.08931 7 5.53906 7Z"
        fill="black" />
    <path
        d="M9.33073 2.02286C10.1951 2.4524 10.7891 3.34433 10.7891 4.375C10.7891 5.40567 10.1951 6.2976 9.33073 6.72714M10.4974 9.78039C11.3791 10.1794 12.173 10.8296 12.8307 11.6667M1.16406 11.6667C2.29952 10.2215 3.84108 9.33333 5.53906 9.33333C7.23704 9.33333 8.77861 10.2215 9.91406 11.6667M8.16406 4.375C8.16406 5.82475 6.98881 7 5.53906 7C4.08931 7 2.91406 5.82475 2.91406 4.375C2.91406 2.92525 4.08931 1.75 5.53906 1.75C6.98881 1.75 8.16406 2.92525 8.16406 4.375Z"
        stroke="#344054" stroke-width="1.5" stroke-linecap="round" stroke-linejoin="round" />
</svg>