<svg width="181" height="116" viewBox="0 0 181 116" fill="none" xmlns="http://www.w3.org/2000/svg">
<g id="BG">
<path id="CARD" d="M172.734 0.590332H8.174C3.84472 0.590332 0.335144 4.11525 0.335144 8.46345V107.665C0.335144 112.013 3.84472 115.538 8.174 115.538H172.734C177.063 115.538 180.573 112.013 180.573 107.665V8.46345C180.573 4.11525 177.063 0.590332 172.734 0.590332Z" fill="#E0F8F2"/>
<mask id="mask0_688_78075" style="mask-type:alpha" maskUnits="userSpaceOnUse" x="0" y="0" width="181" height="116">
<path id="CARD_2" d="M172.734 0.590332H8.174C3.84472 0.590332 0.335144 4.11525 0.335144 8.46345V107.665C0.335144 112.013 3.84472 115.538 8.174 115.538H172.734C177.063 115.538 180.573 112.013 180.573 107.665V8.46345C180.573 4.11525 177.063 0.590332 172.734 0.590332Z" fill="#E0F8F2"/>
</mask>
<g mask="url(#mask0_688_78075)">
<path id="SHAPE" d="M113.962 45.7914C116.448 47.0554 121.827 46.4703 122.334 50.2634C121.234 53.9851 119.56 55.4796 117.974 55.4794C115.218 55.4792 112.726 50.9695 113.962 45.7914ZM105.353 29.7303C103.309 22.523 117.648 23.6378 121.965 19.5658C121.211 23.7438 121.128 28.015 120.668 32.2332C120.5 36.5175 119.234 38.0391 117.454 38.0387C113.911 38.0382 108.334 32.0051 105.353 29.7307L105.353 29.7303ZM177.606 18.1581C178.612 18.4173 179.63 18.3273 180.647 18.2375C181.724 18.1424 182.799 18.0472 183.86 18.3662C186.939 21.8103 184.474 23.1855 181.491 23.1852C177.79 23.1852 173.294 21.0678 177.606 18.1586L177.606 18.1581ZM129.14 6.96682L129.821 6.70766L130.503 6.44831C132.858 5.89607 132.74 6.69329 131.911 7.4905C131.273 8.10325 130.216 8.71622 129.537 8.71622C128.954 8.71667 128.652 8.2634 129.139 6.96726L129.14 6.96682ZM19.8163 0.906317L20.0725 -0.218416L20.3289 -1.34315C21.9597 -5.95342 22.8544 -3.36768 22.7498 -0.782373C22.6871 0.767731 22.2652 2.31762 21.4273 2.31739C21 2.31649 20.4653 1.91475 19.8156 0.906536L19.8163 0.906317ZM178.674 -26.8651V-27.6652L178.697 -28.4681C179.15 -31.9678 180.177 -30.1394 180.438 -28.3106C180.591 -27.2394 180.481 -26.1682 179.838 -26.1682C179.558 -26.168 179.178 -26.3709 178.673 -26.8649L178.674 -26.8651Z" fill="#58E3CC"/>
<path id="SHAPE_2" d="M129.169 117.414C130.328 113.573 133.599 110.578 137.309 110.017C143.406 106.609 146.414 115.526 140.698 118.367C140.669 118.713 140.62 119.058 140.551 119.399C142.258 120.796 140.695 122.515 139.005 122.366C138.226 123.06 137.214 123.433 136.173 123.411C133.374 123.411 130.147 121.073 129.169 117.414ZM38.8552 55.94C43.0761 50.9948 41.4744 42.6472 46.0962 38.0163C49.9894 37.1891 53.1288 42.2529 53.8101 47.3167C54.4753 52.2574 52.8023 57.1979 47.2078 56.6672C48.0385 59.8874 46.3386 61.2703 44.2582 61.2701C41.7267 61.2696 38.6319 59.2204 38.8554 55.94H38.8552ZM188.406 55.3463C184.3 49.9319 190.093 41.1298 195.879 46.8434C197.583 50.645 192.96 55.4656 189.343 55.4651C189.027 55.4667 188.712 55.4267 188.406 55.3463Z" fill="#ADF0E3"/>
<path id="SHAPE_3" d="M-12.5994 113.212L-12.4988 113.161L-12.2106 113.026C-5.39974 110.405 -7.73569 118.716 -11.3953 121.296C-12.2036 122.152 -12.7958 122.511 -13.2166 122.511C-15.1255 122.511 -13.5145 115.125 -12.5994 113.212ZM179.199 116.373C177.045 114.015 175.802 111.029 173.507 108.775C176.793 104.252 181.162 108.024 182.856 111.797C183.998 114.341 183.924 116.885 181.482 116.885C180.696 116.853 179.923 116.68 179.199 116.373H179.199ZM13.4626 74.5955C16.5534 76.5267 17.9215 80.9597 16.6675 84.5017C15.5004 85.9292 14.5258 86.5159 13.7412 86.5156C10.6036 86.5138 10.5224 77.1228 13.4626 74.5953V74.5955ZM187.322 81.2748C183.693 76.6369 188.003 74.1994 191.717 77.2598C198.571 78.5431 193.973 81.9353 189.95 81.9353C189.03 81.9661 188.119 81.7372 187.322 81.2746V81.2748ZM144.342 41.2765C141.937 34.6295 153.697 39.8958 156.875 40.9206L157.407 42.5641L157.496 44.3061C157.369 47.7477 156.287 48.9969 154.77 48.9969C151.599 48.9962 146.534 43.5399 144.342 41.2763V41.2765ZM-32.5549 37.7655C-38.4728 31.6634 -25.164 26.3403 -21.7545 22.0109C-18.3081 23.9257 -23.9254 34.5796 -26.3087 39.0828C-26.7913 39.2167 -27.2899 39.2838 -27.7907 39.2821C-29.4532 39.2812 -31.0937 38.5839 -32.5549 37.7653V37.7655ZM-22.1783 5.70818C-21.5601 -1.88399 -16.6989 3.57253 -18.623 8.13489C-19.3814 8.98474 -20.2246 9.36647 -20.9424 9.36624C-22.3303 9.3658 -23.2495 7.93831 -22.1783 5.70796V5.70818ZM63.2494 4.16708C63.1493 -0.0886841 65.9213 -4.31677 69.7409 -5.48468C79.9957 -5.13918 71.2177 4.41699 64.8927 4.41655C64.3353 4.4216 63.7807 4.33739 63.2497 4.16708H63.2494ZM-40.2603 -32.7414C-39.4316 -36.9254 -36.6045 -41.1081 -32.8729 -40.7135C-29.0791 -38.1381 -38.7586 -28.0468 -31.218 -25.1423C-32.614 -25.5724 -34.0423 -25.0764 -35.4127 -24.7959C-35.6738 -24.7614 -35.9368 -24.7439 -36.2002 -24.7432C-40.0173 -24.7437 -41.052 -28.7426 -40.2601 -32.7417L-40.2603 -32.7414ZM80.0609 -28.265C74.6756 -30.1222 85.5281 -33.2813 82.008 -27.9604C81.3596 -28.0563 80.703 -28.106 80.0611 -28.2652L80.0609 -28.265ZM197.076 -39.5042C195.724 -42.8458 196.773 -42.1822 198.397 -41.5186C199.315 -41.1432 200.42 -40.7675 201.377 -41.1175C207.506 -40.1579 206.822 -28.6492 200.752 -28.2124C199.629 -32.0122 198.023 -35.639 197.076 -39.5047L197.076 -39.5042ZM34.8869 -60.7974C35.7306 -63.8068 35.7478 -67.0035 36.5769 -70.0157C40.0018 -73.919 41.6592 -69.8583 41.2872 -65.7957C41.0215 -62.8951 39.721 -59.9946 37.2898 -59.9948C36.5848 -59.9946 35.7843 -60.2387 34.8869 -60.7974ZM108.793 -113.335C109.651 -112.963 110.533 -112.646 111.362 -112.186C114.609 -109.987 112.643 -108.778 110.439 -108.778C108.048 -108.778 105.377 -110.203 108.793 -113.335ZM115.575 -137.618C118.22 -146.387 131.909 -141.025 128.698 -132.485C125.027 -135.016 115.9 -131.238 115.575 -137.618ZM21.3187 -135.586C18.827 -141 25.2829 -145.767 29.8675 -144.798C36.4009 -141.266 25.4059 -137.006 23.7057 -133.498C22.6867 -133.847 21.772 -134.493 21.3189 -135.586H21.3187ZM-59.7365 -149.228C-60.375 -151.279 -59.8404 -153.33 -56.6798 -153.276C-55.6549 -151.586 -53.9828 -150.296 -53.5686 -148.219C-53.9655 -146.014 -54.8365 -145.179 -55.8126 -145.18C-57.3315 -145.18 -59.106 -147.204 -59.7365 -149.228V-149.228Z" fill="#1582CF"/>
<path id="SHAPE_4" d="M51.1108 123.906C50.0153 123.431 48.8106 122.405 49.4348 120.797C49.8852 119.643 51.3258 119.231 52.2284 119.623C53.9175 120.353 53.6582 120.814 53.9012 122.73C53.0606 123.417 52.6208 124.085 51.8595 124.085C51.6003 124.078 51.3455 124.017 51.1108 123.906ZM108.122 113.438C111.588 113.078 112.592 107.071 113.835 114.4C112.742 115.857 111.752 116.586 110.866 116.586C109.802 116.585 108.888 115.536 108.122 113.438V113.438ZM65.1871 104.834C63.526 106.674 64.1107 110.679 61.2901 111.294C54.6907 110.065 62.0536 96.829 65.1869 104.833L65.1871 104.834ZM124.915 96.2993C126.109 96.7892 127.331 96.5017 128.335 96.2129C130.277 95.6557 131.406 95.0985 129.956 100.168C128.841 100.709 127.908 100.98 127.158 100.98C125.358 100.98 124.61 99.4194 124.915 96.2988L124.915 96.2993ZM95.7405 97.2094C95.8174 95.9693 96.356 94.4425 97.9937 94.555C99.1684 94.6367 99.9961 95.9405 99.9316 96.9577C99.8107 98.8733 99.322 98.7631 97.6814 99.6152C96.5475 98.8171 95.655 98.6693 95.7403 97.2087L95.7405 97.2094ZM176.963 67.0846L175.381 65.0502L176.995 63.9317L178.718 63.9488L179.569 65.5369L180.072 68.6932L176.963 67.0846ZM154.062 47.3604C153.652 46.2276 154.409 44.9202 155.293 44.5609C156.955 43.8915 157.063 44.4001 158.451 45.5853C158.245 46.9706 158.487 47.8722 157.22 48.3805C156.797 48.5589 156.346 48.6556 155.888 48.6658C155.482 48.6843 155.081 48.5656 154.75 48.3288C154.419 48.092 154.177 47.7507 154.062 47.3593V47.3604ZM175.611 35.5323C175.634 35.4945 175.634 35.4585 175.658 35.4234C178.038 31.8197 179.958 31.0594 181.792 31.3258C183.627 31.5921 185.385 32.8864 187.435 33.3977C192.636 31.8906 193.894 33.4427 193.119 35.5325L175.611 35.5323ZM89.0166 8.46358C90.8428 12.4226 97.6577 11.1197 90.3604 15.6319C85.9485 14.1104 85.5006 11.721 89.0166 8.46358ZM16.7423 11.7766C15.5598 10.8356 14.413 9.19172 15.643 7.45401C16.5279 6.20601 18.3889 6.18713 19.3587 6.95554C21.1753 8.40217 20.7287 8.8714 20.4561 11.2781C19.4225 11.7458 18.7387 12.2931 17.9925 12.2931C17.5289 12.2717 17.0872 12.089 16.7432 11.7761L16.7423 11.7766ZM35.9634 -6.39773C34.7853 -7.33059 33.6427 -8.96099 34.868 -10.6839C35.7497 -11.9211 37.604 -11.9399 38.5697 -11.1787C40.3792 -9.74424 39.9346 -9.27884 39.6622 -6.89239C38.632 -6.42877 37.9513 -5.8862 37.2091 -5.8862C36.7477 -5.90705 36.3079 -6.088 35.9645 -6.39817L35.9634 -6.39773ZM115.163 -7.9575C117.826 -11.3789 113.835 -17.3983 120.806 -12.2625C121.187 -8.80179 120.357 -7.07152 118.316 -7.07167C117.471 -7.07227 116.42 -7.36754 115.163 -7.9575Z" fill="#1559D0"/>
</g>
</g>
</svg>
