<svg width="16" height="17" viewBox="0 0 16 17" fill="none" xmlns="http://www.w3.org/2000/svg">
<g id="flag-03">
<path id="Solid" d="M14.0031 2.02746C13.8092 1.88504 13.5983 1.85552 13.4768 1.84437C13.3575 1.83343 13.2147 1.83347 13.0801 1.8335L2.66982 1.8335C2.66877 1.8335 2.66772 1.8335 2.66667 1.8335C2.29848 1.8335 2 2.13197 2 2.50016V14.5002C2 14.8684 2.29848 15.1668 2.66667 15.1668C3.03486 15.1668 3.33333 14.8684 3.33333 14.5002L3.33333 9.8335L13.0801 9.83351C13.2147 9.83354 13.3575 9.83358 13.4768 9.82263C13.5983 9.81148 13.8092 9.78197 14.0031 9.63954C14.2335 9.47042 14.3804 9.21084 14.407 8.92631C14.4293 8.68671 14.3461 8.49074 14.2932 8.38079C14.2412 8.27291 14.1677 8.15046 14.0984 8.03501L12.7775 5.8335L14.0983 3.63205C14.1677 3.51658 14.2412 3.39412 14.2932 3.28621C14.3461 3.17626 14.4293 2.98029 14.407 2.74069C14.3804 2.45617 14.2335 2.19659 14.0031 2.02746Z" fill="#F79009"/>
</g>
</svg>
