<svg width="337" height="121" viewBox="0 0 337 121" fill="none" xmlns="http://www.w3.org/2000/svg">
    <path
        d="M102.076 41.8559C101.896 41.1325 101.246 40.625 100.5 40.625C99.7543 40.625 99.1044 41.1325 98.9235 41.8559L96.8086 50.3156C96.3682 52.0771 96.2199 52.5872 95.9675 52.9817C95.7141 53.3777 95.3777 53.7141 94.9817 53.9675C94.5872 54.2199 94.0771 54.3682 92.3156 54.8086L83.8559 56.9235C83.1325 57.1044 82.625 57.7543 82.625 58.5C82.625 59.2457 83.1325 59.8956 83.8559 60.0765L92.3156 62.1914C94.0771 62.6318 94.5872 62.7801 94.9817 63.0325C95.3777 63.2859 95.7141 63.6223 95.9675 64.0183C96.2199 64.4128 96.3682 64.9229 96.8086 66.6844L98.9235 75.1441C99.1044 75.8675 99.7543 76.375 100.5 76.375C101.246 76.375 101.896 75.8675 102.076 75.1441L104.191 66.6844C104.632 64.9229 104.78 64.4128 105.033 64.0183C105.286 63.6223 105.622 63.2859 106.018 63.0325C106.413 62.7801 106.923 62.6318 108.684 62.1914L117.144 60.0765C117.868 59.8956 118.375 59.2457 118.375 58.5C118.375 57.7543 117.868 57.1044 117.144 56.9235L108.684 54.8086C106.923 54.3682 106.413 54.2199 106.018 53.9675C105.622 53.7141 105.286 53.3777 105.033 52.9817C104.78 52.5872 104.632 52.0771 104.191 50.3156L102.076 41.8559Z"
        fill="#FAEAC6" />
    <path
        d="M8.6466 28.1716C8.5724 27.8749 8.30575 27.6667 7.99984 27.6667C7.69392 27.6667 7.42727 27.8749 7.35307 28.1716L6.48541 31.6423C6.30474 32.365 6.2439 32.5742 6.14035 32.7361C6.03638 32.8986 5.89839 33.0365 5.73591 33.1405C5.57408 33.2441 5.36482 33.3049 4.64214 33.4856L1.17148 34.3532C0.874702 34.4274 0.666504 34.6941 0.666504 35C0.666504 35.3059 0.874702 35.5726 1.17148 35.6468L4.64214 36.5144C5.36482 36.6951 5.57408 36.7559 5.73591 36.8595C5.89839 36.9635 6.03638 37.1014 6.14035 37.2639C6.2439 37.4258 6.30474 37.635 6.48541 38.3577L7.35308 41.8284C7.42727 42.1251 7.69393 42.3333 7.99984 42.3333C8.30575 42.3333 8.5724 42.1251 8.6466 41.8284L9.51426 38.3577C9.69493 37.635 9.75578 37.4258 9.85932 37.2639C9.96329 37.1014 10.1013 36.9635 10.2638 36.8595C10.4256 36.7559 10.6349 36.6951 11.3575 36.5144L14.8282 35.6468C15.125 35.5726 15.3332 35.3059 15.3332 35C15.3332 34.6941 15.125 34.4274 14.8282 34.3532L11.3575 33.4856C10.6349 33.3049 10.4256 33.2441 10.2638 33.1405C10.1013 33.0365 9.96329 32.8986 9.85932 32.7361C9.75578 32.5742 9.69493 32.365 9.51426 31.6423L8.6466 28.1716Z"
        fill="#FAEAC6" />
    <path
        d="M104.97 107.757C104.859 107.312 104.459 107 104 107C103.541 107 103.141 107.312 103.03 107.757L101.728 112.963C101.457 114.047 101.366 114.361 101.211 114.604C101.055 114.848 100.848 115.055 100.604 115.211C100.361 115.366 100.047 115.457 98.9635 115.728L93.7575 117.03C93.3123 117.141 93 117.541 93 118C93 118.459 93.3123 118.859 93.7575 118.97L98.9635 120.272C100.047 120.543 100.361 120.634 100.604 120.789C100.848 120.945 101.055 121.152 101.211 121.396C101.366 121.639 101.457 121.953 101.728 123.037L103.03 128.243C103.141 128.688 103.541 129 104 129C104.459 129 104.859 128.688 104.97 128.243L106.272 123.037C106.543 121.953 106.634 121.639 106.789 121.396C106.945 121.152 107.152 120.945 107.396 120.789C107.639 120.634 107.953 120.543 109.037 120.272L114.243 118.97C114.688 118.859 115 118.459 115 118C115 117.541 114.688 117.141 114.243 117.03L109.037 115.728C107.953 115.457 107.639 115.366 107.396 115.211C107.152 115.055 106.945 114.848 106.789 114.604C106.634 114.361 106.543 114.047 106.272 112.963L104.97 107.757Z"
        fill="#FAEAC6" />
    <path
        d="M150.591 1.97715C150.466 1.47633 150.016 1.125 149.5 1.125C148.984 1.125 148.534 1.47633 148.409 1.97715L146.944 7.83389C146.64 9.05341 146.537 9.40654 146.362 9.67962C146.187 9.95381 145.954 10.1867 145.68 10.3621C145.407 10.5368 145.053 10.6395 143.834 10.9444L137.977 12.4086C137.476 12.5338 137.125 12.9838 137.125 13.5C137.125 14.0162 137.476 14.4662 137.977 14.5914L143.834 16.0556C145.053 16.3605 145.407 16.4631 145.68 16.6379C145.954 16.8133 146.187 17.0462 146.362 17.3204C146.537 17.5935 146.64 17.9466 146.944 19.1661L148.409 25.0229C148.534 25.5237 148.984 25.875 149.5 25.875C150.016 25.875 150.466 25.5237 150.591 25.0229L152.056 19.1661C152.36 17.9466 152.463 17.5935 152.638 17.3204C152.813 17.0462 153.046 16.8133 153.32 16.6379C153.593 16.4631 153.947 16.3605 155.166 16.0556L161.023 14.5914C161.524 14.4662 161.875 14.0162 161.875 13.5C161.875 12.9838 161.524 12.5338 161.023 12.4086L155.166 10.9444C153.947 10.6395 153.593 10.5368 153.32 10.3621C153.046 10.1867 152.813 9.95381 152.638 9.67962C152.463 9.40654 152.36 9.05341 152.056 7.83389L150.591 1.97715Z"
        fill="#FAEAC6" />
    <path
        d="M295.915 14.563C295.753 13.9138 295.169 13.4583 294.5 13.4583C293.831 13.4583 293.248 13.9138 293.085 14.563L291.187 22.155C290.792 23.7359 290.659 24.1937 290.433 24.5477C290.205 24.9031 289.903 25.2049 289.548 25.4324C289.194 25.6589 288.736 25.792 287.155 26.1872L279.563 28.0852C278.914 28.2475 278.458 28.8308 278.458 29.5C278.458 30.1692 278.914 30.7525 279.563 30.9148L287.155 32.8128C288.736 33.208 289.194 33.3411 289.548 33.5676C289.903 33.7951 290.205 34.0969 290.433 34.4524C290.659 34.8063 290.792 35.2641 291.187 36.845L293.085 44.437C293.248 45.0862 293.831 45.5417 294.5 45.5417C295.169 45.5417 295.753 45.0862 295.915 44.437L297.813 36.845C298.208 35.2641 298.341 34.8063 298.568 34.4524C298.795 34.0969 299.097 33.7951 299.453 33.5676C299.806 33.3411 300.264 33.208 301.845 32.8128L309.437 30.9148C310.086 30.7525 310.542 30.1692 310.542 29.5C310.542 28.8308 310.086 28.2475 309.437 28.0852L301.845 26.1872C300.264 25.792 299.806 25.6589 299.453 25.4324C299.097 25.2049 298.795 24.9031 298.568 24.5477C298.341 24.1937 298.208 23.7359 297.813 22.155L295.915 14.563Z"
        fill="#FAEAC6" />
    <path
        d="M234.268 6.39132C234.18 6.0389 233.863 5.79166 233.5 5.79166C233.137 5.79166 232.82 6.0389 232.732 6.39132L231.701 10.5127C231.487 11.3709 231.415 11.6194 231.292 11.8116C231.168 12.0045 231.004 12.1684 230.811 12.2919C230.619 12.4148 230.371 12.4871 229.513 12.7016L225.391 13.732C225.039 13.8201 224.792 14.1367 224.792 14.5C224.792 14.8633 225.039 15.1799 225.391 15.268L229.513 16.2984C230.371 16.5129 230.619 16.5852 230.811 16.7081C231.004 16.8316 231.168 16.9955 231.292 17.1884C231.415 17.3806 231.487 17.6291 231.701 18.4873L232.732 22.6087C232.82 22.9611 233.137 23.2083 233.5 23.2083C233.863 23.2083 234.18 22.9611 234.268 22.6087L235.298 18.4873C235.513 17.6291 235.585 17.3806 235.708 17.1884C235.831 16.9955 235.995 16.8316 236.188 16.7081C236.38 16.5852 236.629 16.5129 237.487 16.2984L241.609 15.268C241.961 15.1799 242.208 14.8633 242.208 14.5C242.208 14.1367 241.961 13.8201 241.609 13.732L237.487 12.7016C236.629 12.4871 236.38 12.4148 236.188 12.2919C235.995 12.1684 235.831 12.0045 235.708 11.8116C235.585 11.6194 235.513 11.3709 235.298 10.5127L234.268 6.39132Z"
        fill="#FAEAC6" />
    <path
        d="M250.698 73.0756C250.503 72.2965 249.803 71.75 249 71.75C248.197 71.75 247.497 72.2965 247.302 73.0756L245.025 82.186C244.55 84.0831 244.391 84.6324 244.119 85.0572C243.846 85.4837 243.484 85.8459 243.057 86.1188C242.632 86.3907 242.083 86.5504 240.186 87.0246L231.076 89.3022C230.297 89.497 229.75 90.197 229.75 91C229.75 91.803 230.297 92.503 231.076 92.6978L240.186 94.9754C242.083 95.4496 242.632 95.6093 243.057 95.8812C243.484 96.1541 243.846 96.5163 244.119 96.9428C244.391 97.3676 244.55 97.9169 245.025 99.814L247.302 108.924C247.497 109.703 248.197 110.25 249 110.25C249.803 110.25 250.503 109.703 250.698 108.924L252.975 99.814C253.45 97.9169 253.609 97.3676 253.881 96.9428C254.154 96.5163 254.516 96.1541 254.943 95.8812C255.368 95.6093 255.917 95.4496 257.814 94.9754L266.924 92.6978C267.703 92.503 268.25 91.803 268.25 91C268.25 90.197 267.703 89.497 266.924 89.3022L257.814 87.0246C255.917 86.5504 255.368 86.3907 254.943 86.1188C254.516 85.8459 254.154 85.4837 253.881 85.0572C253.609 84.6324 253.45 84.0831 252.975 82.186L250.698 73.0756Z"
        fill="#FAEAC6" />
    <path
        d="M325.97 60.7575C325.859 60.3123 325.459 60 325 60C324.541 60 324.141 60.3123 324.03 60.7575L322.728 65.9635C322.457 67.0475 322.366 67.3614 322.211 67.6041C322.055 67.8478 321.848 68.0548 321.604 68.2108C321.361 68.3661 321.047 68.4574 319.963 68.7284L314.757 70.0299C314.312 70.1411 314 70.5411 314 71C314 71.4589 314.312 71.8589 314.757 71.9701L319.963 73.2716C321.047 73.5426 321.361 73.6339 321.604 73.7892C321.848 73.9452 322.055 74.1522 322.211 74.3959C322.366 74.6386 322.457 74.9525 322.728 76.0365L324.03 81.2425C324.141 81.6877 324.541 82 325 82C325.459 82 325.859 81.6877 325.97 81.2425L327.272 76.0365C327.543 74.9525 327.634 74.6386 327.789 74.3959C327.945 74.1522 328.152 73.9452 328.396 73.7892C328.639 73.6339 328.953 73.5426 330.037 73.2716L335.243 71.9701C335.688 71.8589 336 71.4589 336 71C336 70.5411 335.688 70.1411 335.243 70.0299L330.037 68.7284C328.953 68.4574 328.639 68.3661 328.396 68.2108C328.152 68.0548 327.945 67.8478 327.789 67.6041C327.634 67.3614 327.543 67.0475 327.272 65.9635L325.97 60.7575Z"
        fill="#FAEAC6" />
</svg>